M48
; DRILL file {KiCad 8.0.6} date 2024-11-05T14:38:53+1100
; FORMAT={-:-/ absolute / metric / decimal}
; #@! TF.CreationDate,2024-11-05T14:38:53+11:00
; #@! TF.GenerationSoftware,Kicad,Pcbnew,8.0.6
; #@! TF.FileFunction,Plated,1,2,PTH
FMAT,2
METRIC
; #@! TA.AperFunction,Plated,PTH,ComponentDrill
T1C1.000
%
G90
G05
T1
X3.81Y-13.335
X3.81Y-15.875
X3.81Y-18.415
X3.81Y-20.955
X3.81Y-23.495
X6.35Y-13.335
X6.35Y-15.875
X6.35Y-18.415
X6.35Y-20.955
X6.35Y-23.495
X21.59Y-13.335
X21.59Y-15.875
X21.59Y-18.415
X21.59Y-20.955
X21.59Y-23.495
X24.13Y-13.335
X24.13Y-15.875
X24.13Y-18.415
X24.13Y-20.955
X24.13Y-23.495
X41.91Y-13.335
X41.91Y-15.875
X41.91Y-18.415
X41.91Y-20.955
X41.91Y-23.495
X44.45Y-13.335
X44.45Y-15.875
X44.45Y-18.415
X44.45Y-20.955
X44.45Y-23.495
X59.69Y-13.335
X59.69Y-15.875
X59.69Y-18.415
X59.69Y-20.955
X59.69Y-23.495
X62.23Y-13.335
X62.23Y-15.875
X62.23Y-18.415
X62.23Y-20.955
X62.23Y-23.495
M30
