%TF.GenerationSoftware,KiCad,Pcbnew,8.0.6*%
%TF.CreationDate,2024-11-05T14:38:54+11:00*%
%TF.ProjectId,CherrySwitches_3U15HP5x4,43686572-7279-4537-9769-74636865735f,rev?*%
%TF.SameCoordinates,Original*%
%TF.FileFunction,Drillmap*%
%TF.FilePolarity,Positive*%
%FSLAX45Y45*%
G04 Gerber Fmt 4.5, Leading zero omitted, Abs format (unit mm)*
G04 Created by KiCad (PCBNEW 8.0.6) date 2024-11-05 14:38:54*
%MOMM*%
%LPD*%
G01*
G04 APERTURE LIST*
%ADD10C,0.150000*%
%ADD11C,0.200000*%
%ADD12C,0.100000*%
G04 APERTURE END LIST*
D10*
X0Y-242500D02*
X7620000Y-242500D01*
X7620000Y-13092500D01*
X0Y-13092500D01*
X0Y-242500D01*
X5967500Y-8610000D02*
X7367500Y-8610000D01*
X7367500Y-10010000D01*
X5967500Y-10010000D01*
X5967500Y-8610000D01*
X252497Y-4800000D02*
X1652497Y-4800000D01*
X1652497Y-6200000D01*
X252497Y-6200000D01*
X252497Y-4800000D01*
X5967500Y-2895000D02*
X7367500Y-2895000D01*
X7367500Y-4295000D01*
X5967500Y-4295000D01*
X5967500Y-2895000D01*
X252497Y-10515000D02*
X1652497Y-10515000D01*
X1652497Y-11915000D01*
X252497Y-11915000D01*
X252497Y-10515000D01*
X2157500Y-4800000D02*
X3557500Y-4800000D01*
X3557500Y-6200000D01*
X2157500Y-6200000D01*
X2157500Y-4800000D01*
X4062500Y-8610000D02*
X5462500Y-8610000D01*
X5462500Y-10010000D01*
X4062500Y-10010000D01*
X4062500Y-8610000D01*
X4062500Y-2895000D02*
X5462500Y-2895000D01*
X5462500Y-4295000D01*
X4062500Y-4295000D01*
X4062500Y-2895000D01*
X5967500Y-6705000D02*
X7367500Y-6705000D01*
X7367500Y-8105000D01*
X5967500Y-8105000D01*
X5967500Y-6705000D01*
X2157500Y-10515000D02*
X3557500Y-10515000D01*
X3557500Y-11915000D01*
X2157500Y-11915000D01*
X2157500Y-10515000D01*
X5967500Y-4800000D02*
X7367500Y-4800000D01*
X7367500Y-6200000D01*
X5967500Y-6200000D01*
X5967500Y-4800000D01*
X252497Y-2895000D02*
X1652497Y-2895000D01*
X1652497Y-4295000D01*
X252497Y-4295000D01*
X252497Y-2895000D01*
X252497Y-8610000D02*
X1652497Y-8610000D01*
X1652497Y-10010000D01*
X252497Y-10010000D01*
X252497Y-8610000D01*
X4062500Y-6705000D02*
X5462500Y-6705000D01*
X5462500Y-8105000D01*
X4062500Y-8105000D01*
X4062500Y-6705000D01*
X252497Y-6705000D02*
X1652497Y-6705000D01*
X1652497Y-8105000D01*
X252497Y-8105000D01*
X252497Y-6705000D01*
X5967500Y-10515000D02*
X7367500Y-10515000D01*
X7367500Y-11915000D01*
X5967500Y-11915000D01*
X5967500Y-10515000D01*
X2157500Y-6705000D02*
X3557500Y-6705000D01*
X3557500Y-8105000D01*
X2157500Y-8105000D01*
X2157500Y-6705000D01*
X4062500Y-4800000D02*
X5462500Y-4800000D01*
X5462500Y-6200000D01*
X4062500Y-6200000D01*
X4062500Y-4800000D01*
X4062500Y-10515000D02*
X5462500Y-10515000D01*
X5462500Y-11915000D01*
X4062500Y-11915000D01*
X4062500Y-10515000D01*
X2157500Y-2895000D02*
X3557500Y-2895000D01*
X3557500Y-4295000D01*
X2157500Y-4295000D01*
X2157500Y-2895000D01*
X2157500Y-8610000D02*
X3557500Y-8610000D01*
X3557500Y-10010000D01*
X2157500Y-10010000D01*
X2157500Y-8610000D01*
D11*
D12*
X331000Y-1283500D02*
X431000Y-1383500D01*
X431000Y-1283500D02*
X331000Y-1383500D01*
X331000Y-1537500D02*
X431000Y-1637500D01*
X431000Y-1537500D02*
X331000Y-1637500D01*
X331000Y-1791500D02*
X431000Y-1891500D01*
X431000Y-1791500D02*
X331000Y-1891500D01*
X331000Y-2045500D02*
X431000Y-2145500D01*
X431000Y-2045500D02*
X331000Y-2145500D01*
X331000Y-2299500D02*
X431000Y-2399500D01*
X431000Y-2299500D02*
X331000Y-2399500D01*
X585000Y-1283500D02*
X685000Y-1383500D01*
X685000Y-1283500D02*
X585000Y-1383500D01*
X585000Y-1537500D02*
X685000Y-1637500D01*
X685000Y-1537500D02*
X585000Y-1637500D01*
X585000Y-1791500D02*
X685000Y-1891500D01*
X685000Y-1791500D02*
X585000Y-1891500D01*
X585000Y-2045500D02*
X685000Y-2145500D01*
X685000Y-2045500D02*
X585000Y-2145500D01*
X585000Y-2299500D02*
X685000Y-2399500D01*
X685000Y-2299500D02*
X585000Y-2399500D01*
X2109000Y-1283500D02*
X2209000Y-1383500D01*
X2209000Y-1283500D02*
X2109000Y-1383500D01*
X2109000Y-1537500D02*
X2209000Y-1637500D01*
X2209000Y-1537500D02*
X2109000Y-1637500D01*
X2109000Y-1791500D02*
X2209000Y-1891500D01*
X2209000Y-1791500D02*
X2109000Y-1891500D01*
X2109000Y-2045500D02*
X2209000Y-2145500D01*
X2209000Y-2045500D02*
X2109000Y-2145500D01*
X2109000Y-2299500D02*
X2209000Y-2399500D01*
X2209000Y-2299500D02*
X2109000Y-2399500D01*
X2363000Y-1283500D02*
X2463000Y-1383500D01*
X2463000Y-1283500D02*
X2363000Y-1383500D01*
X2363000Y-1537500D02*
X2463000Y-1637500D01*
X2463000Y-1537500D02*
X2363000Y-1637500D01*
X2363000Y-1791500D02*
X2463000Y-1891500D01*
X2463000Y-1791500D02*
X2363000Y-1891500D01*
X2363000Y-2045500D02*
X2463000Y-2145500D01*
X2463000Y-2045500D02*
X2363000Y-2145500D01*
X2363000Y-2299500D02*
X2463000Y-2399500D01*
X2463000Y-2299500D02*
X2363000Y-2399500D01*
X4141000Y-1283500D02*
X4241000Y-1383500D01*
X4241000Y-1283500D02*
X4141000Y-1383500D01*
X4141000Y-1537500D02*
X4241000Y-1637500D01*
X4241000Y-1537500D02*
X4141000Y-1637500D01*
X4141000Y-1791500D02*
X4241000Y-1891500D01*
X4241000Y-1791500D02*
X4141000Y-1891500D01*
X4141000Y-2045500D02*
X4241000Y-2145500D01*
X4241000Y-2045500D02*
X4141000Y-2145500D01*
X4141000Y-2299500D02*
X4241000Y-2399500D01*
X4241000Y-2299500D02*
X4141000Y-2399500D01*
X4395000Y-1283500D02*
X4495000Y-1383500D01*
X4495000Y-1283500D02*
X4395000Y-1383500D01*
X4395000Y-1537500D02*
X4495000Y-1637500D01*
X4495000Y-1537500D02*
X4395000Y-1637500D01*
X4395000Y-1791500D02*
X4495000Y-1891500D01*
X4495000Y-1791500D02*
X4395000Y-1891500D01*
X4395000Y-2045500D02*
X4495000Y-2145500D01*
X4495000Y-2045500D02*
X4395000Y-2145500D01*
X4395000Y-2299500D02*
X4495000Y-2399500D01*
X4495000Y-2299500D02*
X4395000Y-2399500D01*
X5919000Y-1283500D02*
X6019000Y-1383500D01*
X6019000Y-1283500D02*
X5919000Y-1383500D01*
X5919000Y-1537500D02*
X6019000Y-1637500D01*
X6019000Y-1537500D02*
X5919000Y-1637500D01*
X5919000Y-1791500D02*
X6019000Y-1891500D01*
X6019000Y-1791500D02*
X5919000Y-1891500D01*
X5919000Y-2045500D02*
X6019000Y-2145500D01*
X6019000Y-2045500D02*
X5919000Y-2145500D01*
X5919000Y-2299500D02*
X6019000Y-2399500D01*
X6019000Y-2299500D02*
X5919000Y-2399500D01*
X6173000Y-1283500D02*
X6273000Y-1383500D01*
X6273000Y-1283500D02*
X6173000Y-1383500D01*
X6173000Y-1537500D02*
X6273000Y-1637500D01*
X6273000Y-1537500D02*
X6173000Y-1637500D01*
X6173000Y-1791500D02*
X6273000Y-1891500D01*
X6273000Y-1791500D02*
X6173000Y-1891500D01*
X6173000Y-2045500D02*
X6273000Y-2145500D01*
X6273000Y-2045500D02*
X6173000Y-2145500D01*
X6173000Y-2299500D02*
X6273000Y-2399500D01*
X6273000Y-2299500D02*
X6173000Y-2399500D01*
D11*
X253277Y-13411484D02*
X253277Y-13211484D01*
X253277Y-13211484D02*
X300896Y-13211484D01*
X300896Y-13211484D02*
X329467Y-13221008D01*
X329467Y-13221008D02*
X348515Y-13240055D01*
X348515Y-13240055D02*
X358039Y-13259103D01*
X358039Y-13259103D02*
X367562Y-13297198D01*
X367562Y-13297198D02*
X367562Y-13325769D01*
X367562Y-13325769D02*
X358039Y-13363865D01*
X358039Y-13363865D02*
X348515Y-13382912D01*
X348515Y-13382912D02*
X329467Y-13401960D01*
X329467Y-13401960D02*
X300896Y-13411484D01*
X300896Y-13411484D02*
X253277Y-13411484D01*
X453277Y-13411484D02*
X453277Y-13278150D01*
X453277Y-13316246D02*
X462801Y-13297198D01*
X462801Y-13297198D02*
X472324Y-13287674D01*
X472324Y-13287674D02*
X491372Y-13278150D01*
X491372Y-13278150D02*
X510420Y-13278150D01*
X577086Y-13411484D02*
X577086Y-13278150D01*
X577086Y-13211484D02*
X567563Y-13221008D01*
X567563Y-13221008D02*
X577086Y-13230531D01*
X577086Y-13230531D02*
X586610Y-13221008D01*
X586610Y-13221008D02*
X577086Y-13211484D01*
X577086Y-13211484D02*
X577086Y-13230531D01*
X700896Y-13411484D02*
X681848Y-13401960D01*
X681848Y-13401960D02*
X672324Y-13382912D01*
X672324Y-13382912D02*
X672324Y-13211484D01*
X805658Y-13411484D02*
X786610Y-13401960D01*
X786610Y-13401960D02*
X777086Y-13382912D01*
X777086Y-13382912D02*
X777086Y-13211484D01*
X1034229Y-13411484D02*
X1034229Y-13211484D01*
X1034229Y-13211484D02*
X1100896Y-13354341D01*
X1100896Y-13354341D02*
X1167563Y-13211484D01*
X1167563Y-13211484D02*
X1167563Y-13411484D01*
X1348515Y-13411484D02*
X1348515Y-13306722D01*
X1348515Y-13306722D02*
X1338991Y-13287674D01*
X1338991Y-13287674D02*
X1319944Y-13278150D01*
X1319944Y-13278150D02*
X1281848Y-13278150D01*
X1281848Y-13278150D02*
X1262801Y-13287674D01*
X1348515Y-13401960D02*
X1329467Y-13411484D01*
X1329467Y-13411484D02*
X1281848Y-13411484D01*
X1281848Y-13411484D02*
X1262801Y-13401960D01*
X1262801Y-13401960D02*
X1253277Y-13382912D01*
X1253277Y-13382912D02*
X1253277Y-13363865D01*
X1253277Y-13363865D02*
X1262801Y-13344817D01*
X1262801Y-13344817D02*
X1281848Y-13335293D01*
X1281848Y-13335293D02*
X1329467Y-13335293D01*
X1329467Y-13335293D02*
X1348515Y-13325769D01*
X1443753Y-13278150D02*
X1443753Y-13478150D01*
X1443753Y-13287674D02*
X1462801Y-13278150D01*
X1462801Y-13278150D02*
X1500896Y-13278150D01*
X1500896Y-13278150D02*
X1519943Y-13287674D01*
X1519943Y-13287674D02*
X1529467Y-13297198D01*
X1529467Y-13297198D02*
X1538991Y-13316246D01*
X1538991Y-13316246D02*
X1538991Y-13373388D01*
X1538991Y-13373388D02*
X1529467Y-13392436D01*
X1529467Y-13392436D02*
X1519943Y-13401960D01*
X1519943Y-13401960D02*
X1500896Y-13411484D01*
X1500896Y-13411484D02*
X1462801Y-13411484D01*
X1462801Y-13411484D02*
X1443753Y-13401960D01*
X1624705Y-13392436D02*
X1634229Y-13401960D01*
X1634229Y-13401960D02*
X1624705Y-13411484D01*
X1624705Y-13411484D02*
X1615182Y-13401960D01*
X1615182Y-13401960D02*
X1624705Y-13392436D01*
X1624705Y-13392436D02*
X1624705Y-13411484D01*
X1624705Y-13287674D02*
X1634229Y-13297198D01*
X1634229Y-13297198D02*
X1624705Y-13306722D01*
X1624705Y-13306722D02*
X1615182Y-13297198D01*
X1615182Y-13297198D02*
X1624705Y-13287674D01*
X1624705Y-13287674D02*
X1624705Y-13306722D01*
D12*
X-107500Y-13690000D02*
X-7500Y-13790000D01*
X-7500Y-13690000D02*
X-107500Y-13790000D01*
D11*
X358039Y-13831484D02*
X243753Y-13831484D01*
X300896Y-13831484D02*
X300896Y-13631484D01*
X300896Y-13631484D02*
X281848Y-13660055D01*
X281848Y-13660055D02*
X262801Y-13679103D01*
X262801Y-13679103D02*
X243753Y-13688627D01*
X443753Y-13812436D02*
X453277Y-13821960D01*
X453277Y-13821960D02*
X443753Y-13831484D01*
X443753Y-13831484D02*
X434229Y-13821960D01*
X434229Y-13821960D02*
X443753Y-13812436D01*
X443753Y-13812436D02*
X443753Y-13831484D01*
X577086Y-13631484D02*
X596134Y-13631484D01*
X596134Y-13631484D02*
X615182Y-13641008D01*
X615182Y-13641008D02*
X624705Y-13650531D01*
X624705Y-13650531D02*
X634229Y-13669579D01*
X634229Y-13669579D02*
X643753Y-13707674D01*
X643753Y-13707674D02*
X643753Y-13755293D01*
X643753Y-13755293D02*
X634229Y-13793388D01*
X634229Y-13793388D02*
X624705Y-13812436D01*
X624705Y-13812436D02*
X615182Y-13821960D01*
X615182Y-13821960D02*
X596134Y-13831484D01*
X596134Y-13831484D02*
X577086Y-13831484D01*
X577086Y-13831484D02*
X558039Y-13821960D01*
X558039Y-13821960D02*
X548515Y-13812436D01*
X548515Y-13812436D02*
X538991Y-13793388D01*
X538991Y-13793388D02*
X529467Y-13755293D01*
X529467Y-13755293D02*
X529467Y-13707674D01*
X529467Y-13707674D02*
X538991Y-13669579D01*
X538991Y-13669579D02*
X548515Y-13650531D01*
X548515Y-13650531D02*
X558039Y-13641008D01*
X558039Y-13641008D02*
X577086Y-13631484D01*
X767562Y-13631484D02*
X786610Y-13631484D01*
X786610Y-13631484D02*
X805658Y-13641008D01*
X805658Y-13641008D02*
X815182Y-13650531D01*
X815182Y-13650531D02*
X824705Y-13669579D01*
X824705Y-13669579D02*
X834229Y-13707674D01*
X834229Y-13707674D02*
X834229Y-13755293D01*
X834229Y-13755293D02*
X824705Y-13793388D01*
X824705Y-13793388D02*
X815182Y-13812436D01*
X815182Y-13812436D02*
X805658Y-13821960D01*
X805658Y-13821960D02*
X786610Y-13831484D01*
X786610Y-13831484D02*
X767562Y-13831484D01*
X767562Y-13831484D02*
X748515Y-13821960D01*
X748515Y-13821960D02*
X738991Y-13812436D01*
X738991Y-13812436D02*
X729467Y-13793388D01*
X729467Y-13793388D02*
X719943Y-13755293D01*
X719943Y-13755293D02*
X719943Y-13707674D01*
X719943Y-13707674D02*
X729467Y-13669579D01*
X729467Y-13669579D02*
X738991Y-13650531D01*
X738991Y-13650531D02*
X748515Y-13641008D01*
X748515Y-13641008D02*
X767562Y-13631484D01*
X958039Y-13631484D02*
X977086Y-13631484D01*
X977086Y-13631484D02*
X996134Y-13641008D01*
X996134Y-13641008D02*
X1005658Y-13650531D01*
X1005658Y-13650531D02*
X1015182Y-13669579D01*
X1015182Y-13669579D02*
X1024705Y-13707674D01*
X1024705Y-13707674D02*
X1024705Y-13755293D01*
X1024705Y-13755293D02*
X1015182Y-13793388D01*
X1015182Y-13793388D02*
X1005658Y-13812436D01*
X1005658Y-13812436D02*
X996134Y-13821960D01*
X996134Y-13821960D02*
X977086Y-13831484D01*
X977086Y-13831484D02*
X958039Y-13831484D01*
X958039Y-13831484D02*
X938991Y-13821960D01*
X938991Y-13821960D02*
X929467Y-13812436D01*
X929467Y-13812436D02*
X919943Y-13793388D01*
X919943Y-13793388D02*
X910420Y-13755293D01*
X910420Y-13755293D02*
X910420Y-13707674D01*
X910420Y-13707674D02*
X919943Y-13669579D01*
X919943Y-13669579D02*
X929467Y-13650531D01*
X929467Y-13650531D02*
X938991Y-13641008D01*
X938991Y-13641008D02*
X958039Y-13631484D01*
X1110420Y-13831484D02*
X1110420Y-13698150D01*
X1110420Y-13717198D02*
X1119944Y-13707674D01*
X1119944Y-13707674D02*
X1138991Y-13698150D01*
X1138991Y-13698150D02*
X1167563Y-13698150D01*
X1167563Y-13698150D02*
X1186610Y-13707674D01*
X1186610Y-13707674D02*
X1196134Y-13726722D01*
X1196134Y-13726722D02*
X1196134Y-13831484D01*
X1196134Y-13726722D02*
X1205658Y-13707674D01*
X1205658Y-13707674D02*
X1224705Y-13698150D01*
X1224705Y-13698150D02*
X1253277Y-13698150D01*
X1253277Y-13698150D02*
X1272325Y-13707674D01*
X1272325Y-13707674D02*
X1281848Y-13726722D01*
X1281848Y-13726722D02*
X1281848Y-13831484D01*
X1377086Y-13831484D02*
X1377086Y-13698150D01*
X1377086Y-13717198D02*
X1386610Y-13707674D01*
X1386610Y-13707674D02*
X1405658Y-13698150D01*
X1405658Y-13698150D02*
X1434229Y-13698150D01*
X1434229Y-13698150D02*
X1453277Y-13707674D01*
X1453277Y-13707674D02*
X1462801Y-13726722D01*
X1462801Y-13726722D02*
X1462801Y-13831484D01*
X1462801Y-13726722D02*
X1472324Y-13707674D01*
X1472324Y-13707674D02*
X1491372Y-13698150D01*
X1491372Y-13698150D02*
X1519943Y-13698150D01*
X1519943Y-13698150D02*
X1538991Y-13707674D01*
X1538991Y-13707674D02*
X1548515Y-13726722D01*
X1548515Y-13726722D02*
X1548515Y-13831484D01*
X1938991Y-13621960D02*
X1767563Y-13879103D01*
X2196134Y-13631484D02*
X2215182Y-13631484D01*
X2215182Y-13631484D02*
X2234229Y-13641008D01*
X2234229Y-13641008D02*
X2243753Y-13650531D01*
X2243753Y-13650531D02*
X2253277Y-13669579D01*
X2253277Y-13669579D02*
X2262801Y-13707674D01*
X2262801Y-13707674D02*
X2262801Y-13755293D01*
X2262801Y-13755293D02*
X2253277Y-13793388D01*
X2253277Y-13793388D02*
X2243753Y-13812436D01*
X2243753Y-13812436D02*
X2234229Y-13821960D01*
X2234229Y-13821960D02*
X2215182Y-13831484D01*
X2215182Y-13831484D02*
X2196134Y-13831484D01*
X2196134Y-13831484D02*
X2177087Y-13821960D01*
X2177087Y-13821960D02*
X2167563Y-13812436D01*
X2167563Y-13812436D02*
X2158039Y-13793388D01*
X2158039Y-13793388D02*
X2148515Y-13755293D01*
X2148515Y-13755293D02*
X2148515Y-13707674D01*
X2148515Y-13707674D02*
X2158039Y-13669579D01*
X2158039Y-13669579D02*
X2167563Y-13650531D01*
X2167563Y-13650531D02*
X2177087Y-13641008D01*
X2177087Y-13641008D02*
X2196134Y-13631484D01*
X2348515Y-13812436D02*
X2358039Y-13821960D01*
X2358039Y-13821960D02*
X2348515Y-13831484D01*
X2348515Y-13831484D02*
X2338991Y-13821960D01*
X2338991Y-13821960D02*
X2348515Y-13812436D01*
X2348515Y-13812436D02*
X2348515Y-13831484D01*
X2481848Y-13631484D02*
X2500896Y-13631484D01*
X2500896Y-13631484D02*
X2519944Y-13641008D01*
X2519944Y-13641008D02*
X2529468Y-13650531D01*
X2529468Y-13650531D02*
X2538991Y-13669579D01*
X2538991Y-13669579D02*
X2548515Y-13707674D01*
X2548515Y-13707674D02*
X2548515Y-13755293D01*
X2548515Y-13755293D02*
X2538991Y-13793388D01*
X2538991Y-13793388D02*
X2529468Y-13812436D01*
X2529468Y-13812436D02*
X2519944Y-13821960D01*
X2519944Y-13821960D02*
X2500896Y-13831484D01*
X2500896Y-13831484D02*
X2481848Y-13831484D01*
X2481848Y-13831484D02*
X2462801Y-13821960D01*
X2462801Y-13821960D02*
X2453277Y-13812436D01*
X2453277Y-13812436D02*
X2443753Y-13793388D01*
X2443753Y-13793388D02*
X2434229Y-13755293D01*
X2434229Y-13755293D02*
X2434229Y-13707674D01*
X2434229Y-13707674D02*
X2443753Y-13669579D01*
X2443753Y-13669579D02*
X2453277Y-13650531D01*
X2453277Y-13650531D02*
X2462801Y-13641008D01*
X2462801Y-13641008D02*
X2481848Y-13631484D01*
X2615182Y-13631484D02*
X2738991Y-13631484D01*
X2738991Y-13631484D02*
X2672325Y-13707674D01*
X2672325Y-13707674D02*
X2700896Y-13707674D01*
X2700896Y-13707674D02*
X2719944Y-13717198D01*
X2719944Y-13717198D02*
X2729468Y-13726722D01*
X2729468Y-13726722D02*
X2738991Y-13745769D01*
X2738991Y-13745769D02*
X2738991Y-13793388D01*
X2738991Y-13793388D02*
X2729468Y-13812436D01*
X2729468Y-13812436D02*
X2719944Y-13821960D01*
X2719944Y-13821960D02*
X2700896Y-13831484D01*
X2700896Y-13831484D02*
X2643753Y-13831484D01*
X2643753Y-13831484D02*
X2624706Y-13821960D01*
X2624706Y-13821960D02*
X2615182Y-13812436D01*
X2834229Y-13831484D02*
X2872325Y-13831484D01*
X2872325Y-13831484D02*
X2891372Y-13821960D01*
X2891372Y-13821960D02*
X2900896Y-13812436D01*
X2900896Y-13812436D02*
X2919944Y-13783865D01*
X2919944Y-13783865D02*
X2929467Y-13745769D01*
X2929467Y-13745769D02*
X2929467Y-13669579D01*
X2929467Y-13669579D02*
X2919944Y-13650531D01*
X2919944Y-13650531D02*
X2910420Y-13641008D01*
X2910420Y-13641008D02*
X2891372Y-13631484D01*
X2891372Y-13631484D02*
X2853277Y-13631484D01*
X2853277Y-13631484D02*
X2834229Y-13641008D01*
X2834229Y-13641008D02*
X2824706Y-13650531D01*
X2824706Y-13650531D02*
X2815182Y-13669579D01*
X2815182Y-13669579D02*
X2815182Y-13717198D01*
X2815182Y-13717198D02*
X2824706Y-13736246D01*
X2824706Y-13736246D02*
X2834229Y-13745769D01*
X2834229Y-13745769D02*
X2853277Y-13755293D01*
X2853277Y-13755293D02*
X2891372Y-13755293D01*
X2891372Y-13755293D02*
X2910420Y-13745769D01*
X2910420Y-13745769D02*
X2919944Y-13736246D01*
X2919944Y-13736246D02*
X2929467Y-13717198D01*
X3100896Y-13698150D02*
X3100896Y-13831484D01*
X3053277Y-13621960D02*
X3005658Y-13764817D01*
X3005658Y-13764817D02*
X3129467Y-13764817D01*
X3196134Y-13631484D02*
X3196134Y-13669579D01*
X3272325Y-13631484D02*
X3272325Y-13669579D01*
X3567563Y-13907674D02*
X3558039Y-13898150D01*
X3558039Y-13898150D02*
X3538991Y-13869579D01*
X3538991Y-13869579D02*
X3529468Y-13850531D01*
X3529468Y-13850531D02*
X3519944Y-13821960D01*
X3519944Y-13821960D02*
X3510420Y-13774341D01*
X3510420Y-13774341D02*
X3510420Y-13736246D01*
X3510420Y-13736246D02*
X3519944Y-13688627D01*
X3519944Y-13688627D02*
X3529468Y-13660055D01*
X3529468Y-13660055D02*
X3538991Y-13641008D01*
X3538991Y-13641008D02*
X3558039Y-13612436D01*
X3558039Y-13612436D02*
X3567563Y-13602912D01*
X3729468Y-13698150D02*
X3729468Y-13831484D01*
X3681848Y-13621960D02*
X3634229Y-13764817D01*
X3634229Y-13764817D02*
X3758039Y-13764817D01*
X3872325Y-13631484D02*
X3891372Y-13631484D01*
X3891372Y-13631484D02*
X3910420Y-13641008D01*
X3910420Y-13641008D02*
X3919944Y-13650531D01*
X3919944Y-13650531D02*
X3929468Y-13669579D01*
X3929468Y-13669579D02*
X3938991Y-13707674D01*
X3938991Y-13707674D02*
X3938991Y-13755293D01*
X3938991Y-13755293D02*
X3929468Y-13793388D01*
X3929468Y-13793388D02*
X3919944Y-13812436D01*
X3919944Y-13812436D02*
X3910420Y-13821960D01*
X3910420Y-13821960D02*
X3891372Y-13831484D01*
X3891372Y-13831484D02*
X3872325Y-13831484D01*
X3872325Y-13831484D02*
X3853277Y-13821960D01*
X3853277Y-13821960D02*
X3843753Y-13812436D01*
X3843753Y-13812436D02*
X3834229Y-13793388D01*
X3834229Y-13793388D02*
X3824706Y-13755293D01*
X3824706Y-13755293D02*
X3824706Y-13707674D01*
X3824706Y-13707674D02*
X3834229Y-13669579D01*
X3834229Y-13669579D02*
X3843753Y-13650531D01*
X3843753Y-13650531D02*
X3853277Y-13641008D01*
X3853277Y-13641008D02*
X3872325Y-13631484D01*
X4177087Y-13831484D02*
X4177087Y-13631484D01*
X4262801Y-13831484D02*
X4262801Y-13726722D01*
X4262801Y-13726722D02*
X4253277Y-13707674D01*
X4253277Y-13707674D02*
X4234230Y-13698150D01*
X4234230Y-13698150D02*
X4205658Y-13698150D01*
X4205658Y-13698150D02*
X4186610Y-13707674D01*
X4186610Y-13707674D02*
X4177087Y-13717198D01*
X4386611Y-13831484D02*
X4367563Y-13821960D01*
X4367563Y-13821960D02*
X4358039Y-13812436D01*
X4358039Y-13812436D02*
X4348515Y-13793388D01*
X4348515Y-13793388D02*
X4348515Y-13736246D01*
X4348515Y-13736246D02*
X4358039Y-13717198D01*
X4358039Y-13717198D02*
X4367563Y-13707674D01*
X4367563Y-13707674D02*
X4386611Y-13698150D01*
X4386611Y-13698150D02*
X4415182Y-13698150D01*
X4415182Y-13698150D02*
X4434230Y-13707674D01*
X4434230Y-13707674D02*
X4443753Y-13717198D01*
X4443753Y-13717198D02*
X4453277Y-13736246D01*
X4453277Y-13736246D02*
X4453277Y-13793388D01*
X4453277Y-13793388D02*
X4443753Y-13812436D01*
X4443753Y-13812436D02*
X4434230Y-13821960D01*
X4434230Y-13821960D02*
X4415182Y-13831484D01*
X4415182Y-13831484D02*
X4386611Y-13831484D01*
X4567563Y-13831484D02*
X4548515Y-13821960D01*
X4548515Y-13821960D02*
X4538992Y-13802912D01*
X4538992Y-13802912D02*
X4538992Y-13631484D01*
X4719944Y-13821960D02*
X4700896Y-13831484D01*
X4700896Y-13831484D02*
X4662801Y-13831484D01*
X4662801Y-13831484D02*
X4643753Y-13821960D01*
X4643753Y-13821960D02*
X4634230Y-13802912D01*
X4634230Y-13802912D02*
X4634230Y-13726722D01*
X4634230Y-13726722D02*
X4643753Y-13707674D01*
X4643753Y-13707674D02*
X4662801Y-13698150D01*
X4662801Y-13698150D02*
X4700896Y-13698150D01*
X4700896Y-13698150D02*
X4719944Y-13707674D01*
X4719944Y-13707674D02*
X4729468Y-13726722D01*
X4729468Y-13726722D02*
X4729468Y-13745769D01*
X4729468Y-13745769D02*
X4634230Y-13764817D01*
X4805658Y-13821960D02*
X4824706Y-13831484D01*
X4824706Y-13831484D02*
X4862801Y-13831484D01*
X4862801Y-13831484D02*
X4881849Y-13821960D01*
X4881849Y-13821960D02*
X4891373Y-13802912D01*
X4891373Y-13802912D02*
X4891373Y-13793388D01*
X4891373Y-13793388D02*
X4881849Y-13774341D01*
X4881849Y-13774341D02*
X4862801Y-13764817D01*
X4862801Y-13764817D02*
X4834230Y-13764817D01*
X4834230Y-13764817D02*
X4815182Y-13755293D01*
X4815182Y-13755293D02*
X4805658Y-13736246D01*
X4805658Y-13736246D02*
X4805658Y-13726722D01*
X4805658Y-13726722D02*
X4815182Y-13707674D01*
X4815182Y-13707674D02*
X4834230Y-13698150D01*
X4834230Y-13698150D02*
X4862801Y-13698150D01*
X4862801Y-13698150D02*
X4881849Y-13707674D01*
X4958039Y-13907674D02*
X4967563Y-13898150D01*
X4967563Y-13898150D02*
X4986611Y-13869579D01*
X4986611Y-13869579D02*
X4996134Y-13850531D01*
X4996134Y-13850531D02*
X5005658Y-13821960D01*
X5005658Y-13821960D02*
X5015182Y-13774341D01*
X5015182Y-13774341D02*
X5015182Y-13736246D01*
X5015182Y-13736246D02*
X5005658Y-13688627D01*
X5005658Y-13688627D02*
X4996134Y-13660055D01*
X4996134Y-13660055D02*
X4986611Y-13641008D01*
X4986611Y-13641008D02*
X4967563Y-13612436D01*
X4967563Y-13612436D02*
X4958039Y-13602912D01*
M02*
