%TF.GenerationSoftware,KiCad,Pcbnew,8.0.6*%
%TF.CreationDate,2024-11-05T14:38:24+11:00*%
%TF.ProjectId,CherrySwitches_3U15HP5x4,43686572-7279-4537-9769-74636865735f,rev?*%
%TF.SameCoordinates,Original*%
%TF.FileFunction,Legend,Bot*%
%TF.FilePolarity,Positive*%
%FSLAX46Y46*%
G04 Gerber Fmt 4.6, Leading zero omitted, Abs format (unit mm)*
G04 Created by KiCad (PCBNEW 8.0.6) date 2024-11-05 14:38:24*
%MOMM*%
%LPD*%
G01*
G04 APERTURE LIST*
%ADD10C,0.300000*%
%ADD11O,4.800000X3.200000*%
%ADD12R,1.700000X1.700000*%
%ADD13O,1.700000X1.700000*%
G04 APERTURE END LIST*
D10*
G36*
X73474568Y-24896938D02*
G01*
X73478964Y-24927346D01*
X73493252Y-24966547D01*
X73510471Y-25000619D01*
X73526958Y-25034324D01*
X73539780Y-25053742D01*
X73559930Y-25084150D01*
X73581180Y-25115657D01*
X73595468Y-25136540D01*
X73605726Y-25150828D01*
X73621113Y-25168780D01*
X73635035Y-25185633D01*
X73644561Y-25195891D01*
X73816752Y-25365151D01*
X73834704Y-25378341D01*
X73847893Y-25387500D01*
X73858884Y-25397025D01*
X73880133Y-25409848D01*
X73897718Y-25422304D01*
X73920799Y-25434761D01*
X73939117Y-25438424D01*
X73957436Y-25447217D01*
X73984913Y-25451247D01*
X74005429Y-25455643D01*
X74047195Y-25455643D01*
X74085297Y-25455643D01*
X74110942Y-25451613D01*
X74136588Y-25447217D01*
X74165531Y-25433662D01*
X74201801Y-25415343D01*
X74234407Y-25398491D01*
X74257488Y-25387500D01*
X74275440Y-25367350D01*
X74308413Y-25335110D01*
X74344683Y-25299939D01*
X74371427Y-25272095D01*
X74385349Y-25253410D01*
X74399637Y-25231062D01*
X74413926Y-25196624D01*
X74430778Y-25162918D01*
X74443967Y-25126648D01*
X74457157Y-25091111D01*
X74457157Y-25065465D01*
X74458256Y-25028463D01*
X74459721Y-24990361D01*
X74452760Y-24972409D01*
X74478039Y-24980103D01*
X74508081Y-24977538D01*
X74535192Y-24966547D01*
X74561570Y-24950793D01*
X74591246Y-24922217D01*
X74623120Y-24891442D01*
X74647300Y-24844181D01*
X74647300Y-24826962D01*
X74647300Y-24811941D01*
X74639606Y-24798752D01*
X74630080Y-24786662D01*
X74621654Y-24776404D01*
X74609930Y-24770176D01*
X74596009Y-24764314D01*
X74583919Y-24761017D01*
X74565234Y-24750392D01*
X74548015Y-24739768D01*
X74516874Y-24710458D01*
X74466682Y-24660633D01*
X74413559Y-24609342D01*
X74373992Y-24580399D01*
X74370328Y-24563180D01*
X74348346Y-24536802D01*
X74326731Y-24511156D01*
X74313908Y-24494304D01*
X74296689Y-24477084D01*
X74272143Y-24453637D01*
X74248329Y-24431655D01*
X74231110Y-24415902D01*
X74216089Y-24407475D01*
X74195572Y-24401247D01*
X74182017Y-24408208D01*
X74173224Y-24412604D01*
X74167362Y-24414070D01*
X74155272Y-24417001D01*
X74148311Y-24421031D01*
X74135122Y-24426526D01*
X74121933Y-24440814D01*
X74105447Y-24458400D01*
X74087861Y-24474886D01*
X74075771Y-24485877D01*
X74063681Y-24510057D01*
X74052324Y-24537168D01*
X74052324Y-24555853D01*
X74052324Y-24577468D01*
X74065147Y-24596153D01*
X74083465Y-24619234D01*
X74101050Y-24642315D01*
X74111675Y-24658068D01*
X74138786Y-24695804D01*
X74159302Y-24725113D01*
X74174323Y-24755155D01*
X74189344Y-24791791D01*
X74201801Y-24825130D01*
X74213891Y-24856638D01*
X74213891Y-24860668D01*
X74098852Y-24860668D01*
X74098852Y-24904632D01*
X74224515Y-24904632D01*
X74224882Y-24903166D01*
X74202533Y-24911592D01*
X74172491Y-24922583D01*
X74151609Y-24943466D01*
X74179086Y-24961052D01*
X74193741Y-24969844D01*
X74229644Y-24975340D01*
X74253092Y-24980469D01*
X74256389Y-25003916D01*
X74260419Y-25033958D01*
X74260419Y-25101369D01*
X74260419Y-25158156D01*
X74254923Y-25169879D01*
X74244299Y-25191495D01*
X74234041Y-25215308D01*
X74224882Y-25235092D01*
X74217188Y-25242786D01*
X74206563Y-25248648D01*
X74198870Y-25253410D01*
X74139885Y-25253410D01*
X74087861Y-25253410D01*
X74075039Y-25244984D01*
X74061117Y-25236924D01*
X74050126Y-25231428D01*
X74029609Y-25220438D01*
X74015321Y-25208348D01*
X73999934Y-25196990D01*
X73980517Y-25179405D01*
X73959634Y-25161087D01*
X73943147Y-25148630D01*
X73929226Y-25137273D01*
X73906877Y-25113826D01*
X73881598Y-25088913D01*
X73862914Y-25072426D01*
X73851923Y-25059604D01*
X73831773Y-25036523D01*
X73811623Y-25012343D01*
X73800632Y-24993292D01*
X73780115Y-24970211D01*
X73760332Y-24948962D01*
X73751173Y-24934673D01*
X73738716Y-24913058D01*
X73726626Y-24891442D01*
X73717833Y-24877154D01*
X73702446Y-24848211D01*
X73685960Y-24813407D01*
X73681563Y-24804614D01*
X73677900Y-24795455D01*
X73674236Y-24784830D01*
X73674236Y-24742699D01*
X73674236Y-24705696D01*
X73672038Y-24706428D01*
X73681930Y-24703498D01*
X73699882Y-24695438D01*
X73720398Y-24689576D01*
X73743845Y-24686645D01*
X73759965Y-24681149D01*
X73784145Y-24676387D01*
X73808692Y-24673456D01*
X73823713Y-24672357D01*
X73848992Y-24667227D01*
X73868409Y-24662098D01*
X73888926Y-24655504D01*
X73899184Y-24642315D01*
X73913838Y-24635720D01*
X73935820Y-24614837D01*
X73955970Y-24595420D01*
X73970991Y-24581132D01*
X73976853Y-24567943D01*
X73976120Y-24551456D01*
X73984547Y-24546327D01*
X73989676Y-24539000D01*
X73999934Y-24515553D01*
X73981249Y-24494670D01*
X73961466Y-24482580D01*
X73919334Y-24482580D01*
X73881232Y-24482580D01*
X73849725Y-24486610D01*
X73804295Y-24490640D01*
X73781947Y-24500165D01*
X73762163Y-24507126D01*
X73735785Y-24516652D01*
X73707942Y-24527643D01*
X73678266Y-24539733D01*
X73658849Y-24557685D01*
X73640164Y-24560982D01*
X73618182Y-24574537D01*
X73594735Y-24593955D01*
X73572387Y-24611174D01*
X73552969Y-24629492D01*
X73533919Y-24652207D01*
X73513036Y-24678585D01*
X73508639Y-24688477D01*
X73503144Y-24696170D01*
X73494718Y-24708260D01*
X73488123Y-24721083D01*
X73480429Y-24739401D01*
X73472736Y-24758086D01*
X73476033Y-24769443D01*
X73466141Y-24779701D01*
X73463577Y-24784464D01*
X73440129Y-24794356D01*
X73428772Y-24804248D01*
X73422544Y-24828428D01*
X73445258Y-24830992D01*
X73461012Y-24838686D01*
X73460646Y-24830992D01*
X73460646Y-24834290D01*
X73459547Y-24835755D01*
X73413018Y-24835755D01*
X73338844Y-24835755D01*
X73330586Y-24835755D01*
X73255291Y-24835755D01*
X73248154Y-24835755D01*
X73195032Y-24835755D01*
X73156930Y-24841617D01*
X73109669Y-24847479D01*
X73078161Y-24859569D01*
X73055447Y-24865064D01*
X73041525Y-24874956D01*
X73034198Y-24890710D01*
X73474568Y-24896938D01*
G37*
G36*
X74887635Y-24548525D02*
G01*
X74898992Y-24543396D01*
X74914379Y-24540099D01*
X74931598Y-24522880D01*
X74946986Y-24517384D01*
X74968235Y-24497234D01*
X74987286Y-24478916D01*
X75000108Y-24458400D01*
X75003039Y-24438616D01*
X75016595Y-24430923D01*
X75027586Y-24407109D01*
X75027586Y-24397217D01*
X75027586Y-24388058D01*
X74997544Y-24356184D01*
X74982523Y-24348857D01*
X74971166Y-24344827D01*
X74937460Y-24336034D01*
X74901556Y-24330905D01*
X74851731Y-24330905D01*
X74775766Y-24330905D01*
X74750248Y-24330905D01*
X74676186Y-24330905D01*
X74622387Y-24330905D01*
X74548803Y-24330905D01*
X74495258Y-24330905D01*
X74421947Y-24330905D01*
X74393775Y-24330905D01*
X74351644Y-24338232D01*
X74366665Y-24332004D01*
X74387181Y-24308923D01*
X74407331Y-24283644D01*
X74419055Y-24266791D01*
X74432244Y-24251038D01*
X74447997Y-24230155D01*
X74453127Y-24216233D01*
X74458622Y-24199747D01*
X74460087Y-24193518D01*
X74464117Y-24184726D01*
X74471445Y-24170438D01*
X74471445Y-24123177D01*
X74471445Y-24082510D01*
X74446166Y-24033051D01*
X74416856Y-24001544D01*
X74387181Y-23973700D01*
X74358605Y-23955748D01*
X74326364Y-23939994D01*
X74312076Y-23933033D01*
X74288263Y-23922409D01*
X74262617Y-23911784D01*
X74240635Y-23903724D01*
X74225248Y-23898962D01*
X74197404Y-23888337D01*
X74163699Y-23878812D01*
X74139519Y-23872950D01*
X74125230Y-23866722D01*
X74102516Y-23858295D01*
X74079069Y-23850602D01*
X74059651Y-23846938D01*
X74020084Y-23838878D01*
X73950841Y-23820926D01*
X73881232Y-23802241D01*
X73840932Y-23790151D01*
X73827010Y-23786121D01*
X73803196Y-23779160D01*
X73776818Y-23772566D01*
X73762896Y-23772200D01*
X73736518Y-23761941D01*
X73711972Y-23758644D01*
X73705377Y-23758644D01*
X73703545Y-23758644D01*
X73677533Y-23766704D01*
X73647858Y-23779893D01*
X73630639Y-23791251D01*
X73613786Y-23802608D01*
X73606092Y-23808470D01*
X73598765Y-23824223D01*
X73590339Y-23837046D01*
X73581180Y-23850235D01*
X73572387Y-23881010D01*
X73563594Y-23885040D01*
X73560663Y-23902625D01*
X73563594Y-23922409D01*
X73569456Y-23928271D01*
X73572753Y-23939262D01*
X73574585Y-23942925D01*
X73587041Y-23952451D01*
X73596933Y-23955748D01*
X73610489Y-23963075D01*
X73626242Y-23967472D01*
X73644194Y-23971502D01*
X73693653Y-23986156D01*
X73766451Y-24004085D01*
X73780848Y-24007405D01*
X73852698Y-24024670D01*
X73868043Y-24028655D01*
X73917502Y-24040745D01*
X73956703Y-24053567D01*
X73998102Y-24066390D01*
X74018252Y-24072985D01*
X74047928Y-24082144D01*
X74079069Y-24093135D01*
X74103615Y-24098996D01*
X74127062Y-24108888D01*
X74157837Y-24124276D01*
X74156738Y-24123177D01*
X74169194Y-24126474D01*
X74177254Y-24133801D01*
X74194473Y-24146624D01*
X74217554Y-24146257D01*
X74034006Y-24134534D01*
X74079801Y-24167873D01*
X74113140Y-24179963D01*
X74140984Y-24182528D01*
X74182017Y-24185092D01*
X74223416Y-24187290D01*
X74246497Y-24189122D01*
X74259320Y-24193885D01*
X74262983Y-24201212D01*
X74271043Y-24215500D01*
X74283500Y-24219164D01*
X74268479Y-24223194D01*
X74257854Y-24236383D01*
X74223782Y-24246641D01*
X74192275Y-24253602D01*
X73646392Y-24253602D01*
X73621113Y-24259098D01*
X73594735Y-24268257D01*
X73570189Y-24278881D01*
X73545642Y-24293902D01*
X73517799Y-24320647D01*
X73486658Y-24352521D01*
X73473835Y-24371205D01*
X73463210Y-24392821D01*
X73463210Y-24422130D01*
X73463210Y-24453271D01*
X73475667Y-24469024D01*
X73489588Y-24475619D01*
X73502411Y-24483679D01*
X73528423Y-24488075D01*
X73553336Y-24492105D01*
X73598765Y-24497601D01*
X73645293Y-24502730D01*
X73684861Y-24508225D01*
X73743845Y-24513354D01*
X73801364Y-24516285D01*
X73839100Y-24517384D01*
X73888559Y-24518484D01*
X73962851Y-24520126D01*
X73975021Y-24520315D01*
X74049863Y-24521558D01*
X74080900Y-24522147D01*
X74155030Y-24523658D01*
X74186780Y-24524345D01*
X74261210Y-24526200D01*
X74272875Y-24526544D01*
X74321602Y-24527643D01*
X74362635Y-24528742D01*
X74438609Y-24530305D01*
X74451295Y-24530574D01*
X74526637Y-24532085D01*
X74563402Y-24532772D01*
X74639587Y-24534214D01*
X74676975Y-24534970D01*
X74751932Y-24537240D01*
X74766002Y-24537901D01*
X74803371Y-24535336D01*
X74810698Y-24542297D01*
X74810698Y-24540465D01*
X74815094Y-24540099D01*
X74825719Y-24548525D01*
X74857226Y-24548525D01*
X74887635Y-24548525D01*
G37*
G36*
X74378022Y-22910511D02*
G01*
X74400736Y-22925532D01*
X74425283Y-22948246D01*
X74444700Y-22972426D01*
X74460454Y-22986715D01*
X74474376Y-23009796D01*
X74483535Y-23030312D01*
X74497090Y-23058888D01*
X74509547Y-23086732D01*
X74518339Y-23104317D01*
X74530429Y-23139122D01*
X74540321Y-23174659D01*
X74545817Y-23199572D01*
X74556808Y-23228881D01*
X74560838Y-23273211D01*
X74565234Y-23302887D01*
X74565234Y-23365902D01*
X74565234Y-23426718D01*
X74560838Y-23448334D01*
X74556808Y-23477643D01*
X74545084Y-23495595D01*
X74539955Y-23510615D01*
X74524201Y-23545786D01*
X74506616Y-23583522D01*
X74482069Y-23616495D01*
X74464850Y-23645071D01*
X74443967Y-23661191D01*
X74431511Y-23680975D01*
X74410628Y-23702590D01*
X74389013Y-23715413D01*
X74366298Y-23732266D01*
X74350178Y-23745455D01*
X74331860Y-23757911D01*
X74313542Y-23765971D01*
X74292659Y-23775497D01*
X74273242Y-23780626D01*
X74272143Y-23789052D01*
X74228912Y-23804073D01*
X74188245Y-23816163D01*
X74157837Y-23820193D01*
X74129627Y-23824590D01*
X74071741Y-23824590D01*
X74013856Y-23824590D01*
X73979784Y-23820193D01*
X73945346Y-23816163D01*
X73905412Y-23804073D01*
X73868775Y-23790518D01*
X73858884Y-23783923D01*
X73838734Y-23775497D01*
X73816752Y-23765605D01*
X73801364Y-23756812D01*
X73783779Y-23745455D01*
X73766560Y-23733731D01*
X73740548Y-23715047D01*
X73714903Y-23702224D01*
X73694386Y-23672548D01*
X73665443Y-23649101D01*
X73655551Y-23626020D01*
X73636867Y-23604405D01*
X73624044Y-23587552D01*
X73611221Y-23573630D01*
X73596567Y-23543955D01*
X73588873Y-23522705D01*
X73584110Y-23509516D01*
X73576417Y-23488267D01*
X73568357Y-23467018D01*
X73565060Y-23452364D01*
X73559930Y-23433679D01*
X73552603Y-23405103D01*
X73545276Y-23377259D01*
X73546375Y-23363337D01*
X73408988Y-23367367D01*
X73388472Y-23332562D01*
X73411275Y-23320748D01*
X73403493Y-23320472D01*
X73341944Y-23317542D01*
X73301644Y-23314611D01*
X73269037Y-23309848D01*
X73204923Y-23278341D01*
X73252551Y-23276142D01*
X73263542Y-23273578D01*
X73293217Y-23262220D01*
X73321427Y-23258923D01*
X73366856Y-23253428D01*
X73437565Y-23250130D01*
X73506808Y-23249031D01*
X73547474Y-23255260D01*
X73545642Y-23244269D01*
X73550771Y-23232545D01*
X73566159Y-23206533D01*
X73576050Y-23177957D01*
X73588140Y-23153777D01*
X73599498Y-23131062D01*
X73613786Y-23109813D01*
X73630272Y-23098089D01*
X73641996Y-23080870D01*
X73666909Y-23056690D01*
X73691089Y-23032876D01*
X73710872Y-23023717D01*
X73720398Y-23006865D01*
X73742746Y-22994408D01*
X73757767Y-22984516D01*
X73780482Y-22972426D01*
X73802097Y-22962535D01*
X73815653Y-22957772D01*
X73841665Y-22953375D01*
X73871706Y-22945315D01*
X73915304Y-22945315D01*
X73956703Y-22945315D01*
X73990042Y-22952643D01*
X74014955Y-22960703D01*
X74031441Y-22968763D01*
X74049393Y-22987081D01*
X74049393Y-23002102D01*
X74049393Y-23012726D01*
X74034739Y-23040570D01*
X74020084Y-23063285D01*
X73960000Y-23117507D01*
X73949742Y-23121170D01*
X73936919Y-23125200D01*
X73938385Y-23125200D01*
X73927027Y-23129963D01*
X73913838Y-23134359D01*
X73897718Y-23138756D01*
X73763263Y-23138756D01*
X73757034Y-23144984D01*
X73751173Y-23166599D01*
X73744578Y-23190047D01*
X73744578Y-23224119D01*
X73744578Y-23251962D01*
X73751905Y-23285668D01*
X73759965Y-23324869D01*
X73765461Y-23341355D01*
X73770956Y-23357475D01*
X73785244Y-23387883D01*
X73801731Y-23419757D01*
X73811989Y-23439174D01*
X73823713Y-23447967D01*
X73844229Y-23471781D01*
X73872073Y-23499625D01*
X73900649Y-23527468D01*
X73914205Y-23545786D01*
X73932157Y-23552747D01*
X73955237Y-23567036D01*
X73988577Y-23583888D01*
X74020817Y-23599276D01*
X74037669Y-23604405D01*
X74049759Y-23616861D01*
X74042432Y-23604405D01*
X74042432Y-23585720D01*
X74036204Y-23559708D01*
X74030342Y-23508417D01*
X74028144Y-23456394D01*
X74025946Y-23425253D01*
X74025946Y-23368100D01*
X74025946Y-23310947D01*
X74028144Y-23290064D01*
X74030342Y-23254893D01*
X74032540Y-23218990D01*
X74034739Y-23196275D01*
X74039501Y-23174293D01*
X74047928Y-23151212D01*
X74050464Y-23140221D01*
X74231476Y-23140221D01*
X74231476Y-23248299D01*
X74231476Y-23401073D01*
X74236972Y-23444670D01*
X74247963Y-23491931D01*
X74254191Y-23506952D01*
X74260419Y-23526369D01*
X74260419Y-23550183D01*
X74260419Y-23582789D01*
X74261518Y-23613930D01*
X74255290Y-23628951D01*
X74256389Y-23626387D01*
X74269212Y-23615396D01*
X74285332Y-23610999D01*
X74307680Y-23598177D01*
X74331127Y-23593414D01*
X74338088Y-23581690D01*
X74334058Y-23582789D01*
X74336989Y-23580225D01*
X74348346Y-23557144D01*
X74361902Y-23535528D01*
X74361902Y-23452364D01*
X74361902Y-23367733D01*
X74356040Y-23345385D01*
X74345049Y-23313511D01*
X74342484Y-23299956D01*
X74335524Y-23280172D01*
X74327830Y-23257824D01*
X74324166Y-23244269D01*
X74316839Y-23225584D01*
X74303650Y-23198107D01*
X74290827Y-23173927D01*
X74283500Y-23162936D01*
X74254923Y-23131428D01*
X74238803Y-23107248D01*
X74231476Y-23140221D01*
X74050464Y-23140221D01*
X74052324Y-23132161D01*
X74056720Y-23113843D01*
X74065147Y-23094059D01*
X74076504Y-23072077D01*
X74089327Y-23050096D01*
X74103249Y-23047165D01*
X74110210Y-23022252D01*
X74128161Y-22994408D01*
X74149411Y-22976090D01*
X74168461Y-22959237D01*
X74193008Y-22940919D01*
X74214257Y-22926997D01*
X74228179Y-22917838D01*
X74242467Y-22914907D01*
X74249428Y-22909412D01*
X74262983Y-22903184D01*
X74279470Y-22898421D01*
X74319037Y-22898421D01*
X74350545Y-22898421D01*
X74378022Y-22910511D01*
G37*
G36*
X73576783Y-22762866D02*
G01*
X73564693Y-22759935D01*
X73561396Y-22761034D01*
X73528057Y-22770193D01*
X73451639Y-22774951D01*
X73448189Y-22774956D01*
X73512303Y-22808295D01*
X73548939Y-22812325D01*
X73581912Y-22820385D01*
X73606825Y-22829178D01*
X73629540Y-22830643D01*
X73641630Y-22845664D01*
X73665077Y-22852259D01*
X73682296Y-22857022D01*
X73711239Y-22862883D01*
X73736884Y-22868745D01*
X73753371Y-22874241D01*
X73778284Y-22876073D01*
X73814554Y-22880835D01*
X73851923Y-22886697D01*
X73877935Y-22891460D01*
X73931424Y-22900985D01*
X74005079Y-22913022D01*
X74023381Y-22916006D01*
X74097083Y-22926910D01*
X74116438Y-22929562D01*
X74168828Y-22935424D01*
X74188612Y-22940186D01*
X74224515Y-22947147D01*
X74260053Y-22954108D01*
X74284233Y-22959604D01*
X74298521Y-22963634D01*
X74315374Y-22959970D01*
X74324533Y-22977922D01*
X74351277Y-22989279D01*
X74380586Y-22989279D01*
X74408064Y-22989279D01*
X74426748Y-22985249D01*
X74443967Y-22981219D01*
X74463751Y-22968396D01*
X74482069Y-22957039D01*
X74502586Y-22940919D01*
X74521637Y-22922601D01*
X74533360Y-22902817D01*
X74532994Y-22881934D01*
X74545817Y-22876805D01*
X74555342Y-22854457D01*
X74555342Y-22844199D01*
X74555342Y-22835772D01*
X74540321Y-22819286D01*
X74527498Y-22805364D01*
X74513210Y-22798770D01*
X74497090Y-22802433D01*
X74485000Y-22786313D01*
X74464850Y-22780818D01*
X74447265Y-22776055D01*
X74420886Y-22768361D01*
X74394508Y-22760668D01*
X74373992Y-22754806D01*
X74343950Y-22749311D01*
X74321602Y-22753707D01*
X74342118Y-22747112D01*
X74368863Y-22718536D01*
X74394875Y-22690692D01*
X74417589Y-22670176D01*
X74431511Y-22646729D01*
X74448730Y-22621449D01*
X74462286Y-22602032D01*
X74472910Y-22586278D01*
X74485367Y-22556603D01*
X74497090Y-22525828D01*
X74504418Y-22485528D01*
X74506616Y-22449625D01*
X74506616Y-22435336D01*
X74505517Y-22409324D01*
X74502219Y-22384045D01*
X74498189Y-22368292D01*
X74488297Y-22343013D01*
X74472910Y-22315902D01*
X74458622Y-22298682D01*
X74438838Y-22285860D01*
X74412094Y-22285860D01*
X74374725Y-22285860D01*
X74351277Y-22295752D01*
X74333325Y-22312971D01*
X74309145Y-22337151D01*
X74291560Y-22356568D01*
X74239903Y-22356568D01*
X74165240Y-22356568D01*
X74157104Y-22356568D01*
X74082058Y-22356568D01*
X74074672Y-22356568D01*
X74020817Y-22356568D01*
X73998835Y-22357667D01*
X73966961Y-22361331D01*
X73936553Y-22367559D01*
X73917502Y-22372322D01*
X73891124Y-22378184D01*
X73870607Y-22395403D01*
X74270311Y-22407126D01*
X74274341Y-22410790D01*
X74283133Y-22408225D01*
X74275806Y-22416285D01*
X74275806Y-22422147D01*
X74271043Y-22425811D01*
X74264449Y-22431673D01*
X74257854Y-22433505D01*
X74241734Y-22436069D01*
X74223050Y-22439366D01*
X74208762Y-22441565D01*
X74195206Y-22448159D01*
X74177621Y-22450357D01*
X74161501Y-22481498D01*
X74187146Y-22496519D01*
X74213524Y-22502015D01*
X74249794Y-22504213D01*
X74282401Y-22506045D01*
X74304749Y-22510441D01*
X74306947Y-22509708D01*
X74307314Y-22517768D01*
X74307314Y-22559900D01*
X74307314Y-22593239D01*
X74300719Y-22605696D01*
X74293758Y-22612290D01*
X74260053Y-22624014D01*
X74230377Y-22632440D01*
X74097020Y-22632440D01*
X73963664Y-22632440D01*
X73942048Y-22632440D01*
X73902481Y-22629876D01*
X73862181Y-22624380D01*
X73839100Y-22621816D01*
X73781947Y-22621816D01*
X73731389Y-22621816D01*
X73717101Y-22628777D01*
X73705377Y-22633539D01*
X73699515Y-22635371D01*
X73685960Y-22642699D01*
X73673137Y-22645996D01*
X73652621Y-22662116D01*
X73635768Y-22674206D01*
X73612687Y-22689960D01*
X73591071Y-22706446D01*
X73543444Y-22707911D01*
X73468335Y-22707911D01*
X73465775Y-22707911D01*
X73391693Y-22707911D01*
X73387006Y-22707911D01*
X73334616Y-22710842D01*
X73314100Y-22713773D01*
X73285157Y-22717803D01*
X73258046Y-22721833D01*
X73242659Y-22724398D01*
X73225806Y-22731725D01*
X73204191Y-22763965D01*
X73253284Y-22769461D01*
X73286989Y-22774590D01*
X73576783Y-22762866D01*
G37*
G36*
X73576783Y-22241163D02*
G01*
X73564693Y-22238232D01*
X73561396Y-22239331D01*
X73528057Y-22248491D01*
X73451639Y-22253249D01*
X73448189Y-22253253D01*
X73512303Y-22286592D01*
X73548939Y-22290622D01*
X73581912Y-22298682D01*
X73606825Y-22307475D01*
X73629540Y-22308941D01*
X73641630Y-22323962D01*
X73665077Y-22330556D01*
X73682296Y-22335319D01*
X73711239Y-22341181D01*
X73736884Y-22347043D01*
X73753371Y-22352538D01*
X73778284Y-22354370D01*
X73814554Y-22359133D01*
X73851923Y-22364994D01*
X73877935Y-22369757D01*
X73931424Y-22379283D01*
X74005079Y-22391320D01*
X74023381Y-22394304D01*
X74097083Y-22405207D01*
X74116438Y-22407859D01*
X74168828Y-22413721D01*
X74188612Y-22418484D01*
X74224515Y-22425445D01*
X74260053Y-22432405D01*
X74284233Y-22437901D01*
X74298521Y-22441931D01*
X74315374Y-22438267D01*
X74324533Y-22456219D01*
X74351277Y-22467576D01*
X74380586Y-22467576D01*
X74408064Y-22467576D01*
X74426748Y-22463546D01*
X74443967Y-22459516D01*
X74463751Y-22446694D01*
X74482069Y-22435336D01*
X74502586Y-22419216D01*
X74521637Y-22400898D01*
X74533360Y-22381114D01*
X74532994Y-22360232D01*
X74545817Y-22355103D01*
X74555342Y-22332754D01*
X74555342Y-22322496D01*
X74555342Y-22314070D01*
X74540321Y-22297583D01*
X74527498Y-22283662D01*
X74513210Y-22277067D01*
X74497090Y-22280731D01*
X74485000Y-22264611D01*
X74464850Y-22259115D01*
X74447265Y-22254352D01*
X74420886Y-22246659D01*
X74394508Y-22238965D01*
X74373992Y-22233103D01*
X74343950Y-22227608D01*
X74321602Y-22232004D01*
X74342118Y-22225410D01*
X74368863Y-22196833D01*
X74394875Y-22168990D01*
X74417589Y-22148473D01*
X74431511Y-22125026D01*
X74448730Y-22099747D01*
X74462286Y-22080329D01*
X74472910Y-22064576D01*
X74485367Y-22034900D01*
X74497090Y-22004126D01*
X74504418Y-21963826D01*
X74506616Y-21927922D01*
X74506616Y-21913634D01*
X74505517Y-21887622D01*
X74502219Y-21862343D01*
X74498189Y-21846589D01*
X74488297Y-21821310D01*
X74472910Y-21794199D01*
X74458622Y-21776980D01*
X74438838Y-21764157D01*
X74412094Y-21764157D01*
X74374725Y-21764157D01*
X74351277Y-21774049D01*
X74333325Y-21791268D01*
X74309145Y-21815448D01*
X74291560Y-21834865D01*
X74239903Y-21834865D01*
X74165240Y-21834865D01*
X74157104Y-21834865D01*
X74082058Y-21834865D01*
X74074672Y-21834865D01*
X74020817Y-21834865D01*
X73998835Y-21835964D01*
X73966961Y-21839628D01*
X73936553Y-21845856D01*
X73917502Y-21850619D01*
X73891124Y-21856481D01*
X73870607Y-21873700D01*
X74270311Y-21885424D01*
X74274341Y-21889087D01*
X74283133Y-21886523D01*
X74275806Y-21894583D01*
X74275806Y-21900445D01*
X74271043Y-21904108D01*
X74264449Y-21909970D01*
X74257854Y-21911802D01*
X74241734Y-21914366D01*
X74223050Y-21917664D01*
X74208762Y-21919862D01*
X74195206Y-21926456D01*
X74177621Y-21928655D01*
X74161501Y-21959796D01*
X74187146Y-21974816D01*
X74213524Y-21980312D01*
X74249794Y-21982510D01*
X74282401Y-21984342D01*
X74304749Y-21988738D01*
X74306947Y-21988006D01*
X74307314Y-21996066D01*
X74307314Y-22038197D01*
X74307314Y-22071537D01*
X74300719Y-22083993D01*
X74293758Y-22090588D01*
X74260053Y-22102311D01*
X74230377Y-22110738D01*
X74097020Y-22110738D01*
X73963664Y-22110738D01*
X73942048Y-22110738D01*
X73902481Y-22108173D01*
X73862181Y-22102678D01*
X73839100Y-22100113D01*
X73781947Y-22100113D01*
X73731389Y-22100113D01*
X73717101Y-22107074D01*
X73705377Y-22111837D01*
X73699515Y-22113669D01*
X73685960Y-22120996D01*
X73673137Y-22124293D01*
X73652621Y-22140413D01*
X73635768Y-22152503D01*
X73612687Y-22168257D01*
X73591071Y-22184743D01*
X73543444Y-22186209D01*
X73468335Y-22186209D01*
X73465775Y-22186209D01*
X73391693Y-22186209D01*
X73387006Y-22186209D01*
X73334616Y-22189140D01*
X73314100Y-22192070D01*
X73285157Y-22196100D01*
X73258046Y-22200130D01*
X73242659Y-22202695D01*
X73225806Y-22210022D01*
X73204191Y-22242262D01*
X73253284Y-22247758D01*
X73286989Y-22252887D01*
X73576783Y-22241163D01*
G37*
G36*
X72935279Y-21394862D02*
G01*
X72960192Y-21386069D01*
X72972648Y-21377276D01*
X72969351Y-21378375D01*
X72981808Y-21375078D01*
X72988036Y-21372880D01*
X72997561Y-21370682D01*
X73003423Y-21368484D01*
X73003789Y-21368484D01*
X73020642Y-21372880D01*
X73069369Y-21372880D01*
X73139711Y-21376177D01*
X73211152Y-21383138D01*
X73260244Y-21384237D01*
X73276731Y-21385703D01*
X73307505Y-21386802D01*
X73339013Y-21388267D01*
X73356232Y-21389366D01*
X73418880Y-21400724D01*
X73492331Y-21406122D01*
X73522928Y-21406585D01*
X73599045Y-21406585D01*
X73626975Y-21406585D01*
X73688524Y-21406585D01*
X73691455Y-21401090D01*
X73677167Y-21412081D01*
X73657383Y-21441390D01*
X73637966Y-21469600D01*
X73622945Y-21487186D01*
X73618182Y-21500741D01*
X73608290Y-21528585D01*
X73598399Y-21554963D01*
X73591804Y-21568885D01*
X73588873Y-21586104D01*
X73572387Y-21586837D01*
X73557366Y-21591599D01*
X73549672Y-21610650D01*
X73560663Y-21613948D01*
X73550405Y-21611017D01*
X73544543Y-21614314D01*
X73509006Y-21628602D01*
X73452219Y-21641425D01*
X73393967Y-21654248D01*
X73355133Y-21663040D01*
X73297247Y-21683557D01*
X73264274Y-21697112D01*
X73240094Y-21710668D01*
X73222143Y-21715431D01*
X73186972Y-21749869D01*
X73612321Y-21674398D01*
X73611954Y-21687953D01*
X73623311Y-21698944D01*
X73642362Y-21716530D01*
X73669107Y-21738878D01*
X73696584Y-21759028D01*
X73717101Y-21772217D01*
X73743479Y-21782475D01*
X73783413Y-21805556D01*
X73807593Y-21805190D01*
X73829575Y-21816181D01*
X73863646Y-21820577D01*
X73895886Y-21824973D01*
X73920066Y-21831202D01*
X73961832Y-21839994D01*
X74003964Y-21848054D01*
X74033273Y-21851352D01*
X74047561Y-21853550D01*
X74072474Y-21857580D01*
X74098120Y-21862343D01*
X74117170Y-21864541D01*
X74137687Y-21867105D01*
X74149411Y-21859045D01*
X74168828Y-21874433D01*
X74193008Y-21883958D01*
X74224515Y-21879928D01*
X74253092Y-21875532D01*
X74267380Y-21875532D01*
X74287896Y-21873334D01*
X74321968Y-21870769D01*
X74332226Y-21850985D01*
X74351277Y-21837063D01*
X74373992Y-21814715D01*
X74395241Y-21790902D01*
X74405866Y-21767821D01*
X74403301Y-21745106D01*
X74415757Y-21732283D01*
X74423451Y-21708103D01*
X74413559Y-21691983D01*
X74402568Y-21681359D01*
X74386082Y-21668536D01*
X74365932Y-21666704D01*
X74348346Y-21664506D01*
X74323800Y-21664506D01*
X74286797Y-21664506D01*
X74251993Y-21664506D01*
X74234041Y-21664506D01*
X74217188Y-21661941D01*
X74188612Y-21658278D01*
X74160768Y-21656080D01*
X74147212Y-21656812D01*
X74127429Y-21650218D01*
X74100318Y-21646554D01*
X74076870Y-21643257D01*
X74062582Y-21640692D01*
X74046829Y-21637395D01*
X74018985Y-21630434D01*
X73990775Y-21623107D01*
X73975021Y-21619443D01*
X73950475Y-21613215D01*
X73917868Y-21602224D01*
X73886361Y-21592699D01*
X73866944Y-21587203D01*
X73852655Y-21575113D01*
X73840199Y-21563756D01*
X73830307Y-21552765D01*
X73814187Y-21540308D01*
X73798800Y-21538843D01*
X73803563Y-21538843D01*
X73803563Y-21534447D01*
X73805761Y-21526387D01*
X73798434Y-21516128D01*
X73811623Y-21521990D01*
X73838367Y-21512465D01*
X73867676Y-21500741D01*
X73896253Y-21485354D01*
X73920799Y-21475828D01*
X73950475Y-21467036D01*
X73963297Y-21462273D01*
X73984180Y-21454579D01*
X74003231Y-21446886D01*
X74013856Y-21443955D01*
X74039868Y-21436261D01*
X74071375Y-21426003D01*
X74099585Y-21417210D01*
X74112041Y-21413913D01*
X74135122Y-21406219D01*
X74152708Y-21401456D01*
X74169194Y-21395961D01*
X74209861Y-21391565D01*
X74240269Y-21386802D01*
X74293392Y-21386802D01*
X74367306Y-21386802D01*
X74393775Y-21386802D01*
X74469819Y-21386802D01*
X74493060Y-21386802D01*
X74545817Y-21386802D01*
X74560838Y-21384970D01*
X74596741Y-21378742D01*
X74637774Y-21369583D01*
X74669648Y-21360424D01*
X74689798Y-21358592D01*
X74726068Y-21353829D01*
X74763071Y-21347967D01*
X74797875Y-21344670D01*
X74807034Y-21329283D01*
X74833779Y-21321223D01*
X74843671Y-21301805D01*
X74857593Y-21281655D01*
X74873713Y-21261505D01*
X74877010Y-21246484D01*
X74891665Y-21227433D01*
X74899358Y-21198124D01*
X74899358Y-21183103D01*
X74891298Y-21175776D01*
X74893130Y-21180172D01*
X74879941Y-21158923D01*
X74857226Y-21146467D01*
X74832680Y-21148665D01*
X74811431Y-21148665D01*
X74794578Y-21148665D01*
X74774428Y-21148665D01*
X74750248Y-21148665D01*
X74718374Y-21148665D01*
X74664519Y-21151962D01*
X74590673Y-21158145D01*
X74561570Y-21160755D01*
X74487509Y-21167362D01*
X74433709Y-21172479D01*
X74360422Y-21179254D01*
X74306947Y-21184202D01*
X74233132Y-21190389D01*
X74204732Y-21192629D01*
X74153807Y-21195560D01*
X74123399Y-21195560D01*
X74070276Y-21198491D01*
X74013123Y-21201421D01*
X73966961Y-21199590D01*
X73928859Y-21201421D01*
X73864745Y-21201421D01*
X73795869Y-21201421D01*
X73748242Y-21207650D01*
X73726260Y-21201055D01*
X73687059Y-21195560D01*
X73649323Y-21195560D01*
X73624777Y-21195560D01*
X73577150Y-21195560D01*
X73502248Y-21195560D01*
X73493985Y-21195560D01*
X73419291Y-21195560D01*
X73412286Y-21195560D01*
X73367956Y-21193361D01*
X73340478Y-21188965D01*
X73296515Y-21182737D01*
X73253284Y-21175776D01*
X73225073Y-21172112D01*
X73195032Y-21172112D01*
X73144107Y-21169181D01*
X73093549Y-21161854D01*
X73062408Y-21157458D01*
X73043357Y-21160755D01*
X73022840Y-21164052D01*
X73004889Y-21169181D01*
X72992432Y-21172112D01*
X72965321Y-21180172D01*
X72938943Y-21197025D01*
X72928318Y-21209481D01*
X72914030Y-21229998D01*
X72900841Y-21249782D01*
X72889850Y-21262971D01*
X72883622Y-21284586D01*
X72877027Y-21305835D01*
X72877027Y-21319024D01*
X72878127Y-21330382D01*
X72879226Y-21336976D01*
X72882523Y-21358592D01*
X72885454Y-21378009D01*
X72903039Y-21394862D01*
X72935279Y-21394862D01*
G37*
G36*
X74099951Y-20356219D02*
G01*
X74123765Y-20368675D01*
X74153807Y-20394321D01*
X74177987Y-20419966D01*
X74191909Y-20460999D01*
X74205831Y-20496170D01*
X74205831Y-20504230D01*
X74210227Y-20484080D01*
X74231476Y-20460633D01*
X74250893Y-20438651D01*
X74273242Y-20424363D01*
X74298154Y-20408976D01*
X74311344Y-20398717D01*
X74328929Y-20392489D01*
X74354575Y-20392489D01*
X74406232Y-20392489D01*
X74438838Y-20397618D01*
X74480237Y-20406045D01*
X74512478Y-20415204D01*
X74538856Y-20423996D01*
X74563036Y-20430225D01*
X74605534Y-20440117D01*
X74651330Y-20451474D01*
X74685035Y-20458801D01*
X74712512Y-20463930D01*
X74733395Y-20468693D01*
X74753912Y-20471990D01*
X74779191Y-20478951D01*
X74803004Y-20485546D01*
X74816926Y-20488110D01*
X74853929Y-20498735D01*
X74888367Y-20513023D01*
X74918409Y-20522915D01*
X74945520Y-20529509D01*
X74966036Y-20542699D01*
X74982523Y-20555521D01*
X75010733Y-20580800D01*
X75010733Y-20624764D01*
X75010733Y-20666530D01*
X75005604Y-20680085D01*
X75002307Y-20694740D01*
X74983256Y-20712325D01*
X74977027Y-20726613D01*
X74950649Y-20752992D01*
X74925370Y-20774973D01*
X74907418Y-20792193D01*
X74883238Y-20814174D01*
X74858325Y-20826997D01*
X74840740Y-20829928D01*
X74827184Y-20844583D01*
X74803737Y-20859604D01*
X74782122Y-20873159D01*
X74768933Y-20882318D01*
X74709581Y-20907597D01*
X74659023Y-20942402D01*
X74609930Y-20979771D01*
X74558639Y-21009447D01*
X74521637Y-21024468D01*
X74465949Y-21047548D01*
X74410995Y-21070629D01*
X74377289Y-21085284D01*
X74327830Y-21110929D01*
X74284965Y-21132545D01*
X74260419Y-21140605D01*
X74219752Y-21154527D01*
X74177987Y-21169181D01*
X74147945Y-21181271D01*
X74121200Y-21185668D01*
X74098852Y-21189698D01*
X74069177Y-21189698D01*
X74038402Y-21189698D01*
X74025946Y-21184935D01*
X74002865Y-21181638D01*
X73994805Y-21163686D01*
X73985279Y-21151596D01*
X73975021Y-21140239D01*
X73969526Y-21123020D01*
X73967327Y-21101038D01*
X73965496Y-21068065D01*
X73963297Y-21035092D01*
X73969526Y-21017507D01*
X73948643Y-21037290D01*
X73914205Y-21048281D01*
X73857052Y-21048281D01*
X73784145Y-21048281D01*
X73758866Y-21042419D01*
X73737251Y-21032528D01*
X73715269Y-21025933D01*
X73687425Y-21012378D01*
X73670939Y-21000287D01*
X73653720Y-20991861D01*
X73653366Y-20991495D01*
X74174690Y-20991495D01*
X74193374Y-20991495D01*
X74209494Y-21002119D01*
X74226713Y-20989663D01*
X74266647Y-20975375D01*
X74308046Y-20960720D01*
X74342484Y-20948630D01*
X74357505Y-20939105D01*
X74377289Y-20927747D01*
X74422352Y-20908330D01*
X74480604Y-20882318D01*
X74531528Y-20859237D01*
X74558273Y-20846048D01*
X74573660Y-20838721D01*
X74594177Y-20824433D01*
X74613595Y-20810370D01*
X74460087Y-20818571D01*
X74424184Y-20789994D01*
X74460820Y-20768013D01*
X74672212Y-20768013D01*
X74711413Y-20747863D01*
X74696026Y-20751526D01*
X74667083Y-20748229D01*
X74636675Y-20746397D01*
X74616159Y-20742367D01*
X74597108Y-20737604D01*
X74579522Y-20720752D01*
X74608831Y-20702800D01*
X74644002Y-20697671D01*
X74669281Y-20697671D01*
X74710681Y-20697671D01*
X74742911Y-20697671D01*
X74733029Y-20694007D01*
X74699690Y-20682650D01*
X74672579Y-20673491D01*
X74631546Y-20663599D01*
X74590879Y-20652974D01*
X74549847Y-20635389D01*
X74501487Y-20618536D01*
X74486832Y-20616338D01*
X74466316Y-20612674D01*
X74443235Y-20606080D01*
X74422718Y-20606080D01*
X74385715Y-20602782D01*
X74350911Y-20599485D01*
X74329295Y-20599485D01*
X74305115Y-20594722D01*
X74272509Y-20589960D01*
X74258587Y-20580800D01*
X74245764Y-20570176D01*
X74229278Y-20571275D01*
X74210227Y-20559918D01*
X74207296Y-20547095D01*
X74205831Y-20543774D01*
X74205831Y-20583731D01*
X74205831Y-20684481D01*
X74203632Y-20698770D01*
X74199236Y-20725148D01*
X74193741Y-20755556D01*
X74188612Y-20778271D01*
X74187512Y-20794757D01*
X74184581Y-20821868D01*
X74181284Y-20845682D01*
X74180185Y-20858138D01*
X74178353Y-20888180D01*
X74178353Y-20929579D01*
X74179086Y-20971345D01*
X74174690Y-20991495D01*
X73653366Y-20991495D01*
X73643095Y-20980870D01*
X73633203Y-20969513D01*
X73618182Y-20955225D01*
X73603161Y-20931045D01*
X73591438Y-20906132D01*
X73584477Y-20888180D01*
X73580813Y-20869862D01*
X73572020Y-20829928D01*
X73567624Y-20796589D01*
X73416316Y-20775706D01*
X73416316Y-20722950D01*
X73550496Y-20722950D01*
X73540879Y-20720752D01*
X73482261Y-20720752D01*
X73462889Y-20720752D01*
X73388838Y-20720752D01*
X73370360Y-20720610D01*
X73295049Y-20716722D01*
X73231302Y-20709761D01*
X73201260Y-20700235D01*
X73148870Y-20667629D01*
X73190635Y-20665064D01*
X73214449Y-20661034D01*
X73238995Y-20657004D01*
X73256581Y-20654073D01*
X73330953Y-20654073D01*
X73406790Y-20654073D01*
X73436099Y-20659569D01*
X73485925Y-20664698D01*
X73537216Y-20664698D01*
X73567624Y-20664698D01*
X73586675Y-20664698D01*
X73596410Y-20664698D01*
X73598765Y-20661034D01*
X73610122Y-20645647D01*
X73610984Y-20644181D01*
X73782314Y-20644181D01*
X73782314Y-20697304D01*
X73782314Y-20763250D01*
X73784878Y-20771310D01*
X73788175Y-20782667D01*
X73813454Y-20806114D01*
X73834704Y-20819304D01*
X73859983Y-20836889D01*
X73881598Y-20843484D01*
X73907244Y-20848613D01*
X73925562Y-20850445D01*
X73939850Y-20850445D01*
X73967327Y-20847147D01*
X73994438Y-20847880D01*
X73992240Y-20840553D01*
X73995904Y-20825898D01*
X74002865Y-20811610D01*
X74002498Y-20776805D01*
X74002498Y-20737604D01*
X74002498Y-20707196D01*
X74002498Y-20677154D01*
X74002498Y-20648944D01*
X74000667Y-20620368D01*
X73991874Y-20598020D01*
X73983081Y-20577503D01*
X73973556Y-20562849D01*
X73955970Y-20553689D01*
X73938018Y-20544897D01*
X73907610Y-20544897D01*
X73879400Y-20544897D01*
X73857785Y-20553689D01*
X73836535Y-20563215D01*
X73828109Y-20573107D01*
X73817484Y-20585929D01*
X73806127Y-20599851D01*
X73795136Y-20618902D01*
X73784878Y-20636488D01*
X73782314Y-20644181D01*
X73610984Y-20644181D01*
X73624777Y-20620734D01*
X73639065Y-20597287D01*
X73646026Y-20582266D01*
X73661047Y-20561749D01*
X73675335Y-20542332D01*
X73684128Y-20531708D01*
X73700614Y-20510825D01*
X73719299Y-20488110D01*
X73733221Y-20472357D01*
X73746043Y-20459167D01*
X73760332Y-20451474D01*
X73777184Y-20436087D01*
X73802830Y-20413738D01*
X73812722Y-20408243D01*
X73821515Y-20401648D01*
X73838001Y-20393222D01*
X73853388Y-20385162D01*
X73874637Y-20372705D01*
X73895520Y-20361715D01*
X73911640Y-20354021D01*
X73929958Y-20349991D01*
X73946811Y-20345595D01*
X74014955Y-20345595D01*
X74072840Y-20345595D01*
X74099951Y-20356219D01*
G37*
G36*
X73225440Y-20219199D02*
G01*
X73290653Y-20219199D01*
X73365661Y-20219199D01*
X73388106Y-20219199D01*
X73462706Y-20219199D01*
X73486291Y-20219199D01*
X73548939Y-20214436D01*
X73563228Y-20223229D01*
X73592537Y-20226893D01*
X73620747Y-20229823D01*
X73638332Y-20233121D01*
X73704278Y-20266460D01*
X73772804Y-20300794D01*
X73807959Y-20318117D01*
X73874652Y-20351245D01*
X73928127Y-20378934D01*
X73996919Y-20414573D01*
X74048660Y-20440849D01*
X74116781Y-20475368D01*
X74152708Y-20493606D01*
X74219020Y-20526945D01*
X74228179Y-20532074D01*
X74250161Y-20544897D01*
X74276173Y-20559185D01*
X74294124Y-20571275D01*
X74308046Y-20580068D01*
X74327830Y-20590692D01*
X74346881Y-20600950D01*
X74356773Y-20606080D01*
X74385349Y-20606080D01*
X74408430Y-20606080D01*
X74434808Y-20595821D01*
X74458256Y-20583731D01*
X74485000Y-20560284D01*
X74508814Y-20536470D01*
X74521270Y-20509726D01*
X74534459Y-20487011D01*
X74534459Y-20463197D01*
X74534459Y-20450741D01*
X74519438Y-20426927D01*
X74498189Y-20407876D01*
X74471445Y-20387726D01*
X74446532Y-20368675D01*
X74434442Y-20366844D01*
X74417589Y-20359883D01*
X74398905Y-20353288D01*
X74387181Y-20353288D01*
X74328929Y-20319949D01*
X74263271Y-20286161D01*
X74236239Y-20272322D01*
X74168466Y-20237308D01*
X74143182Y-20224328D01*
X74083831Y-20202712D01*
X74106912Y-20208208D01*
X74134756Y-20201613D01*
X74176521Y-20197583D01*
X74214257Y-20193553D01*
X74238071Y-20191722D01*
X74273242Y-20189890D01*
X74307314Y-20187325D01*
X74331127Y-20184394D01*
X74364100Y-20177067D01*
X74420886Y-20173037D01*
X74478039Y-20173037D01*
X74510646Y-20173037D01*
X74540688Y-20169007D01*
X74576225Y-20164611D01*
X74608465Y-20162779D01*
X74624951Y-20160581D01*
X74653528Y-20150322D01*
X74676975Y-20138232D01*
X74706284Y-20113686D01*
X74731197Y-20084010D01*
X74741822Y-20061662D01*
X74753179Y-20036383D01*
X74753179Y-20015500D01*
X74753179Y-20001212D01*
X74730831Y-19976666D01*
X74707383Y-19971170D01*
X74670381Y-19961645D01*
X74632645Y-19950654D01*
X74607366Y-19945158D01*
X74588315Y-19938930D01*
X74557540Y-19928672D01*
X74526033Y-19918047D01*
X74501853Y-19909987D01*
X74487565Y-19905225D01*
X74462652Y-19895333D01*
X74433709Y-19885807D01*
X74412826Y-19879579D01*
X74380586Y-19864925D01*
X74353475Y-19853934D01*
X74316839Y-19839279D01*
X74261152Y-19815465D01*
X74205831Y-19792384D01*
X74173957Y-19778829D01*
X74151609Y-19766739D01*
X74129993Y-19753916D01*
X74096288Y-19735964D01*
X74065879Y-19734499D01*
X74084930Y-19746223D01*
X74110210Y-19746223D01*
X74184581Y-19751718D01*
X74260451Y-19758584D01*
X74317572Y-19764174D01*
X74394104Y-19771674D01*
X74460087Y-19778463D01*
X74534076Y-19787192D01*
X74565967Y-19792018D01*
X74585018Y-19792018D01*
X74612861Y-19793117D01*
X74639972Y-19796048D01*
X74656092Y-19798979D01*
X74659023Y-19801910D01*
X74659023Y-19846240D01*
X74666717Y-19845141D01*
X74669648Y-19853201D01*
X74687600Y-19859796D01*
X74701155Y-19865291D01*
X74723137Y-19861994D01*
X74746584Y-19855766D01*
X74763437Y-19844042D01*
X74784320Y-19829754D01*
X74807767Y-19812535D01*
X74826818Y-19796781D01*
X74843304Y-19783592D01*
X74855028Y-19767838D01*
X74864920Y-19755015D01*
X74876644Y-19740727D01*
X74893863Y-19711052D01*
X74905220Y-19684307D01*
X74905220Y-19675881D01*
X74905220Y-19657196D01*
X74895695Y-19642542D01*
X74888367Y-19634115D01*
X74878842Y-19638511D01*
X74878475Y-19626788D01*
X74861989Y-19616530D01*
X74843304Y-19612500D01*
X74820590Y-19608103D01*
X74747410Y-19598250D01*
X74740356Y-19597479D01*
X74665166Y-19589407D01*
X74616891Y-19584290D01*
X74541599Y-19575976D01*
X74493060Y-19570734D01*
X74419895Y-19561432D01*
X74411727Y-19560110D01*
X74347614Y-19553881D01*
X74274570Y-19546577D01*
X74267013Y-19545821D01*
X74194840Y-19538494D01*
X74157837Y-19535197D01*
X73914205Y-19535197D01*
X73670939Y-19535197D01*
X73644927Y-19550584D01*
X73620381Y-19564506D01*
X73587774Y-19595281D01*
X73560297Y-19616530D01*
X73325824Y-19616530D01*
X73302010Y-19652067D01*
X73347806Y-19665256D01*
X73373817Y-19667454D01*
X73395799Y-19672583D01*
X73433901Y-19678079D01*
X73469438Y-19682109D01*
X73490688Y-19683941D01*
X73516699Y-19688337D01*
X73535018Y-19687238D01*
X73534651Y-19702625D01*
X73547474Y-19708121D01*
X73544543Y-19717280D01*
X73552969Y-19730469D01*
X73566525Y-19731568D01*
X73572020Y-19735232D01*
X73583011Y-19741093D01*
X73592903Y-19744024D01*
X73609756Y-19749886D01*
X73628441Y-19757946D01*
X73640531Y-19762343D01*
X73654819Y-19769670D01*
X73680831Y-19782126D01*
X73708308Y-19795682D01*
X73725893Y-19804841D01*
X73751173Y-19819495D01*
X73790740Y-19840745D01*
X73828475Y-19861627D01*
X73850824Y-19874084D01*
X73916403Y-19907057D01*
X73982615Y-19938494D01*
X74013856Y-19953585D01*
X74081280Y-19986313D01*
X74110210Y-20000846D01*
X74172858Y-20021362D01*
X74154173Y-20015867D01*
X74119735Y-20021729D01*
X74085297Y-20027957D01*
X74062216Y-20033452D01*
X74022282Y-20042611D01*
X73995904Y-20047374D01*
X73902847Y-20047374D01*
X73814187Y-20047374D01*
X73791839Y-20040047D01*
X73767659Y-20032719D01*
X73750806Y-20032719D01*
X73731755Y-20032719D01*
X73707575Y-20039680D01*
X73692554Y-20055068D01*
X73676801Y-20061662D01*
X73650789Y-20083644D01*
X73625876Y-20105992D01*
X73614519Y-20116251D01*
X73597666Y-20118449D01*
X73565060Y-20120281D01*
X73531720Y-20120281D01*
X73508639Y-20120281D01*
X73490321Y-20130172D01*
X73456249Y-20158016D01*
X73489588Y-20161680D01*
X73500946Y-20170472D01*
X73547108Y-20178532D01*
X73582645Y-20173037D01*
X73530255Y-20166442D01*
X73456547Y-20168503D01*
X73430237Y-20168641D01*
X73356038Y-20168641D01*
X73328755Y-20168641D01*
X73262076Y-20168641D01*
X73228371Y-20174136D01*
X73154719Y-20179245D01*
X73148137Y-20179265D01*
X73225440Y-20219199D01*
G37*
G36*
X73352935Y-19388651D02*
G01*
X73539780Y-19388651D01*
X73549672Y-19410267D01*
X73564327Y-19442873D01*
X73577516Y-19449101D01*
X73594002Y-19455329D01*
X73620014Y-19461558D01*
X73648957Y-19467786D01*
X73669107Y-19473648D01*
X73701347Y-19479876D01*
X73734320Y-19482440D01*
X73757034Y-19482440D01*
X73827743Y-19482440D01*
X73902774Y-19482440D01*
X73920433Y-19482440D01*
X73994023Y-19484527D01*
X74006162Y-19485371D01*
X74050859Y-19488302D01*
X74137687Y-19488302D01*
X74224882Y-19488302D01*
X74254191Y-19475846D01*
X74279103Y-19463023D01*
X74301452Y-19441408D01*
X74323800Y-19418327D01*
X74339187Y-19398177D01*
X74348346Y-19375096D01*
X74351277Y-19362639D01*
X74354575Y-19344687D01*
X74349445Y-19327102D01*
X74348346Y-19312814D01*
X74318304Y-19301090D01*
X74268479Y-19297060D01*
X74194840Y-19294862D01*
X74122666Y-19294862D01*
X74076504Y-19294862D01*
X74028877Y-19290832D01*
X73956126Y-19281988D01*
X73950841Y-19281306D01*
X73877787Y-19270983D01*
X73870607Y-19269949D01*
X73814920Y-19261889D01*
X73798800Y-19258958D01*
X73772788Y-19254928D01*
X73748242Y-19250898D01*
X73733587Y-19247967D01*
X73708308Y-19247967D01*
X73687059Y-19247967D01*
X73666176Y-19255294D01*
X73643095Y-19262622D01*
X73625876Y-19286435D01*
X73613053Y-19298892D01*
X73589606Y-19314645D01*
X73531720Y-19314645D01*
X73457383Y-19314645D01*
X73435367Y-19314645D01*
X73359598Y-19317105D01*
X73339745Y-19318675D01*
X73275998Y-19324904D01*
X73243758Y-19331498D01*
X73203092Y-19342489D01*
X73173050Y-19348717D01*
X73147771Y-19354946D01*
X73129086Y-19361174D01*
X73116263Y-19376927D01*
X73344508Y-19388651D01*
X73352935Y-19388651D01*
G37*
G36*
X74831581Y-19501491D02*
G01*
X74838542Y-19500392D01*
X74841839Y-19499293D01*
X74851364Y-19494530D01*
X74875911Y-19479143D01*
X74900091Y-19459359D01*
X74902289Y-19444338D01*
X74916577Y-19424188D01*
X74930499Y-19400741D01*
X74939658Y-19382057D01*
X74942589Y-19365936D01*
X74942589Y-19349450D01*
X74937826Y-19334796D01*
X74936361Y-19317576D01*
X74929034Y-19301090D01*
X74922439Y-19282405D01*
X74897526Y-19280574D01*
X74869316Y-19273613D01*
X74848434Y-19272514D01*
X74818025Y-19271414D01*
X74785785Y-19262622D01*
X74757575Y-19253829D01*
X74705551Y-19253829D01*
X74641071Y-19253829D01*
X74585018Y-19253829D01*
X74555342Y-19251631D01*
X74535192Y-19257126D01*
X74515775Y-19263721D01*
X74507715Y-19265553D01*
X74496724Y-19268484D01*
X74482436Y-19275078D01*
X74463018Y-19289733D01*
X74447631Y-19306585D01*
X74438472Y-19323072D01*
X74421253Y-19355312D01*
X74404766Y-19389017D01*
X74402202Y-19410999D01*
X74390478Y-19423822D01*
X74384616Y-19451666D01*
X74388280Y-19460458D01*
X74388280Y-19473281D01*
X74407331Y-19481341D01*
X74423085Y-19486104D01*
X74444334Y-19486104D01*
X74464850Y-19486104D01*
X74510646Y-19488302D01*
X74574393Y-19488302D01*
X74634843Y-19488302D01*
X74670747Y-19488302D01*
X74694194Y-19492699D01*
X74739990Y-19501491D01*
X74786518Y-19505888D01*
X74812530Y-19505888D01*
X74823154Y-19504056D01*
X74829749Y-19501125D01*
X74831581Y-19501491D01*
G37*
G36*
X73517432Y-18960371D02*
G01*
X73528789Y-18978323D01*
X73541612Y-19000305D01*
X73558831Y-19019356D01*
X73579348Y-19037674D01*
X73599864Y-19049031D01*
X73621480Y-19058923D01*
X73642362Y-19068449D01*
X73672404Y-19080905D01*
X73699515Y-19092629D01*
X73718566Y-19101421D01*
X73736884Y-19104719D01*
X73765827Y-19112046D01*
X73797334Y-19120839D01*
X73821148Y-19127800D01*
X73841665Y-19128899D01*
X73870607Y-19133295D01*
X73898817Y-19138424D01*
X73916769Y-19143553D01*
X73949376Y-19144652D01*
X73985646Y-19145385D01*
X74003598Y-19145385D01*
X74033273Y-19145385D01*
X74062582Y-19145385D01*
X74077603Y-19145385D01*
X74105813Y-19150514D01*
X74128161Y-19148316D01*
X74126330Y-19150148D01*
X74128161Y-19155643D01*
X74127062Y-19162971D01*
X74125230Y-19179457D01*
X74123032Y-19198874D01*
X74121933Y-19211331D01*
X74123032Y-19224886D01*
X74124131Y-19242838D01*
X74125230Y-19252364D01*
X74126330Y-19257493D01*
X74126330Y-19268117D01*
X74139885Y-19286069D01*
X74160768Y-19298525D01*
X74169561Y-19298525D01*
X74171759Y-19298525D01*
X74193374Y-19292664D01*
X74213158Y-19284970D01*
X74227446Y-19275445D01*
X74235872Y-19267751D01*
X74254191Y-19250165D01*
X74281302Y-19220123D01*
X74305848Y-19188983D01*
X74320503Y-19168466D01*
X74332226Y-19150514D01*
X74335524Y-19131097D01*
X74364833Y-19129998D01*
X74413559Y-19117908D01*
X74461553Y-19106917D01*
X74491595Y-19098124D01*
X74508814Y-19095560D01*
X74531162Y-19091530D01*
X74558273Y-19084569D01*
X74598939Y-19061854D01*
X74634477Y-19035476D01*
X74654260Y-19013128D01*
X74672212Y-18984918D01*
X74685035Y-18961470D01*
X74695293Y-18929597D01*
X74693461Y-18923735D01*
X74693461Y-18912378D01*
X74691263Y-18895525D01*
X74684669Y-18885999D01*
X74682837Y-18873543D01*
X74636309Y-18876840D01*
X74606267Y-18880137D01*
X74565967Y-18885999D01*
X74535192Y-18889297D01*
X74516141Y-18904317D01*
X74506616Y-18910912D01*
X74472177Y-18910912D01*
X74422718Y-18913110D01*
X74375091Y-18917507D01*
X74353842Y-18923735D01*
X74356773Y-18912744D01*
X74365932Y-18869147D01*
X74382052Y-18802468D01*
X74396706Y-18735790D01*
X74406965Y-18693292D01*
X74411361Y-18672409D01*
X74417956Y-18646763D01*
X74424550Y-18612692D01*
X74424550Y-18593274D01*
X74424550Y-18565797D01*
X74420154Y-18550410D01*
X74420520Y-18524398D01*
X74406598Y-18517437D01*
X74388280Y-18504248D01*
X74385349Y-18510110D01*
X74379121Y-18510110D01*
X74369595Y-18511209D01*
X74366298Y-18512308D01*
X74355307Y-18512308D01*
X74343217Y-18520001D01*
X74335157Y-18524764D01*
X74325265Y-18531725D01*
X74312443Y-18544181D01*
X74300719Y-18554440D01*
X74287896Y-18566530D01*
X74273974Y-18575322D01*
X74261152Y-18601701D01*
X74253092Y-18626613D01*
X74244665Y-18644932D01*
X74243566Y-18664715D01*
X74088228Y-18672409D01*
X74131459Y-18705382D01*
X74224515Y-18714907D01*
X74228912Y-18719670D01*
X74227812Y-18715640D01*
X74188245Y-18713442D01*
X74147212Y-18711610D01*
X74123032Y-18711610D01*
X74087129Y-18711610D01*
X74052324Y-18711610D01*
X74032174Y-18711610D01*
X74023748Y-18711610D01*
X74012390Y-18711610D01*
X73975021Y-18717105D01*
X74003231Y-18748246D01*
X74222683Y-18773159D01*
X74181284Y-18932894D01*
X74180185Y-18930696D01*
X74169561Y-18931795D01*
X74161134Y-18932894D01*
X74138786Y-18932894D01*
X74121200Y-18932894D01*
X74093723Y-18932894D01*
X74072108Y-18932894D01*
X74055255Y-18930696D01*
X74025579Y-18928498D01*
X73992240Y-18926299D01*
X73969159Y-18924101D01*
X73948643Y-18919705D01*
X73924096Y-18913477D01*
X73891490Y-18904317D01*
X73861448Y-18895158D01*
X73843863Y-18890396D01*
X73828842Y-18886366D01*
X73800632Y-18875741D01*
X73770224Y-18864017D01*
X73750440Y-18854858D01*
X73746410Y-18852294D01*
X73743479Y-18852294D01*
X73738350Y-18829579D01*
X73733221Y-18803201D01*
X73719299Y-18792576D01*
X73704644Y-18785982D01*
X73695852Y-18788180D01*
X73681197Y-18788180D01*
X73673870Y-18789279D01*
X73670572Y-18790378D01*
X73657750Y-18790378D01*
X73634669Y-18805766D01*
X73603894Y-18821886D01*
X73594735Y-18838006D01*
X73582645Y-18847531D01*
X73403493Y-18862918D01*
X73408256Y-18900287D01*
X73432802Y-18906882D01*
X73448189Y-18909813D01*
X73461012Y-18910912D01*
X73479330Y-18910912D01*
X73503144Y-18910912D01*
X73526225Y-18912011D01*
X73539048Y-18902852D01*
X73088786Y-18948648D01*
X73517432Y-18960371D01*
G37*
G36*
X73510105Y-18194304D02*
G01*
X73517799Y-18207859D01*
X73505342Y-18201264D01*
X73478231Y-18204195D01*
X73450387Y-18207493D01*
X73428039Y-18208225D01*
X73413751Y-18213354D01*
X73394334Y-18217384D01*
X73362094Y-18223246D01*
X73362094Y-18253288D01*
X73389571Y-18259516D01*
X73403859Y-18265012D01*
X73417048Y-18271973D01*
X73441961Y-18274171D01*
X73475667Y-18276369D01*
X73510838Y-18278567D01*
X73530988Y-18280399D01*
X73536117Y-18284429D01*
X73549306Y-18311906D01*
X73559198Y-18335354D01*
X73574951Y-18376020D01*
X73593270Y-18411191D01*
X73601696Y-18422548D01*
X73614885Y-18441966D01*
X73628807Y-18463581D01*
X73639798Y-18478969D01*
X73658482Y-18504980D01*
X73678266Y-18527695D01*
X73692554Y-18541983D01*
X73715635Y-18566163D01*
X73738716Y-18589977D01*
X73754103Y-18607929D01*
X73783413Y-18628445D01*
X73811989Y-18650427D01*
X73832872Y-18667646D01*
X73853388Y-18679736D01*
X73874637Y-18689994D01*
X73909442Y-18706847D01*
X73943880Y-18725165D01*
X73964763Y-18735057D01*
X73979784Y-18740919D01*
X73998102Y-18749345D01*
X74015321Y-18750445D01*
X74034739Y-18753009D01*
X74060018Y-18755574D01*
X74106546Y-18755574D01*
X74155272Y-18755574D01*
X74178720Y-18751544D01*
X74202533Y-18747147D01*
X74236972Y-18727730D01*
X74271043Y-18709412D01*
X74288263Y-18699886D01*
X74305482Y-18690361D01*
X74342851Y-18653358D01*
X74377289Y-18615622D01*
X74387914Y-18596938D01*
X74397806Y-18580451D01*
X74408064Y-18565431D01*
X74420520Y-18543449D01*
X74430778Y-18522932D01*
X74435541Y-18509743D01*
X74442502Y-18484830D01*
X74447997Y-18460284D01*
X74447997Y-18403498D01*
X74447997Y-18346711D01*
X74442502Y-18323996D01*
X74434808Y-18296886D01*
X74429679Y-18283330D01*
X74423451Y-18263546D01*
X74418322Y-18245228D01*
X74416490Y-18232772D01*
X74402568Y-18207493D01*
X74389013Y-18183679D01*
X74365199Y-18150706D01*
X74340286Y-18116268D01*
X74317938Y-18089523D01*
X74284233Y-18049223D01*
X74275806Y-18040797D01*
X74247230Y-18017350D01*
X74219386Y-18002695D01*
X74213524Y-18000497D01*
X74202533Y-17993536D01*
X74184215Y-17981812D01*
X74161501Y-17981812D01*
X74142083Y-17981812D01*
X74115339Y-17991338D01*
X74091159Y-18003061D01*
X74076138Y-18014052D01*
X74057087Y-18031638D01*
X74039501Y-18049223D01*
X74030342Y-18058749D01*
X74016054Y-18079998D01*
X74002498Y-18104544D01*
X74002498Y-18120298D01*
X74002498Y-18130923D01*
X74007261Y-18155103D01*
X74014588Y-18170856D01*
X74028510Y-18189541D01*
X74044630Y-18197601D01*
X74071741Y-18203463D01*
X74094456Y-18194670D01*
X74099951Y-18209324D01*
X74121933Y-18229841D01*
X74142083Y-18249625D01*
X74154540Y-18266477D01*
X74177254Y-18295420D01*
X74203999Y-18332789D01*
X74216822Y-18355137D01*
X74227812Y-18375287D01*
X74227812Y-18376387D01*
X74233308Y-18376387D01*
X74198503Y-18375287D01*
X74156005Y-18379317D01*
X74151609Y-18388843D01*
X74145381Y-18401299D01*
X74148678Y-18391774D01*
X74139152Y-18406428D01*
X74152708Y-18425846D01*
X74152708Y-18416320D01*
X74156738Y-18430975D01*
X74176521Y-18440500D01*
X74193741Y-18442699D01*
X74218287Y-18445629D01*
X74242467Y-18448927D01*
X74254923Y-18445263D01*
X74254923Y-18474206D01*
X74260419Y-18508644D01*
X74260419Y-18514872D01*
X74260419Y-18517070D01*
X74254923Y-18536488D01*
X74250161Y-18554073D01*
X74209128Y-18553707D01*
X74155272Y-18553707D01*
X74133657Y-18548578D01*
X74110576Y-18541617D01*
X74001033Y-18487029D01*
X73985646Y-18474939D01*
X73968427Y-18462116D01*
X73938385Y-18434272D01*
X73896619Y-18392507D01*
X73855220Y-18351474D01*
X73826644Y-18332423D01*
X73825545Y-18318501D01*
X73809424Y-18297985D01*
X73794404Y-18277835D01*
X73785611Y-18264279D01*
X73768758Y-18231673D01*
X73754836Y-18201264D01*
X73749707Y-18180748D01*
X73744578Y-18164994D01*
X73742746Y-18155835D01*
X73742746Y-18157667D01*
X73750073Y-18160964D01*
X73763263Y-18169391D01*
X73787809Y-18169391D01*
X73810157Y-18169391D01*
X73829208Y-18164262D01*
X73847526Y-18159133D01*
X73862547Y-18143013D01*
X73881965Y-18122863D01*
X73902847Y-18102346D01*
X73918235Y-18083662D01*
X73923364Y-18072671D01*
X73932157Y-18060581D01*
X73932157Y-18037133D01*
X73932157Y-18013320D01*
X73925562Y-18000497D01*
X73916769Y-17992070D01*
X73896619Y-17982545D01*
X73869875Y-17969356D01*
X73842031Y-17956167D01*
X73824079Y-17948473D01*
X73807959Y-17940779D01*
X73787443Y-17934918D01*
X73744212Y-17934918D01*
X73707209Y-17934918D01*
X73688891Y-17940413D01*
X73672771Y-17947008D01*
X73663245Y-17949939D01*
X73656651Y-17953969D01*
X73641263Y-17960197D01*
X73621113Y-17976317D01*
X73591438Y-17995001D01*
X73588507Y-18003428D01*
X73589240Y-18011854D01*
X73563594Y-18029073D01*
X73552237Y-18052887D01*
X73543810Y-18061313D01*
X73534651Y-18073770D01*
X73525492Y-18101613D01*
X73515600Y-18122496D01*
X73476033Y-18122496D01*
X73403859Y-18122496D01*
X73330586Y-18126160D01*
X73283692Y-18132022D01*
X73260244Y-18136052D01*
X73228737Y-18146676D01*
X73211152Y-18166826D01*
X73244857Y-18194304D01*
X73510105Y-18194304D01*
G37*
G36*
X74887635Y-17986209D02*
G01*
X74898992Y-17981080D01*
X74914379Y-17977782D01*
X74931598Y-17960563D01*
X74946986Y-17955068D01*
X74968235Y-17934918D01*
X74987286Y-17916599D01*
X75000108Y-17896083D01*
X75003039Y-17876299D01*
X75016595Y-17868606D01*
X75027586Y-17844792D01*
X75027586Y-17834900D01*
X75027586Y-17825741D01*
X74997544Y-17793867D01*
X74982523Y-17786540D01*
X74971166Y-17782510D01*
X74937460Y-17773717D01*
X74901556Y-17768588D01*
X74851731Y-17768588D01*
X74775766Y-17768588D01*
X74750248Y-17768588D01*
X74676186Y-17768588D01*
X74622387Y-17768588D01*
X74548803Y-17768588D01*
X74495258Y-17768588D01*
X74421947Y-17768588D01*
X74393775Y-17768588D01*
X74351644Y-17775916D01*
X74366665Y-17769687D01*
X74387181Y-17746606D01*
X74407331Y-17721327D01*
X74419055Y-17704475D01*
X74432244Y-17688721D01*
X74447997Y-17667838D01*
X74453127Y-17653916D01*
X74458622Y-17637430D01*
X74460087Y-17631202D01*
X74464117Y-17622409D01*
X74471445Y-17608121D01*
X74471445Y-17560860D01*
X74471445Y-17520193D01*
X74446166Y-17470734D01*
X74416856Y-17439227D01*
X74387181Y-17411383D01*
X74358605Y-17393431D01*
X74326364Y-17377678D01*
X74312076Y-17370717D01*
X74288263Y-17360092D01*
X74262617Y-17349468D01*
X74240635Y-17341408D01*
X74225248Y-17336645D01*
X74197404Y-17326020D01*
X74163699Y-17316495D01*
X74139519Y-17310633D01*
X74125230Y-17304405D01*
X74102516Y-17295978D01*
X74079069Y-17288285D01*
X74059651Y-17284621D01*
X74020084Y-17276561D01*
X73950841Y-17258609D01*
X73881232Y-17239925D01*
X73840932Y-17227835D01*
X73827010Y-17223805D01*
X73803196Y-17216844D01*
X73776818Y-17210249D01*
X73762896Y-17209883D01*
X73736518Y-17199625D01*
X73711972Y-17196327D01*
X73705377Y-17196327D01*
X73703545Y-17196327D01*
X73677533Y-17204387D01*
X73647858Y-17217576D01*
X73630639Y-17228934D01*
X73613786Y-17240291D01*
X73606092Y-17246153D01*
X73598765Y-17261906D01*
X73590339Y-17274729D01*
X73581180Y-17287918D01*
X73572387Y-17318693D01*
X73563594Y-17322723D01*
X73560663Y-17340308D01*
X73563594Y-17360092D01*
X73569456Y-17365954D01*
X73572753Y-17376945D01*
X73574585Y-17380608D01*
X73587041Y-17390134D01*
X73596933Y-17393431D01*
X73610489Y-17400759D01*
X73626242Y-17405155D01*
X73644194Y-17409185D01*
X73693653Y-17423839D01*
X73766451Y-17441768D01*
X73780848Y-17445089D01*
X73852698Y-17462354D01*
X73868043Y-17466338D01*
X73917502Y-17478428D01*
X73956703Y-17491251D01*
X73998102Y-17504073D01*
X74018252Y-17510668D01*
X74047928Y-17519827D01*
X74079069Y-17530818D01*
X74103615Y-17536680D01*
X74127062Y-17546572D01*
X74157837Y-17561959D01*
X74156738Y-17560860D01*
X74169194Y-17564157D01*
X74177254Y-17571484D01*
X74194473Y-17584307D01*
X74217554Y-17583941D01*
X74034006Y-17572217D01*
X74079801Y-17605556D01*
X74113140Y-17617646D01*
X74140984Y-17620211D01*
X74182017Y-17622775D01*
X74223416Y-17624973D01*
X74246497Y-17626805D01*
X74259320Y-17631568D01*
X74262983Y-17638895D01*
X74271043Y-17653184D01*
X74283500Y-17656847D01*
X74268479Y-17660877D01*
X74257854Y-17674066D01*
X74223782Y-17684324D01*
X74192275Y-17691285D01*
X73646392Y-17691285D01*
X73621113Y-17696781D01*
X73594735Y-17705940D01*
X73570189Y-17716565D01*
X73545642Y-17731585D01*
X73517799Y-17758330D01*
X73486658Y-17790204D01*
X73473835Y-17808888D01*
X73463210Y-17830504D01*
X73463210Y-17859813D01*
X73463210Y-17890954D01*
X73475667Y-17906708D01*
X73489588Y-17913302D01*
X73502411Y-17921362D01*
X73528423Y-17925759D01*
X73553336Y-17929789D01*
X73598765Y-17935284D01*
X73645293Y-17940413D01*
X73684861Y-17945909D01*
X73743845Y-17951038D01*
X73801364Y-17953969D01*
X73839100Y-17955068D01*
X73888559Y-17956167D01*
X73962851Y-17957810D01*
X73975021Y-17957999D01*
X74049863Y-17959241D01*
X74080900Y-17959830D01*
X74155030Y-17961342D01*
X74186780Y-17962029D01*
X74261210Y-17963883D01*
X74272875Y-17964227D01*
X74321602Y-17965326D01*
X74362635Y-17966425D01*
X74438609Y-17967988D01*
X74451295Y-17968257D01*
X74526637Y-17969768D01*
X74563402Y-17970455D01*
X74639587Y-17971898D01*
X74676975Y-17972653D01*
X74751932Y-17974923D01*
X74766002Y-17975584D01*
X74803371Y-17973020D01*
X74810698Y-17979980D01*
X74810698Y-17978149D01*
X74815094Y-17977782D01*
X74825719Y-17986209D01*
X74857226Y-17986209D01*
X74887635Y-17986209D01*
G37*
G36*
X74378022Y-16348194D02*
G01*
X74400736Y-16363215D01*
X74425283Y-16385929D01*
X74444700Y-16410110D01*
X74460454Y-16424398D01*
X74474376Y-16447479D01*
X74483535Y-16467995D01*
X74497090Y-16496572D01*
X74509547Y-16524415D01*
X74518339Y-16542001D01*
X74530429Y-16576805D01*
X74540321Y-16612343D01*
X74545817Y-16637255D01*
X74556808Y-16666565D01*
X74560838Y-16710895D01*
X74565234Y-16740570D01*
X74565234Y-16803585D01*
X74565234Y-16864401D01*
X74560838Y-16886017D01*
X74556808Y-16915326D01*
X74545084Y-16933278D01*
X74539955Y-16948299D01*
X74524201Y-16983470D01*
X74506616Y-17021205D01*
X74482069Y-17054178D01*
X74464850Y-17082754D01*
X74443967Y-17098874D01*
X74431511Y-17118658D01*
X74410628Y-17140274D01*
X74389013Y-17153096D01*
X74366298Y-17169949D01*
X74350178Y-17183138D01*
X74331860Y-17195595D01*
X74313542Y-17203655D01*
X74292659Y-17213180D01*
X74273242Y-17218309D01*
X74272143Y-17226736D01*
X74228912Y-17241756D01*
X74188245Y-17253846D01*
X74157837Y-17257876D01*
X74129627Y-17262273D01*
X74071741Y-17262273D01*
X74013856Y-17262273D01*
X73979784Y-17257876D01*
X73945346Y-17253846D01*
X73905412Y-17241756D01*
X73868775Y-17228201D01*
X73858884Y-17221606D01*
X73838734Y-17213180D01*
X73816752Y-17203288D01*
X73801364Y-17194495D01*
X73783779Y-17183138D01*
X73766560Y-17171414D01*
X73740548Y-17152730D01*
X73714903Y-17139907D01*
X73694386Y-17110232D01*
X73665443Y-17086784D01*
X73655551Y-17063703D01*
X73636867Y-17042088D01*
X73624044Y-17025235D01*
X73611221Y-17011313D01*
X73596567Y-16981638D01*
X73588873Y-16960389D01*
X73584110Y-16947200D01*
X73576417Y-16925950D01*
X73568357Y-16904701D01*
X73565060Y-16890047D01*
X73559930Y-16871362D01*
X73552603Y-16842786D01*
X73545276Y-16814942D01*
X73546375Y-16801020D01*
X73408988Y-16805050D01*
X73388472Y-16770246D01*
X73411274Y-16758432D01*
X73403493Y-16758156D01*
X73341944Y-16755225D01*
X73301644Y-16752294D01*
X73269037Y-16747531D01*
X73204923Y-16716024D01*
X73252551Y-16713826D01*
X73263542Y-16711261D01*
X73293217Y-16699904D01*
X73321427Y-16696606D01*
X73366856Y-16691111D01*
X73437565Y-16687814D01*
X73506808Y-16686715D01*
X73547474Y-16692943D01*
X73545642Y-16681952D01*
X73550771Y-16670228D01*
X73566159Y-16644216D01*
X73576050Y-16615640D01*
X73588140Y-16591460D01*
X73599498Y-16568745D01*
X73613786Y-16547496D01*
X73630272Y-16535772D01*
X73641996Y-16518553D01*
X73666909Y-16494373D01*
X73691089Y-16470560D01*
X73710872Y-16461401D01*
X73720398Y-16444548D01*
X73742746Y-16432091D01*
X73757767Y-16422200D01*
X73780482Y-16410110D01*
X73802097Y-16400218D01*
X73815653Y-16395455D01*
X73841665Y-16391059D01*
X73871706Y-16382999D01*
X73915304Y-16382999D01*
X73956703Y-16382999D01*
X73990042Y-16390326D01*
X74014955Y-16398386D01*
X74031441Y-16406446D01*
X74049393Y-16424764D01*
X74049393Y-16439785D01*
X74049393Y-16450410D01*
X74034739Y-16478253D01*
X74020084Y-16500968D01*
X73960000Y-16555190D01*
X73949742Y-16558853D01*
X73936919Y-16562883D01*
X73938385Y-16562883D01*
X73927027Y-16567646D01*
X73913838Y-16572043D01*
X73897718Y-16576439D01*
X73763263Y-16576439D01*
X73757034Y-16582667D01*
X73751173Y-16604283D01*
X73744578Y-16627730D01*
X73744578Y-16661802D01*
X73744578Y-16689645D01*
X73751905Y-16723351D01*
X73759965Y-16762552D01*
X73765461Y-16779038D01*
X73770956Y-16795158D01*
X73785244Y-16825567D01*
X73801731Y-16857440D01*
X73811989Y-16876858D01*
X73823713Y-16885650D01*
X73844229Y-16909464D01*
X73872073Y-16937308D01*
X73900649Y-16965151D01*
X73914205Y-16983470D01*
X73932157Y-16990431D01*
X73955237Y-17004719D01*
X73988577Y-17021572D01*
X74020817Y-17036959D01*
X74037669Y-17042088D01*
X74049759Y-17054544D01*
X74042432Y-17042088D01*
X74042432Y-17023403D01*
X74036204Y-16997391D01*
X74030342Y-16946100D01*
X74028144Y-16894077D01*
X74025946Y-16862936D01*
X74025946Y-16805783D01*
X74025946Y-16748630D01*
X74028144Y-16727747D01*
X74030342Y-16692576D01*
X74032540Y-16656673D01*
X74034739Y-16633958D01*
X74039501Y-16611976D01*
X74047928Y-16588895D01*
X74050464Y-16577904D01*
X74231476Y-16577904D01*
X74231476Y-16685982D01*
X74231476Y-16838756D01*
X74236972Y-16882353D01*
X74247963Y-16929614D01*
X74254191Y-16944635D01*
X74260419Y-16964052D01*
X74260419Y-16987866D01*
X74260419Y-17020472D01*
X74261518Y-17051613D01*
X74255290Y-17066634D01*
X74256389Y-17064070D01*
X74269212Y-17053079D01*
X74285332Y-17048682D01*
X74307680Y-17035860D01*
X74331127Y-17031097D01*
X74338088Y-17019373D01*
X74334058Y-17020472D01*
X74336989Y-17017908D01*
X74348346Y-16994827D01*
X74361902Y-16973211D01*
X74361902Y-16890047D01*
X74361902Y-16805417D01*
X74356040Y-16783068D01*
X74345049Y-16751195D01*
X74342484Y-16737639D01*
X74335524Y-16717856D01*
X74327830Y-16695507D01*
X74324166Y-16681952D01*
X74316839Y-16663267D01*
X74303650Y-16635790D01*
X74290827Y-16611610D01*
X74283500Y-16600619D01*
X74254923Y-16569112D01*
X74238803Y-16544932D01*
X74231476Y-16577904D01*
X74050464Y-16577904D01*
X74052324Y-16569844D01*
X74056720Y-16551526D01*
X74065147Y-16531742D01*
X74076504Y-16509761D01*
X74089327Y-16487779D01*
X74103249Y-16484848D01*
X74110210Y-16459935D01*
X74128161Y-16432091D01*
X74149411Y-16413773D01*
X74168461Y-16396920D01*
X74193008Y-16378602D01*
X74214257Y-16364680D01*
X74228179Y-16355521D01*
X74242467Y-16352590D01*
X74249428Y-16347095D01*
X74262983Y-16340867D01*
X74279470Y-16336104D01*
X74319037Y-16336104D01*
X74350545Y-16336104D01*
X74378022Y-16348194D01*
G37*
G36*
X73738350Y-15327137D02*
G01*
X73754103Y-15328969D01*
X73793304Y-15357179D01*
X73829941Y-15379160D01*
X73836169Y-15393449D01*
X73853755Y-15408836D01*
X73873905Y-15426788D01*
X73889658Y-15441076D01*
X73899916Y-15454632D01*
X73917502Y-15474049D01*
X73935454Y-15494565D01*
X73945346Y-15506289D01*
X73970991Y-15537430D01*
X74000300Y-15572601D01*
X74005796Y-15586889D01*
X74017886Y-15607772D01*
X74031441Y-15630120D01*
X74041333Y-15642943D01*
X74061849Y-15675549D01*
X74079435Y-15726840D01*
X74093723Y-15775933D01*
X74100318Y-15801212D01*
X74133290Y-15860197D01*
X74169561Y-15913320D01*
X74211692Y-15907458D01*
X74283133Y-15893902D01*
X74354941Y-15880347D01*
X74406965Y-15871920D01*
X74422352Y-15870089D01*
X74433443Y-15867152D01*
X74426748Y-15864593D01*
X74400736Y-15852869D01*
X74350911Y-15817699D01*
X74298887Y-15777765D01*
X74273608Y-15751387D01*
X74262617Y-15734900D01*
X74237704Y-15719513D01*
X74206563Y-15715849D01*
X74171026Y-15737098D01*
X74144281Y-15728306D01*
X74130726Y-15726107D01*
X74115705Y-15720246D01*
X74091525Y-15725375D01*
X74090060Y-15712552D01*
X74080900Y-15699729D01*
X74084564Y-15690204D01*
X74079069Y-15674816D01*
X74079069Y-15670054D01*
X74076870Y-15653567D01*
X74075771Y-15644775D01*
X74074672Y-15630120D01*
X74091891Y-15612168D01*
X74097753Y-15596048D01*
X74111309Y-15580294D01*
X74125597Y-15561976D01*
X74154540Y-15551718D01*
X74173223Y-15547321D01*
X74169927Y-15543292D01*
X74163332Y-15534865D01*
X74138786Y-15513983D01*
X74173224Y-15513983D01*
X74177621Y-15511418D01*
X74192662Y-15514304D01*
X74265745Y-15539071D01*
X74330761Y-15577730D01*
X74357525Y-15598312D01*
X74412511Y-15648386D01*
X74463385Y-15705957D01*
X74488900Y-15739660D01*
X74532192Y-15805878D01*
X74567432Y-15871188D01*
X74583120Y-15904659D01*
X74611631Y-15976825D01*
X74632645Y-16048508D01*
X74636450Y-16064845D01*
X74647650Y-16138957D01*
X74647666Y-16214471D01*
X74634993Y-16277493D01*
X74597474Y-16343065D01*
X74543527Y-16383457D01*
X74469613Y-16404248D01*
X74406609Y-16405440D01*
X74332955Y-16393905D01*
X74256755Y-16372374D01*
X74228179Y-16366512D01*
X74196305Y-16357353D01*
X74178353Y-16348194D01*
X74164798Y-16341233D01*
X74146846Y-16333173D01*
X74132924Y-16321816D01*
X74107645Y-16301299D01*
X74098120Y-16279317D01*
X74075405Y-16267227D01*
X74053789Y-16231324D01*
X74047471Y-16218956D01*
X74039501Y-16233522D01*
X74021549Y-16238285D01*
X73991141Y-16242681D01*
X73981616Y-16244513D01*
X73966228Y-16248543D01*
X73945346Y-16253306D01*
X73925196Y-16251107D01*
X73903214Y-16248909D01*
X73878667Y-16240117D01*
X73855586Y-16234255D01*
X73825545Y-16226561D01*
X73810524Y-16211906D01*
X73783413Y-16199084D01*
X73759565Y-16180766D01*
X74029976Y-16180766D01*
X74033011Y-16181245D01*
X74032907Y-16180766D01*
X74029976Y-16180766D01*
X73759565Y-16180766D01*
X73758133Y-16179666D01*
X73738716Y-16165012D01*
X73713803Y-16147060D01*
X73694020Y-16128009D01*
X73683029Y-16114454D01*
X73672038Y-16101264D01*
X73657017Y-16081114D01*
X73641996Y-16060598D01*
X73637600Y-16047043D01*
X73625143Y-16034953D01*
X73606459Y-16008208D01*
X73589240Y-15980731D01*
X73578249Y-15958749D01*
X73572020Y-15936767D01*
X73559930Y-15904893D01*
X73547108Y-15871920D01*
X73546009Y-15852869D01*
X73517066Y-15856533D01*
X73491420Y-15848839D01*
X73479697Y-15852503D01*
X73464676Y-15840779D01*
X73492886Y-15817699D01*
X73525859Y-15797548D01*
X73525492Y-15798281D01*
X73532453Y-15796449D01*
X73525126Y-15794251D01*
X73524027Y-15790954D01*
X73522941Y-15781908D01*
X73492519Y-15783260D01*
X73427673Y-15777032D01*
X73363926Y-15768606D01*
X73326923Y-15757615D01*
X73316298Y-15767507D01*
X73291752Y-15770438D01*
X73270503Y-15769338D01*
X73247788Y-15768239D01*
X73247788Y-15737098D01*
X73515234Y-15727207D01*
X73510105Y-15710354D01*
X73510105Y-15675916D01*
X73510105Y-15642210D01*
X73510105Y-15620228D01*
X73512357Y-15595951D01*
X73697392Y-15595951D01*
X73700614Y-15606306D01*
X73705011Y-15627555D01*
X73707575Y-15643309D01*
X73710506Y-15662360D01*
X73716368Y-15690936D01*
X73722963Y-15717681D01*
X73726626Y-15732702D01*
X73732122Y-15752486D01*
X73749707Y-15785825D01*
X73756668Y-15807807D01*
X73766560Y-15824659D01*
X73780848Y-15851770D01*
X73796235Y-15874485D01*
X73821148Y-15904527D01*
X73840199Y-15933836D01*
X73855953Y-15947025D01*
X73873905Y-15956917D01*
X73894421Y-15975235D01*
X73920433Y-15995019D01*
X73947544Y-16013703D01*
X73965862Y-16025427D01*
X73986378Y-16031289D01*
X74007261Y-16040448D01*
X74004697Y-16037883D01*
X74016125Y-16032914D01*
X73998835Y-16015902D01*
X73972090Y-15969373D01*
X73966506Y-15959481D01*
X74165164Y-15959481D01*
X74192642Y-15990989D01*
X74215722Y-16026893D01*
X74228179Y-16041181D01*
X74247596Y-16066093D01*
X74264083Y-16087709D01*
X74273974Y-16099433D01*
X74288995Y-16122880D01*
X74313175Y-16142297D01*
X74337355Y-16152189D01*
X74355307Y-16156219D01*
X74377289Y-16152189D01*
X74402935Y-16145595D01*
X74446898Y-16128009D01*
X74466682Y-16082946D01*
X74471445Y-16023229D01*
X74463018Y-15970839D01*
X74449096Y-15947391D01*
X74435175Y-15958382D01*
X74427115Y-15958749D01*
X74411361Y-15962779D01*
X74393409Y-15959481D01*
X74345049Y-15956184D01*
X74369143Y-15935659D01*
X74337355Y-15940797D01*
X74327000Y-15942177D01*
X74254191Y-15952154D01*
X74186047Y-15958016D01*
X74174323Y-15961313D01*
X74165164Y-15959481D01*
X73966506Y-15959481D01*
X73946445Y-15923944D01*
X73929226Y-15889506D01*
X73916036Y-15868257D01*
X73891856Y-15838581D01*
X73883064Y-15822461D01*
X73868775Y-15801212D01*
X73855220Y-15782161D01*
X73855586Y-15769338D01*
X73832505Y-15752852D01*
X73806860Y-15719879D01*
X73782314Y-15688006D01*
X73768758Y-15669321D01*
X73749707Y-15649537D01*
X73725893Y-15624991D01*
X73719665Y-15616198D01*
X73711239Y-15607772D01*
X73697392Y-15595951D01*
X73512357Y-15595951D01*
X73513402Y-15584691D01*
X73522561Y-15542193D01*
X73528789Y-15521676D01*
X73536849Y-15497496D01*
X73542711Y-15474782D01*
X73553336Y-15448403D01*
X73577882Y-15417262D01*
X73604627Y-15383557D01*
X73618915Y-15373299D01*
X73633203Y-15354980D01*
X73648957Y-15345089D01*
X73665810Y-15337395D01*
X73681197Y-15335197D01*
X73696218Y-15333365D01*
X73709041Y-15330068D01*
X73722963Y-15324939D01*
X73738350Y-15327137D01*
G37*
G36*
X73592903Y-14864785D02*
G01*
X73507174Y-14874311D01*
X73507174Y-14886034D01*
X73507174Y-14892629D01*
X73517432Y-14911680D01*
X73525126Y-14911680D01*
X73594002Y-14911680D01*
X73596200Y-14915710D01*
X73596933Y-14925602D01*
X73598765Y-14947583D01*
X73600597Y-14973595D01*
X73601696Y-14995943D01*
X73603894Y-15064454D01*
X73603894Y-15140772D01*
X73603894Y-15167402D01*
X73603894Y-15242211D01*
X73603894Y-15270350D01*
X73600963Y-15343257D01*
X73607558Y-15359010D01*
X73619281Y-15370368D01*
X73618182Y-15380992D01*
X73626242Y-15388320D01*
X73635035Y-15389052D01*
X73645293Y-15394914D01*
X73659215Y-15391617D01*
X73672771Y-15388320D01*
X73685960Y-15378794D01*
X73697683Y-15370368D01*
X73715269Y-15354614D01*
X73731023Y-15337395D01*
X73739083Y-15326404D01*
X73747875Y-15314314D01*
X73756302Y-15296729D01*
X73764728Y-15278044D01*
X73764728Y-15261191D01*
X73764728Y-15245804D01*
X73754103Y-15231882D01*
X73747875Y-15226387D01*
X73747875Y-14871013D01*
X73743479Y-14845001D01*
X73735419Y-14814227D01*
X73731755Y-14793344D01*
X73724062Y-14764035D01*
X73717101Y-14739488D01*
X73714170Y-14723368D01*
X73704644Y-14695158D01*
X73695852Y-14671711D01*
X73680831Y-14643135D01*
X73665443Y-14615291D01*
X73659581Y-14604300D01*
X73646392Y-14590378D01*
X73636501Y-14589279D01*
X73626609Y-14584150D01*
X73622579Y-14584150D01*
X73610855Y-14584150D01*
X73591071Y-14595507D01*
X73581912Y-14608696D01*
X73554801Y-14625916D01*
X73528057Y-14651561D01*
X73525126Y-14665117D01*
X73521829Y-14677939D01*
X73521829Y-14688197D01*
X73521829Y-14696990D01*
X73541979Y-14739855D01*
X73560663Y-14780155D01*
X73567990Y-14801770D01*
X73575318Y-14825218D01*
X73575318Y-14828515D01*
X73576050Y-14828515D01*
X73345974Y-14827782D01*
X73305307Y-14855626D01*
X73346706Y-14876509D01*
X73592903Y-14864785D01*
G37*
G36*
X73569090Y-14049258D02*
G01*
X73569822Y-14056219D01*
X73573120Y-14060249D01*
X73571654Y-14062081D01*
X73567624Y-14070507D01*
X73569456Y-14077468D01*
X73472369Y-14073805D01*
X73457715Y-14099450D01*
X73475667Y-14118867D01*
X73491787Y-14124729D01*
X73506441Y-14126927D01*
X73530255Y-14129858D01*
X73554801Y-14133156D01*
X73567624Y-14129858D01*
X73567258Y-14148909D01*
X73572387Y-14170158D01*
X73576417Y-14189942D01*
X73580813Y-14213023D01*
X73590339Y-14224380D01*
X73599131Y-14229876D01*
X73605726Y-14250759D01*
X73621480Y-14270176D01*
X73637600Y-14293623D01*
X73652621Y-14316338D01*
X73672404Y-14335022D01*
X73692188Y-14351142D01*
X73717833Y-14372025D01*
X73746410Y-14397671D01*
X73757401Y-14405731D01*
X73765827Y-14411226D01*
X73780848Y-14418920D01*
X73809791Y-14435772D01*
X73853388Y-14456655D01*
X73894787Y-14478271D01*
X73923730Y-14491826D01*
X73937652Y-14495856D01*
X73954871Y-14502451D01*
X73976120Y-14507214D01*
X73999568Y-14514907D01*
X74035471Y-14519304D01*
X74059651Y-14523334D01*
X74095189Y-14523334D01*
X74127062Y-14523334D01*
X74142083Y-14519304D01*
X74154540Y-14514907D01*
X74168095Y-14507946D01*
X74178720Y-14499886D01*
X74192642Y-14488163D01*
X74208395Y-14474607D01*
X74215722Y-14457388D01*
X74229644Y-14447130D01*
X74240269Y-14429911D01*
X74250161Y-14411959D01*
X74253092Y-14397671D01*
X74253824Y-14396572D01*
X74259320Y-14366896D01*
X74257122Y-14376421D01*
X74251260Y-14367629D01*
X74254923Y-14367995D01*
X74253092Y-14366163D01*
X74235506Y-14339419D01*
X74217921Y-14334290D01*
X74198870Y-14328794D01*
X74189344Y-14327695D01*
X74172125Y-14324764D01*
X74153441Y-14321467D01*
X74143915Y-14324764D01*
X74119735Y-14312674D01*
X74095555Y-14307911D01*
X74080168Y-14302782D01*
X74064048Y-14297287D01*
X74037303Y-14281899D01*
X73994805Y-14260284D01*
X73954871Y-14240867D01*
X73931057Y-14225479D01*
X73910175Y-14214488D01*
X73891124Y-14198002D01*
X73874637Y-14181516D01*
X73850457Y-14157336D01*
X73827010Y-14133156D01*
X73808692Y-14111540D01*
X73796602Y-14103480D01*
X73787443Y-14085528D01*
X73783413Y-14075636D01*
X73780848Y-14061348D01*
X73771689Y-14041198D01*
X73768025Y-14023613D01*
X73768025Y-14008958D01*
X73768025Y-14002364D01*
X73777551Y-13981481D01*
X73785977Y-13962796D01*
X73802464Y-13951805D01*
X73819683Y-13942280D01*
X73833605Y-13931289D01*
X73847893Y-13918466D01*
X73861448Y-13909307D01*
X73880499Y-13900148D01*
X73906877Y-13887325D01*
X73933988Y-13874869D01*
X73953772Y-13865343D01*
X73978685Y-13851788D01*
X74004697Y-13842262D01*
X74040234Y-13831271D01*
X74073939Y-13821013D01*
X74099585Y-13813686D01*
X74116438Y-13810755D01*
X74128894Y-13809656D01*
X74149044Y-13807824D01*
X74169561Y-13805626D01*
X74183482Y-13804527D01*
X74197771Y-13805626D01*
X74216822Y-13808190D01*
X74240269Y-13810755D01*
X74258221Y-13817350D01*
X74278737Y-13826875D01*
X74290461Y-13837866D01*
X74302917Y-13849590D01*
X74312443Y-13869373D01*
X74322334Y-13890622D01*
X74326364Y-13910772D01*
X74330761Y-13931289D01*
X74330761Y-13973421D01*
X74338454Y-14007126D01*
X74323434Y-13999433D01*
X74291926Y-14001631D01*
X74258953Y-14006760D01*
X74235140Y-14013354D01*
X74197038Y-14034604D01*
X74240269Y-14051456D01*
X74262983Y-14054754D01*
X74302184Y-14063180D01*
X74332226Y-14066111D01*
X74330761Y-14073805D01*
X74228545Y-14073805D01*
X74250893Y-14111906D01*
X74295224Y-14127660D01*
X74332226Y-14133888D01*
X74330761Y-14138285D01*
X74330761Y-14148543D01*
X74326364Y-14170891D01*
X74322334Y-14202032D01*
X74315007Y-14225846D01*
X74309512Y-14250026D01*
X74299620Y-14283731D01*
X74299620Y-14317437D01*
X74286431Y-14319635D01*
X74275806Y-14341251D01*
X74267746Y-14362133D01*
X74264083Y-14376421D01*
X74264083Y-14411592D01*
X74264083Y-14464349D01*
X74304749Y-14461418D01*
X74341752Y-14458121D01*
X74351277Y-14451160D01*
X74370695Y-14442733D01*
X74398538Y-14412325D01*
X74431511Y-14382283D01*
X74434442Y-14367995D01*
X74449829Y-14348211D01*
X74464484Y-14325863D01*
X74465217Y-14311209D01*
X74491961Y-14294356D01*
X74528964Y-14257353D01*
X74568898Y-14218518D01*
X74599672Y-14189209D01*
X74619822Y-14172723D01*
X74657558Y-14146345D01*
X74673678Y-14129858D01*
X74700056Y-14109708D01*
X74727900Y-14089558D01*
X74735593Y-14070874D01*
X74720939Y-14080033D01*
X74714344Y-14095054D01*
X74684556Y-14165597D01*
X74680272Y-14176020D01*
X74651008Y-14246166D01*
X74629348Y-14297287D01*
X74599659Y-14367212D01*
X74577690Y-14418553D01*
X74548427Y-14486010D01*
X74541787Y-14500619D01*
X74541787Y-14568763D01*
X74558639Y-14575357D01*
X74574393Y-14580486D01*
X74591246Y-14580486D01*
X74602603Y-14580486D01*
X74614693Y-14575724D01*
X74627516Y-14572060D01*
X74645468Y-14557039D01*
X74661221Y-14548979D01*
X74682104Y-14528463D01*
X74697491Y-14510511D01*
X74709581Y-14492559D01*
X74715077Y-14470211D01*
X74729732Y-14462883D01*
X74734494Y-14451160D01*
X74762767Y-14382142D01*
X74782488Y-14334656D01*
X74811785Y-14264669D01*
X74840598Y-14194844D01*
X74844404Y-14185546D01*
X74873255Y-14115021D01*
X74898259Y-14052922D01*
X74924637Y-13985511D01*
X74935262Y-13962796D01*
X74946986Y-13929457D01*
X74957976Y-13896851D01*
X74963838Y-13874869D01*
X74963838Y-13856184D01*
X74963838Y-13826142D01*
X74944421Y-13806725D01*
X74914379Y-13806725D01*
X74888367Y-13806725D01*
X74867484Y-13819914D01*
X74841473Y-13832371D01*
X74823521Y-13845193D01*
X74807767Y-13858749D01*
X74751347Y-13899782D01*
X74690091Y-13945238D01*
X74664885Y-13964262D01*
X74604671Y-14009552D01*
X74578789Y-14029108D01*
X74539955Y-14061715D01*
X74542519Y-13866076D01*
X74540321Y-13852521D01*
X74535925Y-13830905D01*
X74530429Y-13808557D01*
X74525667Y-13793902D01*
X74521270Y-13767524D01*
X74517240Y-13746641D01*
X74504051Y-13717332D01*
X74491228Y-13691687D01*
X74430412Y-13629771D01*
X74408064Y-13620246D01*
X74382785Y-13604492D01*
X74352743Y-13600096D01*
X74322334Y-13595699D01*
X74286797Y-13595699D01*
X74254923Y-13595699D01*
X74223050Y-13600096D01*
X74178720Y-13604126D01*
X74156371Y-13614017D01*
X74136954Y-13620978D01*
X74112041Y-13626840D01*
X74079801Y-13638197D01*
X74049027Y-13647723D01*
X74030709Y-13655417D01*
X74009093Y-13666041D01*
X73971724Y-13681795D01*
X73932889Y-13699380D01*
X73908343Y-13712203D01*
X73893322Y-13720996D01*
X73870241Y-13734918D01*
X73845695Y-13749572D01*
X73830674Y-13757632D01*
X73811623Y-13770089D01*
X73794404Y-13785110D01*
X73766193Y-13802695D01*
X73746043Y-13819181D01*
X73725161Y-13840431D01*
X73694752Y-13871205D01*
X73663245Y-13900881D01*
X73637600Y-13924694D01*
X73636501Y-13933853D01*
X73625143Y-13946310D01*
X73613786Y-13961697D01*
X73603894Y-13973787D01*
X73601330Y-13982946D01*
X73592537Y-13986244D01*
X73434634Y-13986244D01*
X73417415Y-13988442D01*
X73392868Y-13992105D01*
X73369055Y-13995403D01*
X73336448Y-13997234D01*
X73358064Y-14035703D01*
X73401295Y-14038267D01*
X73432802Y-14043030D01*
X73458814Y-14048159D01*
X73479697Y-14050724D01*
X73514868Y-14052922D01*
X73551138Y-14052922D01*
X73569090Y-14049258D01*
G37*
G36*
X73546375Y-13296380D02*
G01*
X73547474Y-13309202D01*
X73514868Y-13313232D01*
X73475300Y-13322025D01*
X73454051Y-13323124D01*
X73429871Y-13326788D01*
X73394700Y-13333016D01*
X73394700Y-13375881D01*
X73555168Y-13372217D01*
X73551870Y-13375514D01*
X73554801Y-13381010D01*
X73558099Y-13400427D01*
X73565792Y-13429370D01*
X73574585Y-13457580D01*
X73580080Y-13472967D01*
X73588140Y-13501177D01*
X73603528Y-13532685D01*
X73608290Y-13549537D01*
X73615618Y-13561994D01*
X73628441Y-13573717D01*
X73644561Y-13590204D01*
X73660681Y-13609255D01*
X73675335Y-13621345D01*
X73686326Y-13625741D01*
X73692188Y-13629405D01*
X73701347Y-13634900D01*
X73719299Y-13639297D01*
X73736152Y-13644059D01*
X73773154Y-13644059D01*
X73805028Y-13644059D01*
X73832139Y-13639663D01*
X73863280Y-13635267D01*
X73914205Y-13623177D01*
X73960367Y-13610720D01*
X73988210Y-13601195D01*
X74037669Y-13586174D01*
X74087495Y-13571153D01*
X74116438Y-13563826D01*
X74162966Y-13550270D01*
X74210593Y-13537814D01*
X74239903Y-13532318D01*
X74265914Y-13526823D01*
X74323067Y-13526823D01*
X74379854Y-13526823D01*
X74387547Y-13528655D01*
X74399637Y-13532685D01*
X74413926Y-13536348D01*
X74417956Y-13556865D01*
X74429679Y-13575916D01*
X74432610Y-13588738D01*
X74443601Y-13594234D01*
X74456790Y-13597897D01*
X74471811Y-13600462D01*
X74483168Y-13600462D01*
X74491961Y-13600462D01*
X74504784Y-13597531D01*
X74514676Y-13594234D01*
X74540321Y-13586174D01*
X74567066Y-13572618D01*
X74616525Y-13523525D01*
X74628249Y-13507039D01*
X74641071Y-13486523D01*
X74646200Y-13469304D01*
X74651696Y-13450253D01*
X74651696Y-13439628D01*
X74651696Y-13432301D01*
X74638140Y-13408487D01*
X74626417Y-13389070D01*
X74620921Y-13376613D01*
X74615060Y-13370752D01*
X74587582Y-13357929D01*
X74563769Y-13344007D01*
X74538123Y-13338878D01*
X74512844Y-13333382D01*
X74419787Y-13333382D01*
X74331494Y-13333382D01*
X74304749Y-13338878D01*
X74272875Y-13344007D01*
X74250527Y-13349502D01*
X74221951Y-13356830D01*
X74194107Y-13364523D01*
X74181651Y-13374415D01*
X74146480Y-13377712D01*
X74083831Y-13395664D01*
X74021549Y-13414715D01*
X73987111Y-13426073D01*
X73956703Y-13433400D01*
X73933622Y-13438529D01*
X73880499Y-13438529D01*
X73835070Y-13438529D01*
X73820415Y-13424607D01*
X73803563Y-13405556D01*
X73793304Y-13389802D01*
X73786344Y-13378079D01*
X73784145Y-13371118D01*
X73778650Y-13351701D01*
X73773154Y-13334481D01*
X73765094Y-13307004D01*
X73751539Y-13287587D01*
X73755935Y-13274764D01*
X73752638Y-13250584D01*
X73749341Y-13227137D01*
X73747509Y-13212482D01*
X73745311Y-13185738D01*
X73743113Y-13149834D01*
X73742013Y-13117594D01*
X73741281Y-13100375D01*
X73739083Y-13071798D01*
X73736884Y-13037726D01*
X73736884Y-13027102D01*
X73739083Y-13014279D01*
X73739083Y-13005486D01*
X73764362Y-12999258D01*
X73832505Y-12999258D01*
X73933622Y-12999258D01*
X73952307Y-12999258D01*
X73983814Y-12999258D01*
X74016420Y-12999258D01*
X74035838Y-12994495D01*
X74051591Y-13004021D01*
X74087129Y-13010982D01*
X74123032Y-13017210D01*
X74149411Y-13022705D01*
X74175789Y-13030399D01*
X74217188Y-13039925D01*
X74256755Y-13049450D01*
X74281668Y-13057144D01*
X74335524Y-13073630D01*
X74407211Y-13095269D01*
X74417956Y-13098543D01*
X74490244Y-13120422D01*
X74500021Y-13123456D01*
X74557540Y-13139942D01*
X74588315Y-13139942D01*
X74615792Y-13139942D01*
X74631546Y-13136645D01*
X74646200Y-13126753D01*
X74661954Y-13116495D01*
X74679540Y-13105504D01*
X74692729Y-13090483D01*
X74707750Y-13075096D01*
X74715810Y-13059342D01*
X74732662Y-13043955D01*
X74736692Y-13027102D01*
X74741089Y-13011348D01*
X74741089Y-12991931D01*
X74741089Y-12979475D01*
X74728632Y-12960057D01*
X74710681Y-12943937D01*
X74683570Y-12933679D01*
X74660122Y-12925619D01*
X74642170Y-12920123D01*
X74569997Y-12900340D01*
X74499021Y-12879824D01*
X74442868Y-12863703D01*
X74368130Y-12841813D01*
X74294070Y-12820126D01*
X74288995Y-12818641D01*
X74214941Y-12796696D01*
X74144589Y-12776201D01*
X74135489Y-12773578D01*
X74063378Y-12752941D01*
X74007994Y-12737308D01*
X73936919Y-12717158D01*
X73916769Y-12710929D01*
X73887460Y-12701770D01*
X73854854Y-12691146D01*
X73832139Y-12685284D01*
X73811989Y-12677590D01*
X73778650Y-12664401D01*
X73744578Y-12650113D01*
X73720032Y-12637290D01*
X73699515Y-12628131D01*
X73677167Y-12612378D01*
X73648957Y-12612378D01*
X73621846Y-12612378D01*
X73604627Y-12621903D01*
X73595834Y-12629597D01*
X73599498Y-12639122D01*
X73578615Y-12641687D01*
X73564693Y-12654509D01*
X73552603Y-12663669D01*
X73533919Y-12669530D01*
X73524759Y-12694077D01*
X73509006Y-12716791D01*
X73503877Y-12729614D01*
X73498381Y-12745368D01*
X73498381Y-12758190D01*
X73498381Y-12777241D01*
X73515600Y-12805818D01*
X73535750Y-12828532D01*
X73546009Y-12846851D01*
X73559564Y-12872130D01*
X73572753Y-12873595D01*
X73578615Y-12876893D01*
X73589240Y-12882388D01*
X73596200Y-12882388D01*
X73603894Y-12882388D01*
X73622212Y-12877992D01*
X73641630Y-12869565D01*
X73647125Y-12869932D01*
X73644927Y-12868833D01*
X73647125Y-12871031D01*
X73657383Y-12868466D01*
X73643828Y-12868466D01*
X73628807Y-12884953D01*
X73614885Y-12899607D01*
X73607191Y-12908766D01*
X73588140Y-12927817D01*
X73565426Y-12954928D01*
X73559930Y-12968484D01*
X73559564Y-12981306D01*
X73550039Y-12995595D01*
X73546375Y-13013546D01*
X73537949Y-13045420D01*
X73533552Y-13072897D01*
X73533552Y-13245821D01*
X73480063Y-13245821D01*
X73406149Y-13245821D01*
X73379679Y-13245821D01*
X73305669Y-13245821D01*
X73278563Y-13245821D01*
X73207854Y-13245821D01*
X73184041Y-13257545D01*
X73149236Y-13262674D01*
X73112233Y-13267803D01*
X73089152Y-13284656D01*
X73097579Y-13296380D01*
X73546375Y-13296380D01*
G37*
G36*
X73546009Y-12426997D02*
G01*
X73539780Y-12439087D01*
X73542711Y-12457039D01*
X73557000Y-12470595D01*
X73569456Y-12483784D01*
X73596567Y-12488546D01*
X73631005Y-12489279D01*
X73663245Y-12492210D01*
X73682662Y-12494775D01*
X73712704Y-12500270D01*
X73749341Y-12500270D01*
X73779383Y-12503567D01*
X73792205Y-12506865D01*
X73842031Y-12506865D01*
X73916206Y-12506865D01*
X73924463Y-12506865D01*
X73999877Y-12506865D01*
X74010192Y-12506865D01*
X74070642Y-12506865D01*
X74098120Y-12506865D01*
X74144648Y-12506865D01*
X74194107Y-12506865D01*
X74229278Y-12506865D01*
X74252359Y-12506865D01*
X74287530Y-12506865D01*
X74321968Y-12506865D01*
X74340653Y-12496973D01*
X74336256Y-12501736D01*
X74334058Y-12499537D01*
X74331860Y-12505766D01*
X74317938Y-12520420D01*
X74295224Y-12536174D01*
X74282767Y-12555957D01*
X74268113Y-12577939D01*
X74253458Y-12600654D01*
X74253824Y-12614576D01*
X74233674Y-12628864D01*
X74216089Y-12655975D01*
X74201068Y-12683086D01*
X74194107Y-12698839D01*
X74192275Y-12709464D01*
X74190077Y-12725950D01*
X74190077Y-12754527D01*
X74208395Y-12769181D01*
X74230743Y-12769181D01*
X74240269Y-12771380D01*
X74250527Y-12771380D01*
X74256755Y-12773211D01*
X74283866Y-12763686D01*
X74319404Y-12754527D01*
X74321968Y-12739140D01*
X74342484Y-12727050D01*
X74361902Y-12710929D01*
X74377289Y-12700305D01*
X74387547Y-12680155D01*
X74394875Y-12667332D01*
X74401836Y-12656341D01*
X74410628Y-12633993D01*
X74416490Y-12612011D01*
X74423451Y-12602119D01*
X74441403Y-12599188D01*
X74458988Y-12573909D01*
X74487565Y-12550096D01*
X74517607Y-12524816D01*
X74535558Y-12506865D01*
X74555342Y-12495141D01*
X74581720Y-12480486D01*
X74612129Y-12464000D01*
X74638140Y-12448613D01*
X74658657Y-12439454D01*
X74687233Y-12430294D01*
X74688332Y-12420403D01*
X74695660Y-12410877D01*
X74713612Y-12391093D01*
X74724969Y-12370577D01*
X74739990Y-12358487D01*
X74748782Y-12344565D01*
X74748782Y-12322583D01*
X74748782Y-12316355D01*
X74752812Y-12308295D01*
X74739257Y-12291442D01*
X74724236Y-12284115D01*
X74696759Y-12284115D01*
X74690531Y-12284115D01*
X74682837Y-12281917D01*
X74667450Y-12278986D01*
X74654627Y-12283016D01*
X74630447Y-12291076D01*
X74609198Y-12298037D01*
X74598207Y-12300602D01*
X74572195Y-12304998D01*
X74537024Y-12301701D01*
X74538489Y-12313058D01*
X74520171Y-12310127D01*
X74498922Y-12312325D01*
X74483168Y-12313424D01*
X74437373Y-12313424D01*
X74402568Y-12313424D01*
X74377289Y-12313424D01*
X74338088Y-12313424D01*
X74301085Y-12313424D01*
X74280203Y-12313424D01*
X74235506Y-12313424D01*
X74168828Y-12313424D01*
X74103249Y-12313424D01*
X74060018Y-12313424D01*
X73986537Y-12313424D01*
X73979784Y-12313424D01*
X73905289Y-12313424D01*
X73864379Y-12313424D01*
X73790095Y-12313424D01*
X73754836Y-12313424D01*
X73688891Y-12295839D01*
X73632837Y-12295839D01*
X73558099Y-12295839D01*
X73483727Y-12291076D01*
X73430970Y-12283749D01*
X73376382Y-12301701D01*
X73432069Y-12325148D01*
X73458448Y-12330643D01*
X73490321Y-12339070D01*
X73539048Y-12346763D01*
X73585210Y-12352625D01*
X73607924Y-12348962D01*
X73566159Y-12373874D01*
X73540879Y-12376073D01*
X73497282Y-12376805D01*
X73453318Y-12376805D01*
X73425475Y-12376805D01*
X73403493Y-12376805D01*
X73371619Y-12376805D01*
X73340845Y-12377904D01*
X73304941Y-12379003D01*
X73319962Y-12420036D01*
X73546009Y-12426997D01*
G37*
G36*
X74091525Y-11373700D02*
G01*
X74110942Y-11378463D01*
X74131825Y-11391652D01*
X74148311Y-11407039D01*
X74168461Y-11423525D01*
X74185314Y-11438913D01*
X74204732Y-11467856D01*
X74224515Y-11500828D01*
X74233674Y-11526474D01*
X74245398Y-11557981D01*
X74252359Y-11578864D01*
X74262617Y-11609639D01*
X74273242Y-11638948D01*
X74280935Y-11659464D01*
X74291560Y-11701230D01*
X74302184Y-11739698D01*
X74309512Y-11767908D01*
X74319770Y-11812604D01*
X74330028Y-11857667D01*
X74338088Y-11889541D01*
X74344316Y-11932772D01*
X74358605Y-11997618D01*
X74373259Y-12063930D01*
X74380953Y-12099101D01*
X74381319Y-12099101D01*
X74545084Y-12051474D01*
X74530796Y-12035354D01*
X74513943Y-11996886D01*
X74496724Y-11958784D01*
X74486099Y-11933871D01*
X74479505Y-11917384D01*
X74471078Y-11896135D01*
X74463385Y-11874886D01*
X74459721Y-11858400D01*
X74459721Y-11828724D01*
X74459721Y-11801613D01*
X74471811Y-11774869D01*
X74489763Y-11750689D01*
X74500387Y-11739331D01*
X74517973Y-11720647D01*
X74536658Y-11702695D01*
X74548381Y-11693536D01*
X74572561Y-11677782D01*
X74605168Y-11665692D01*
X74617990Y-11665692D01*
X74639972Y-11665692D01*
X74652429Y-11670455D01*
X74671113Y-11677782D01*
X74676975Y-11683644D01*
X74686501Y-11704527D01*
X74683203Y-11721380D01*
X74682471Y-11745926D01*
X74683203Y-11771572D01*
X74686501Y-11788424D01*
X74693095Y-11806742D01*
X74712879Y-11844112D01*
X74734128Y-11888442D01*
X74744752Y-11923979D01*
X74760140Y-11934237D01*
X74774062Y-11955853D01*
X74793479Y-11980399D01*
X74801905Y-12005678D01*
X74814362Y-12006777D01*
X74817659Y-12009708D01*
X74827551Y-12013738D01*
X74853196Y-12017768D01*
X74874079Y-12026927D01*
X74897160Y-12032789D01*
X74911815Y-12037918D01*
X74927568Y-12043047D01*
X74966403Y-12062465D01*
X74996811Y-12074555D01*
X75040042Y-12117786D01*
X75050300Y-12140500D01*
X75050300Y-12158086D01*
X75050300Y-12169809D01*
X75038943Y-12196554D01*
X75027586Y-12220001D01*
X74955778Y-12289244D01*
X74930133Y-12300968D01*
X74903388Y-12310493D01*
X74878109Y-12310493D01*
X74846235Y-12310493D01*
X74826452Y-12306830D01*
X74807767Y-12302800D01*
X74752080Y-12276788D01*
X74744752Y-12264698D01*
X74726434Y-12256271D01*
X74704086Y-12242716D01*
X74680639Y-12228428D01*
X74616891Y-12228428D01*
X74548381Y-12228428D01*
X74528231Y-12231359D01*
X74504784Y-12238320D01*
X74478406Y-12243815D01*
X74437373Y-12257004D01*
X74393409Y-12271659D01*
X74364100Y-12280451D01*
X74347247Y-12287412D01*
X74318671Y-12297304D01*
X74288263Y-12306463D01*
X74269944Y-12310493D01*
X74245032Y-12310493D01*
X74221584Y-12310493D01*
X74203266Y-12300968D01*
X74184948Y-12287046D01*
X74180551Y-12249311D01*
X74180551Y-12230769D01*
X74157837Y-12251509D01*
X74127062Y-12276788D01*
X74102150Y-12287412D01*
X74079069Y-12298770D01*
X74017519Y-12298770D01*
X73950108Y-12298770D01*
X73913838Y-12293641D01*
X73871340Y-12286680D01*
X73836535Y-12281551D01*
X73813088Y-12276055D01*
X73789274Y-12268361D01*
X73756668Y-12259569D01*
X73724062Y-12249677D01*
X73702446Y-12240884D01*
X73680831Y-12230260D01*
X73657750Y-12218170D01*
X73638699Y-12206446D01*
X73618915Y-12192890D01*
X73595468Y-12168710D01*
X73582645Y-12144897D01*
X73565426Y-12130975D01*
X73551870Y-12104963D01*
X73547840Y-12083348D01*
X73537216Y-12076387D01*
X73532087Y-12033156D01*
X73529889Y-12007510D01*
X73282226Y-12010807D01*
X73293950Y-11987726D01*
X73296515Y-11982964D01*
X73305674Y-11984063D01*
X73315199Y-11971606D01*
X73333517Y-11962081D01*
X73383709Y-11955486D01*
X73447457Y-11949258D01*
X73508273Y-11942664D01*
X73517239Y-11941898D01*
X73461012Y-11923246D01*
X73461012Y-11890640D01*
X73554801Y-11890640D01*
X73569822Y-11859133D01*
X73574926Y-11847775D01*
X73744578Y-11847775D01*
X73744578Y-11904928D01*
X73744578Y-11962081D01*
X73748608Y-11972705D01*
X73748608Y-11983696D01*
X73783779Y-12010441D01*
X73802830Y-12037552D01*
X73824812Y-12043780D01*
X73851190Y-12057336D01*
X73872439Y-12064663D01*
X73903946Y-12073822D01*
X73935454Y-12083714D01*
X73952307Y-12094705D01*
X73963297Y-12092873D01*
X73983448Y-12095804D01*
X74004330Y-12099101D01*
X74017519Y-12100933D01*
X74040600Y-12103131D01*
X74072108Y-12105329D01*
X74104348Y-12107528D01*
X74124131Y-12111558D01*
X74165531Y-12118885D01*
X74158203Y-12107161D01*
X74154906Y-12089942D01*
X74146113Y-12047810D01*
X74141351Y-12029126D01*
X74128528Y-12021432D01*
X74112408Y-12010441D01*
X74076504Y-12007510D01*
X74062949Y-11990657D01*
X74062949Y-11978201D01*
X74062949Y-11960249D01*
X74094822Y-11954754D01*
X74116438Y-11949258D01*
X74117170Y-11948525D01*
X74119735Y-11948525D01*
X74119735Y-11940099D01*
X74114240Y-11911889D01*
X74109110Y-11882580D01*
X74106180Y-11869391D01*
X74098852Y-11845943D01*
X74091525Y-11820664D01*
X74088228Y-11803079D01*
X74077237Y-11775968D01*
X74062216Y-11732737D01*
X74048660Y-11691338D01*
X74040234Y-11666425D01*
X74036570Y-11658731D01*
X74036937Y-11644809D01*
X74020817Y-11629789D01*
X74009826Y-11613669D01*
X73984913Y-11588389D01*
X73969159Y-11571903D01*
X73950108Y-11571903D01*
X73928859Y-11571903D01*
X73919334Y-11577398D01*
X73907976Y-11582528D01*
X73881965Y-11606708D01*
X73857418Y-11633819D01*
X73847893Y-11648839D01*
X73833971Y-11669356D01*
X73819316Y-11690239D01*
X73809791Y-11704160D01*
X73802097Y-11723944D01*
X73785611Y-11758382D01*
X73767293Y-11795019D01*
X73753004Y-11819565D01*
X73748608Y-11834586D01*
X73744578Y-11847775D01*
X73574926Y-11847775D01*
X73595834Y-11801247D01*
X73622579Y-11743728D01*
X73642729Y-11704893D01*
X73649690Y-11693902D01*
X73662512Y-11673752D01*
X73677900Y-11651404D01*
X73690722Y-11636749D01*
X73706476Y-11611470D01*
X73724428Y-11590588D01*
X73734320Y-11573735D01*
X73754103Y-11552119D01*
X73770956Y-11532702D01*
X73780115Y-11522077D01*
X73797334Y-11501927D01*
X73816019Y-11481777D01*
X73845695Y-11460162D01*
X73874271Y-11437081D01*
X73891856Y-11424991D01*
X73909808Y-11418763D01*
X73946445Y-11393117D01*
X73982715Y-11383225D01*
X73999934Y-11375165D01*
X74018618Y-11365640D01*
X74044997Y-11365640D01*
X74066612Y-11365640D01*
X74091525Y-11373700D01*
G37*
G36*
X73499114Y-11290169D02*
G01*
X73522561Y-11301160D01*
X73548207Y-11309220D01*
X73569090Y-11318013D01*
X73597300Y-11323874D01*
X73617816Y-11327172D01*
X73657750Y-11334499D01*
X73700248Y-11341826D01*
X73732122Y-11346589D01*
X73776452Y-11350985D01*
X73814187Y-11355015D01*
X73890201Y-11364869D01*
X73897352Y-11365640D01*
X73971741Y-11373854D01*
X74017886Y-11379195D01*
X74092017Y-11388068D01*
X74132924Y-11393117D01*
X74205464Y-11403375D01*
X74235872Y-11403375D01*
X74274341Y-11405207D01*
X74309145Y-11408138D01*
X74329295Y-11409237D01*
X74462652Y-11409237D01*
X74589414Y-11409237D01*
X74621654Y-11405574D01*
X74665251Y-11401544D01*
X74689431Y-11393484D01*
X74707750Y-11389454D01*
X74743287Y-11372601D01*
X74783221Y-11355748D01*
X74798242Y-11345856D01*
X74815827Y-11335964D01*
X74844404Y-11309953D01*
X74854662Y-11294199D01*
X74865286Y-11280643D01*
X74871148Y-11270019D01*
X74878842Y-11256463D01*
X74886535Y-11234481D01*
X74889833Y-11227521D01*
X74893130Y-11214698D01*
X74889833Y-11202241D01*
X74886535Y-11196013D01*
X74875545Y-11176230D01*
X74855761Y-11165239D01*
X74856494Y-11163040D01*
X74849533Y-11162308D01*
X74840740Y-11161209D01*
X74832314Y-11165239D01*
X74805569Y-11169635D01*
X74794944Y-11183190D01*
X74786152Y-11183923D01*
X74769299Y-11190884D01*
X74753912Y-11204073D01*
X74743653Y-11212500D01*
X74741455Y-11214698D01*
X74736692Y-11215797D01*
X74728999Y-11215797D01*
X74398172Y-11215797D01*
X74398172Y-11214331D01*
X74400004Y-11204073D01*
X74403301Y-11185022D01*
X74406598Y-11166704D01*
X74408796Y-11157911D01*
X74417956Y-11104422D01*
X74431236Y-11029946D01*
X74432610Y-11021624D01*
X74444952Y-10948454D01*
X74446532Y-10938826D01*
X74454958Y-10887168D01*
X74460820Y-10875811D01*
X74809233Y-10875811D01*
X74834512Y-10863721D01*
X74863088Y-10843937D01*
X74924637Y-10779091D01*
X74932697Y-10758208D01*
X74943688Y-10731463D01*
X74943688Y-10720839D01*
X74943688Y-10714244D01*
X74936727Y-10682371D01*
X74923538Y-10682371D01*
X74513210Y-10682371D01*
X74443601Y-10682737D01*
X74094090Y-10682737D01*
X74022282Y-10676509D01*
X73947333Y-10676509D01*
X73916769Y-10676509D01*
X73840989Y-10676509D01*
X73813088Y-10676509D01*
X73745311Y-10670647D01*
X73731023Y-10665884D01*
X73702080Y-10658923D01*
X73671672Y-10655992D01*
X73654452Y-10652695D01*
X73624777Y-10652695D01*
X73597300Y-10652695D01*
X73576417Y-10660389D01*
X73557732Y-10667716D01*
X73535750Y-10673944D01*
X73497648Y-10676509D01*
X73457348Y-10677608D01*
X73436099Y-10680539D01*
X73415583Y-10681638D01*
X73395799Y-10686401D01*
X73393601Y-10697758D01*
X73384808Y-10718274D01*
X73514868Y-10706551D01*
X73490321Y-10694827D01*
X73451487Y-10697025D01*
X73412652Y-10701421D01*
X73388472Y-10705451D01*
X73364292Y-10712779D01*
X73356232Y-10729998D01*
X73352202Y-10728899D01*
X73340478Y-10722304D01*
X73340478Y-10736226D01*
X73340478Y-10740622D01*
X73358430Y-10754178D01*
X73384808Y-10758574D01*
X73412652Y-10762971D01*
X73446724Y-10771763D01*
X73474568Y-10773229D01*
X73471637Y-10790448D01*
X73478231Y-10809865D01*
X73491787Y-10814262D01*
X73502411Y-10828184D01*
X73525492Y-10834045D01*
X73558099Y-10842472D01*
X73584843Y-10845769D01*
X73619281Y-10850532D01*
X73674969Y-10852364D01*
X73728824Y-10857859D01*
X73765461Y-10869949D01*
X73840565Y-10869949D01*
X73915298Y-10869949D01*
X73963297Y-10869949D01*
X74038202Y-10869949D01*
X74086030Y-10869949D01*
X74157837Y-10869949D01*
X74179819Y-10869949D01*
X74212792Y-10876177D01*
X74247596Y-10882405D01*
X74265914Y-10876910D01*
X74260419Y-10901456D01*
X74260419Y-10930033D01*
X74256023Y-10970699D01*
X74259320Y-11004038D01*
X74250161Y-11004405D01*
X74245764Y-11008068D01*
X74201801Y-11010633D01*
X74133657Y-11010633D01*
X74062949Y-11010633D01*
X74016420Y-11015029D01*
X73994072Y-11019426D01*
X73950841Y-11023456D01*
X73904313Y-11026753D01*
X73872439Y-11029684D01*
X73848259Y-11029684D01*
X73811989Y-11032981D01*
X73777551Y-11035912D01*
X73756302Y-11035912D01*
X73738350Y-11039576D01*
X73714536Y-11042140D01*
X73690356Y-11044705D01*
X73675702Y-11057894D01*
X73708308Y-11074014D01*
X73743479Y-11078410D01*
X73770956Y-11078410D01*
X73800632Y-11078410D01*
X73847893Y-11078410D01*
X73922747Y-11078410D01*
X73928127Y-11078410D01*
X74003110Y-11078410D01*
X74007628Y-11078410D01*
X74054156Y-11078410D01*
X74235140Y-11078410D01*
X74242467Y-11076578D01*
X74232209Y-11068518D01*
X74209128Y-11067053D01*
X74184948Y-11065221D01*
X74165897Y-11064122D01*
X74135489Y-11070717D01*
X74099585Y-11080975D01*
X74099585Y-11091966D01*
X74099585Y-11101858D01*
X74116438Y-11115413D01*
X74132558Y-11122008D01*
X74153441Y-11122008D01*
X74184581Y-11122008D01*
X74214257Y-11120909D01*
X74230011Y-11112116D01*
X74224515Y-11133731D01*
X74226713Y-11157911D01*
X74221584Y-11179160D01*
X74218653Y-11196013D01*
X74189711Y-11193815D01*
X74159669Y-11193815D01*
X74129260Y-11188686D01*
X74072474Y-11180626D01*
X74010192Y-11172932D01*
X73961832Y-11167070D01*
X73931790Y-11164140D01*
X73884529Y-11156446D01*
X73834337Y-11148752D01*
X73800632Y-11145455D01*
X73779749Y-11142524D01*
X73742380Y-11134830D01*
X73703912Y-11125671D01*
X73677533Y-11118710D01*
X73654452Y-11118710D01*
X73624411Y-11118710D01*
X73617816Y-11123839D01*
X73607558Y-11131167D01*
X73603161Y-11135929D01*
X73582645Y-11147653D01*
X73565426Y-11159010D01*
X73550405Y-11171833D01*
X73529522Y-11193082D01*
X73511570Y-11213965D01*
X73504243Y-11221659D01*
X72987303Y-11221659D01*
X72948468Y-11242175D01*
X72993165Y-11266722D01*
X73026504Y-11273316D01*
X73048852Y-11275881D01*
X73083290Y-11278079D01*
X73116630Y-11283208D01*
X73140443Y-11288337D01*
X73213716Y-11288337D01*
X73287343Y-11288337D01*
X73322526Y-11288337D01*
X73398514Y-11288337D01*
X73431337Y-11288337D01*
X73499114Y-11290169D01*
G37*
G36*
X74446532Y-9605992D02*
G01*
X74458988Y-9618815D01*
X74465583Y-9631271D01*
X74482802Y-9644094D01*
X74498189Y-9666442D01*
X74508448Y-9687692D01*
X74515408Y-9711139D01*
X74522736Y-9731655D01*
X74532261Y-9750706D01*
X74534093Y-9774520D01*
X74539222Y-9804928D01*
X74545817Y-9835703D01*
X74549114Y-9856952D01*
X74549639Y-9858874D01*
X74562669Y-9931324D01*
X74571255Y-9985300D01*
X74582087Y-10058819D01*
X74589645Y-10111962D01*
X74600039Y-10184848D01*
X74610663Y-10259586D01*
X74619090Y-10302817D01*
X74629348Y-10352276D01*
X74634477Y-10373525D01*
X74643636Y-10407597D01*
X74653528Y-10440570D01*
X74659023Y-10460354D01*
X74674777Y-10491495D01*
X74689431Y-10523735D01*
X74702254Y-10546083D01*
X74716176Y-10566233D01*
X74730098Y-10581620D01*
X74757575Y-10606167D01*
X74786884Y-10631812D01*
X74809233Y-10648665D01*
X74812530Y-10662953D01*
X74819857Y-10675776D01*
X74819857Y-10689331D01*
X74819857Y-10698857D01*
X74812163Y-10728532D01*
X74795311Y-10756010D01*
X74780656Y-10776893D01*
X74759773Y-10806202D01*
X74741089Y-10820123D01*
X74720939Y-10834045D01*
X74702621Y-10840640D01*
X74684302Y-10847967D01*
X74664885Y-10844670D01*
X74645834Y-10841739D01*
X74623852Y-10829283D01*
X74612129Y-10816460D01*
X74598207Y-10816093D01*
X74587216Y-10798508D01*
X74574027Y-10783487D01*
X74550213Y-10768100D01*
X74534093Y-10750514D01*
X74516141Y-10735493D01*
X74500021Y-10725968D01*
X74482436Y-10716076D01*
X74451661Y-10701421D01*
X74425283Y-10690431D01*
X74402202Y-10677241D01*
X74378388Y-10671746D01*
X74352376Y-10662587D01*
X74319404Y-10649764D01*
X74288995Y-10638773D01*
X74268845Y-10633644D01*
X74221584Y-10619356D01*
X74177621Y-10606533D01*
X74157837Y-10603236D01*
X74122300Y-10595909D01*
X74087129Y-10588581D01*
X74059285Y-10585284D01*
X74039135Y-10581254D01*
X74017153Y-10581254D01*
X74010558Y-10587482D01*
X73994438Y-10605068D01*
X73974655Y-10624851D01*
X73961832Y-10635476D01*
X73938385Y-10654160D01*
X73911274Y-10667350D01*
X73902847Y-10668449D01*
X73892223Y-10669548D01*
X73884163Y-10669548D01*
X73870607Y-10674311D01*
X73846427Y-10651230D01*
X73830674Y-10635110D01*
X73821148Y-10619356D01*
X73814554Y-10594077D01*
X73805103Y-10570088D01*
X73498748Y-10581254D01*
X73485558Y-10581254D01*
X73466141Y-10557807D01*
X73466141Y-10552678D01*
X73463943Y-10546449D01*
X73468706Y-10522636D01*
X73472369Y-10509813D01*
X73481528Y-10487098D01*
X73492519Y-10469147D01*
X73513036Y-10441669D01*
X73536483Y-10416390D01*
X73554069Y-10404666D01*
X73570555Y-10392943D01*
X73589240Y-10382318D01*
X73606825Y-10379754D01*
X73622212Y-10373892D01*
X73649323Y-10371327D01*
X73675335Y-10370228D01*
X73691455Y-10370228D01*
X73720398Y-10366198D01*
X73766560Y-10357039D01*
X73805808Y-10350445D01*
X74013489Y-10350445D01*
X74045729Y-10349712D01*
X74100318Y-10358138D01*
X74152708Y-10368763D01*
X74184948Y-10376090D01*
X74235506Y-10387447D01*
X74237754Y-10387907D01*
X74311344Y-10404300D01*
X74313857Y-10404893D01*
X74386448Y-10421153D01*
X74429365Y-10429343D01*
X74416124Y-10361435D01*
X74413490Y-10347328D01*
X74399271Y-10274241D01*
X74396051Y-10256174D01*
X74383884Y-10182650D01*
X74311710Y-10182650D01*
X74317572Y-10165064D01*
X74332226Y-10151509D01*
X74354285Y-10142054D01*
X74174690Y-10158470D01*
X74185314Y-10128428D01*
X74199236Y-10114140D01*
X74235872Y-10107179D01*
X74261152Y-10101683D01*
X74280569Y-10098752D01*
X74302917Y-10092524D01*
X74335524Y-10085929D01*
X74365565Y-10081533D01*
X74380953Y-10087029D01*
X74373259Y-10082632D01*
X74373259Y-10077137D01*
X74368130Y-10039035D01*
X74361535Y-9992140D01*
X74355674Y-9952207D01*
X74352743Y-9935354D01*
X74342118Y-9901648D01*
X74333692Y-9863180D01*
X74328929Y-9854021D01*
X74318304Y-9833138D01*
X74312809Y-9822147D01*
X74317572Y-9808592D01*
X74298154Y-9806760D01*
X74289728Y-9800532D01*
X74287896Y-9800532D01*
X74283500Y-9800532D01*
X74280203Y-9788808D01*
X74273242Y-9802364D01*
X74260053Y-9810790D01*
X74246131Y-9821048D01*
X74241368Y-9827643D01*
X74235506Y-9838267D01*
X74220485Y-9852922D01*
X74205464Y-9873438D01*
X74190810Y-9891756D01*
X74187512Y-9904579D01*
X74177987Y-9917036D01*
X74166996Y-9936819D01*
X74156005Y-9958801D01*
X74147945Y-9978218D01*
X74128161Y-10011558D01*
X74113140Y-10038302D01*
X74103249Y-10064314D01*
X74086396Y-10106812D01*
X74069543Y-10148944D01*
X74060750Y-10174223D01*
X74055988Y-10191442D01*
X74046462Y-10224782D01*
X74034739Y-10263250D01*
X74024480Y-10291093D01*
X74020084Y-10308313D01*
X74016054Y-10322234D01*
X74016054Y-10328463D01*
X74017153Y-10332126D01*
X74018252Y-10339087D01*
X74018252Y-10349712D01*
X74013489Y-10350445D01*
X73805808Y-10350445D01*
X73812355Y-10349345D01*
X73838734Y-10343484D01*
X73846061Y-10323334D01*
X73855220Y-10301352D01*
X73859616Y-10284865D01*
X73868043Y-10257388D01*
X73875736Y-10230643D01*
X73883064Y-10208295D01*
X73890757Y-10197304D01*
X73900649Y-10188511D01*
X73870241Y-10195839D01*
X73831040Y-10195839D01*
X73794770Y-10195839D01*
X73767659Y-10195839D01*
X73764137Y-10197081D01*
X73690356Y-10206097D01*
X73668663Y-10206097D01*
X73592903Y-10206097D01*
X73581139Y-10206086D01*
X73506808Y-10205364D01*
X73448922Y-10192908D01*
X73487024Y-10174223D01*
X73498155Y-10172784D01*
X73571554Y-10165216D01*
X73648591Y-10159202D01*
X73671305Y-10159202D01*
X73705011Y-10159202D01*
X73739815Y-10159202D01*
X73763263Y-10159202D01*
X73789641Y-10157371D01*
X73833971Y-10153341D01*
X73877935Y-10147845D01*
X73910175Y-10142716D01*
X73912373Y-10141983D01*
X73919700Y-10139785D01*
X73928127Y-10105347D01*
X73954505Y-10047828D01*
X73981616Y-9990675D01*
X73999201Y-9958801D01*
X74007628Y-9941582D01*
X74017886Y-9921432D01*
X74033273Y-9897252D01*
X74052324Y-9864645D01*
X74070276Y-9837168D01*
X74075039Y-9821048D01*
X74098486Y-9796135D01*
X74132924Y-9757301D01*
X74168828Y-9716268D01*
X74194473Y-9685127D01*
X74215722Y-9665710D01*
X74235506Y-9649590D01*
X74257122Y-9633836D01*
X74281668Y-9619181D01*
X74293025Y-9613320D01*
X74304749Y-9607458D01*
X74319770Y-9602695D01*
X74341385Y-9600863D01*
X74366298Y-9596467D01*
X74395607Y-9596467D01*
X74416856Y-9596467D01*
X74428214Y-9596467D01*
X74446532Y-9605992D01*
G37*
G36*
X74091525Y-8891216D02*
G01*
X74110942Y-8895978D01*
X74131825Y-8909167D01*
X74148311Y-8924555D01*
X74168461Y-8941041D01*
X74185314Y-8956428D01*
X74204732Y-8985371D01*
X74224515Y-9018344D01*
X74233674Y-9043990D01*
X74245398Y-9075497D01*
X74252359Y-9096380D01*
X74262617Y-9127154D01*
X74273242Y-9156463D01*
X74280935Y-9176980D01*
X74291560Y-9218745D01*
X74302184Y-9257214D01*
X74309512Y-9285424D01*
X74319770Y-9330120D01*
X74330028Y-9375183D01*
X74338088Y-9407057D01*
X74344316Y-9450287D01*
X74358605Y-9515134D01*
X74373259Y-9581446D01*
X74380953Y-9616617D01*
X74381319Y-9616617D01*
X74545084Y-9568990D01*
X74530796Y-9552869D01*
X74513943Y-9514401D01*
X74496724Y-9476299D01*
X74486099Y-9451387D01*
X74479505Y-9434900D01*
X74471078Y-9413651D01*
X74463385Y-9392402D01*
X74459721Y-9375916D01*
X74459721Y-9346240D01*
X74459721Y-9319129D01*
X74471811Y-9292384D01*
X74489763Y-9268204D01*
X74500387Y-9256847D01*
X74517973Y-9238163D01*
X74536658Y-9220211D01*
X74548381Y-9211052D01*
X74572561Y-9195298D01*
X74605168Y-9183208D01*
X74617990Y-9183208D01*
X74639972Y-9183208D01*
X74652429Y-9187971D01*
X74671113Y-9195298D01*
X74676975Y-9201160D01*
X74686501Y-9222043D01*
X74683203Y-9238895D01*
X74682471Y-9263442D01*
X74683203Y-9289087D01*
X74686501Y-9305940D01*
X74693095Y-9324258D01*
X74712879Y-9361627D01*
X74734128Y-9405957D01*
X74744752Y-9441495D01*
X74760140Y-9451753D01*
X74774062Y-9473368D01*
X74793479Y-9497915D01*
X74801905Y-9523194D01*
X74814362Y-9524293D01*
X74817659Y-9527224D01*
X74827551Y-9531254D01*
X74853196Y-9535284D01*
X74874079Y-9544443D01*
X74897160Y-9550305D01*
X74911815Y-9555434D01*
X74927568Y-9560563D01*
X74966403Y-9579980D01*
X74996811Y-9592070D01*
X75040042Y-9635301D01*
X75050300Y-9658016D01*
X75050300Y-9675602D01*
X75050300Y-9687325D01*
X75038943Y-9714070D01*
X75027586Y-9737517D01*
X74955778Y-9806760D01*
X74930133Y-9818484D01*
X74903388Y-9828009D01*
X74878109Y-9828009D01*
X74846235Y-9828009D01*
X74826452Y-9824345D01*
X74807767Y-9820315D01*
X74752080Y-9794304D01*
X74744752Y-9782214D01*
X74726434Y-9773787D01*
X74704086Y-9760232D01*
X74680639Y-9745943D01*
X74616891Y-9745943D01*
X74548381Y-9745943D01*
X74528231Y-9748874D01*
X74504784Y-9755835D01*
X74478406Y-9761331D01*
X74437373Y-9774520D01*
X74393409Y-9789174D01*
X74364100Y-9797967D01*
X74347247Y-9804928D01*
X74318671Y-9814820D01*
X74288263Y-9823979D01*
X74269944Y-9828009D01*
X74245032Y-9828009D01*
X74221584Y-9828009D01*
X74203266Y-9818484D01*
X74184948Y-9804562D01*
X74180551Y-9766826D01*
X74180551Y-9748284D01*
X74157837Y-9769024D01*
X74127062Y-9794304D01*
X74102150Y-9804928D01*
X74079069Y-9816285D01*
X74017519Y-9816285D01*
X73950108Y-9816285D01*
X73913838Y-9811156D01*
X73871340Y-9804195D01*
X73836535Y-9799066D01*
X73813088Y-9793571D01*
X73789274Y-9785877D01*
X73756668Y-9777084D01*
X73724062Y-9767193D01*
X73702446Y-9758400D01*
X73680831Y-9747775D01*
X73657750Y-9735685D01*
X73638699Y-9723962D01*
X73618915Y-9710406D01*
X73595468Y-9686226D01*
X73582645Y-9662412D01*
X73565426Y-9648491D01*
X73551870Y-9622479D01*
X73547840Y-9600863D01*
X73537216Y-9593902D01*
X73532087Y-9550671D01*
X73529889Y-9525026D01*
X73282226Y-9528323D01*
X73293950Y-9505242D01*
X73296515Y-9500479D01*
X73305674Y-9501578D01*
X73315199Y-9489122D01*
X73333517Y-9479597D01*
X73383709Y-9473002D01*
X73447457Y-9466774D01*
X73508273Y-9460179D01*
X73517238Y-9459413D01*
X73461012Y-9440762D01*
X73461012Y-9408156D01*
X73554801Y-9408156D01*
X73569822Y-9376648D01*
X73574926Y-9365291D01*
X73744578Y-9365291D01*
X73744578Y-9422444D01*
X73744578Y-9479597D01*
X73748608Y-9490221D01*
X73748608Y-9501212D01*
X73783779Y-9527957D01*
X73802830Y-9555068D01*
X73824812Y-9561296D01*
X73851190Y-9574851D01*
X73872439Y-9582179D01*
X73903946Y-9591338D01*
X73935454Y-9601230D01*
X73952307Y-9612220D01*
X73963297Y-9610389D01*
X73983448Y-9613320D01*
X74004330Y-9616617D01*
X74017519Y-9618449D01*
X74040600Y-9620647D01*
X74072108Y-9622845D01*
X74104348Y-9625043D01*
X74124131Y-9629073D01*
X74165531Y-9636401D01*
X74158203Y-9624677D01*
X74154906Y-9607458D01*
X74146113Y-9565326D01*
X74141351Y-9546641D01*
X74128528Y-9538948D01*
X74112408Y-9527957D01*
X74076504Y-9525026D01*
X74062949Y-9508173D01*
X74062949Y-9495717D01*
X74062949Y-9477765D01*
X74094822Y-9472269D01*
X74116438Y-9466774D01*
X74117170Y-9466041D01*
X74119735Y-9466041D01*
X74119735Y-9457615D01*
X74114240Y-9429405D01*
X74109110Y-9400096D01*
X74106180Y-9386906D01*
X74098852Y-9363459D01*
X74091525Y-9338180D01*
X74088228Y-9320595D01*
X74077237Y-9293484D01*
X74062216Y-9250253D01*
X74048660Y-9208853D01*
X74040234Y-9183941D01*
X74036570Y-9176247D01*
X74036937Y-9162325D01*
X74020817Y-9147304D01*
X74009826Y-9131184D01*
X73984913Y-9105905D01*
X73969159Y-9089419D01*
X73950108Y-9089419D01*
X73928859Y-9089419D01*
X73919334Y-9094914D01*
X73907976Y-9100043D01*
X73881965Y-9124223D01*
X73857418Y-9151334D01*
X73847893Y-9166355D01*
X73833971Y-9186872D01*
X73819316Y-9207754D01*
X73809791Y-9221676D01*
X73802097Y-9241460D01*
X73785611Y-9275898D01*
X73767293Y-9312535D01*
X73753004Y-9337081D01*
X73748608Y-9352102D01*
X73744578Y-9365291D01*
X73574926Y-9365291D01*
X73595834Y-9318763D01*
X73622579Y-9261244D01*
X73642729Y-9222409D01*
X73649690Y-9211418D01*
X73662512Y-9191268D01*
X73677900Y-9168920D01*
X73690722Y-9154265D01*
X73706476Y-9128986D01*
X73724428Y-9108103D01*
X73734320Y-9091251D01*
X73754103Y-9069635D01*
X73770956Y-9050218D01*
X73780115Y-9039593D01*
X73797334Y-9019443D01*
X73816019Y-8999293D01*
X73845695Y-8977678D01*
X73874271Y-8954597D01*
X73891856Y-8942507D01*
X73909808Y-8936278D01*
X73946445Y-8910633D01*
X73982715Y-8900741D01*
X73999934Y-8892681D01*
X74018618Y-8883156D01*
X74044997Y-8883156D01*
X74066612Y-8883156D01*
X74091525Y-8891216D01*
G37*
G36*
X73496549Y-8172775D02*
G01*
X73494351Y-8188163D01*
X73499480Y-8203184D01*
X73520363Y-8226631D01*
X73559198Y-8262168D01*
X73611954Y-8310528D01*
X73661047Y-8353759D01*
X73689990Y-8377573D01*
X73708674Y-8393327D01*
X73741647Y-8420438D01*
X73777184Y-8450113D01*
X73805028Y-8468431D01*
X73820782Y-8481254D01*
X73848259Y-8503969D01*
X73876103Y-8528149D01*
X73897352Y-8543170D01*
X73908343Y-8551962D01*
X73921532Y-8554893D01*
X73914205Y-8561488D01*
X73923730Y-8561488D01*
X73902847Y-8564052D01*
X73884163Y-8579806D01*
X73862914Y-8592262D01*
X73828475Y-8609115D01*
X73794770Y-8625968D01*
X73775719Y-8635493D01*
X73757401Y-8640989D01*
X73736152Y-8646118D01*
X73715635Y-8652346D01*
X73697317Y-8654911D01*
X73691089Y-8654911D01*
X73684494Y-8654911D01*
X73670572Y-8650881D01*
X73652254Y-8646484D01*
X73644561Y-8646484D01*
X73638332Y-8646484D01*
X73609390Y-8658574D01*
X73585210Y-8671031D01*
X73528057Y-8728916D01*
X73513769Y-8753829D01*
X73499480Y-8783871D01*
X73499480Y-8795228D01*
X73499480Y-8810615D01*
X73544543Y-8856411D01*
X73583011Y-8856411D01*
X73625510Y-8856411D01*
X73649323Y-8853114D01*
X73673870Y-8847618D01*
X73691822Y-8842489D01*
X73710140Y-8836994D01*
X73743479Y-8821973D01*
X73767293Y-8812081D01*
X73802464Y-8796327D01*
X73841665Y-8778742D01*
X73854487Y-8770315D01*
X73876836Y-8757126D01*
X73901748Y-8742838D01*
X73918967Y-8731847D01*
X73940217Y-8719024D01*
X73976487Y-8699241D01*
X74012390Y-8678724D01*
X74029976Y-8665169D01*
X74037669Y-8663337D01*
X74040600Y-8660772D01*
X74038769Y-8661139D01*
X74051225Y-8667001D01*
X74058919Y-8670298D01*
X74070276Y-8673229D01*
X74091159Y-8692280D01*
X74131825Y-8720490D01*
X74173957Y-8752730D01*
X74204365Y-8777643D01*
X74236605Y-8804387D01*
X74264815Y-8818309D01*
X74278371Y-8841390D01*
X74300719Y-8846519D01*
X74086030Y-8834796D01*
X74086030Y-8870699D01*
X74342851Y-8898543D01*
X74341385Y-8895978D01*
X74287896Y-8920891D01*
X74380953Y-8946903D01*
X74371794Y-8946903D01*
X74371794Y-8955696D01*
X74367764Y-8969251D01*
X74363001Y-8991233D01*
X74363001Y-8995263D01*
X74363001Y-9001491D01*
X74368863Y-9017611D01*
X74371794Y-9024206D01*
X74382785Y-9041425D01*
X74401836Y-9059377D01*
X74417589Y-9067070D01*
X74435175Y-9082458D01*
X74448730Y-9086488D01*
X74463751Y-9090884D01*
X74482802Y-9090884D01*
X74497457Y-9090884D01*
X74525667Y-9080992D01*
X74554243Y-9067803D01*
X74567066Y-9052050D01*
X74587582Y-9032632D01*
X74607732Y-9012849D01*
X74620189Y-8999659D01*
X74633744Y-8975113D01*
X74647300Y-8948735D01*
X74647300Y-8928218D01*
X74647300Y-8909534D01*
X74641438Y-8891216D01*
X74634477Y-8875096D01*
X74630447Y-8861174D01*
X74618723Y-8842856D01*
X74607732Y-8830033D01*
X74596009Y-8813913D01*
X74574027Y-8783505D01*
X74555342Y-8756027D01*
X74541054Y-8743571D01*
X74520171Y-8720490D01*
X74496724Y-8697775D01*
X74476574Y-8690814D01*
X74471445Y-8674694D01*
X74446166Y-8652712D01*
X74420520Y-8631097D01*
X74400004Y-8615343D01*
X74379854Y-8600689D01*
X74344316Y-8572479D01*
X74308413Y-8545368D01*
X74289362Y-8530347D01*
X74270677Y-8509830D01*
X74256023Y-8495176D01*
X74256023Y-8493344D01*
X74249428Y-8493344D01*
X74256023Y-8497374D01*
X74262251Y-8491146D01*
X74267380Y-8492611D01*
X74295590Y-8465134D01*
X74341385Y-8425567D01*
X74388646Y-8384900D01*
X74415391Y-8360720D01*
X74442136Y-8338372D01*
X74480604Y-8303201D01*
X74516874Y-8269129D01*
X74538856Y-8246781D01*
X74583186Y-8203184D01*
X74637040Y-8150823D01*
X74653161Y-8135040D01*
X74705918Y-8082146D01*
X74722038Y-8065431D01*
X74766368Y-8020368D01*
X74783221Y-8001317D01*
X74788350Y-7982266D01*
X74801905Y-7967245D01*
X74807767Y-7946729D01*
X74807767Y-7932074D01*
X74807767Y-7921449D01*
X74800440Y-7908260D01*
X74788716Y-7895071D01*
X74768566Y-7895071D01*
X74744386Y-7895071D01*
X74721305Y-7908993D01*
X74692729Y-7922548D01*
X74679540Y-7934639D01*
X74664885Y-7941966D01*
X74432610Y-8155190D01*
X74426382Y-8158853D01*
X74408064Y-8162517D01*
X74387181Y-8171310D01*
X74356040Y-8176805D01*
X74339920Y-8179003D01*
X74312076Y-8181934D01*
X74284599Y-8184865D01*
X74269212Y-8187063D01*
X74240269Y-8191093D01*
X74207662Y-8195123D01*
X74190077Y-8203184D01*
X74132558Y-8230661D01*
X74198870Y-8235790D01*
X74220852Y-8240919D01*
X74245032Y-8244949D01*
X74285332Y-8247147D01*
X74323434Y-8248979D01*
X74342118Y-8242018D01*
X74317938Y-8253742D01*
X74288995Y-8277189D01*
X74286064Y-8288913D01*
X74265548Y-8302835D01*
X74244665Y-8320786D01*
X74228912Y-8332876D01*
X74196672Y-8358888D01*
X74173224Y-8379038D01*
X74149044Y-8395158D01*
X74142450Y-8411645D01*
X74135855Y-8403951D01*
X74134390Y-8407615D01*
X74127062Y-8399188D01*
X74117903Y-8394426D01*
X74102516Y-8383435D01*
X74078702Y-8368047D01*
X74052690Y-8350828D01*
X74034006Y-8338006D01*
X74015688Y-8323717D01*
X73987478Y-8304300D01*
X73960367Y-8285249D01*
X73940949Y-8269495D01*
X73930691Y-8267664D01*
X73915304Y-8251544D01*
X73898085Y-8237988D01*
X73889292Y-8229195D01*
X73848992Y-8196589D01*
X73820049Y-8172775D01*
X73794037Y-8150061D01*
X73754470Y-8117088D01*
X73715635Y-8084481D01*
X73687425Y-8059202D01*
X73652987Y-8059202D01*
X73625510Y-8059202D01*
X73600597Y-8070926D01*
X73583011Y-8082650D01*
X73559930Y-8082650D01*
X73524027Y-8082650D01*
X73489222Y-8082650D01*
X73462478Y-8082650D01*
X73432802Y-8111592D01*
X73409355Y-8129544D01*
X73524759Y-8129544D01*
X73524759Y-8132109D01*
X73527690Y-8134673D01*
X73530255Y-8129911D01*
X73525859Y-8129911D01*
X73181842Y-8129911D01*
X73181842Y-8169478D01*
X73230203Y-8178271D01*
X73266106Y-8180469D01*
X73297247Y-8180469D01*
X73496549Y-8172775D01*
G37*
G36*
X73908709Y-7493902D02*
G01*
X73908709Y-7533836D01*
X73908709Y-7569740D01*
X73906511Y-7620298D01*
X73901382Y-7669757D01*
X73901382Y-7695403D01*
X73879400Y-7693937D01*
X73834704Y-7696135D01*
X73790374Y-7698334D01*
X73757401Y-7700165D01*
X73735053Y-7707493D01*
X73664901Y-7735498D01*
X73661413Y-7737168D01*
X73730290Y-7741931D01*
X73751173Y-7746694D01*
X73892956Y-7746694D01*
X73898451Y-7747793D01*
X73905412Y-7751823D01*
X73903946Y-7758784D01*
X73900283Y-7754021D01*
X73912006Y-7757318D01*
X73901382Y-7754754D01*
X73870974Y-7760615D01*
X73801437Y-7788329D01*
X73791839Y-7793222D01*
X73827376Y-7779300D01*
X73819316Y-7786627D01*
X73823713Y-7803480D01*
X73833605Y-7816303D01*
X73873172Y-7819966D01*
X73898085Y-7823630D01*
X73898085Y-8095472D01*
X73912373Y-8104998D01*
X73928859Y-8110127D01*
X73951574Y-8110127D01*
X73979784Y-8110127D01*
X73994072Y-8105731D01*
X74007628Y-8101701D01*
X74059040Y-8048034D01*
X74063681Y-8043082D01*
X74115899Y-7988453D01*
X74145014Y-7958452D01*
X74197336Y-7905186D01*
X74227080Y-7875287D01*
X74280253Y-7824369D01*
X74282401Y-7822531D01*
X74291560Y-7814837D01*
X74312443Y-7797985D01*
X74335890Y-7778934D01*
X74352376Y-7764645D01*
X74366298Y-7753288D01*
X74392310Y-7732405D01*
X74420520Y-7710424D01*
X74438472Y-7697967D01*
X74454592Y-7685877D01*
X74468880Y-7678916D01*
X74509913Y-7655469D01*
X74527498Y-7633121D01*
X74548748Y-7636784D01*
X74575492Y-7632388D01*
X74601138Y-7618100D01*
X74624585Y-7603812D01*
X74634843Y-7594286D01*
X74652795Y-7577433D01*
X74671113Y-7558749D01*
X74683203Y-7543728D01*
X74695660Y-7521380D01*
X74705918Y-7496100D01*
X74705918Y-7470455D01*
X74705918Y-7449572D01*
X74700422Y-7436749D01*
X74690531Y-7427224D01*
X74684302Y-7426125D01*
X74666717Y-7420996D01*
X74649864Y-7428323D01*
X74653894Y-7427224D01*
X74633744Y-7432719D01*
X74616159Y-7437849D01*
X74589780Y-7447008D01*
X74554609Y-7465692D01*
X74519805Y-7483644D01*
X74500387Y-7499764D01*
X74488297Y-7499764D01*
X74469979Y-7510389D01*
X74452394Y-7521013D01*
X74438472Y-7528341D01*
X74420154Y-7541896D01*
X74401103Y-7555085D01*
X74385349Y-7567175D01*
X74358238Y-7586959D01*
X74331127Y-7608208D01*
X74313542Y-7620298D01*
X74283133Y-7647409D01*
X74256389Y-7669757D01*
X74221951Y-7698700D01*
X74170293Y-7743030D01*
X74118636Y-7786994D01*
X74099219Y-7812639D01*
X74105447Y-7734970D01*
X74105447Y-7646676D01*
X74107645Y-7621397D01*
X74109843Y-7580731D01*
X74111309Y-7545926D01*
X74112774Y-7531638D01*
X74322334Y-7531638D01*
X74341385Y-7526875D01*
X74357139Y-7522845D01*
X74378022Y-7520647D01*
X74390478Y-7508923D01*
X74401469Y-7504893D01*
X74424184Y-7493170D01*
X74443967Y-7476317D01*
X74461187Y-7457266D01*
X74476574Y-7438581D01*
X74488297Y-7421729D01*
X74499288Y-7407440D01*
X74510279Y-7388389D01*
X74514309Y-7371903D01*
X74516508Y-7358348D01*
X74515408Y-7349921D01*
X74514309Y-7344792D01*
X74514309Y-7333435D01*
X74506616Y-7326474D01*
X74500387Y-7319879D01*
X74484634Y-7308888D01*
X74468147Y-7302294D01*
X74459721Y-7300462D01*
X74440670Y-7297165D01*
X74419055Y-7294234D01*
X74401103Y-7292402D01*
X74384616Y-7290204D01*
X74356040Y-7286906D01*
X74328196Y-7283976D01*
X74307314Y-7279946D01*
X74284599Y-7279213D01*
X74246497Y-7275916D01*
X74206930Y-7273717D01*
X74181284Y-7273717D01*
X74160768Y-7270786D01*
X74134756Y-7267856D01*
X73772788Y-7267856D01*
X73754103Y-7267856D01*
X73722596Y-7264558D01*
X73686692Y-7256498D01*
X73655918Y-7247705D01*
X73642362Y-7244408D01*
X73617450Y-7239645D01*
X73592903Y-7234516D01*
X73577882Y-7230853D01*
X73558831Y-7230853D01*
X73539780Y-7230853D01*
X73520363Y-7236348D01*
X73500946Y-7241844D01*
X73481895Y-7260162D01*
X73457348Y-7283976D01*
X73431703Y-7310354D01*
X73414117Y-7332336D01*
X73409355Y-7346624D01*
X73404592Y-7369705D01*
X73404592Y-7383993D01*
X73404592Y-7394251D01*
X73415583Y-7411470D01*
X73431337Y-7427957D01*
X73453318Y-7433452D01*
X73473468Y-7438948D01*
X73489588Y-7438948D01*
X73522195Y-7442611D01*
X73557000Y-7451404D01*
X73585576Y-7461296D01*
X73651155Y-7461296D01*
X73724657Y-7461296D01*
X73750806Y-7461296D01*
X73824899Y-7461296D01*
X73852655Y-7461296D01*
X73908709Y-7461296D01*
X73908709Y-7493902D01*
G37*
G36*
X71121263Y-16562518D02*
G01*
X71130056Y-16565449D01*
X71154236Y-16575340D01*
X71182812Y-16587064D01*
X71202230Y-16595124D01*
X71243995Y-16616740D01*
X71300415Y-16643484D01*
X71352073Y-16666199D01*
X71381382Y-16680853D01*
X71446228Y-16710529D01*
X71512025Y-16743227D01*
X71520967Y-16747898D01*
X71586574Y-16782620D01*
X71604864Y-16791862D01*
X71605230Y-16792594D01*
X71376619Y-16814943D01*
X71425346Y-16854876D01*
X71678870Y-16827399D01*
X71675939Y-16824834D01*
X71588744Y-16831795D01*
X71588744Y-16863669D01*
X71771193Y-16883819D01*
X71781452Y-16886750D01*
X71803434Y-16894810D01*
X71828713Y-16904702D01*
X71849229Y-16907633D01*
X71856923Y-16922654D01*
X71885133Y-16938774D01*
X71910778Y-16954527D01*
X71926532Y-16964053D01*
X71940820Y-16971380D01*
X71954009Y-16978707D01*
X71975625Y-16986767D01*
X71983318Y-16986767D01*
X71989913Y-16982005D01*
X71989547Y-16984569D01*
X72011528Y-16984569D01*
X72035342Y-16967717D01*
X72054027Y-16952696D01*
X72064651Y-16940972D01*
X72081504Y-16923020D01*
X72100189Y-16902504D01*
X72115576Y-16881987D01*
X72118507Y-16864768D01*
X72115576Y-16848282D01*
X72115576Y-16823735D01*
X72115576Y-16788564D01*
X72102753Y-16780504D01*
X72094693Y-16775375D01*
X72087000Y-16773177D01*
X72065018Y-16761453D01*
X72042669Y-16754126D01*
X72023618Y-16740571D01*
X71985883Y-16718222D01*
X71950346Y-16696973D01*
X71932394Y-16682319D01*
X71863507Y-16650248D01*
X71857289Y-16647148D01*
X71791801Y-16613975D01*
X71750311Y-16592560D01*
X71681818Y-16557497D01*
X71642233Y-16537971D01*
X71574834Y-16505794D01*
X71568960Y-16503167D01*
X71566762Y-16508662D01*
X71605597Y-16505731D01*
X71678506Y-16489193D01*
X71686563Y-16487413D01*
X71759804Y-16470449D01*
X71766797Y-16468728D01*
X71818454Y-16454807D01*
X71845932Y-16448945D01*
X71878905Y-16440518D01*
X71906748Y-16433191D01*
X71919571Y-16430260D01*
X71956574Y-16425131D01*
X72006033Y-16419636D01*
X72024351Y-16419636D01*
X72054759Y-16417804D01*
X72084801Y-16414507D01*
X72098723Y-16412308D01*
X72103486Y-16424765D01*
X72112645Y-16442717D01*
X72130230Y-16454440D01*
X72153678Y-16459569D01*
X72171630Y-16444915D01*
X72182254Y-16433924D01*
X72199107Y-16429527D01*
X72217792Y-16416705D01*
X72239407Y-16383732D01*
X72261755Y-16359552D01*
X72273113Y-16330975D01*
X72279707Y-16300934D01*
X72279707Y-16290309D01*
X72279707Y-16275288D01*
X72279707Y-16240117D01*
X72269449Y-16225829D01*
X72255527Y-16219601D01*
X72250032Y-16204946D01*
X72242704Y-16196886D01*
X72198374Y-16196886D01*
X72167966Y-16196886D01*
X72125101Y-16208610D01*
X72108981Y-16208610D01*
X72081870Y-16209709D01*
X72058789Y-16211907D01*
X72045600Y-16212640D01*
X72032411Y-16215204D01*
X72002003Y-16220700D01*
X71967565Y-16228027D01*
X71939355Y-16236087D01*
X71891727Y-16247078D01*
X71819644Y-16262862D01*
X71805265Y-16266129D01*
X71733285Y-16282557D01*
X71717704Y-16286279D01*
X71669711Y-16299102D01*
X71636738Y-16303498D01*
X71586546Y-16312291D01*
X71534889Y-16322183D01*
X71502648Y-16330975D01*
X71456487Y-16330975D01*
X71431207Y-16334273D01*
X71409958Y-16337570D01*
X71382481Y-16337570D01*
X71331923Y-16337570D01*
X71280998Y-16337570D01*
X71253521Y-16337570D01*
X71234103Y-16343432D01*
X71215419Y-16349294D01*
X71176951Y-16349294D01*
X71156801Y-16359552D01*
X71139948Y-16373107D01*
X71125660Y-16387762D01*
X71100014Y-16414507D01*
X71074002Y-16440885D01*
X71060080Y-16454074D01*
X71040297Y-16461767D01*
X71006591Y-16470560D01*
X70973985Y-16476422D01*
X70948339Y-16478620D01*
X70916832Y-16509028D01*
X71052387Y-16513791D01*
X71039198Y-16505731D01*
X71017216Y-16508662D01*
X70993036Y-16511959D01*
X70973618Y-16518188D01*
X70954201Y-16526248D01*
X70915367Y-16535040D01*
X70872868Y-16542368D01*
X70847589Y-16545299D01*
X70834400Y-16550794D01*
X70826340Y-16565449D01*
X70872136Y-16589629D01*
X71121263Y-16562518D01*
G37*
G36*
X71026009Y-15935302D02*
G01*
X71019780Y-15947392D01*
X71022711Y-15965344D01*
X71037000Y-15978899D01*
X71049456Y-15992089D01*
X71076567Y-15996851D01*
X71111005Y-15997584D01*
X71143245Y-16000515D01*
X71162662Y-16003079D01*
X71192704Y-16008575D01*
X71229341Y-16008575D01*
X71259383Y-16011872D01*
X71272205Y-16015169D01*
X71322031Y-16015169D01*
X71396206Y-16015169D01*
X71404463Y-16015169D01*
X71479877Y-16015169D01*
X71490192Y-16015169D01*
X71550642Y-16015169D01*
X71578120Y-16015169D01*
X71624648Y-16015169D01*
X71674107Y-16015169D01*
X71709278Y-16015169D01*
X71732359Y-16015169D01*
X71767530Y-16015169D01*
X71801968Y-16015169D01*
X71820653Y-16005278D01*
X71816256Y-16010040D01*
X71814058Y-16007842D01*
X71811860Y-16014070D01*
X71797938Y-16028725D01*
X71775224Y-16044479D01*
X71762767Y-16064262D01*
X71748113Y-16086244D01*
X71733458Y-16108959D01*
X71733824Y-16122881D01*
X71713674Y-16137169D01*
X71696089Y-16164280D01*
X71681068Y-16191391D01*
X71674107Y-16207144D01*
X71672275Y-16217769D01*
X71670077Y-16234255D01*
X71670077Y-16262832D01*
X71688395Y-16277486D01*
X71710743Y-16277486D01*
X71720269Y-16279684D01*
X71730527Y-16279684D01*
X71736755Y-16281516D01*
X71763866Y-16271991D01*
X71799404Y-16262832D01*
X71801968Y-16247444D01*
X71822484Y-16235354D01*
X71841902Y-16219234D01*
X71857289Y-16208610D01*
X71867547Y-16188460D01*
X71874875Y-16175637D01*
X71881836Y-16164646D01*
X71890628Y-16142298D01*
X71896490Y-16120316D01*
X71903451Y-16110424D01*
X71921403Y-16107493D01*
X71938988Y-16082214D01*
X71967565Y-16058400D01*
X71997607Y-16033121D01*
X72015558Y-16015169D01*
X72035342Y-16003446D01*
X72061720Y-15988791D01*
X72092129Y-15972305D01*
X72118140Y-15956918D01*
X72138657Y-15947758D01*
X72167233Y-15938599D01*
X72168332Y-15928707D01*
X72175660Y-15919182D01*
X72193612Y-15899398D01*
X72204969Y-15878882D01*
X72219990Y-15866792D01*
X72228782Y-15852870D01*
X72228782Y-15830888D01*
X72228782Y-15824660D01*
X72232812Y-15816600D01*
X72219257Y-15799747D01*
X72204236Y-15792420D01*
X72176759Y-15792420D01*
X72170531Y-15792420D01*
X72162837Y-15790222D01*
X72147450Y-15787291D01*
X72134627Y-15791321D01*
X72110447Y-15799381D01*
X72089198Y-15806342D01*
X72078207Y-15808906D01*
X72052195Y-15813303D01*
X72017024Y-15810005D01*
X72018489Y-15821363D01*
X72000171Y-15818432D01*
X71978922Y-15820630D01*
X71963168Y-15821729D01*
X71917373Y-15821729D01*
X71882568Y-15821729D01*
X71857289Y-15821729D01*
X71818088Y-15821729D01*
X71781085Y-15821729D01*
X71760203Y-15821729D01*
X71715506Y-15821729D01*
X71648828Y-15821729D01*
X71583249Y-15821729D01*
X71540018Y-15821729D01*
X71466537Y-15821729D01*
X71459784Y-15821729D01*
X71385289Y-15821729D01*
X71344379Y-15821729D01*
X71270095Y-15821729D01*
X71234836Y-15821729D01*
X71168891Y-15804144D01*
X71112837Y-15804144D01*
X71038099Y-15804144D01*
X70963727Y-15799381D01*
X70910970Y-15792054D01*
X70856382Y-15810005D01*
X70912069Y-15833453D01*
X70938448Y-15838948D01*
X70970321Y-15847375D01*
X71019048Y-15855068D01*
X71065210Y-15860930D01*
X71087924Y-15857266D01*
X71046159Y-15882179D01*
X71020879Y-15884377D01*
X70977282Y-15885110D01*
X70933318Y-15885110D01*
X70905475Y-15885110D01*
X70883493Y-15885110D01*
X70851619Y-15885110D01*
X70820845Y-15886209D01*
X70784941Y-15887308D01*
X70799962Y-15928341D01*
X71026009Y-15935302D01*
G37*
G36*
X68102642Y-21115692D02*
G01*
X68108503Y-21151230D01*
X68120593Y-21179806D01*
X68130119Y-21187500D01*
X68148071Y-21192995D01*
X68158695Y-21192995D01*
X68160893Y-21192995D01*
X68184707Y-21188233D01*
X68202293Y-21181272D01*
X68219878Y-21169182D01*
X68243692Y-21148299D01*
X68267139Y-21126683D01*
X68279595Y-21115326D01*
X68308538Y-21115326D01*
X68353967Y-21135110D01*
X68423798Y-21163832D01*
X68429072Y-21165884D01*
X68499713Y-21193400D01*
X68516633Y-21199956D01*
X68585255Y-21226414D01*
X68603828Y-21233662D01*
X68672732Y-21260234D01*
X68678933Y-21262605D01*
X68725827Y-21280923D01*
X68782247Y-21302538D01*
X68852050Y-21328504D01*
X68865778Y-21333313D01*
X68935891Y-21358496D01*
X68947844Y-21362988D01*
X68988510Y-21369583D01*
X68964697Y-21361157D01*
X68926961Y-21361157D01*
X68898385Y-21361157D01*
X68861016Y-21361157D01*
X68823280Y-21358592D01*
X68801665Y-21356027D01*
X68782614Y-21349067D01*
X68746710Y-21338076D01*
X68710073Y-21328916D01*
X68684428Y-21324886D01*
X68655485Y-21324886D01*
X68627642Y-21324886D01*
X68596134Y-21336244D01*
X68567191Y-21350532D01*
X68541912Y-21356027D01*
X68510039Y-21361157D01*
X68485859Y-21380207D01*
X68508207Y-21401457D01*
X68517000Y-21408784D01*
X68517000Y-21412814D01*
X68521762Y-21412814D01*
X68365325Y-21429667D01*
X68396832Y-21457877D01*
X68414418Y-21463372D01*
X68457648Y-21468868D01*
X68498315Y-21467036D01*
X68496849Y-21479126D01*
X68501979Y-21495246D01*
X68519198Y-21509534D01*
X68534951Y-21521624D01*
X68559498Y-21529684D01*
X68598699Y-21541041D01*
X68637533Y-21552032D01*
X68660614Y-21559360D01*
X68686260Y-21570351D01*
X68721064Y-21582074D01*
X68739016Y-21591966D01*
X68759899Y-21606254D01*
X68776752Y-21615780D01*
X68800932Y-21629335D01*
X68823646Y-21642158D01*
X68837935Y-21650584D01*
X68868709Y-21671467D01*
X68914871Y-21701509D01*
X68959934Y-21730818D01*
X68983381Y-21741809D01*
X68977519Y-21743641D01*
X68660981Y-21743641D01*
X68619948Y-21771118D01*
X68583678Y-21790169D01*
X68559131Y-21790169D01*
X68515534Y-21793466D01*
X68472303Y-21796764D01*
X68446291Y-21796764D01*
X68421745Y-21801526D01*
X68369721Y-21806289D01*
X68407823Y-21837430D01*
X68425042Y-21843292D01*
X68447757Y-21845490D01*
X68482561Y-21847322D01*
X68516633Y-21849520D01*
X68537516Y-21841460D01*
X68527624Y-21841460D01*
X68527624Y-21847688D01*
X68521762Y-21862709D01*
X68517000Y-21883592D01*
X68517000Y-21901544D01*
X68517000Y-21909970D01*
X68529090Y-21926457D01*
X68548507Y-21939646D01*
X68621757Y-21937121D01*
X68636434Y-21937081D01*
X68711624Y-21937081D01*
X68766494Y-21937081D01*
X68842022Y-21937081D01*
X68896919Y-21937081D01*
X68970604Y-21937081D01*
X68983381Y-21937081D01*
X69101351Y-21937081D01*
X69221518Y-21937081D01*
X69233974Y-21938913D01*
X69258154Y-21941478D01*
X69282701Y-21944042D01*
X69296623Y-21945508D01*
X69321169Y-21951369D01*
X69340953Y-21955766D01*
X69359637Y-21963093D01*
X69389679Y-21972252D01*
X69418988Y-21980312D01*
X69438406Y-21983976D01*
X69449030Y-21983976D01*
X69463685Y-21983976D01*
X69495192Y-21970787D01*
X69511312Y-21952835D01*
X69524868Y-21948072D01*
X69542453Y-21929754D01*
X69560039Y-21912901D01*
X69576891Y-21897880D01*
X69586050Y-21872967D01*
X69595576Y-21847322D01*
X69598873Y-21841094D01*
X69602170Y-21828271D01*
X69598873Y-21815082D01*
X69595576Y-21808854D01*
X69590447Y-21796031D01*
X69580189Y-21786139D01*
X69558207Y-21778079D01*
X69522669Y-21760860D01*
X69487132Y-21741809D01*
X69468814Y-21730452D01*
X69434376Y-21712500D01*
X69382718Y-21684290D01*
X69330695Y-21656446D01*
X69295157Y-21638861D01*
X69280136Y-21630801D01*
X69255956Y-21616879D01*
X69232509Y-21603323D01*
X69218221Y-21593798D01*
X69183416Y-21569251D01*
X69153008Y-21553864D01*
X69154473Y-21556429D01*
X69146413Y-21554597D01*
X69159969Y-21563390D01*
X69188179Y-21561191D01*
X69216389Y-21558261D01*
X69235073Y-21556062D01*
X69277938Y-21547270D01*
X69349379Y-21534447D01*
X69420820Y-21523456D01*
X69461853Y-21519060D01*
X69489697Y-21517228D01*
X69536225Y-21515030D01*
X69583486Y-21513198D01*
X69611330Y-21508801D01*
X69632945Y-21505504D01*
X69659323Y-21500009D01*
X69670681Y-21492315D01*
X69683503Y-21489384D01*
X69705852Y-21467769D01*
X69731497Y-21442856D01*
X69755311Y-21416111D01*
X69761539Y-21398526D01*
X69775461Y-21384970D01*
X69783154Y-21362256D01*
X69783154Y-21347235D01*
X69783154Y-21336610D01*
X69774362Y-21322688D01*
X69758974Y-21312430D01*
X69741389Y-21308400D01*
X69723071Y-21304004D01*
X69552345Y-21304004D01*
X69528165Y-21298875D01*
X69497390Y-21293746D01*
X69479805Y-21288250D01*
X69453060Y-21279824D01*
X69425583Y-21272496D01*
X69405433Y-21269199D01*
X69363667Y-21258208D01*
X69327031Y-21248683D01*
X69274641Y-21231097D01*
X69204838Y-21208773D01*
X69191110Y-21204353D01*
X69120572Y-21181806D01*
X69108311Y-21177974D01*
X69054822Y-21159290D01*
X69029177Y-21150497D01*
X68990342Y-21136209D01*
X68952607Y-21122653D01*
X68930625Y-21114960D01*
X68869442Y-21091146D01*
X68798020Y-21064195D01*
X68760632Y-21050113D01*
X68688710Y-21022511D01*
X68630206Y-20999921D01*
X68560078Y-20972436D01*
X68501979Y-20949729D01*
X68432741Y-20922109D01*
X68396832Y-20907598D01*
X68334184Y-20882318D01*
X68326124Y-20880853D01*
X68316965Y-20877189D01*
X68303775Y-20870228D01*
X68285457Y-20870228D01*
X68274833Y-20870228D01*
X68256515Y-20876090D01*
X68240394Y-20882685D01*
X68227205Y-20887814D01*
X68209986Y-20892943D01*
X68190569Y-20909429D01*
X68181776Y-20925549D01*
X68170785Y-20922252D01*
X68153933Y-20926282D01*
X68140377Y-20935075D01*
X68103741Y-20950096D01*
X68134149Y-20966582D01*
X68131218Y-20975741D01*
X68026071Y-20975741D01*
X68011783Y-21007615D01*
X68026804Y-21025933D01*
X68073699Y-21033993D01*
X68105572Y-21032894D01*
X68102642Y-21115692D01*
G37*
G36*
X68930625Y-20280748D02*
G01*
X68964330Y-20287709D01*
X68999501Y-20298700D01*
X69034672Y-20314087D01*
X69074972Y-20332406D01*
X69123332Y-20355487D01*
X69156672Y-20373072D01*
X69184882Y-20392123D01*
X69198437Y-20402748D01*
X69222983Y-20419967D01*
X69248263Y-20436087D01*
X69265115Y-20445979D01*
X69272443Y-20449276D01*
X69288563Y-20451108D01*
X69306148Y-20454039D01*
X69315307Y-20455870D01*
X69340220Y-20472723D01*
X69357073Y-20496171D01*
X69367697Y-20507161D01*
X69376124Y-20524014D01*
X69380154Y-20546729D01*
X69384550Y-20567612D01*
X69384550Y-20637587D01*
X69384550Y-20705365D01*
X69380154Y-20729911D01*
X69376124Y-20753725D01*
X69366232Y-20776073D01*
X69351944Y-20803916D01*
X69336556Y-20831760D01*
X69324833Y-20851177D01*
X69307247Y-20874991D01*
X69289662Y-20898438D01*
X69273542Y-20914559D01*
X69250827Y-20935808D01*
X69229578Y-20955958D01*
X69217122Y-20968048D01*
X69208329Y-20974642D01*
X69187446Y-20990030D01*
X69163266Y-21006150D01*
X69144215Y-21017141D01*
X69131392Y-21022636D01*
X69119669Y-21027032D01*
X69105014Y-21034360D01*
X69081933Y-21041321D01*
X69061417Y-21046816D01*
X69048594Y-21049014D01*
X68972757Y-21049014D01*
X68886661Y-21049014D01*
X68870175Y-21044984D01*
X68851856Y-21040588D01*
X68830607Y-21028498D01*
X68804595Y-21014576D01*
X68777851Y-21001020D01*
X68759899Y-20991129D01*
X68736085Y-20978306D01*
X68728025Y-20961087D01*
X68702746Y-20946066D01*
X68670140Y-20915291D01*
X68638266Y-20885249D01*
X68618849Y-20864733D01*
X68605660Y-20846048D01*
X68593570Y-20826631D01*
X68581846Y-20807214D01*
X68567924Y-20777905D01*
X68554369Y-20751526D01*
X68544477Y-20733208D01*
X68534951Y-20698404D01*
X68529090Y-20670560D01*
X68500879Y-20673857D01*
X68444459Y-20671659D01*
X68388772Y-20666164D01*
X68352868Y-20660302D01*
X68334916Y-20655173D01*
X68318796Y-20649677D01*
X68304875Y-20635389D01*
X68304875Y-20626596D01*
X68311103Y-20613407D01*
X68525792Y-20593990D01*
X68525060Y-20590692D01*
X68526891Y-20575672D01*
X68526891Y-20572008D01*
X68534585Y-20571642D01*
X68516633Y-20570176D01*
X68488789Y-20560651D01*
X68488789Y-20540501D01*
X68488789Y-20522549D01*
X68519930Y-20517053D01*
X68537882Y-20499834D01*
X68552537Y-20485546D01*
X68566784Y-20467228D01*
X68722896Y-20467228D01*
X68728025Y-20480783D01*
X68728025Y-20510092D01*
X68728025Y-20540867D01*
X68728025Y-20562116D01*
X68731323Y-20572374D01*
X68744878Y-20589227D01*
X68750740Y-20610843D01*
X68763563Y-20638686D01*
X68777484Y-20666164D01*
X68781881Y-20681917D01*
X68800932Y-20701701D01*
X68818884Y-20725881D01*
X68841598Y-20747496D01*
X68863214Y-20769478D01*
X68885196Y-20785232D01*
X68911207Y-20800619D01*
X68925129Y-20811244D01*
X68950775Y-20824067D01*
X68980084Y-20838355D01*
X68996204Y-20848979D01*
X69015255Y-20851544D01*
X69036138Y-20855574D01*
X69075339Y-20855574D01*
X69113074Y-20855574D01*
X69131026Y-20851544D01*
X69140551Y-20849346D01*
X69151909Y-20842018D01*
X69158137Y-20836523D01*
X69153008Y-20836157D01*
X69139086Y-20828829D01*
X69126630Y-20816373D01*
X69126630Y-20792926D01*
X69126630Y-20780836D01*
X69131759Y-20765448D01*
X69137254Y-20744199D01*
X69144215Y-20744565D01*
X69146047Y-20741268D01*
X69149711Y-20733941D01*
X69165831Y-20722584D01*
X69165476Y-20717451D01*
X69162167Y-20718187D01*
X69154840Y-20708295D01*
X69139452Y-20703899D01*
X69126263Y-20693274D01*
X69105747Y-20697304D01*
X69065080Y-20697304D01*
X69024780Y-20694007D01*
X69000967Y-20690344D01*
X68982648Y-20682284D01*
X68957369Y-20673857D01*
X68957369Y-20654074D01*
X68957369Y-20635755D01*
X68989609Y-20630626D01*
X69016720Y-20625497D01*
X69059585Y-20620368D01*
X69087161Y-20623432D01*
X69077170Y-20617437D01*
X69052990Y-20594356D01*
X69029543Y-20576771D01*
X69002799Y-20561017D01*
X68973123Y-20544164D01*
X68954072Y-20534272D01*
X68926595Y-20521816D01*
X68899484Y-20510459D01*
X68882265Y-20502399D01*
X68867976Y-20495804D01*
X68848193Y-20487744D01*
X68830607Y-20481516D01*
X68822914Y-20478585D01*
X68803130Y-20476753D01*
X68770890Y-20474555D01*
X68737917Y-20473456D01*
X68722896Y-20467228D01*
X68566784Y-20467228D01*
X68567924Y-20465762D01*
X68571221Y-20447444D01*
X68586242Y-20429126D01*
X68603461Y-20403847D01*
X68622146Y-20381132D01*
X68632404Y-20371240D01*
X68655485Y-20354754D01*
X68677467Y-20335337D01*
X68697251Y-20321048D01*
X68715203Y-20319217D01*
X68724728Y-20304562D01*
X68742680Y-20297967D01*
X68757334Y-20292838D01*
X68773454Y-20287709D01*
X68800199Y-20280748D01*
X68822914Y-20275253D01*
X68861016Y-20275253D01*
X68905712Y-20275253D01*
X68930625Y-20280748D01*
G37*
G36*
X68698350Y-19261889D02*
G01*
X68714103Y-19263721D01*
X68753304Y-19291931D01*
X68789941Y-19313913D01*
X68796169Y-19328201D01*
X68813755Y-19343589D01*
X68833905Y-19361540D01*
X68849658Y-19375829D01*
X68859916Y-19389384D01*
X68877502Y-19408801D01*
X68895454Y-19429318D01*
X68905346Y-19441041D01*
X68930991Y-19472182D01*
X68960300Y-19507353D01*
X68965796Y-19521642D01*
X68977886Y-19542524D01*
X68991441Y-19564873D01*
X69001333Y-19577695D01*
X69021849Y-19610302D01*
X69039435Y-19661593D01*
X69053723Y-19710686D01*
X69060318Y-19735965D01*
X69093290Y-19794949D01*
X69129561Y-19848072D01*
X69171692Y-19842210D01*
X69243133Y-19828655D01*
X69314941Y-19815099D01*
X69366965Y-19806673D01*
X69382352Y-19804841D01*
X69393443Y-19801905D01*
X69386748Y-19799346D01*
X69360736Y-19787622D01*
X69310911Y-19752451D01*
X69258887Y-19712517D01*
X69233608Y-19686139D01*
X69222617Y-19669653D01*
X69197704Y-19654265D01*
X69166563Y-19650602D01*
X69131026Y-19671851D01*
X69104281Y-19663058D01*
X69090726Y-19660860D01*
X69075705Y-19654998D01*
X69051525Y-19660127D01*
X69050060Y-19647304D01*
X69040900Y-19634482D01*
X69044564Y-19624956D01*
X69039069Y-19609569D01*
X69039069Y-19604806D01*
X69036870Y-19588320D01*
X69035771Y-19579527D01*
X69034672Y-19564873D01*
X69051891Y-19546921D01*
X69057753Y-19530801D01*
X69071309Y-19515047D01*
X69085597Y-19496729D01*
X69114540Y-19486471D01*
X69139452Y-19480609D01*
X69133224Y-19482074D01*
X69129927Y-19478044D01*
X69123332Y-19469618D01*
X69098786Y-19448735D01*
X69133224Y-19448735D01*
X69137621Y-19446171D01*
X69152662Y-19449057D01*
X69225745Y-19473824D01*
X69290761Y-19512482D01*
X69317525Y-19533065D01*
X69372511Y-19583139D01*
X69423385Y-19640710D01*
X69448900Y-19674412D01*
X69492192Y-19740630D01*
X69527432Y-19805940D01*
X69543120Y-19839411D01*
X69571631Y-19911578D01*
X69592645Y-19983261D01*
X69596450Y-19999598D01*
X69607650Y-20073709D01*
X69607666Y-20149224D01*
X69594993Y-20212245D01*
X69557474Y-20277817D01*
X69503527Y-20318209D01*
X69429613Y-20339000D01*
X69366609Y-20340193D01*
X69292955Y-20328658D01*
X69216755Y-20307127D01*
X69188179Y-20301265D01*
X69156305Y-20292106D01*
X69138353Y-20282947D01*
X69124798Y-20275986D01*
X69106846Y-20267926D01*
X69092924Y-20256568D01*
X69067645Y-20236052D01*
X69058120Y-20214070D01*
X69035405Y-20201980D01*
X69013789Y-20166076D01*
X69007471Y-20153708D01*
X68999501Y-20168274D01*
X68981549Y-20173037D01*
X68951141Y-20177434D01*
X68941616Y-20179265D01*
X68926228Y-20183295D01*
X68905346Y-20188058D01*
X68885196Y-20185860D01*
X68863214Y-20183662D01*
X68838667Y-20174869D01*
X68815586Y-20169007D01*
X68785545Y-20161314D01*
X68770524Y-20146659D01*
X68743413Y-20133836D01*
X68719564Y-20115518D01*
X68989976Y-20115518D01*
X68993011Y-20115997D01*
X68992907Y-20115518D01*
X68989976Y-20115518D01*
X68719564Y-20115518D01*
X68718133Y-20114419D01*
X68698716Y-20099764D01*
X68673803Y-20081813D01*
X68654020Y-20062762D01*
X68643029Y-20049206D01*
X68632038Y-20036017D01*
X68617017Y-20015867D01*
X68601996Y-19995351D01*
X68597600Y-19981795D01*
X68585143Y-19969705D01*
X68566459Y-19942960D01*
X68549240Y-19915483D01*
X68538249Y-19893501D01*
X68532020Y-19871519D01*
X68519930Y-19839646D01*
X68507108Y-19806673D01*
X68506009Y-19787622D01*
X68477066Y-19791286D01*
X68451420Y-19783592D01*
X68439697Y-19787256D01*
X68424676Y-19775532D01*
X68452886Y-19752451D01*
X68485859Y-19732301D01*
X68485492Y-19733034D01*
X68492453Y-19731202D01*
X68485126Y-19729004D01*
X68484027Y-19725706D01*
X68482941Y-19716660D01*
X68452519Y-19718013D01*
X68387673Y-19711785D01*
X68323926Y-19703358D01*
X68286923Y-19692367D01*
X68276298Y-19702259D01*
X68251752Y-19705190D01*
X68230503Y-19704091D01*
X68207788Y-19702992D01*
X68207788Y-19671851D01*
X68475234Y-19661959D01*
X68470105Y-19645106D01*
X68470105Y-19610668D01*
X68470105Y-19576963D01*
X68470105Y-19554981D01*
X68472357Y-19530704D01*
X68657392Y-19530704D01*
X68660614Y-19541059D01*
X68665011Y-19562308D01*
X68667575Y-19578062D01*
X68670506Y-19597113D01*
X68676368Y-19625689D01*
X68682963Y-19652434D01*
X68686626Y-19667455D01*
X68692122Y-19687238D01*
X68709707Y-19720577D01*
X68716668Y-19742559D01*
X68726560Y-19759412D01*
X68740848Y-19786523D01*
X68756235Y-19809238D01*
X68781148Y-19839279D01*
X68800199Y-19868589D01*
X68815953Y-19881778D01*
X68833905Y-19891669D01*
X68854421Y-19909988D01*
X68880433Y-19929771D01*
X68907544Y-19948456D01*
X68925862Y-19960180D01*
X68946378Y-19966041D01*
X68967261Y-19975201D01*
X68964697Y-19972636D01*
X68976126Y-19967666D01*
X68958835Y-19950654D01*
X68932090Y-19904126D01*
X68926506Y-19894234D01*
X69125164Y-19894234D01*
X69152642Y-19925741D01*
X69175722Y-19961645D01*
X69188179Y-19975933D01*
X69207596Y-20000846D01*
X69224083Y-20022462D01*
X69233974Y-20034185D01*
X69248995Y-20057632D01*
X69273175Y-20077050D01*
X69297355Y-20086942D01*
X69315307Y-20090972D01*
X69337289Y-20086942D01*
X69362935Y-20080347D01*
X69406898Y-20062762D01*
X69426682Y-20017699D01*
X69431445Y-19957981D01*
X69423018Y-19905591D01*
X69409096Y-19882144D01*
X69395175Y-19893135D01*
X69387115Y-19893501D01*
X69371361Y-19897531D01*
X69353409Y-19894234D01*
X69305049Y-19890937D01*
X69329143Y-19870411D01*
X69297355Y-19875549D01*
X69287000Y-19876929D01*
X69214191Y-19886907D01*
X69146047Y-19892769D01*
X69134323Y-19896066D01*
X69125164Y-19894234D01*
X68926506Y-19894234D01*
X68906445Y-19858697D01*
X68889226Y-19824258D01*
X68876036Y-19803009D01*
X68851856Y-19773334D01*
X68843064Y-19757214D01*
X68828775Y-19735965D01*
X68815220Y-19716914D01*
X68815586Y-19704091D01*
X68792505Y-19687605D01*
X68766860Y-19654632D01*
X68742314Y-19622758D01*
X68728758Y-19604074D01*
X68709707Y-19584290D01*
X68685893Y-19559743D01*
X68679665Y-19550951D01*
X68671239Y-19542524D01*
X68657392Y-19530704D01*
X68472357Y-19530704D01*
X68473402Y-19519443D01*
X68482561Y-19476945D01*
X68488789Y-19456429D01*
X68496849Y-19432249D01*
X68502711Y-19409534D01*
X68513336Y-19383156D01*
X68537882Y-19352015D01*
X68564627Y-19318309D01*
X68578915Y-19308051D01*
X68593203Y-19289733D01*
X68608957Y-19279841D01*
X68625810Y-19272147D01*
X68641197Y-19269949D01*
X68656218Y-19268117D01*
X68669041Y-19264820D01*
X68682963Y-19259691D01*
X68698350Y-19261889D01*
G37*
G36*
X68477432Y-19021921D02*
G01*
X68488789Y-19039873D01*
X68501612Y-19061854D01*
X68518831Y-19080905D01*
X68539348Y-19099224D01*
X68559864Y-19110581D01*
X68581480Y-19120473D01*
X68602362Y-19129998D01*
X68632404Y-19142455D01*
X68659515Y-19154178D01*
X68678566Y-19162971D01*
X68696884Y-19166268D01*
X68725827Y-19173595D01*
X68757334Y-19182388D01*
X68781148Y-19189349D01*
X68801665Y-19190448D01*
X68830607Y-19194845D01*
X68858817Y-19199974D01*
X68876769Y-19205103D01*
X68909376Y-19206202D01*
X68945646Y-19206935D01*
X68963598Y-19206935D01*
X68993273Y-19206935D01*
X69022582Y-19206935D01*
X69037603Y-19206935D01*
X69065813Y-19212064D01*
X69088161Y-19209866D01*
X69086330Y-19211697D01*
X69088161Y-19217193D01*
X69087062Y-19224520D01*
X69085230Y-19241007D01*
X69083032Y-19260424D01*
X69081933Y-19272880D01*
X69083032Y-19286436D01*
X69084131Y-19304388D01*
X69085230Y-19313913D01*
X69086330Y-19319042D01*
X69086330Y-19329667D01*
X69099885Y-19347619D01*
X69120768Y-19360075D01*
X69129561Y-19360075D01*
X69131759Y-19360075D01*
X69153374Y-19354213D01*
X69173158Y-19346519D01*
X69187446Y-19336994D01*
X69195872Y-19329300D01*
X69214191Y-19311715D01*
X69241302Y-19281673D01*
X69265848Y-19250532D01*
X69280503Y-19230016D01*
X69292226Y-19212064D01*
X69295524Y-19192646D01*
X69324833Y-19191547D01*
X69373559Y-19179457D01*
X69421553Y-19168466D01*
X69451595Y-19159674D01*
X69468814Y-19157109D01*
X69491162Y-19153079D01*
X69518273Y-19146118D01*
X69558939Y-19123404D01*
X69594477Y-19097025D01*
X69614260Y-19074677D01*
X69632212Y-19046467D01*
X69645035Y-19023020D01*
X69655293Y-18991146D01*
X69653461Y-18985284D01*
X69653461Y-18973927D01*
X69651263Y-18957074D01*
X69644669Y-18947549D01*
X69642837Y-18935092D01*
X69596309Y-18938390D01*
X69566267Y-18941687D01*
X69525967Y-18947549D01*
X69495192Y-18950846D01*
X69476141Y-18965867D01*
X69466616Y-18972462D01*
X69432177Y-18972462D01*
X69382718Y-18974660D01*
X69335091Y-18979056D01*
X69313842Y-18985284D01*
X69316773Y-18974293D01*
X69325932Y-18930696D01*
X69342052Y-18864018D01*
X69356706Y-18797339D01*
X69366965Y-18754841D01*
X69371361Y-18733958D01*
X69377956Y-18708313D01*
X69384550Y-18674241D01*
X69384550Y-18654824D01*
X69384550Y-18627346D01*
X69380154Y-18611959D01*
X69380520Y-18585947D01*
X69366598Y-18578986D01*
X69348280Y-18565797D01*
X69345349Y-18571659D01*
X69339121Y-18571659D01*
X69329595Y-18572758D01*
X69326298Y-18573857D01*
X69315307Y-18573857D01*
X69303217Y-18581551D01*
X69295157Y-18586314D01*
X69285265Y-18593274D01*
X69272443Y-18605731D01*
X69260719Y-18615989D01*
X69247896Y-18628079D01*
X69233974Y-18636872D01*
X69221152Y-18663250D01*
X69213092Y-18688163D01*
X69204665Y-18706481D01*
X69203566Y-18726265D01*
X69048228Y-18733958D01*
X69091459Y-18766931D01*
X69184515Y-18776457D01*
X69188912Y-18781219D01*
X69187812Y-18777189D01*
X69148245Y-18774991D01*
X69107212Y-18773159D01*
X69083032Y-18773159D01*
X69047129Y-18773159D01*
X69012324Y-18773159D01*
X68992174Y-18773159D01*
X68983748Y-18773159D01*
X68972390Y-18773159D01*
X68935021Y-18778655D01*
X68963231Y-18809796D01*
X69182683Y-18834709D01*
X69141284Y-18994443D01*
X69140185Y-18992245D01*
X69129561Y-18993344D01*
X69121134Y-18994443D01*
X69098786Y-18994443D01*
X69081200Y-18994443D01*
X69053723Y-18994443D01*
X69032108Y-18994443D01*
X69015255Y-18992245D01*
X68985579Y-18990047D01*
X68952240Y-18987849D01*
X68929159Y-18985651D01*
X68908643Y-18981254D01*
X68884096Y-18975026D01*
X68851490Y-18965867D01*
X68821448Y-18956708D01*
X68803863Y-18951945D01*
X68788842Y-18947915D01*
X68760632Y-18937291D01*
X68730224Y-18925567D01*
X68710440Y-18916408D01*
X68706410Y-18913843D01*
X68703479Y-18913843D01*
X68698350Y-18891129D01*
X68693221Y-18864750D01*
X68679299Y-18854126D01*
X68664644Y-18847531D01*
X68655852Y-18849729D01*
X68641197Y-18849729D01*
X68633870Y-18850829D01*
X68630572Y-18851928D01*
X68617750Y-18851928D01*
X68594669Y-18867315D01*
X68563894Y-18883435D01*
X68554735Y-18899555D01*
X68542645Y-18909080D01*
X68363493Y-18924468D01*
X68368256Y-18961837D01*
X68392802Y-18968432D01*
X68408189Y-18971362D01*
X68421012Y-18972462D01*
X68439330Y-18972462D01*
X68463144Y-18972462D01*
X68486225Y-18973561D01*
X68499048Y-18964401D01*
X68048786Y-19010197D01*
X68477432Y-19021921D01*
G37*
G36*
X68617383Y-18769862D02*
G01*
X68643029Y-18758505D01*
X68662080Y-18746781D01*
X68769791Y-18746781D01*
X68878235Y-18746781D01*
X68913039Y-18751910D01*
X68976787Y-18759238D01*
X69045663Y-18766565D01*
X69099152Y-18771328D01*
X69137254Y-18776457D01*
X69205764Y-18787081D01*
X69278921Y-18795987D01*
X69281235Y-18796240D01*
X69333992Y-18801736D01*
X69368064Y-18810529D01*
X69412027Y-18817856D01*
X69451595Y-18823718D01*
X69474309Y-18827015D01*
X69480171Y-18828114D01*
X69493360Y-18835808D01*
X69516441Y-18847898D01*
X69531096Y-18847898D01*
X69539889Y-18847898D01*
X69559306Y-18843868D01*
X69577624Y-18839838D01*
X69608765Y-18825549D01*
X69628915Y-18815291D01*
X69660056Y-18786715D01*
X69688266Y-18757406D01*
X69701089Y-18734325D01*
X69714278Y-18707947D01*
X69714278Y-18694391D01*
X69714278Y-18675340D01*
X69697425Y-18658121D01*
X69683503Y-18656656D01*
X69662987Y-18642734D01*
X69624519Y-18636872D01*
X69593378Y-18631376D01*
X69551246Y-18624049D01*
X69510579Y-18616722D01*
X69485667Y-18611593D01*
X69434376Y-18604998D01*
X69361469Y-18595473D01*
X69290394Y-18585214D01*
X69246797Y-18579719D01*
X69205764Y-18574590D01*
X69146780Y-18567263D01*
X69088894Y-18559935D01*
X69052624Y-18554440D01*
X69016354Y-18552608D01*
X68971291Y-18550410D01*
X68929526Y-18547113D01*
X68903147Y-18543815D01*
X68750740Y-18543815D01*
X68604927Y-18543815D01*
X68577083Y-18556638D01*
X68553270Y-18573491D01*
X68527624Y-18591076D01*
X68509306Y-18604998D01*
X68484759Y-18607563D01*
X68443360Y-18609761D01*
X68402327Y-18611959D01*
X68370820Y-18613791D01*
X68349571Y-18622584D01*
X68279786Y-18650955D01*
X68276298Y-18652625D01*
X68329421Y-18651160D01*
X68335283Y-18658121D01*
X68348838Y-18663983D01*
X68375217Y-18666181D01*
X68414051Y-18670577D01*
X68453618Y-18674974D01*
X68479997Y-18665082D01*
X68147338Y-18653358D01*
X68090918Y-18672409D01*
X68103374Y-18686331D01*
X68127554Y-18689628D01*
X68152101Y-18692926D01*
X68167488Y-18695124D01*
X68204491Y-18700619D01*
X68272635Y-18703916D01*
X68339679Y-18703916D01*
X68376316Y-18703916D01*
X68399397Y-18708313D01*
X68432369Y-18712343D01*
X68462411Y-18714541D01*
X68475967Y-18715274D01*
X68489156Y-18724799D01*
X68500513Y-18732493D01*
X68509672Y-18729562D01*
X68518831Y-18741652D01*
X68534951Y-18736889D01*
X68538249Y-18756673D01*
X68560597Y-18769862D01*
X68585876Y-18769862D01*
X68617383Y-18769862D01*
G37*
G36*
X67895279Y-18040431D02*
G01*
X67920192Y-18031638D01*
X67932648Y-18022845D01*
X67929351Y-18023944D01*
X67941808Y-18020647D01*
X67948036Y-18018449D01*
X67957561Y-18016251D01*
X67963423Y-18014053D01*
X67963789Y-18014053D01*
X67980642Y-18018449D01*
X68029369Y-18018449D01*
X68099711Y-18021746D01*
X68171152Y-18028707D01*
X68220244Y-18029806D01*
X68236731Y-18031272D01*
X68267505Y-18032371D01*
X68299013Y-18033836D01*
X68316232Y-18034935D01*
X68378880Y-18046293D01*
X68452331Y-18051691D01*
X68482928Y-18052154D01*
X68559045Y-18052154D01*
X68586975Y-18052154D01*
X68648524Y-18052154D01*
X68651455Y-18046659D01*
X68637167Y-18057650D01*
X68617383Y-18086959D01*
X68597966Y-18115169D01*
X68582945Y-18132755D01*
X68578182Y-18146310D01*
X68568290Y-18174154D01*
X68558399Y-18200532D01*
X68551804Y-18214454D01*
X68548873Y-18231673D01*
X68532387Y-18232406D01*
X68517366Y-18237168D01*
X68509672Y-18256219D01*
X68520663Y-18259517D01*
X68510405Y-18256586D01*
X68504543Y-18259883D01*
X68469006Y-18274171D01*
X68412219Y-18286994D01*
X68353967Y-18299817D01*
X68315133Y-18308609D01*
X68257247Y-18329126D01*
X68224274Y-18342681D01*
X68200094Y-18356237D01*
X68182143Y-18361000D01*
X68146972Y-18395438D01*
X68572321Y-18319967D01*
X68571954Y-18333522D01*
X68583311Y-18344513D01*
X68602362Y-18362099D01*
X68629107Y-18384447D01*
X68656584Y-18404597D01*
X68677101Y-18417786D01*
X68703479Y-18428044D01*
X68743413Y-18451125D01*
X68767593Y-18450759D01*
X68789575Y-18461750D01*
X68823646Y-18466146D01*
X68855886Y-18470542D01*
X68880066Y-18476771D01*
X68921832Y-18485563D01*
X68963964Y-18493623D01*
X68993273Y-18496921D01*
X69007561Y-18499119D01*
X69032474Y-18503149D01*
X69058120Y-18507912D01*
X69077170Y-18510110D01*
X69097687Y-18512674D01*
X69109411Y-18504614D01*
X69128828Y-18520002D01*
X69153008Y-18529527D01*
X69184515Y-18525497D01*
X69213092Y-18521101D01*
X69227380Y-18521101D01*
X69247896Y-18518903D01*
X69281968Y-18516338D01*
X69292226Y-18496554D01*
X69311277Y-18482632D01*
X69333992Y-18460284D01*
X69355241Y-18436471D01*
X69365866Y-18413390D01*
X69363301Y-18390675D01*
X69375757Y-18377852D01*
X69383451Y-18353672D01*
X69373559Y-18337552D01*
X69362568Y-18326928D01*
X69346082Y-18314105D01*
X69325932Y-18312273D01*
X69308346Y-18310075D01*
X69283800Y-18310075D01*
X69246797Y-18310075D01*
X69211993Y-18310075D01*
X69194041Y-18310075D01*
X69177188Y-18307510D01*
X69148612Y-18303847D01*
X69120768Y-18301649D01*
X69107212Y-18302381D01*
X69087429Y-18295787D01*
X69060318Y-18292123D01*
X69036870Y-18288826D01*
X69022582Y-18286261D01*
X69006829Y-18282964D01*
X68978985Y-18276003D01*
X68950775Y-18268676D01*
X68935021Y-18265012D01*
X68910475Y-18258784D01*
X68877868Y-18247793D01*
X68846361Y-18238268D01*
X68826944Y-18232772D01*
X68812655Y-18220682D01*
X68800199Y-18209325D01*
X68790307Y-18198334D01*
X68774187Y-18185877D01*
X68758800Y-18184412D01*
X68763563Y-18184412D01*
X68763563Y-18180016D01*
X68765761Y-18171956D01*
X68758434Y-18161697D01*
X68771623Y-18167559D01*
X68798367Y-18158034D01*
X68827676Y-18146310D01*
X68856253Y-18130923D01*
X68880799Y-18121397D01*
X68910475Y-18112605D01*
X68923297Y-18107842D01*
X68944180Y-18100148D01*
X68963231Y-18092455D01*
X68973856Y-18089524D01*
X68999868Y-18081830D01*
X69031375Y-18071572D01*
X69059585Y-18062779D01*
X69072041Y-18059482D01*
X69095122Y-18051788D01*
X69112708Y-18047025D01*
X69129194Y-18041530D01*
X69169861Y-18037134D01*
X69200269Y-18032371D01*
X69253392Y-18032371D01*
X69327306Y-18032371D01*
X69353775Y-18032371D01*
X69429819Y-18032371D01*
X69453060Y-18032371D01*
X69505817Y-18032371D01*
X69520838Y-18030539D01*
X69556741Y-18024311D01*
X69597774Y-18015152D01*
X69629648Y-18005993D01*
X69649798Y-18004161D01*
X69686068Y-17999398D01*
X69723071Y-17993536D01*
X69757875Y-17990239D01*
X69767034Y-17974852D01*
X69793779Y-17966792D01*
X69803671Y-17947374D01*
X69817593Y-17927224D01*
X69833713Y-17907074D01*
X69837010Y-17892053D01*
X69851665Y-17873002D01*
X69859358Y-17843693D01*
X69859358Y-17828672D01*
X69851298Y-17821345D01*
X69853130Y-17825741D01*
X69839941Y-17804492D01*
X69817226Y-17792036D01*
X69792680Y-17794234D01*
X69771431Y-17794234D01*
X69754578Y-17794234D01*
X69734428Y-17794234D01*
X69710248Y-17794234D01*
X69678374Y-17794234D01*
X69624519Y-17797531D01*
X69550673Y-17803714D01*
X69521570Y-17806324D01*
X69447509Y-17812931D01*
X69393709Y-17818048D01*
X69320422Y-17824823D01*
X69266947Y-17829771D01*
X69193132Y-17835958D01*
X69164732Y-17838198D01*
X69113807Y-17841129D01*
X69083399Y-17841129D01*
X69030276Y-17844060D01*
X68973123Y-17846990D01*
X68926961Y-17845159D01*
X68888859Y-17846990D01*
X68824745Y-17846990D01*
X68755869Y-17846990D01*
X68708242Y-17853219D01*
X68686260Y-17846624D01*
X68647059Y-17841129D01*
X68609323Y-17841129D01*
X68584777Y-17841129D01*
X68537150Y-17841129D01*
X68462248Y-17841129D01*
X68453985Y-17841129D01*
X68379291Y-17841129D01*
X68372286Y-17841129D01*
X68327956Y-17838930D01*
X68300478Y-17834534D01*
X68256515Y-17828306D01*
X68213284Y-17821345D01*
X68185073Y-17817681D01*
X68155032Y-17817681D01*
X68104107Y-17814750D01*
X68053549Y-17807423D01*
X68022408Y-17803027D01*
X68003357Y-17806324D01*
X67982840Y-17809621D01*
X67964889Y-17814750D01*
X67952432Y-17817681D01*
X67925321Y-17825741D01*
X67898943Y-17842594D01*
X67888318Y-17855050D01*
X67874030Y-17875567D01*
X67860841Y-17895351D01*
X67849850Y-17908540D01*
X67843622Y-17930155D01*
X67837027Y-17951404D01*
X67837027Y-17964593D01*
X67838127Y-17975951D01*
X67839226Y-17982545D01*
X67842523Y-18004161D01*
X67845454Y-18023578D01*
X67863039Y-18040431D01*
X67895279Y-18040431D01*
G37*
G36*
X68434568Y-17286819D02*
G01*
X68438964Y-17317228D01*
X68453252Y-17356429D01*
X68470471Y-17390501D01*
X68486958Y-17424206D01*
X68499780Y-17443623D01*
X68519930Y-17474032D01*
X68541180Y-17505539D01*
X68555468Y-17526422D01*
X68565726Y-17540710D01*
X68581113Y-17558662D01*
X68595035Y-17575515D01*
X68604561Y-17585773D01*
X68776752Y-17755033D01*
X68794704Y-17768222D01*
X68807893Y-17777381D01*
X68818884Y-17786907D01*
X68840133Y-17799729D01*
X68857718Y-17812186D01*
X68880799Y-17824642D01*
X68899117Y-17828306D01*
X68917436Y-17837099D01*
X68944913Y-17841129D01*
X68965429Y-17845525D01*
X69007195Y-17845525D01*
X69045297Y-17845525D01*
X69070942Y-17841495D01*
X69096588Y-17837099D01*
X69125531Y-17823543D01*
X69161801Y-17805225D01*
X69194407Y-17788372D01*
X69217488Y-17777381D01*
X69235440Y-17757231D01*
X69268413Y-17724991D01*
X69304683Y-17689820D01*
X69331427Y-17661977D01*
X69345349Y-17643292D01*
X69359637Y-17620944D01*
X69373926Y-17586505D01*
X69390778Y-17552800D01*
X69403967Y-17516530D01*
X69417157Y-17480993D01*
X69417157Y-17455347D01*
X69418256Y-17418344D01*
X69419721Y-17380242D01*
X69412760Y-17362291D01*
X69438039Y-17369984D01*
X69468081Y-17367420D01*
X69495192Y-17356429D01*
X69521570Y-17340675D01*
X69551246Y-17312099D01*
X69583120Y-17281324D01*
X69607300Y-17234063D01*
X69607300Y-17216844D01*
X69607300Y-17201823D01*
X69599606Y-17188634D01*
X69590080Y-17176544D01*
X69581654Y-17166286D01*
X69569930Y-17160057D01*
X69556009Y-17154196D01*
X69543919Y-17150898D01*
X69525234Y-17140274D01*
X69508015Y-17129649D01*
X69476874Y-17100340D01*
X69426682Y-17050515D01*
X69373559Y-16999224D01*
X69333992Y-16970281D01*
X69330328Y-16953062D01*
X69308346Y-16926683D01*
X69286731Y-16901038D01*
X69273908Y-16884185D01*
X69256689Y-16866966D01*
X69232143Y-16843519D01*
X69208329Y-16821537D01*
X69191110Y-16805783D01*
X69176089Y-16797357D01*
X69155572Y-16791129D01*
X69142017Y-16798090D01*
X69133224Y-16802486D01*
X69127362Y-16803951D01*
X69115272Y-16806882D01*
X69108311Y-16810912D01*
X69095122Y-16816408D01*
X69081933Y-16830696D01*
X69065447Y-16848281D01*
X69047861Y-16864768D01*
X69035771Y-16875759D01*
X69023681Y-16899939D01*
X69012324Y-16927050D01*
X69012324Y-16945734D01*
X69012324Y-16967350D01*
X69025147Y-16986034D01*
X69043465Y-17009115D01*
X69061050Y-17032196D01*
X69071675Y-17047950D01*
X69098786Y-17085686D01*
X69119302Y-17114995D01*
X69134323Y-17145037D01*
X69149344Y-17181673D01*
X69161801Y-17215012D01*
X69173891Y-17246519D01*
X69173891Y-17250549D01*
X69058852Y-17250549D01*
X69058852Y-17294513D01*
X69184515Y-17294513D01*
X69184882Y-17293048D01*
X69162533Y-17301474D01*
X69132491Y-17312465D01*
X69111609Y-17333348D01*
X69139086Y-17350933D01*
X69153741Y-17359726D01*
X69189644Y-17365221D01*
X69213092Y-17370351D01*
X69216389Y-17393798D01*
X69220419Y-17423840D01*
X69220419Y-17491251D01*
X69220419Y-17548037D01*
X69214923Y-17559761D01*
X69204299Y-17581376D01*
X69194041Y-17605190D01*
X69184882Y-17624974D01*
X69177188Y-17632667D01*
X69166563Y-17638529D01*
X69158870Y-17643292D01*
X69099885Y-17643292D01*
X69047861Y-17643292D01*
X69035039Y-17634866D01*
X69021117Y-17626806D01*
X69010126Y-17621310D01*
X68989609Y-17610319D01*
X68975321Y-17598229D01*
X68959934Y-17586872D01*
X68940517Y-17569286D01*
X68919634Y-17550968D01*
X68903147Y-17538512D01*
X68889226Y-17527154D01*
X68866877Y-17503707D01*
X68841598Y-17478794D01*
X68822914Y-17462308D01*
X68811923Y-17449485D01*
X68791773Y-17426404D01*
X68771623Y-17402224D01*
X68760632Y-17383173D01*
X68740115Y-17360092D01*
X68720332Y-17338843D01*
X68711173Y-17324555D01*
X68698716Y-17302940D01*
X68686626Y-17281324D01*
X68677833Y-17267036D01*
X68662446Y-17238093D01*
X68645960Y-17203288D01*
X68641563Y-17194496D01*
X68637900Y-17185337D01*
X68634236Y-17174712D01*
X68634236Y-17132580D01*
X68634236Y-17095577D01*
X68632038Y-17096310D01*
X68641930Y-17093379D01*
X68659882Y-17085319D01*
X68680398Y-17079457D01*
X68703845Y-17076526D01*
X68719965Y-17071031D01*
X68744145Y-17066268D01*
X68768692Y-17063337D01*
X68783713Y-17062238D01*
X68808992Y-17057109D01*
X68828409Y-17051980D01*
X68848926Y-17045385D01*
X68859184Y-17032196D01*
X68873838Y-17025602D01*
X68895820Y-17004719D01*
X68915970Y-16985302D01*
X68930991Y-16971013D01*
X68936853Y-16957824D01*
X68936120Y-16941338D01*
X68944547Y-16936209D01*
X68949676Y-16928882D01*
X68959934Y-16905434D01*
X68941249Y-16884552D01*
X68921466Y-16872462D01*
X68879334Y-16872462D01*
X68841232Y-16872462D01*
X68809725Y-16876492D01*
X68764295Y-16880522D01*
X68741947Y-16890047D01*
X68722163Y-16897008D01*
X68695785Y-16906533D01*
X68667942Y-16917524D01*
X68638266Y-16929614D01*
X68618849Y-16947566D01*
X68600164Y-16950863D01*
X68578182Y-16964419D01*
X68554735Y-16983836D01*
X68532387Y-17001055D01*
X68512969Y-17019374D01*
X68493919Y-17042088D01*
X68473036Y-17068466D01*
X68468639Y-17078358D01*
X68463144Y-17086052D01*
X68454718Y-17098142D01*
X68448123Y-17110965D01*
X68440429Y-17129283D01*
X68432736Y-17147967D01*
X68436033Y-17159325D01*
X68426141Y-17169583D01*
X68423577Y-17174346D01*
X68400129Y-17184238D01*
X68388772Y-17194129D01*
X68382544Y-17218309D01*
X68405258Y-17220874D01*
X68421012Y-17228568D01*
X68420646Y-17220874D01*
X68420646Y-17224171D01*
X68419547Y-17225637D01*
X68373018Y-17225637D01*
X68298844Y-17225637D01*
X68290586Y-17225637D01*
X68215291Y-17225637D01*
X68208154Y-17225637D01*
X68155032Y-17225637D01*
X68116930Y-17231498D01*
X68069669Y-17237360D01*
X68038161Y-17249450D01*
X68015447Y-17254946D01*
X68001525Y-17264838D01*
X67994198Y-17280591D01*
X68434568Y-17286819D01*
G37*
G36*
X68930625Y-16158418D02*
G01*
X68964330Y-16165378D01*
X68999501Y-16176369D01*
X69034672Y-16191757D01*
X69074972Y-16210075D01*
X69123332Y-16233156D01*
X69156672Y-16250741D01*
X69184882Y-16269792D01*
X69198437Y-16280417D01*
X69222983Y-16297636D01*
X69248263Y-16313756D01*
X69265115Y-16323648D01*
X69272443Y-16326945D01*
X69288563Y-16328777D01*
X69306148Y-16331708D01*
X69315307Y-16333540D01*
X69340220Y-16350392D01*
X69357073Y-16373840D01*
X69367697Y-16384831D01*
X69376124Y-16401683D01*
X69380154Y-16424398D01*
X69384550Y-16445281D01*
X69384550Y-16515256D01*
X69384550Y-16583034D01*
X69380154Y-16607580D01*
X69376124Y-16631394D01*
X69366232Y-16653742D01*
X69351944Y-16681586D01*
X69336556Y-16709429D01*
X69324833Y-16728847D01*
X69307247Y-16752660D01*
X69289662Y-16776108D01*
X69273542Y-16792228D01*
X69250827Y-16813477D01*
X69229578Y-16833627D01*
X69217122Y-16845717D01*
X69208329Y-16852311D01*
X69187446Y-16867699D01*
X69163266Y-16883819D01*
X69144215Y-16894810D01*
X69131392Y-16900305D01*
X69119669Y-16904702D01*
X69105014Y-16912029D01*
X69081933Y-16918990D01*
X69061417Y-16924485D01*
X69048594Y-16926683D01*
X68972757Y-16926683D01*
X68886661Y-16926683D01*
X68870175Y-16922653D01*
X68851856Y-16918257D01*
X68830607Y-16906167D01*
X68804595Y-16892245D01*
X68777851Y-16878690D01*
X68759899Y-16868798D01*
X68736085Y-16855975D01*
X68728025Y-16838756D01*
X68702746Y-16823735D01*
X68670140Y-16792960D01*
X68638266Y-16762919D01*
X68618849Y-16742402D01*
X68605660Y-16723718D01*
X68593570Y-16704300D01*
X68581846Y-16684883D01*
X68567924Y-16655574D01*
X68554369Y-16629196D01*
X68544477Y-16610877D01*
X68534951Y-16576073D01*
X68529090Y-16548229D01*
X68500879Y-16551526D01*
X68444459Y-16549328D01*
X68388772Y-16543833D01*
X68352868Y-16537971D01*
X68334916Y-16532842D01*
X68318796Y-16527346D01*
X68304875Y-16513058D01*
X68304875Y-16504265D01*
X68311103Y-16491076D01*
X68525792Y-16471659D01*
X68525060Y-16468362D01*
X68526891Y-16453341D01*
X68526891Y-16449677D01*
X68534585Y-16449311D01*
X68516633Y-16447845D01*
X68488789Y-16438320D01*
X68488789Y-16418170D01*
X68488789Y-16400218D01*
X68519930Y-16394722D01*
X68537882Y-16377503D01*
X68552537Y-16363215D01*
X68566785Y-16344897D01*
X68722896Y-16344897D01*
X68728025Y-16358452D01*
X68728025Y-16387762D01*
X68728025Y-16418536D01*
X68728025Y-16439785D01*
X68731323Y-16450044D01*
X68744878Y-16466896D01*
X68750740Y-16488512D01*
X68763563Y-16516355D01*
X68777484Y-16543833D01*
X68781881Y-16559586D01*
X68800932Y-16579370D01*
X68818884Y-16603550D01*
X68841598Y-16625166D01*
X68863214Y-16647147D01*
X68885196Y-16662901D01*
X68911207Y-16678288D01*
X68925129Y-16688913D01*
X68950775Y-16701736D01*
X68980084Y-16716024D01*
X68996204Y-16726649D01*
X69015255Y-16729213D01*
X69036138Y-16733243D01*
X69075339Y-16733243D01*
X69113074Y-16733243D01*
X69131026Y-16729213D01*
X69140551Y-16727015D01*
X69151909Y-16719688D01*
X69158137Y-16714192D01*
X69153008Y-16713826D01*
X69139086Y-16706498D01*
X69126630Y-16694042D01*
X69126630Y-16670595D01*
X69126630Y-16658505D01*
X69131759Y-16643117D01*
X69137254Y-16621868D01*
X69144215Y-16622235D01*
X69146047Y-16618937D01*
X69149711Y-16611610D01*
X69165831Y-16600253D01*
X69165476Y-16595120D01*
X69162167Y-16595856D01*
X69154840Y-16585965D01*
X69139452Y-16581568D01*
X69126263Y-16570944D01*
X69105747Y-16574974D01*
X69065080Y-16574974D01*
X69024780Y-16571676D01*
X69000967Y-16568013D01*
X68982648Y-16559953D01*
X68957369Y-16551526D01*
X68957369Y-16531743D01*
X68957369Y-16513425D01*
X68989609Y-16508295D01*
X69016720Y-16503166D01*
X69059585Y-16498037D01*
X69087161Y-16501101D01*
X69077170Y-16495106D01*
X69052990Y-16472025D01*
X69029543Y-16454440D01*
X69002799Y-16438686D01*
X68973123Y-16421833D01*
X68954072Y-16411942D01*
X68926595Y-16399485D01*
X68899484Y-16388128D01*
X68882265Y-16380068D01*
X68867976Y-16373473D01*
X68848193Y-16365413D01*
X68830607Y-16359185D01*
X68822914Y-16356254D01*
X68803130Y-16354422D01*
X68770890Y-16352224D01*
X68737917Y-16351125D01*
X68722896Y-16344897D01*
X68566785Y-16344897D01*
X68567924Y-16343432D01*
X68571221Y-16325113D01*
X68586242Y-16306795D01*
X68603461Y-16281516D01*
X68622146Y-16258801D01*
X68632404Y-16248910D01*
X68655485Y-16232423D01*
X68677467Y-16213006D01*
X68697251Y-16198718D01*
X68715203Y-16196886D01*
X68724728Y-16182231D01*
X68742680Y-16175637D01*
X68757334Y-16170508D01*
X68773454Y-16165378D01*
X68800199Y-16158418D01*
X68822914Y-16152922D01*
X68861016Y-16152922D01*
X68905712Y-16152922D01*
X68930625Y-16158418D01*
G37*
G36*
X68536783Y-16012971D02*
G01*
X68524693Y-16010040D01*
X68521396Y-16011139D01*
X68488057Y-16020298D01*
X68411639Y-16025056D01*
X68408189Y-16025061D01*
X68472303Y-16058400D01*
X68508939Y-16062430D01*
X68541912Y-16070490D01*
X68566825Y-16079283D01*
X68589540Y-16080748D01*
X68601630Y-16095769D01*
X68625077Y-16102364D01*
X68642296Y-16107127D01*
X68671239Y-16112988D01*
X68696884Y-16118850D01*
X68713371Y-16124346D01*
X68738284Y-16126177D01*
X68774554Y-16130940D01*
X68811923Y-16136802D01*
X68837935Y-16141565D01*
X68891424Y-16151090D01*
X68965079Y-16163127D01*
X68983381Y-16166111D01*
X69057083Y-16177014D01*
X69076438Y-16179667D01*
X69128828Y-16185529D01*
X69148612Y-16190291D01*
X69184515Y-16197252D01*
X69220053Y-16204213D01*
X69244233Y-16209709D01*
X69258521Y-16213739D01*
X69275374Y-16210075D01*
X69284533Y-16228027D01*
X69311277Y-16239384D01*
X69340586Y-16239384D01*
X69368064Y-16239384D01*
X69386748Y-16235354D01*
X69403967Y-16231324D01*
X69423751Y-16218501D01*
X69442069Y-16207144D01*
X69462586Y-16191024D01*
X69481637Y-16172706D01*
X69493360Y-16152922D01*
X69492994Y-16132039D01*
X69505817Y-16126910D01*
X69515342Y-16104562D01*
X69515342Y-16094304D01*
X69515342Y-16085877D01*
X69500321Y-16069391D01*
X69487498Y-16055469D01*
X69473210Y-16048875D01*
X69457090Y-16052538D01*
X69445000Y-16036418D01*
X69424850Y-16030923D01*
X69407265Y-16026160D01*
X69380886Y-16018466D01*
X69354508Y-16010773D01*
X69333992Y-16004911D01*
X69303950Y-15999415D01*
X69281602Y-16003812D01*
X69302118Y-15997217D01*
X69328863Y-15968641D01*
X69354875Y-15940797D01*
X69377589Y-15920281D01*
X69391511Y-15896833D01*
X69408730Y-15871554D01*
X69422286Y-15852137D01*
X69432910Y-15836383D01*
X69445367Y-15806708D01*
X69457090Y-15775933D01*
X69464418Y-15735633D01*
X69466616Y-15699729D01*
X69466616Y-15685441D01*
X69465517Y-15659429D01*
X69462219Y-15634150D01*
X69458189Y-15618397D01*
X69448297Y-15593117D01*
X69432910Y-15566007D01*
X69418622Y-15548787D01*
X69398838Y-15535965D01*
X69372094Y-15535965D01*
X69334725Y-15535965D01*
X69311277Y-15545856D01*
X69293325Y-15563076D01*
X69269145Y-15587256D01*
X69251560Y-15606673D01*
X69199903Y-15606673D01*
X69125240Y-15606673D01*
X69117104Y-15606673D01*
X69042058Y-15606673D01*
X69034672Y-15606673D01*
X68980817Y-15606673D01*
X68958835Y-15607772D01*
X68926961Y-15611436D01*
X68896553Y-15617664D01*
X68877502Y-15622427D01*
X68851124Y-15628288D01*
X68830607Y-15645508D01*
X69230311Y-15657231D01*
X69234341Y-15660895D01*
X69243133Y-15658330D01*
X69235806Y-15666390D01*
X69235806Y-15672252D01*
X69231043Y-15675916D01*
X69224449Y-15681778D01*
X69217854Y-15683609D01*
X69201734Y-15686174D01*
X69183050Y-15689471D01*
X69168762Y-15691669D01*
X69155206Y-15698264D01*
X69137621Y-15700462D01*
X69121501Y-15731603D01*
X69147146Y-15746624D01*
X69173524Y-15752120D01*
X69209794Y-15754318D01*
X69242401Y-15756150D01*
X69264749Y-15760546D01*
X69266947Y-15759813D01*
X69267314Y-15767873D01*
X69267314Y-15810005D01*
X69267314Y-15843344D01*
X69260719Y-15855801D01*
X69253758Y-15862395D01*
X69220053Y-15874119D01*
X69190377Y-15882545D01*
X69057020Y-15882545D01*
X68923664Y-15882545D01*
X68902048Y-15882545D01*
X68862481Y-15879981D01*
X68822181Y-15874485D01*
X68799100Y-15871921D01*
X68741947Y-15871921D01*
X68691389Y-15871921D01*
X68677101Y-15878882D01*
X68665377Y-15883644D01*
X68659515Y-15885476D01*
X68645960Y-15892803D01*
X68633137Y-15896101D01*
X68612621Y-15912221D01*
X68595768Y-15924311D01*
X68572687Y-15940064D01*
X68551071Y-15956551D01*
X68503444Y-15958016D01*
X68428335Y-15958016D01*
X68425775Y-15958016D01*
X68351693Y-15958016D01*
X68347006Y-15958016D01*
X68294616Y-15960947D01*
X68274100Y-15963878D01*
X68245157Y-15967908D01*
X68218046Y-15971938D01*
X68202659Y-15974503D01*
X68185806Y-15981830D01*
X68164191Y-16014070D01*
X68213284Y-16019565D01*
X68246989Y-16024695D01*
X68536783Y-16012971D01*
G37*
G36*
X68584044Y-14721903D02*
G01*
X68623978Y-14734360D01*
X68634236Y-14739122D01*
X68652188Y-14746083D01*
X68674170Y-14754876D01*
X68677101Y-14767332D01*
X68716302Y-14768798D01*
X68744878Y-14781254D01*
X68759533Y-14781987D01*
X68788109Y-14789681D01*
X68817785Y-14798107D01*
X68839766Y-14803969D01*
X68861748Y-14807266D01*
X68894355Y-14813861D01*
X68923664Y-14819722D01*
X68941616Y-14822653D01*
X68975321Y-14831446D01*
X69015621Y-14838773D01*
X69050792Y-14843903D01*
X69067279Y-14845734D01*
X69088161Y-14840605D01*
X69111609Y-14835476D01*
X69114906Y-14834377D01*
X69125897Y-14833278D01*
X69138720Y-14836575D01*
X69145314Y-14842803D01*
X69151909Y-14849398D01*
X69168395Y-14868815D01*
X69180485Y-14891530D01*
X69180485Y-14916076D01*
X69180485Y-14954178D01*
X69180485Y-14992280D01*
X69180485Y-15016460D01*
X69180485Y-15046136D01*
X69180485Y-15084238D01*
X69180485Y-15118309D01*
X69180485Y-15132964D01*
X69177188Y-15149084D01*
X69170593Y-15175462D01*
X69162167Y-15205138D01*
X69155206Y-15227852D01*
X69151542Y-15244705D01*
X69143482Y-15263756D01*
X69133224Y-15293432D01*
X69122600Y-15319443D01*
X69114906Y-15337029D01*
X69104281Y-15358278D01*
X69093290Y-15380626D01*
X69083765Y-15395281D01*
X69074606Y-15408836D01*
X69060684Y-15429719D01*
X69046762Y-15450235D01*
X69037237Y-15463425D01*
X69017087Y-15484307D01*
X68981183Y-15522409D01*
X68940883Y-15562709D01*
X68910841Y-15592018D01*
X68895087Y-15600811D01*
X68880066Y-15609970D01*
X68851490Y-15626823D01*
X68826577Y-15638180D01*
X68789941Y-15649538D01*
X68757701Y-15659063D01*
X68730224Y-15659063D01*
X68700182Y-15659063D01*
X68681497Y-15655033D01*
X68663545Y-15650637D01*
X68652921Y-15644775D01*
X68646326Y-15641111D01*
X68637533Y-15636348D01*
X68623245Y-15623892D01*
X68606759Y-15605574D01*
X68589906Y-15588721D01*
X68577450Y-15576631D01*
X68560597Y-15556115D01*
X68548507Y-15534133D01*
X68545576Y-15526439D01*
X68538615Y-15508121D01*
X68530921Y-15485406D01*
X68527624Y-15465623D01*
X68522129Y-15442542D01*
X68521762Y-15420560D01*
X68511504Y-15414332D01*
X68510405Y-15406638D01*
X68473036Y-15401143D01*
X68430904Y-15395647D01*
X68408922Y-15391617D01*
X68375949Y-15389419D01*
X68339679Y-15386854D01*
X68309637Y-15379161D01*
X68289854Y-15342891D01*
X68481699Y-15347114D01*
X68469739Y-15331167D01*
X68475600Y-15314681D01*
X68478165Y-15303690D01*
X68497949Y-15297095D01*
X68503810Y-15293798D01*
X68509672Y-15278777D01*
X68518831Y-15247636D01*
X68528723Y-15215762D01*
X68537150Y-15191949D01*
X68552633Y-15166669D01*
X68722530Y-15166669D01*
X68722530Y-15245071D01*
X68722530Y-15327870D01*
X68731689Y-15354981D01*
X68743779Y-15394548D01*
X68750007Y-15405539D01*
X68769424Y-15422392D01*
X68774554Y-15435581D01*
X68786644Y-15441443D01*
X68791040Y-15446572D01*
X68799100Y-15449136D01*
X68804962Y-15457563D01*
X68827676Y-15453899D01*
X68857352Y-15453899D01*
X68865412Y-15449869D01*
X68879700Y-15441076D01*
X68887394Y-15437046D01*
X68893988Y-15420194D01*
X68908277Y-15401875D01*
X68920733Y-15387221D01*
X68936120Y-15353149D01*
X68949676Y-15327137D01*
X68949676Y-15312116D01*
X68955171Y-15308086D01*
X68925862Y-15309185D01*
X68892157Y-15300392D01*
X68879700Y-15294531D01*
X68871640Y-15268885D01*
X68891057Y-15265588D01*
X68902415Y-15262291D01*
X68935021Y-15251300D01*
X68961766Y-15254963D01*
X68929892Y-15232249D01*
X68957369Y-15221624D01*
X68976054Y-15217960D01*
X68979718Y-15201474D01*
X68983748Y-15185354D01*
X68985946Y-15175096D01*
X68985946Y-15131132D01*
X68985946Y-15084238D01*
X68983381Y-15077643D01*
X68981916Y-15072880D01*
X68940150Y-15072880D01*
X68895454Y-15072880D01*
X68867976Y-15078009D01*
X68841598Y-15085337D01*
X68802397Y-15096694D01*
X68775653Y-15110982D01*
X68752572Y-15125270D01*
X68733521Y-15148351D01*
X68725461Y-15159342D01*
X68722530Y-15166669D01*
X68552633Y-15166669D01*
X68555101Y-15162639D01*
X68576717Y-15128934D01*
X68583311Y-15112081D01*
X68592837Y-15095595D01*
X68613720Y-15069583D01*
X68642662Y-15037343D01*
X68671972Y-15006202D01*
X68691389Y-14995577D01*
X68680032Y-14995944D01*
X68657683Y-14989349D01*
X68619581Y-14979091D01*
X68580381Y-14968100D01*
X68556567Y-14959307D01*
X68538615Y-14954911D01*
X68506741Y-14945385D01*
X68473769Y-14934761D01*
X68449955Y-14924503D01*
X68419913Y-14913512D01*
X68390237Y-14899956D01*
X68376316Y-14888233D01*
X68376316Y-14865884D01*
X68376316Y-14847200D01*
X68381078Y-14824485D01*
X68387673Y-14810563D01*
X68403427Y-14790413D01*
X68429072Y-14765134D01*
X68454718Y-14740954D01*
X68474135Y-14724468D01*
X68490621Y-14717873D01*
X68508573Y-14709447D01*
X68532387Y-14709447D01*
X68552170Y-14709447D01*
X68584044Y-14721903D01*
G37*
G36*
X68539714Y-14452992D02*
G01*
X68548140Y-14472776D01*
X68565726Y-14506115D01*
X68584044Y-14538355D01*
X68596867Y-14558138D01*
X68609323Y-14582685D01*
X68625443Y-14598438D01*
X68642296Y-14619321D01*
X68674170Y-14653027D01*
X68705311Y-14686366D01*
X68728392Y-14706516D01*
X68755503Y-14720804D01*
X68793605Y-14742420D01*
X68799466Y-14754510D01*
X68813388Y-14762936D01*
X68846361Y-14775759D01*
X68872373Y-14788582D01*
X68901316Y-14792978D01*
X68923664Y-14797374D01*
X69016720Y-14797374D01*
X69113074Y-14797374D01*
X69135789Y-14792978D01*
X69154107Y-14790047D01*
X69175722Y-14788948D01*
X69188912Y-14780522D01*
X69205764Y-14775026D01*
X69234707Y-14760371D01*
X69277572Y-14739855D01*
X69318238Y-14720071D01*
X69347914Y-14707615D01*
X69368430Y-14688564D01*
X69388580Y-14670979D01*
X69418622Y-14640937D01*
X69461853Y-14598072D01*
X69501054Y-14558505D01*
X69524501Y-14536523D01*
X69535126Y-14523334D01*
X69549414Y-14501718D01*
X69564069Y-14480103D01*
X69576525Y-14461052D01*
X69590813Y-14427713D01*
X69607666Y-14395106D01*
X69620489Y-14361401D01*
X69634044Y-14322200D01*
X69638074Y-14288494D01*
X69642471Y-14254789D01*
X69642471Y-14219251D01*
X69642471Y-14187744D01*
X69638441Y-14152573D01*
X69634411Y-14110441D01*
X69624152Y-14091024D01*
X69613894Y-14078568D01*
X69608032Y-14052189D01*
X69595576Y-14027643D01*
X69576891Y-14003097D01*
X69555276Y-13986610D01*
X69542819Y-13966094D01*
X69516808Y-13947043D01*
X69510579Y-13942280D01*
X69501054Y-13935319D01*
X69488964Y-13929824D01*
X69462952Y-13929824D01*
X69437673Y-13929824D01*
X69418256Y-13936418D01*
X69398472Y-13947776D01*
X69379787Y-13963529D01*
X69355241Y-13986610D01*
X69330328Y-14009691D01*
X69310911Y-14031673D01*
X69306515Y-14051823D01*
X69302484Y-14074171D01*
X69302484Y-14085162D01*
X69302484Y-14096886D01*
X69322635Y-14122531D01*
X69343884Y-14143414D01*
X69363301Y-14148910D01*
X69378322Y-14152207D01*
X69391511Y-14166129D01*
X69406898Y-14180783D01*
X69416424Y-14200567D01*
X69427781Y-14226579D01*
X69438039Y-14242699D01*
X69443168Y-14255522D01*
X69443168Y-14301683D01*
X69444634Y-14333557D01*
X69420820Y-14332092D01*
X69370995Y-14334290D01*
X69321169Y-14339785D01*
X69290028Y-14344914D01*
X69262184Y-14350410D01*
X69201368Y-14355905D01*
X69253025Y-14398770D01*
X69390046Y-14398770D01*
X69346082Y-14415256D01*
X69376124Y-14435040D01*
X69403601Y-14438337D01*
X69423751Y-14433575D01*
X69417523Y-14433575D01*
X69423751Y-14433575D01*
X69412027Y-14442367D01*
X69407631Y-14452259D01*
X69412027Y-14460319D01*
X69394442Y-14475340D01*
X69392976Y-14493658D01*
X69371361Y-14506115D01*
X69350845Y-14525532D01*
X69330695Y-14543850D01*
X69310178Y-14555207D01*
X69286731Y-14570228D01*
X69259986Y-14584150D01*
X69245698Y-14588547D01*
X69229944Y-14595141D01*
X69201734Y-14599538D01*
X69177554Y-14603934D01*
X69120401Y-14603934D01*
X69063249Y-14603934D01*
X69044564Y-14599904D01*
X69021483Y-14595508D01*
X69002799Y-14588180D01*
X68985213Y-14587814D01*
X68966895Y-14572427D01*
X68940517Y-14559604D01*
X68929159Y-14551910D01*
X68917436Y-14543117D01*
X68906811Y-14540553D01*
X68884096Y-14522967D01*
X68869808Y-14505748D01*
X68839034Y-14483034D01*
X68819983Y-14464716D01*
X68804229Y-14438704D01*
X68786277Y-14415989D01*
X68779683Y-14402800D01*
X68765761Y-14376422D01*
X68751473Y-14348578D01*
X68743046Y-14330993D01*
X68737551Y-14315605D01*
X68732422Y-14299485D01*
X68726560Y-14278602D01*
X68721431Y-14253323D01*
X68718500Y-14231341D01*
X68717767Y-14219618D01*
X68722163Y-14199468D01*
X68729124Y-14182249D01*
X68747809Y-14161366D01*
X68769058Y-14141949D01*
X68808625Y-14118501D01*
X68835004Y-14105679D01*
X68983381Y-14105679D01*
X68985946Y-14148177D01*
X68985946Y-14223541D01*
X68985946Y-14226212D01*
X68985946Y-14300896D01*
X68985946Y-14308278D01*
X68996570Y-14363965D01*
X68996570Y-14398037D01*
X68996570Y-14448595D01*
X68998769Y-14496223D01*
X69000967Y-14526631D01*
X69007928Y-14546781D01*
X69020384Y-14565099D01*
X69031375Y-14572427D01*
X69047861Y-14577922D01*
X69057020Y-14577922D01*
X69062882Y-14577922D01*
X69084864Y-14572793D01*
X69099152Y-14565832D01*
X69118570Y-14551544D01*
X69143849Y-14526631D01*
X69166563Y-14502451D01*
X69183416Y-14483034D01*
X69188545Y-14463250D01*
X69193674Y-14443466D01*
X69193674Y-14415989D01*
X69193674Y-14374590D01*
X69193674Y-14299720D01*
X69193674Y-14290326D01*
X69193674Y-14217030D01*
X69193674Y-14181882D01*
X69193674Y-14106711D01*
X69193674Y-14067210D01*
X69193674Y-13992797D01*
X69193674Y-13962064D01*
X69193674Y-13888013D01*
X69193674Y-13881830D01*
X69193674Y-13843362D01*
X69193674Y-13825044D01*
X69191110Y-13795002D01*
X69187080Y-13765326D01*
X69185614Y-13741512D01*
X69156305Y-13718798D01*
X69131026Y-13718798D01*
X69111975Y-13718798D01*
X69093657Y-13726492D01*
X69080101Y-13737116D01*
X69062150Y-13746642D01*
X69036870Y-13760197D01*
X69038336Y-13764593D01*
X69033207Y-13765692D01*
X69008294Y-13796467D01*
X68998769Y-13820647D01*
X68982648Y-13850323D01*
X68970192Y-13882196D01*
X68958835Y-13884761D01*
X68943814Y-13890256D01*
X68929892Y-13890256D01*
X68917802Y-13890256D01*
X68896919Y-13885494D01*
X68856619Y-13878166D01*
X68813022Y-13871205D01*
X68780415Y-13866809D01*
X68751473Y-13861680D01*
X68724728Y-13854719D01*
X68703479Y-13851788D01*
X68677833Y-13844827D01*
X68651822Y-13837500D01*
X68631672Y-13830539D01*
X68614819Y-13827974D01*
X68589173Y-13822113D01*
X68564260Y-13815884D01*
X68549606Y-13812587D01*
X68527258Y-13812587D01*
X68502711Y-13812587D01*
X68474501Y-13812587D01*
X68451420Y-13812587D01*
X68433102Y-13822479D01*
X68423943Y-13829074D01*
X68415517Y-13830905D01*
X68388406Y-13859848D01*
X68368988Y-13881830D01*
X68352868Y-13906376D01*
X68341145Y-13933487D01*
X68341145Y-13949607D01*
X68341145Y-13973055D01*
X68355066Y-13984778D01*
X68391337Y-13998700D01*
X68431637Y-14010424D01*
X68448856Y-14014820D01*
X68461678Y-14019583D01*
X68474868Y-14025445D01*
X68503444Y-14029475D01*
X68548873Y-14039733D01*
X68598332Y-14051457D01*
X68629840Y-14056586D01*
X68644494Y-14062081D01*
X68659515Y-14057318D01*
X68631305Y-14075270D01*
X68607858Y-14104946D01*
X68584411Y-14133889D01*
X68569390Y-14156970D01*
X68555468Y-14187011D01*
X68539348Y-14219251D01*
X68523594Y-14255155D01*
X68519930Y-14289227D01*
X68492087Y-14280801D01*
X68452153Y-14284831D01*
X68426508Y-14289960D01*
X68351403Y-14295089D01*
X68398664Y-14322933D01*
X68407823Y-14317071D01*
X68421378Y-14333191D01*
X68452519Y-14339419D01*
X68483660Y-14344914D01*
X68511138Y-14350044D01*
X68511504Y-14350776D01*
X68512237Y-14352974D01*
X68512237Y-14357004D01*
X68517366Y-14357004D01*
X68485859Y-14351875D01*
X68427973Y-14351875D01*
X68369721Y-14351875D01*
X68326490Y-14351875D01*
X68305607Y-14368362D01*
X68278130Y-14375323D01*
X68247355Y-14377887D01*
X68225740Y-14380085D01*
X68196797Y-14385947D01*
X68156863Y-14391443D01*
X68153933Y-14406097D01*
X68148437Y-14431010D01*
X68186539Y-14436505D01*
X68217314Y-14442001D01*
X68331619Y-14442001D01*
X68353601Y-14442734D01*
X68377415Y-14443466D01*
X68405258Y-14444565D01*
X68449955Y-14445298D01*
X68494651Y-14445665D01*
X68521762Y-14445665D01*
X68539714Y-14452992D01*
G37*
G36*
X68536783Y-13649189D02*
G01*
X68524693Y-13646258D01*
X68521396Y-13647357D01*
X68488057Y-13656516D01*
X68411639Y-13661274D01*
X68408189Y-13661279D01*
X68472303Y-13694618D01*
X68508939Y-13698648D01*
X68541912Y-13706708D01*
X68566825Y-13715501D01*
X68589540Y-13716966D01*
X68601630Y-13731987D01*
X68625077Y-13738582D01*
X68642296Y-13743344D01*
X68671239Y-13749206D01*
X68696884Y-13755068D01*
X68713371Y-13760563D01*
X68738284Y-13762395D01*
X68774554Y-13767158D01*
X68811923Y-13773020D01*
X68837935Y-13777783D01*
X68891424Y-13787308D01*
X68965079Y-13799345D01*
X68983381Y-13802329D01*
X69057083Y-13813232D01*
X69076438Y-13815884D01*
X69128828Y-13821746D01*
X69148612Y-13826509D01*
X69184515Y-13833470D01*
X69220053Y-13840431D01*
X69244233Y-13845926D01*
X69258521Y-13849956D01*
X69275374Y-13846293D01*
X69284533Y-13864244D01*
X69311277Y-13875602D01*
X69340586Y-13875602D01*
X69368064Y-13875602D01*
X69386748Y-13871572D01*
X69403967Y-13867542D01*
X69423751Y-13854719D01*
X69442069Y-13843362D01*
X69462586Y-13827242D01*
X69481637Y-13808923D01*
X69493360Y-13789140D01*
X69492994Y-13768257D01*
X69505817Y-13763128D01*
X69515342Y-13740780D01*
X69515342Y-13730522D01*
X69515342Y-13722095D01*
X69500321Y-13705609D01*
X69487498Y-13691687D01*
X69473210Y-13685092D01*
X69457090Y-13688756D01*
X69445000Y-13672636D01*
X69424850Y-13667141D01*
X69407265Y-13662378D01*
X69380886Y-13654684D01*
X69354508Y-13646990D01*
X69333992Y-13641129D01*
X69303950Y-13635633D01*
X69281602Y-13640030D01*
X69302118Y-13633435D01*
X69328863Y-13604859D01*
X69354875Y-13577015D01*
X69377589Y-13556498D01*
X69391511Y-13533051D01*
X69408730Y-13507772D01*
X69422286Y-13488355D01*
X69432910Y-13472601D01*
X69445367Y-13442926D01*
X69457090Y-13412151D01*
X69464418Y-13371851D01*
X69466616Y-13335947D01*
X69466616Y-13321659D01*
X69465517Y-13295647D01*
X69462219Y-13270368D01*
X69458189Y-13254614D01*
X69448297Y-13229335D01*
X69432910Y-13202224D01*
X69418622Y-13185005D01*
X69398838Y-13172182D01*
X69372094Y-13172182D01*
X69334725Y-13172182D01*
X69311277Y-13182074D01*
X69293325Y-13199293D01*
X69269145Y-13223473D01*
X69251560Y-13242891D01*
X69199903Y-13242891D01*
X69125240Y-13242891D01*
X69117104Y-13242891D01*
X69042058Y-13242891D01*
X69034672Y-13242891D01*
X68980817Y-13242891D01*
X68958835Y-13243990D01*
X68926961Y-13247653D01*
X68896553Y-13253882D01*
X68877502Y-13258644D01*
X68851124Y-13264506D01*
X68830607Y-13281725D01*
X69230311Y-13293449D01*
X69234341Y-13297113D01*
X69243133Y-13294548D01*
X69235806Y-13302608D01*
X69235806Y-13308470D01*
X69231043Y-13312134D01*
X69224449Y-13317995D01*
X69217854Y-13319827D01*
X69201734Y-13322392D01*
X69183050Y-13325689D01*
X69168762Y-13327887D01*
X69155206Y-13334482D01*
X69137621Y-13336680D01*
X69121501Y-13367821D01*
X69147146Y-13382842D01*
X69173524Y-13388337D01*
X69209794Y-13390535D01*
X69242401Y-13392367D01*
X69264749Y-13396764D01*
X69266947Y-13396031D01*
X69267314Y-13404091D01*
X69267314Y-13446223D01*
X69267314Y-13479562D01*
X69260719Y-13492018D01*
X69253758Y-13498613D01*
X69220053Y-13510337D01*
X69190377Y-13518763D01*
X69057020Y-13518763D01*
X68923664Y-13518763D01*
X68902048Y-13518763D01*
X68862481Y-13516198D01*
X68822181Y-13510703D01*
X68799100Y-13508138D01*
X68741947Y-13508138D01*
X68691389Y-13508138D01*
X68677101Y-13515099D01*
X68665377Y-13519862D01*
X68659515Y-13521694D01*
X68645960Y-13529021D01*
X68633137Y-13532318D01*
X68612621Y-13548438D01*
X68595768Y-13560529D01*
X68572687Y-13576282D01*
X68551071Y-13592769D01*
X68503444Y-13594234D01*
X68428335Y-13594234D01*
X68425775Y-13594234D01*
X68351693Y-13594234D01*
X68347006Y-13594234D01*
X68294616Y-13597165D01*
X68274100Y-13600096D01*
X68245157Y-13604126D01*
X68218046Y-13608156D01*
X68202659Y-13610720D01*
X68185806Y-13618048D01*
X68164191Y-13650288D01*
X68213284Y-13655783D01*
X68246989Y-13660912D01*
X68536783Y-13649189D01*
G37*
G36*
X68584044Y-12358121D02*
G01*
X68623978Y-12370577D01*
X68634236Y-12375340D01*
X68652188Y-12382301D01*
X68674170Y-12391094D01*
X68677101Y-12403550D01*
X68716302Y-12405016D01*
X68744878Y-12417472D01*
X68759533Y-12418205D01*
X68788109Y-12425898D01*
X68817785Y-12434325D01*
X68839766Y-12440187D01*
X68861748Y-12443484D01*
X68894355Y-12450078D01*
X68923664Y-12455940D01*
X68941616Y-12458871D01*
X68975321Y-12467664D01*
X69015621Y-12474991D01*
X69050792Y-12480120D01*
X69067279Y-12481952D01*
X69088161Y-12476823D01*
X69111609Y-12471694D01*
X69114906Y-12470595D01*
X69125897Y-12469496D01*
X69138720Y-12472793D01*
X69145314Y-12479021D01*
X69151909Y-12485616D01*
X69168395Y-12505033D01*
X69180485Y-12527748D01*
X69180485Y-12552294D01*
X69180485Y-12590396D01*
X69180485Y-12628498D01*
X69180485Y-12652678D01*
X69180485Y-12682353D01*
X69180485Y-12720455D01*
X69180485Y-12754527D01*
X69180485Y-12769182D01*
X69177188Y-12785302D01*
X69170593Y-12811680D01*
X69162167Y-12841355D01*
X69155206Y-12864070D01*
X69151542Y-12880923D01*
X69143482Y-12899974D01*
X69133224Y-12929649D01*
X69122600Y-12955661D01*
X69114906Y-12973247D01*
X69104281Y-12994496D01*
X69093290Y-13016844D01*
X69083765Y-13031498D01*
X69074606Y-13045054D01*
X69060684Y-13065937D01*
X69046762Y-13086453D01*
X69037237Y-13099642D01*
X69017087Y-13120525D01*
X68981183Y-13158627D01*
X68940883Y-13198927D01*
X68910841Y-13228236D01*
X68895087Y-13237029D01*
X68880066Y-13246188D01*
X68851490Y-13263041D01*
X68826577Y-13274398D01*
X68789941Y-13285755D01*
X68757701Y-13295281D01*
X68730224Y-13295281D01*
X68700182Y-13295281D01*
X68681497Y-13291251D01*
X68663545Y-13286854D01*
X68652921Y-13280993D01*
X68646326Y-13277329D01*
X68637533Y-13272566D01*
X68623245Y-13260110D01*
X68606759Y-13241792D01*
X68589906Y-13224939D01*
X68577450Y-13212849D01*
X68560597Y-13192332D01*
X68548507Y-13170351D01*
X68545576Y-13162657D01*
X68538615Y-13144339D01*
X68530921Y-13121624D01*
X68527624Y-13101840D01*
X68522129Y-13078759D01*
X68521762Y-13056778D01*
X68511504Y-13050549D01*
X68510405Y-13042856D01*
X68473036Y-13037360D01*
X68430904Y-13031865D01*
X68408922Y-13027835D01*
X68375949Y-13025637D01*
X68339679Y-13023072D01*
X68309637Y-13015378D01*
X68289854Y-12979108D01*
X68481699Y-12983332D01*
X68469739Y-12967385D01*
X68475600Y-12950898D01*
X68478165Y-12939907D01*
X68497949Y-12933313D01*
X68503810Y-12930016D01*
X68509672Y-12914995D01*
X68518831Y-12883854D01*
X68528723Y-12851980D01*
X68537150Y-12828166D01*
X68552633Y-12802887D01*
X68722530Y-12802887D01*
X68722530Y-12881289D01*
X68722530Y-12964087D01*
X68731689Y-12991198D01*
X68743779Y-13030766D01*
X68750007Y-13041757D01*
X68769424Y-13058609D01*
X68774554Y-13071799D01*
X68786644Y-13077660D01*
X68791040Y-13082789D01*
X68799100Y-13085354D01*
X68804962Y-13093780D01*
X68827676Y-13090117D01*
X68857352Y-13090117D01*
X68865412Y-13086087D01*
X68879700Y-13077294D01*
X68887394Y-13073264D01*
X68893988Y-13056411D01*
X68908277Y-13038093D01*
X68920733Y-13023438D01*
X68936120Y-12989367D01*
X68949676Y-12963355D01*
X68949676Y-12948334D01*
X68955171Y-12944304D01*
X68925862Y-12945403D01*
X68892157Y-12936610D01*
X68879700Y-12930748D01*
X68871640Y-12905103D01*
X68891057Y-12901806D01*
X68902415Y-12898508D01*
X68935021Y-12887517D01*
X68961766Y-12891181D01*
X68929892Y-12868466D01*
X68957369Y-12857842D01*
X68976054Y-12854178D01*
X68979718Y-12837692D01*
X68983748Y-12821572D01*
X68985946Y-12811314D01*
X68985946Y-12767350D01*
X68985946Y-12720455D01*
X68983381Y-12713861D01*
X68981916Y-12709098D01*
X68940150Y-12709098D01*
X68895454Y-12709098D01*
X68867976Y-12714227D01*
X68841598Y-12721554D01*
X68802397Y-12732912D01*
X68775653Y-12747200D01*
X68752572Y-12761488D01*
X68733521Y-12784569D01*
X68725461Y-12795560D01*
X68722530Y-12802887D01*
X68552633Y-12802887D01*
X68555101Y-12798857D01*
X68576717Y-12765152D01*
X68583311Y-12748299D01*
X68592837Y-12731813D01*
X68613720Y-12705801D01*
X68642662Y-12673561D01*
X68671972Y-12642420D01*
X68691389Y-12631795D01*
X68680032Y-12632161D01*
X68657683Y-12625567D01*
X68619581Y-12615309D01*
X68580381Y-12604318D01*
X68556567Y-12595525D01*
X68538615Y-12591129D01*
X68506741Y-12581603D01*
X68473769Y-12570979D01*
X68449955Y-12560720D01*
X68419913Y-12549729D01*
X68390237Y-12536174D01*
X68376316Y-12524450D01*
X68376316Y-12502102D01*
X68376316Y-12483418D01*
X68381078Y-12460703D01*
X68387673Y-12446781D01*
X68403427Y-12426631D01*
X68429072Y-12401352D01*
X68454718Y-12377172D01*
X68474135Y-12360686D01*
X68490621Y-12354091D01*
X68508573Y-12345665D01*
X68532387Y-12345665D01*
X68552170Y-12345665D01*
X68584044Y-12358121D01*
G37*
G36*
X68470105Y-11895769D02*
G01*
X68477799Y-11909325D01*
X68465342Y-11902730D01*
X68438231Y-11905661D01*
X68410387Y-11908958D01*
X68388039Y-11909691D01*
X68373751Y-11914820D01*
X68354334Y-11918850D01*
X68322094Y-11924712D01*
X68322094Y-11954754D01*
X68349571Y-11960982D01*
X68363859Y-11966478D01*
X68377048Y-11973438D01*
X68401961Y-11975637D01*
X68435667Y-11977835D01*
X68470838Y-11980033D01*
X68490988Y-11981865D01*
X68496117Y-11985895D01*
X68509306Y-12013372D01*
X68519198Y-12036819D01*
X68534951Y-12077486D01*
X68553270Y-12112657D01*
X68561696Y-12124014D01*
X68574885Y-12143432D01*
X68588807Y-12165047D01*
X68599798Y-12180434D01*
X68618482Y-12206446D01*
X68638266Y-12229161D01*
X68652554Y-12243449D01*
X68675635Y-12267629D01*
X68698716Y-12291443D01*
X68714103Y-12309395D01*
X68743413Y-12329911D01*
X68771989Y-12351893D01*
X68792872Y-12369112D01*
X68813388Y-12381202D01*
X68834637Y-12391460D01*
X68869442Y-12408313D01*
X68903880Y-12426631D01*
X68924763Y-12436523D01*
X68939784Y-12442385D01*
X68958102Y-12450811D01*
X68975321Y-12451910D01*
X68994739Y-12454475D01*
X69020018Y-12457039D01*
X69066546Y-12457039D01*
X69115272Y-12457039D01*
X69138720Y-12453009D01*
X69162533Y-12448613D01*
X69196972Y-12429196D01*
X69231043Y-12410877D01*
X69248263Y-12401352D01*
X69265482Y-12391826D01*
X69302851Y-12354824D01*
X69337289Y-12317088D01*
X69347914Y-12298404D01*
X69357806Y-12281917D01*
X69368064Y-12266896D01*
X69380520Y-12244914D01*
X69390778Y-12224398D01*
X69395541Y-12211209D01*
X69402502Y-12186296D01*
X69407997Y-12161750D01*
X69407997Y-12104963D01*
X69407997Y-12048177D01*
X69402502Y-12025462D01*
X69394808Y-11998351D01*
X69389679Y-11984796D01*
X69383451Y-11965012D01*
X69378322Y-11946694D01*
X69376490Y-11934238D01*
X69362568Y-11908958D01*
X69349013Y-11885145D01*
X69325199Y-11852172D01*
X69300286Y-11817734D01*
X69277938Y-11790989D01*
X69244233Y-11750689D01*
X69235806Y-11742263D01*
X69207230Y-11718815D01*
X69179386Y-11704161D01*
X69173524Y-11701963D01*
X69162533Y-11695002D01*
X69144215Y-11683278D01*
X69121501Y-11683278D01*
X69102083Y-11683278D01*
X69075339Y-11692803D01*
X69051159Y-11704527D01*
X69036138Y-11715518D01*
X69017087Y-11733104D01*
X68999501Y-11750689D01*
X68990342Y-11760214D01*
X68976054Y-11781464D01*
X68962498Y-11806010D01*
X68962498Y-11821764D01*
X68962498Y-11832388D01*
X68967261Y-11856568D01*
X68974588Y-11872322D01*
X68988510Y-11891007D01*
X69004630Y-11899067D01*
X69031741Y-11904928D01*
X69054456Y-11896136D01*
X69059951Y-11910790D01*
X69081933Y-11931307D01*
X69102083Y-11951090D01*
X69114540Y-11967943D01*
X69137254Y-11996886D01*
X69163999Y-12034255D01*
X69176822Y-12056603D01*
X69187812Y-12076753D01*
X69187812Y-12077852D01*
X69193308Y-12077852D01*
X69158503Y-12076753D01*
X69116005Y-12080783D01*
X69111609Y-12090309D01*
X69105381Y-12102765D01*
X69108678Y-12093240D01*
X69099152Y-12107894D01*
X69112708Y-12127311D01*
X69112708Y-12117786D01*
X69116738Y-12132441D01*
X69136521Y-12141966D01*
X69153741Y-12144164D01*
X69178287Y-12147095D01*
X69202467Y-12150392D01*
X69214923Y-12146729D01*
X69214923Y-12175672D01*
X69220419Y-12210110D01*
X69220419Y-12216338D01*
X69220419Y-12218536D01*
X69214923Y-12237953D01*
X69210161Y-12255539D01*
X69169128Y-12255173D01*
X69115272Y-12255173D01*
X69093657Y-12250044D01*
X69070576Y-12243083D01*
X68961033Y-12188494D01*
X68945646Y-12176404D01*
X68928427Y-12163582D01*
X68898385Y-12135738D01*
X68856619Y-12093972D01*
X68815220Y-12052940D01*
X68786644Y-12033889D01*
X68785545Y-12019967D01*
X68769424Y-11999450D01*
X68754404Y-11979300D01*
X68745611Y-11965745D01*
X68728758Y-11933138D01*
X68714836Y-11902730D01*
X68709707Y-11882214D01*
X68704578Y-11866460D01*
X68702746Y-11857301D01*
X68702746Y-11859133D01*
X68710073Y-11862430D01*
X68723263Y-11870856D01*
X68747809Y-11870856D01*
X68770157Y-11870856D01*
X68789208Y-11865727D01*
X68807526Y-11860598D01*
X68822547Y-11844478D01*
X68841965Y-11824328D01*
X68862847Y-11803812D01*
X68878235Y-11785127D01*
X68883364Y-11774136D01*
X68892157Y-11762046D01*
X68892157Y-11738599D01*
X68892157Y-11714785D01*
X68885562Y-11701963D01*
X68876769Y-11693536D01*
X68856619Y-11684011D01*
X68829875Y-11670822D01*
X68802031Y-11657632D01*
X68784079Y-11649939D01*
X68767959Y-11642245D01*
X68747443Y-11636383D01*
X68704212Y-11636383D01*
X68667209Y-11636383D01*
X68648891Y-11641879D01*
X68632771Y-11648473D01*
X68623245Y-11651404D01*
X68616651Y-11655434D01*
X68601263Y-11661662D01*
X68581113Y-11677783D01*
X68551438Y-11696467D01*
X68548507Y-11704893D01*
X68549240Y-11713320D01*
X68523594Y-11730539D01*
X68512237Y-11754353D01*
X68503810Y-11762779D01*
X68494651Y-11775235D01*
X68485492Y-11803079D01*
X68475600Y-11823962D01*
X68436033Y-11823962D01*
X68363859Y-11823962D01*
X68290586Y-11827625D01*
X68243692Y-11833487D01*
X68220244Y-11837517D01*
X68188737Y-11848142D01*
X68171152Y-11868292D01*
X68204857Y-11895769D01*
X68470105Y-11895769D01*
G37*
G36*
X69338022Y-10773595D02*
G01*
X69360736Y-10788616D01*
X69385283Y-10811331D01*
X69404700Y-10835511D01*
X69420454Y-10849799D01*
X69434376Y-10872880D01*
X69443535Y-10893397D01*
X69457090Y-10921973D01*
X69469547Y-10949817D01*
X69478339Y-10967402D01*
X69490429Y-11002207D01*
X69500321Y-11037744D01*
X69505817Y-11062657D01*
X69516808Y-11091966D01*
X69520838Y-11136296D01*
X69525234Y-11165972D01*
X69525234Y-11228986D01*
X69525234Y-11289803D01*
X69520838Y-11311418D01*
X69516808Y-11340727D01*
X69505084Y-11358679D01*
X69499955Y-11373700D01*
X69484201Y-11408871D01*
X69466616Y-11446607D01*
X69442069Y-11479579D01*
X69424850Y-11508156D01*
X69403967Y-11524276D01*
X69391511Y-11544060D01*
X69370628Y-11565675D01*
X69349013Y-11578498D01*
X69326298Y-11595351D01*
X69310178Y-11608540D01*
X69291860Y-11620996D01*
X69273542Y-11629056D01*
X69252659Y-11638582D01*
X69233242Y-11643711D01*
X69232143Y-11652137D01*
X69188912Y-11667158D01*
X69148245Y-11679248D01*
X69117837Y-11683278D01*
X69089627Y-11687674D01*
X69031741Y-11687674D01*
X68973856Y-11687674D01*
X68939784Y-11683278D01*
X68905346Y-11679248D01*
X68865412Y-11667158D01*
X68828775Y-11653602D01*
X68818884Y-11647008D01*
X68798734Y-11638582D01*
X68776752Y-11628690D01*
X68761364Y-11619897D01*
X68743779Y-11608540D01*
X68726560Y-11596816D01*
X68700548Y-11578131D01*
X68674903Y-11565309D01*
X68654386Y-11535633D01*
X68625443Y-11512186D01*
X68615551Y-11489105D01*
X68596867Y-11467489D01*
X68584044Y-11450637D01*
X68571221Y-11436715D01*
X68556567Y-11407039D01*
X68548873Y-11385790D01*
X68544110Y-11372601D01*
X68536417Y-11351352D01*
X68528357Y-11330103D01*
X68525060Y-11315448D01*
X68519930Y-11296764D01*
X68512603Y-11268187D01*
X68505276Y-11240344D01*
X68506375Y-11226422D01*
X68368988Y-11230452D01*
X68348472Y-11195647D01*
X68371274Y-11183833D01*
X68363493Y-11183557D01*
X68301944Y-11180626D01*
X68261644Y-11177695D01*
X68229037Y-11172933D01*
X68164923Y-11141425D01*
X68212551Y-11139227D01*
X68223542Y-11136662D01*
X68253217Y-11125305D01*
X68281427Y-11122008D01*
X68326856Y-11116512D01*
X68397565Y-11113215D01*
X68466808Y-11112116D01*
X68507474Y-11118344D01*
X68505642Y-11107353D01*
X68510771Y-11095630D01*
X68526159Y-11069618D01*
X68536050Y-11041041D01*
X68548140Y-11016861D01*
X68559498Y-10994147D01*
X68573786Y-10972898D01*
X68590272Y-10961174D01*
X68601996Y-10943955D01*
X68626909Y-10919775D01*
X68651089Y-10895961D01*
X68670872Y-10886802D01*
X68680398Y-10869949D01*
X68702746Y-10857493D01*
X68717767Y-10847601D01*
X68740482Y-10835511D01*
X68762097Y-10825619D01*
X68775653Y-10820856D01*
X68801665Y-10816460D01*
X68831706Y-10808400D01*
X68875304Y-10808400D01*
X68916703Y-10808400D01*
X68950042Y-10815727D01*
X68974955Y-10823787D01*
X68991441Y-10831847D01*
X69009393Y-10850166D01*
X69009393Y-10865187D01*
X69009393Y-10875811D01*
X68994739Y-10903655D01*
X68980084Y-10926369D01*
X68920000Y-10980591D01*
X68909742Y-10984255D01*
X68896919Y-10988285D01*
X68898385Y-10988285D01*
X68887027Y-10993048D01*
X68873838Y-10997444D01*
X68857718Y-11001840D01*
X68723263Y-11001840D01*
X68717034Y-11008069D01*
X68711173Y-11029684D01*
X68704578Y-11053131D01*
X68704578Y-11087203D01*
X68704578Y-11115047D01*
X68711905Y-11148753D01*
X68719965Y-11187953D01*
X68725461Y-11204440D01*
X68730956Y-11220560D01*
X68745244Y-11250968D01*
X68761731Y-11282842D01*
X68771989Y-11302259D01*
X68783713Y-11311052D01*
X68804229Y-11334866D01*
X68832073Y-11362709D01*
X68860649Y-11390553D01*
X68874205Y-11408871D01*
X68892157Y-11415832D01*
X68915237Y-11430120D01*
X68948577Y-11446973D01*
X68980817Y-11462360D01*
X68997669Y-11467489D01*
X69009759Y-11479946D01*
X69002432Y-11467489D01*
X69002432Y-11448805D01*
X68996204Y-11422793D01*
X68990342Y-11371502D01*
X68988144Y-11319478D01*
X68985946Y-11288337D01*
X68985946Y-11231184D01*
X68985946Y-11174032D01*
X68988144Y-11153149D01*
X68990342Y-11117978D01*
X68992540Y-11082074D01*
X68994739Y-11059360D01*
X68999501Y-11037378D01*
X69007928Y-11014297D01*
X69010464Y-11003306D01*
X69191476Y-11003306D01*
X69191476Y-11111383D01*
X69191476Y-11264157D01*
X69196972Y-11307755D01*
X69207963Y-11355016D01*
X69214191Y-11370037D01*
X69220419Y-11389454D01*
X69220419Y-11413268D01*
X69220419Y-11445874D01*
X69221518Y-11477015D01*
X69215290Y-11492036D01*
X69216389Y-11489471D01*
X69229212Y-11478480D01*
X69245332Y-11474084D01*
X69267680Y-11461261D01*
X69291127Y-11456498D01*
X69298088Y-11444775D01*
X69294058Y-11445874D01*
X69296989Y-11443309D01*
X69308346Y-11420228D01*
X69321902Y-11398613D01*
X69321902Y-11315448D01*
X69321902Y-11230818D01*
X69316040Y-11208470D01*
X69305049Y-11176596D01*
X69302484Y-11163041D01*
X69295524Y-11143257D01*
X69287830Y-11120909D01*
X69284166Y-11107353D01*
X69276839Y-11088669D01*
X69263650Y-11061191D01*
X69250827Y-11037011D01*
X69243500Y-11026020D01*
X69214923Y-10994513D01*
X69198803Y-10970333D01*
X69191476Y-11003306D01*
X69010464Y-11003306D01*
X69012324Y-10995246D01*
X69016720Y-10976928D01*
X69025147Y-10957144D01*
X69036504Y-10935162D01*
X69049327Y-10913180D01*
X69063249Y-10910249D01*
X69070210Y-10885337D01*
X69088161Y-10857493D01*
X69109411Y-10839175D01*
X69128461Y-10822322D01*
X69153008Y-10804004D01*
X69174257Y-10790082D01*
X69188179Y-10780923D01*
X69202467Y-10777992D01*
X69209428Y-10772496D01*
X69222983Y-10766268D01*
X69239470Y-10761505D01*
X69279037Y-10761505D01*
X69310545Y-10761505D01*
X69338022Y-10773595D01*
G37*
%LPC*%
D11*
%TO.C,H4*%
X68579600Y-127925000D03*
%TD*%
%TO.C,H2*%
X7619620Y-127925000D03*
%TD*%
D12*
%TO.C,J4*%
X62230000Y-13335000D03*
D13*
X59690000Y-13335000D03*
X62230000Y-15875000D03*
X59690000Y-15875000D03*
X62230000Y-18415000D03*
X59690000Y-18415000D03*
X62230000Y-20955000D03*
X59690000Y-20955000D03*
X62230000Y-23495000D03*
X59690000Y-23495000D03*
%TD*%
D11*
%TO.C,H3*%
X68579600Y-5425000D03*
%TD*%
D12*
%TO.C,J1*%
X6350000Y-13335000D03*
D13*
X3810000Y-13335000D03*
X6350000Y-15875000D03*
X3810000Y-15875000D03*
X6350000Y-18415000D03*
X3810000Y-18415000D03*
X6350000Y-20955000D03*
X3810000Y-20955000D03*
X6350000Y-23495000D03*
X3810000Y-23495000D03*
%TD*%
D12*
%TO.C,J2*%
X24130000Y-13335000D03*
D13*
X21590000Y-13335000D03*
X24130000Y-15875000D03*
X21590000Y-15875000D03*
X24130000Y-18415000D03*
X21590000Y-18415000D03*
X24130000Y-20955000D03*
X21590000Y-20955000D03*
X24130000Y-23495000D03*
X21590000Y-23495000D03*
%TD*%
D11*
%TO.C,H1*%
X7619620Y-5425000D03*
%TD*%
D12*
%TO.C,J3*%
X44450000Y-13335000D03*
D13*
X41910000Y-13335000D03*
X44450000Y-15875000D03*
X41910000Y-15875000D03*
X44450000Y-18415000D03*
X41910000Y-18415000D03*
X44450000Y-20955000D03*
X41910000Y-20955000D03*
X44450000Y-23495000D03*
X41910000Y-23495000D03*
%TD*%
%LPD*%
M02*
