%TF.GenerationSoftware,KiCad,Pcbnew,8.0.6*%
%TF.CreationDate,2024-11-05T14:25:48+11:00*%
%TF.ProjectId,Blank_1U1HP,426c616e-6b5f-4315-9531-48502e6b6963,rev?*%
%TF.SameCoordinates,Original*%
%TF.FileFunction,Drillmap*%
%TF.FilePolarity,Positive*%
%FSLAX45Y45*%
G04 Gerber Fmt 4.5, Leading zero omitted, Abs format (unit mm)*
G04 Created by KiCad (PCBNEW 8.0.6) date 2024-11-05 14:25:48*
%MOMM*%
%LPD*%
G01*
G04 APERTURE LIST*
%ADD10C,0.150000*%
%ADD11C,0.200000*%
%ADD12C,0.320000*%
G04 APERTURE END LIST*
D10*
X0Y-242500D02*
X500000Y-242500D01*
X500000Y-4207500D01*
X0Y-4207500D01*
X0Y-242500D01*
D11*
D12*
X94000Y-382500D02*
X414000Y-702500D01*
X414000Y-382500D02*
X94000Y-702500D01*
X94000Y-3747500D02*
X414000Y-4067500D01*
X414000Y-3747500D02*
X94000Y-4067500D01*
D11*
X253277Y-4526484D02*
X253277Y-4326484D01*
X253277Y-4326484D02*
X300896Y-4326484D01*
X300896Y-4326484D02*
X329467Y-4336008D01*
X329467Y-4336008D02*
X348515Y-4355055D01*
X348515Y-4355055D02*
X358039Y-4374103D01*
X358039Y-4374103D02*
X367562Y-4412198D01*
X367562Y-4412198D02*
X367562Y-4440770D01*
X367562Y-4440770D02*
X358039Y-4478865D01*
X358039Y-4478865D02*
X348515Y-4497912D01*
X348515Y-4497912D02*
X329467Y-4516960D01*
X329467Y-4516960D02*
X300896Y-4526484D01*
X300896Y-4526484D02*
X253277Y-4526484D01*
X453277Y-4526484D02*
X453277Y-4393150D01*
X453277Y-4431246D02*
X462801Y-4412198D01*
X462801Y-4412198D02*
X472324Y-4402674D01*
X472324Y-4402674D02*
X491372Y-4393150D01*
X491372Y-4393150D02*
X510420Y-4393150D01*
X577086Y-4526484D02*
X577086Y-4393150D01*
X577086Y-4326484D02*
X567563Y-4336008D01*
X567563Y-4336008D02*
X577086Y-4345531D01*
X577086Y-4345531D02*
X586610Y-4336008D01*
X586610Y-4336008D02*
X577086Y-4326484D01*
X577086Y-4326484D02*
X577086Y-4345531D01*
X700896Y-4526484D02*
X681848Y-4516960D01*
X681848Y-4516960D02*
X672324Y-4497912D01*
X672324Y-4497912D02*
X672324Y-4326484D01*
X805658Y-4526484D02*
X786610Y-4516960D01*
X786610Y-4516960D02*
X777086Y-4497912D01*
X777086Y-4497912D02*
X777086Y-4326484D01*
X1034229Y-4526484D02*
X1034229Y-4326484D01*
X1034229Y-4326484D02*
X1100896Y-4469341D01*
X1100896Y-4469341D02*
X1167563Y-4326484D01*
X1167563Y-4326484D02*
X1167563Y-4526484D01*
X1348515Y-4526484D02*
X1348515Y-4421722D01*
X1348515Y-4421722D02*
X1338991Y-4402674D01*
X1338991Y-4402674D02*
X1319944Y-4393150D01*
X1319944Y-4393150D02*
X1281848Y-4393150D01*
X1281848Y-4393150D02*
X1262801Y-4402674D01*
X1348515Y-4516960D02*
X1329467Y-4526484D01*
X1329467Y-4526484D02*
X1281848Y-4526484D01*
X1281848Y-4526484D02*
X1262801Y-4516960D01*
X1262801Y-4516960D02*
X1253277Y-4497912D01*
X1253277Y-4497912D02*
X1253277Y-4478865D01*
X1253277Y-4478865D02*
X1262801Y-4459817D01*
X1262801Y-4459817D02*
X1281848Y-4450293D01*
X1281848Y-4450293D02*
X1329467Y-4450293D01*
X1329467Y-4450293D02*
X1348515Y-4440770D01*
X1443753Y-4393150D02*
X1443753Y-4593150D01*
X1443753Y-4402674D02*
X1462801Y-4393150D01*
X1462801Y-4393150D02*
X1500896Y-4393150D01*
X1500896Y-4393150D02*
X1519943Y-4402674D01*
X1519943Y-4402674D02*
X1529467Y-4412198D01*
X1529467Y-4412198D02*
X1538991Y-4431246D01*
X1538991Y-4431246D02*
X1538991Y-4488389D01*
X1538991Y-4488389D02*
X1529467Y-4507436D01*
X1529467Y-4507436D02*
X1519943Y-4516960D01*
X1519943Y-4516960D02*
X1500896Y-4526484D01*
X1500896Y-4526484D02*
X1462801Y-4526484D01*
X1462801Y-4526484D02*
X1443753Y-4516960D01*
X1624705Y-4507436D02*
X1634229Y-4516960D01*
X1634229Y-4516960D02*
X1624705Y-4526484D01*
X1624705Y-4526484D02*
X1615182Y-4516960D01*
X1615182Y-4516960D02*
X1624705Y-4507436D01*
X1624705Y-4507436D02*
X1624705Y-4526484D01*
X1624705Y-4402674D02*
X1634229Y-4412198D01*
X1634229Y-4412198D02*
X1624705Y-4421722D01*
X1624705Y-4421722D02*
X1615182Y-4412198D01*
X1615182Y-4412198D02*
X1624705Y-4402674D01*
X1624705Y-4402674D02*
X1624705Y-4421722D01*
X-207500Y-4755000D02*
X-7500Y-4955000D01*
X-7500Y-4755000D02*
X-207500Y-4955000D01*
X234229Y-4746484D02*
X358039Y-4746484D01*
X358039Y-4746484D02*
X291372Y-4822674D01*
X291372Y-4822674D02*
X319944Y-4822674D01*
X319944Y-4822674D02*
X338991Y-4832198D01*
X338991Y-4832198D02*
X348515Y-4841722D01*
X348515Y-4841722D02*
X358039Y-4860770D01*
X358039Y-4860770D02*
X358039Y-4908389D01*
X358039Y-4908389D02*
X348515Y-4927436D01*
X348515Y-4927436D02*
X338991Y-4936960D01*
X338991Y-4936960D02*
X319944Y-4946484D01*
X319944Y-4946484D02*
X262801Y-4946484D01*
X262801Y-4946484D02*
X243753Y-4936960D01*
X243753Y-4936960D02*
X234229Y-4927436D01*
X443753Y-4927436D02*
X453277Y-4936960D01*
X453277Y-4936960D02*
X443753Y-4946484D01*
X443753Y-4946484D02*
X434229Y-4936960D01*
X434229Y-4936960D02*
X443753Y-4927436D01*
X443753Y-4927436D02*
X443753Y-4946484D01*
X529467Y-4765531D02*
X538991Y-4756008D01*
X538991Y-4756008D02*
X558039Y-4746484D01*
X558039Y-4746484D02*
X605658Y-4746484D01*
X605658Y-4746484D02*
X624705Y-4756008D01*
X624705Y-4756008D02*
X634229Y-4765531D01*
X634229Y-4765531D02*
X643753Y-4784579D01*
X643753Y-4784579D02*
X643753Y-4803627D01*
X643753Y-4803627D02*
X634229Y-4832198D01*
X634229Y-4832198D02*
X519943Y-4946484D01*
X519943Y-4946484D02*
X643753Y-4946484D01*
X767562Y-4746484D02*
X786610Y-4746484D01*
X786610Y-4746484D02*
X805658Y-4756008D01*
X805658Y-4756008D02*
X815182Y-4765531D01*
X815182Y-4765531D02*
X824705Y-4784579D01*
X824705Y-4784579D02*
X834229Y-4822674D01*
X834229Y-4822674D02*
X834229Y-4870293D01*
X834229Y-4870293D02*
X824705Y-4908389D01*
X824705Y-4908389D02*
X815182Y-4927436D01*
X815182Y-4927436D02*
X805658Y-4936960D01*
X805658Y-4936960D02*
X786610Y-4946484D01*
X786610Y-4946484D02*
X767562Y-4946484D01*
X767562Y-4946484D02*
X748515Y-4936960D01*
X748515Y-4936960D02*
X738991Y-4927436D01*
X738991Y-4927436D02*
X729467Y-4908389D01*
X729467Y-4908389D02*
X719943Y-4870293D01*
X719943Y-4870293D02*
X719943Y-4822674D01*
X719943Y-4822674D02*
X729467Y-4784579D01*
X729467Y-4784579D02*
X738991Y-4765531D01*
X738991Y-4765531D02*
X748515Y-4756008D01*
X748515Y-4756008D02*
X767562Y-4746484D01*
X958039Y-4746484D02*
X977086Y-4746484D01*
X977086Y-4746484D02*
X996134Y-4756008D01*
X996134Y-4756008D02*
X1005658Y-4765531D01*
X1005658Y-4765531D02*
X1015182Y-4784579D01*
X1015182Y-4784579D02*
X1024705Y-4822674D01*
X1024705Y-4822674D02*
X1024705Y-4870293D01*
X1024705Y-4870293D02*
X1015182Y-4908389D01*
X1015182Y-4908389D02*
X1005658Y-4927436D01*
X1005658Y-4927436D02*
X996134Y-4936960D01*
X996134Y-4936960D02*
X977086Y-4946484D01*
X977086Y-4946484D02*
X958039Y-4946484D01*
X958039Y-4946484D02*
X938991Y-4936960D01*
X938991Y-4936960D02*
X929467Y-4927436D01*
X929467Y-4927436D02*
X919943Y-4908389D01*
X919943Y-4908389D02*
X910420Y-4870293D01*
X910420Y-4870293D02*
X910420Y-4822674D01*
X910420Y-4822674D02*
X919943Y-4784579D01*
X919943Y-4784579D02*
X929467Y-4765531D01*
X929467Y-4765531D02*
X938991Y-4756008D01*
X938991Y-4756008D02*
X958039Y-4746484D01*
X1110420Y-4946484D02*
X1110420Y-4813150D01*
X1110420Y-4832198D02*
X1119944Y-4822674D01*
X1119944Y-4822674D02*
X1138991Y-4813150D01*
X1138991Y-4813150D02*
X1167563Y-4813150D01*
X1167563Y-4813150D02*
X1186610Y-4822674D01*
X1186610Y-4822674D02*
X1196134Y-4841722D01*
X1196134Y-4841722D02*
X1196134Y-4946484D01*
X1196134Y-4841722D02*
X1205658Y-4822674D01*
X1205658Y-4822674D02*
X1224705Y-4813150D01*
X1224705Y-4813150D02*
X1253277Y-4813150D01*
X1253277Y-4813150D02*
X1272325Y-4822674D01*
X1272325Y-4822674D02*
X1281848Y-4841722D01*
X1281848Y-4841722D02*
X1281848Y-4946484D01*
X1377086Y-4946484D02*
X1377086Y-4813150D01*
X1377086Y-4832198D02*
X1386610Y-4822674D01*
X1386610Y-4822674D02*
X1405658Y-4813150D01*
X1405658Y-4813150D02*
X1434229Y-4813150D01*
X1434229Y-4813150D02*
X1453277Y-4822674D01*
X1453277Y-4822674D02*
X1462801Y-4841722D01*
X1462801Y-4841722D02*
X1462801Y-4946484D01*
X1462801Y-4841722D02*
X1472324Y-4822674D01*
X1472324Y-4822674D02*
X1491372Y-4813150D01*
X1491372Y-4813150D02*
X1519943Y-4813150D01*
X1519943Y-4813150D02*
X1538991Y-4822674D01*
X1538991Y-4822674D02*
X1548515Y-4841722D01*
X1548515Y-4841722D02*
X1548515Y-4946484D01*
X1938991Y-4736960D02*
X1767563Y-4994103D01*
X2196134Y-4746484D02*
X2215182Y-4746484D01*
X2215182Y-4746484D02*
X2234229Y-4756008D01*
X2234229Y-4756008D02*
X2243753Y-4765531D01*
X2243753Y-4765531D02*
X2253277Y-4784579D01*
X2253277Y-4784579D02*
X2262801Y-4822674D01*
X2262801Y-4822674D02*
X2262801Y-4870293D01*
X2262801Y-4870293D02*
X2253277Y-4908389D01*
X2253277Y-4908389D02*
X2243753Y-4927436D01*
X2243753Y-4927436D02*
X2234229Y-4936960D01*
X2234229Y-4936960D02*
X2215182Y-4946484D01*
X2215182Y-4946484D02*
X2196134Y-4946484D01*
X2196134Y-4946484D02*
X2177087Y-4936960D01*
X2177087Y-4936960D02*
X2167563Y-4927436D01*
X2167563Y-4927436D02*
X2158039Y-4908389D01*
X2158039Y-4908389D02*
X2148515Y-4870293D01*
X2148515Y-4870293D02*
X2148515Y-4822674D01*
X2148515Y-4822674D02*
X2158039Y-4784579D01*
X2158039Y-4784579D02*
X2167563Y-4765531D01*
X2167563Y-4765531D02*
X2177087Y-4756008D01*
X2177087Y-4756008D02*
X2196134Y-4746484D01*
X2348515Y-4927436D02*
X2358039Y-4936960D01*
X2358039Y-4936960D02*
X2348515Y-4946484D01*
X2348515Y-4946484D02*
X2338991Y-4936960D01*
X2338991Y-4936960D02*
X2348515Y-4927436D01*
X2348515Y-4927436D02*
X2348515Y-4946484D01*
X2548515Y-4946484D02*
X2434229Y-4946484D01*
X2491372Y-4946484D02*
X2491372Y-4746484D01*
X2491372Y-4746484D02*
X2472325Y-4775055D01*
X2472325Y-4775055D02*
X2453277Y-4794103D01*
X2453277Y-4794103D02*
X2434229Y-4803627D01*
X2624706Y-4765531D02*
X2634229Y-4756008D01*
X2634229Y-4756008D02*
X2653277Y-4746484D01*
X2653277Y-4746484D02*
X2700896Y-4746484D01*
X2700896Y-4746484D02*
X2719944Y-4756008D01*
X2719944Y-4756008D02*
X2729468Y-4765531D01*
X2729468Y-4765531D02*
X2738991Y-4784579D01*
X2738991Y-4784579D02*
X2738991Y-4803627D01*
X2738991Y-4803627D02*
X2729468Y-4832198D01*
X2729468Y-4832198D02*
X2615182Y-4946484D01*
X2615182Y-4946484D02*
X2738991Y-4946484D01*
X2910420Y-4746484D02*
X2872325Y-4746484D01*
X2872325Y-4746484D02*
X2853277Y-4756008D01*
X2853277Y-4756008D02*
X2843753Y-4765531D01*
X2843753Y-4765531D02*
X2824706Y-4794103D01*
X2824706Y-4794103D02*
X2815182Y-4832198D01*
X2815182Y-4832198D02*
X2815182Y-4908389D01*
X2815182Y-4908389D02*
X2824706Y-4927436D01*
X2824706Y-4927436D02*
X2834229Y-4936960D01*
X2834229Y-4936960D02*
X2853277Y-4946484D01*
X2853277Y-4946484D02*
X2891372Y-4946484D01*
X2891372Y-4946484D02*
X2910420Y-4936960D01*
X2910420Y-4936960D02*
X2919944Y-4927436D01*
X2919944Y-4927436D02*
X2929467Y-4908389D01*
X2929467Y-4908389D02*
X2929467Y-4860770D01*
X2929467Y-4860770D02*
X2919944Y-4841722D01*
X2919944Y-4841722D02*
X2910420Y-4832198D01*
X2910420Y-4832198D02*
X2891372Y-4822674D01*
X2891372Y-4822674D02*
X2853277Y-4822674D01*
X2853277Y-4822674D02*
X2834229Y-4832198D01*
X2834229Y-4832198D02*
X2824706Y-4841722D01*
X2824706Y-4841722D02*
X2815182Y-4860770D01*
X3053277Y-4746484D02*
X3072325Y-4746484D01*
X3072325Y-4746484D02*
X3091372Y-4756008D01*
X3091372Y-4756008D02*
X3100896Y-4765531D01*
X3100896Y-4765531D02*
X3110420Y-4784579D01*
X3110420Y-4784579D02*
X3119944Y-4822674D01*
X3119944Y-4822674D02*
X3119944Y-4870293D01*
X3119944Y-4870293D02*
X3110420Y-4908389D01*
X3110420Y-4908389D02*
X3100896Y-4927436D01*
X3100896Y-4927436D02*
X3091372Y-4936960D01*
X3091372Y-4936960D02*
X3072325Y-4946484D01*
X3072325Y-4946484D02*
X3053277Y-4946484D01*
X3053277Y-4946484D02*
X3034229Y-4936960D01*
X3034229Y-4936960D02*
X3024706Y-4927436D01*
X3024706Y-4927436D02*
X3015182Y-4908389D01*
X3015182Y-4908389D02*
X3005658Y-4870293D01*
X3005658Y-4870293D02*
X3005658Y-4822674D01*
X3005658Y-4822674D02*
X3015182Y-4784579D01*
X3015182Y-4784579D02*
X3024706Y-4765531D01*
X3024706Y-4765531D02*
X3034229Y-4756008D01*
X3034229Y-4756008D02*
X3053277Y-4746484D01*
X3196134Y-4746484D02*
X3196134Y-4784579D01*
X3272325Y-4746484D02*
X3272325Y-4784579D01*
X3567563Y-5022674D02*
X3558039Y-5013150D01*
X3558039Y-5013150D02*
X3538991Y-4984579D01*
X3538991Y-4984579D02*
X3529468Y-4965531D01*
X3529468Y-4965531D02*
X3519944Y-4936960D01*
X3519944Y-4936960D02*
X3510420Y-4889341D01*
X3510420Y-4889341D02*
X3510420Y-4851246D01*
X3510420Y-4851246D02*
X3519944Y-4803627D01*
X3519944Y-4803627D02*
X3529468Y-4775055D01*
X3529468Y-4775055D02*
X3538991Y-4756008D01*
X3538991Y-4756008D02*
X3558039Y-4727436D01*
X3558039Y-4727436D02*
X3567563Y-4717912D01*
X3634229Y-4765531D02*
X3643753Y-4756008D01*
X3643753Y-4756008D02*
X3662801Y-4746484D01*
X3662801Y-4746484D02*
X3710420Y-4746484D01*
X3710420Y-4746484D02*
X3729468Y-4756008D01*
X3729468Y-4756008D02*
X3738991Y-4765531D01*
X3738991Y-4765531D02*
X3748515Y-4784579D01*
X3748515Y-4784579D02*
X3748515Y-4803627D01*
X3748515Y-4803627D02*
X3738991Y-4832198D01*
X3738991Y-4832198D02*
X3624706Y-4946484D01*
X3624706Y-4946484D02*
X3748515Y-4946484D01*
X3986610Y-4946484D02*
X3986610Y-4746484D01*
X4072325Y-4946484D02*
X4072325Y-4841722D01*
X4072325Y-4841722D02*
X4062801Y-4822674D01*
X4062801Y-4822674D02*
X4043753Y-4813150D01*
X4043753Y-4813150D02*
X4015182Y-4813150D01*
X4015182Y-4813150D02*
X3996134Y-4822674D01*
X3996134Y-4822674D02*
X3986610Y-4832198D01*
X4196134Y-4946484D02*
X4177087Y-4936960D01*
X4177087Y-4936960D02*
X4167563Y-4927436D01*
X4167563Y-4927436D02*
X4158039Y-4908389D01*
X4158039Y-4908389D02*
X4158039Y-4851246D01*
X4158039Y-4851246D02*
X4167563Y-4832198D01*
X4167563Y-4832198D02*
X4177087Y-4822674D01*
X4177087Y-4822674D02*
X4196134Y-4813150D01*
X4196134Y-4813150D02*
X4224706Y-4813150D01*
X4224706Y-4813150D02*
X4243753Y-4822674D01*
X4243753Y-4822674D02*
X4253277Y-4832198D01*
X4253277Y-4832198D02*
X4262801Y-4851246D01*
X4262801Y-4851246D02*
X4262801Y-4908389D01*
X4262801Y-4908389D02*
X4253277Y-4927436D01*
X4253277Y-4927436D02*
X4243753Y-4936960D01*
X4243753Y-4936960D02*
X4224706Y-4946484D01*
X4224706Y-4946484D02*
X4196134Y-4946484D01*
X4377087Y-4946484D02*
X4358039Y-4936960D01*
X4358039Y-4936960D02*
X4348515Y-4917912D01*
X4348515Y-4917912D02*
X4348515Y-4746484D01*
X4529468Y-4936960D02*
X4510420Y-4946484D01*
X4510420Y-4946484D02*
X4472325Y-4946484D01*
X4472325Y-4946484D02*
X4453277Y-4936960D01*
X4453277Y-4936960D02*
X4443753Y-4917912D01*
X4443753Y-4917912D02*
X4443753Y-4841722D01*
X4443753Y-4841722D02*
X4453277Y-4822674D01*
X4453277Y-4822674D02*
X4472325Y-4813150D01*
X4472325Y-4813150D02*
X4510420Y-4813150D01*
X4510420Y-4813150D02*
X4529468Y-4822674D01*
X4529468Y-4822674D02*
X4538992Y-4841722D01*
X4538992Y-4841722D02*
X4538992Y-4860770D01*
X4538992Y-4860770D02*
X4443753Y-4879817D01*
X4615182Y-4936960D02*
X4634230Y-4946484D01*
X4634230Y-4946484D02*
X4672325Y-4946484D01*
X4672325Y-4946484D02*
X4691373Y-4936960D01*
X4691373Y-4936960D02*
X4700896Y-4917912D01*
X4700896Y-4917912D02*
X4700896Y-4908389D01*
X4700896Y-4908389D02*
X4691373Y-4889341D01*
X4691373Y-4889341D02*
X4672325Y-4879817D01*
X4672325Y-4879817D02*
X4643753Y-4879817D01*
X4643753Y-4879817D02*
X4624706Y-4870293D01*
X4624706Y-4870293D02*
X4615182Y-4851246D01*
X4615182Y-4851246D02*
X4615182Y-4841722D01*
X4615182Y-4841722D02*
X4624706Y-4822674D01*
X4624706Y-4822674D02*
X4643753Y-4813150D01*
X4643753Y-4813150D02*
X4672325Y-4813150D01*
X4672325Y-4813150D02*
X4691373Y-4822674D01*
X4767563Y-5022674D02*
X4777087Y-5013150D01*
X4777087Y-5013150D02*
X4796134Y-4984579D01*
X4796134Y-4984579D02*
X4805658Y-4965531D01*
X4805658Y-4965531D02*
X4815182Y-4936960D01*
X4815182Y-4936960D02*
X4824706Y-4889341D01*
X4824706Y-4889341D02*
X4824706Y-4851246D01*
X4824706Y-4851246D02*
X4815182Y-4803627D01*
X4815182Y-4803627D02*
X4805658Y-4775055D01*
X4805658Y-4775055D02*
X4796134Y-4756008D01*
X4796134Y-4756008D02*
X4777087Y-4727436D01*
X4777087Y-4727436D02*
X4767563Y-4717912D01*
X5129468Y-5022674D02*
X5119944Y-5013150D01*
X5119944Y-5013150D02*
X5100896Y-4984579D01*
X5100896Y-4984579D02*
X5091373Y-4965531D01*
X5091373Y-4965531D02*
X5081849Y-4936960D01*
X5081849Y-4936960D02*
X5072325Y-4889341D01*
X5072325Y-4889341D02*
X5072325Y-4851246D01*
X5072325Y-4851246D02*
X5081849Y-4803627D01*
X5081849Y-4803627D02*
X5091373Y-4775055D01*
X5091373Y-4775055D02*
X5100896Y-4756008D01*
X5100896Y-4756008D02*
X5119944Y-4727436D01*
X5119944Y-4727436D02*
X5129468Y-4717912D01*
X5205658Y-4813150D02*
X5205658Y-4946484D01*
X5205658Y-4832198D02*
X5215182Y-4822674D01*
X5215182Y-4822674D02*
X5234230Y-4813150D01*
X5234230Y-4813150D02*
X5262801Y-4813150D01*
X5262801Y-4813150D02*
X5281849Y-4822674D01*
X5281849Y-4822674D02*
X5291373Y-4841722D01*
X5291373Y-4841722D02*
X5291373Y-4946484D01*
X5415182Y-4946484D02*
X5396134Y-4936960D01*
X5396134Y-4936960D02*
X5386611Y-4927436D01*
X5386611Y-4927436D02*
X5377087Y-4908389D01*
X5377087Y-4908389D02*
X5377087Y-4851246D01*
X5377087Y-4851246D02*
X5386611Y-4832198D01*
X5386611Y-4832198D02*
X5396134Y-4822674D01*
X5396134Y-4822674D02*
X5415182Y-4813150D01*
X5415182Y-4813150D02*
X5443754Y-4813150D01*
X5443754Y-4813150D02*
X5462801Y-4822674D01*
X5462801Y-4822674D02*
X5472325Y-4832198D01*
X5472325Y-4832198D02*
X5481849Y-4851246D01*
X5481849Y-4851246D02*
X5481849Y-4908389D01*
X5481849Y-4908389D02*
X5472325Y-4927436D01*
X5472325Y-4927436D02*
X5462801Y-4936960D01*
X5462801Y-4936960D02*
X5443754Y-4946484D01*
X5443754Y-4946484D02*
X5415182Y-4946484D01*
X5538992Y-4813150D02*
X5615182Y-4813150D01*
X5567563Y-4746484D02*
X5567563Y-4917912D01*
X5567563Y-4917912D02*
X5577087Y-4936960D01*
X5577087Y-4936960D02*
X5596134Y-4946484D01*
X5596134Y-4946484D02*
X5615182Y-4946484D01*
X5834230Y-4813150D02*
X5834230Y-5013150D01*
X5834230Y-4822674D02*
X5853277Y-4813150D01*
X5853277Y-4813150D02*
X5891373Y-4813150D01*
X5891373Y-4813150D02*
X5910420Y-4822674D01*
X5910420Y-4822674D02*
X5919944Y-4832198D01*
X5919944Y-4832198D02*
X5929468Y-4851246D01*
X5929468Y-4851246D02*
X5929468Y-4908389D01*
X5929468Y-4908389D02*
X5919944Y-4927436D01*
X5919944Y-4927436D02*
X5910420Y-4936960D01*
X5910420Y-4936960D02*
X5891373Y-4946484D01*
X5891373Y-4946484D02*
X5853277Y-4946484D01*
X5853277Y-4946484D02*
X5834230Y-4936960D01*
X6043753Y-4946484D02*
X6024706Y-4936960D01*
X6024706Y-4936960D02*
X6015182Y-4917912D01*
X6015182Y-4917912D02*
X6015182Y-4746484D01*
X6205658Y-4946484D02*
X6205658Y-4841722D01*
X6205658Y-4841722D02*
X6196134Y-4822674D01*
X6196134Y-4822674D02*
X6177087Y-4813150D01*
X6177087Y-4813150D02*
X6138992Y-4813150D01*
X6138992Y-4813150D02*
X6119944Y-4822674D01*
X6205658Y-4936960D02*
X6186611Y-4946484D01*
X6186611Y-4946484D02*
X6138992Y-4946484D01*
X6138992Y-4946484D02*
X6119944Y-4936960D01*
X6119944Y-4936960D02*
X6110420Y-4917912D01*
X6110420Y-4917912D02*
X6110420Y-4898865D01*
X6110420Y-4898865D02*
X6119944Y-4879817D01*
X6119944Y-4879817D02*
X6138992Y-4870293D01*
X6138992Y-4870293D02*
X6186611Y-4870293D01*
X6186611Y-4870293D02*
X6205658Y-4860770D01*
X6272325Y-4813150D02*
X6348515Y-4813150D01*
X6300896Y-4746484D02*
X6300896Y-4917912D01*
X6300896Y-4917912D02*
X6310420Y-4936960D01*
X6310420Y-4936960D02*
X6329468Y-4946484D01*
X6329468Y-4946484D02*
X6348515Y-4946484D01*
X6491373Y-4936960D02*
X6472325Y-4946484D01*
X6472325Y-4946484D02*
X6434230Y-4946484D01*
X6434230Y-4946484D02*
X6415182Y-4936960D01*
X6415182Y-4936960D02*
X6405658Y-4917912D01*
X6405658Y-4917912D02*
X6405658Y-4841722D01*
X6405658Y-4841722D02*
X6415182Y-4822674D01*
X6415182Y-4822674D02*
X6434230Y-4813150D01*
X6434230Y-4813150D02*
X6472325Y-4813150D01*
X6472325Y-4813150D02*
X6491373Y-4822674D01*
X6491373Y-4822674D02*
X6500896Y-4841722D01*
X6500896Y-4841722D02*
X6500896Y-4860770D01*
X6500896Y-4860770D02*
X6405658Y-4879817D01*
X6672325Y-4946484D02*
X6672325Y-4746484D01*
X6672325Y-4936960D02*
X6653277Y-4946484D01*
X6653277Y-4946484D02*
X6615182Y-4946484D01*
X6615182Y-4946484D02*
X6596134Y-4936960D01*
X6596134Y-4936960D02*
X6586611Y-4927436D01*
X6586611Y-4927436D02*
X6577087Y-4908389D01*
X6577087Y-4908389D02*
X6577087Y-4851246D01*
X6577087Y-4851246D02*
X6586611Y-4832198D01*
X6586611Y-4832198D02*
X6596134Y-4822674D01*
X6596134Y-4822674D02*
X6615182Y-4813150D01*
X6615182Y-4813150D02*
X6653277Y-4813150D01*
X6653277Y-4813150D02*
X6672325Y-4822674D01*
X6748515Y-5022674D02*
X6758039Y-5013150D01*
X6758039Y-5013150D02*
X6777087Y-4984579D01*
X6777087Y-4984579D02*
X6786611Y-4965531D01*
X6786611Y-4965531D02*
X6796134Y-4936960D01*
X6796134Y-4936960D02*
X6805658Y-4889341D01*
X6805658Y-4889341D02*
X6805658Y-4851246D01*
X6805658Y-4851246D02*
X6796134Y-4803627D01*
X6796134Y-4803627D02*
X6786611Y-4775055D01*
X6786611Y-4775055D02*
X6777087Y-4756008D01*
X6777087Y-4756008D02*
X6758039Y-4727436D01*
X6758039Y-4727436D02*
X6748515Y-4717912D01*
M02*
