%TF.GenerationSoftware,KiCad,Pcbnew,8.0.6*%
%TF.CreationDate,2024-11-05T14:24:08+11:00*%
%TF.ProjectId,Blank_1U1HP,426c616e-6b5f-4315-9531-48502e6b6963,rev?*%
%TF.SameCoordinates,Original*%
%TF.FileFunction,Legend,Top*%
%TF.FilePolarity,Positive*%
%FSLAX46Y46*%
G04 Gerber Fmt 4.6, Leading zero omitted, Abs format (unit mm)*
G04 Created by KiCad (PCBNEW 8.0.6) date 2024-11-05 14:24:08*
%MOMM*%
%LPD*%
G01*
G04 APERTURE LIST*
%ADD10C,0.250000*%
%ADD11C,0.150000*%
%ADD12C,3.200000*%
G04 APERTURE END LIST*
D10*
G36*
X2902424Y-10182226D02*
G01*
X2922941Y-10191263D01*
X2937595Y-10207627D01*
X2951273Y-10223991D01*
X2962508Y-10238646D01*
X2969103Y-10254033D01*
X2969103Y-10269665D01*
X2969103Y-10296287D01*
X2961287Y-10303370D01*
X2964706Y-10298241D01*
X2955669Y-10307522D01*
X2949075Y-10310209D01*
X2940526Y-10313140D01*
X2929780Y-10317536D01*
X2909752Y-10325352D01*
X2890212Y-10329993D01*
X2887281Y-10338297D01*
X2868719Y-10348311D01*
X2853087Y-10363698D01*
X2845027Y-10376399D01*
X2831594Y-10396182D01*
X2817916Y-10416699D01*
X2810101Y-10431598D01*
X2803018Y-10442588D01*
X2794225Y-10460418D01*
X2784944Y-10479469D01*
X2777616Y-10492903D01*
X2766870Y-10521479D01*
X2755146Y-10552254D01*
X2747819Y-10576189D01*
X2740247Y-10605254D01*
X2736828Y-10618932D01*
X2731699Y-10637983D01*
X2726570Y-10655812D01*
X2720464Y-10663872D01*
X2719975Y-10686099D01*
X2712648Y-10721025D01*
X2706297Y-10755219D01*
X2702634Y-10776224D01*
X2697260Y-10788436D01*
X2691887Y-10793077D01*
X2672103Y-10793077D01*
X2656472Y-10793077D01*
X2644260Y-10788681D01*
X2634002Y-10780621D01*
X2624720Y-10771584D01*
X2610799Y-10757906D01*
X2597854Y-10743740D01*
X2595900Y-10731772D01*
X2587107Y-10729574D01*
X2579780Y-10714675D01*
X2572452Y-10699532D01*
X2568789Y-10687564D01*
X2563171Y-10673886D01*
X2552669Y-10648485D01*
X2543632Y-10624794D01*
X2538258Y-10613314D01*
X2530743Y-10596205D01*
X2531175Y-10605498D01*
X2533374Y-10623084D01*
X2535572Y-10641646D01*
X2536304Y-10652637D01*
X2538991Y-10676085D01*
X2541922Y-10711256D01*
X2544609Y-10744717D01*
X2546074Y-10766210D01*
X2546074Y-10795519D01*
X2546074Y-10822386D01*
X2543143Y-10834598D01*
X2540457Y-10854626D01*
X2537526Y-10876608D01*
X2534595Y-10892484D01*
X2531664Y-10900544D01*
X2529466Y-10913000D01*
X2519452Y-10933272D01*
X2506263Y-10943042D01*
X2494050Y-10955010D01*
X2484525Y-10958674D01*
X2483060Y-10956964D01*
X2478419Y-10960139D01*
X2481106Y-10959406D01*
X2464986Y-10966001D01*
X2449354Y-10972351D01*
X2433967Y-10972351D01*
X2423709Y-10972351D01*
X2404413Y-10966245D01*
X2389026Y-10960628D01*
X2367533Y-10951102D01*
X2340422Y-10939378D01*
X2327965Y-10930097D01*
X2317707Y-10921549D01*
X2303541Y-10908604D01*
X2280582Y-10885645D01*
X2257135Y-10861953D01*
X2243213Y-10848032D01*
X2230268Y-10834598D01*
X2216835Y-10820188D01*
X2206332Y-10796985D01*
X2196318Y-10778422D01*
X2188503Y-10766454D01*
X2179710Y-10748625D01*
X2170429Y-10730795D01*
X2164567Y-10720048D01*
X2155530Y-10701242D01*
X2146981Y-10681458D01*
X2142341Y-10666559D01*
X2135990Y-10646531D01*
X2128663Y-10626503D01*
X2127198Y-10615512D01*
X2100819Y-10613558D01*
X2070778Y-10610872D01*
X2034630Y-10608674D01*
X1984174Y-10605015D01*
X1971615Y-10604033D01*
X1921550Y-10599686D01*
X1908600Y-10598415D01*
X1871475Y-10594508D01*
X1857798Y-10593042D01*
X1838747Y-10590844D01*
X1820673Y-10588890D01*
X1811392Y-10587669D01*
X1798935Y-10584738D01*
X1790143Y-10574235D01*
X1807972Y-10566420D01*
X1835327Y-10566420D01*
X1862927Y-10566420D01*
X1880512Y-10566420D01*
X1903960Y-10566420D01*
X1933513Y-10566420D01*
X1959403Y-10566420D01*
X1973569Y-10566420D01*
X1993353Y-10566420D01*
X2029256Y-10566420D01*
X2065893Y-10566420D01*
X2087875Y-10566420D01*
X2101520Y-10566420D01*
X2092515Y-10564710D01*
X2070533Y-10561290D01*
X2059542Y-10556406D01*
X2048796Y-10545903D01*
X2048796Y-10541018D01*
X2048796Y-10529050D01*
X2066625Y-10528318D01*
X2082501Y-10526120D01*
X2248098Y-10526120D01*
X2248098Y-10566420D01*
X2248098Y-10611849D01*
X2250785Y-10626259D01*
X2253471Y-10639204D01*
X2255181Y-10648241D01*
X2258356Y-10661430D01*
X2262997Y-10674131D01*
X2271301Y-10702463D01*
X2276430Y-10722247D01*
X2283269Y-10734947D01*
X2295969Y-10756685D01*
X2307449Y-10779155D01*
X2309647Y-10793810D01*
X2322836Y-10802847D01*
X2339933Y-10822875D01*
X2340177Y-10827027D01*
X2340177Y-10831912D01*
X2347993Y-10829225D01*
X2355076Y-10832156D01*
X2370464Y-10832156D01*
X2383164Y-10832156D01*
X2391468Y-10826050D01*
X2400750Y-10817745D01*
X2403436Y-10807487D01*
X2406367Y-10798206D01*
X2407100Y-10643845D01*
X2390003Y-10644577D01*
X2353611Y-10642868D01*
X2316242Y-10638471D01*
X2293039Y-10634319D01*
X2275453Y-10630167D01*
X2262020Y-10618199D01*
X2271545Y-10609406D01*
X2287421Y-10606964D01*
X2304274Y-10604521D01*
X2315509Y-10603789D01*
X2332362Y-10600369D01*
X2360450Y-10596950D01*
X2373506Y-10596175D01*
X2372662Y-10595973D01*
X2361915Y-10592309D01*
X2352634Y-10588646D01*
X2352634Y-10578143D01*
X2352634Y-10566420D01*
X2400555Y-10566420D01*
X2395865Y-10542972D01*
X2392445Y-10515129D01*
X2389026Y-10496078D01*
X2383897Y-10470188D01*
X2379256Y-10446741D01*
X2375348Y-10434284D01*
X2375593Y-10425980D01*
X2375837Y-10425736D01*
X2302808Y-10425736D01*
X2296946Y-10432575D01*
X2284490Y-10452358D01*
X2274232Y-10467257D01*
X2263241Y-10473363D01*
X2260066Y-10490949D01*
X2250296Y-10503405D01*
X2252006Y-10510000D01*
X2249319Y-10518060D01*
X2248098Y-10526120D01*
X2082501Y-10526120D01*
X2098133Y-10524166D01*
X2106437Y-10523433D01*
X2107903Y-10520013D01*
X2111078Y-10513663D01*
X2109368Y-10500474D01*
X2108635Y-10486796D01*
X2107903Y-10476294D01*
X2113276Y-10454068D01*
X2117672Y-10430132D01*
X2121797Y-10420362D01*
X2562194Y-10420362D01*
X2568056Y-10423293D01*
X2576360Y-10447718D01*
X2589549Y-10476050D01*
X2602250Y-10503161D01*
X2611531Y-10521235D01*
X2611043Y-10523189D01*
X2613241Y-10527585D01*
X2648656Y-10392274D01*
X2648656Y-10386413D01*
X2636200Y-10386413D01*
X2621789Y-10389344D01*
X2599075Y-10393496D01*
X2577581Y-10397648D01*
X2565858Y-10400334D01*
X2563171Y-10402533D01*
X2562683Y-10403265D01*
X2562683Y-10405952D01*
X2562683Y-10410348D01*
X2562194Y-10420362D01*
X2121797Y-10420362D01*
X2122313Y-10419141D01*
X2124755Y-10411081D01*
X2129640Y-10396671D01*
X2140143Y-10376887D01*
X2150645Y-10358325D01*
X2158217Y-10349043D01*
X2156018Y-10349043D01*
X2156018Y-10344891D01*
X2146737Y-10327550D01*
X2139166Y-10304836D01*
X2139166Y-10300683D01*
X2139166Y-10295799D01*
X2150889Y-10282854D01*
X2163834Y-10274794D01*
X2172383Y-10274794D01*
X2185083Y-10274794D01*
X2194364Y-10276259D01*
X2207798Y-10280167D01*
X2219033Y-10283586D01*
X2224162Y-10285052D01*
X2293771Y-10285052D01*
X2356053Y-10285052D01*
X2362404Y-10273084D01*
X2363136Y-10264535D01*
X2365334Y-10247683D01*
X2367288Y-10230830D01*
X2368021Y-10222281D01*
X2376570Y-10208604D01*
X2390247Y-10197124D01*
X2400017Y-10197124D01*
X2410764Y-10197124D01*
X2428349Y-10206894D01*
X2442759Y-10215687D01*
X2453750Y-10225457D01*
X2470603Y-10242554D01*
X2485990Y-10259162D01*
X2493562Y-10267711D01*
X2500889Y-10267711D01*
X2550785Y-10257559D01*
X2583932Y-10250614D01*
X2632649Y-10239961D01*
X2655251Y-10234738D01*
X2703107Y-10223426D01*
X2716067Y-10220327D01*
X2732187Y-10217397D01*
X2749284Y-10214466D01*
X2758810Y-10210802D01*
X2769801Y-10207138D01*
X2777616Y-10203230D01*
X2791538Y-10195415D01*
X2804972Y-10187599D01*
X2815963Y-10181493D01*
X2828419Y-10178562D01*
X2841608Y-10175631D01*
X2862857Y-10175631D01*
X2885083Y-10175631D01*
X2902424Y-10182226D01*
G37*
G36*
X2191922Y-10927166D02*
G01*
X2209019Y-10934738D01*
X2221720Y-10942554D01*
X2293527Y-10942554D01*
X2365823Y-10942554D01*
X2389026Y-10939134D01*
X2431524Y-10934249D01*
X2477442Y-10929364D01*
X2513101Y-10926189D01*
X2538503Y-10922770D01*
X2584176Y-10915687D01*
X2632947Y-10909749D01*
X2634490Y-10909581D01*
X2669661Y-10905917D01*
X2692376Y-10900055D01*
X2721685Y-10895170D01*
X2748063Y-10891263D01*
X2763206Y-10889064D01*
X2767114Y-10888332D01*
X2775907Y-10883203D01*
X2791294Y-10875143D01*
X2801064Y-10875143D01*
X2806926Y-10875143D01*
X2819870Y-10877829D01*
X2832083Y-10880516D01*
X2852843Y-10890041D01*
X2866277Y-10896880D01*
X2887037Y-10915931D01*
X2905844Y-10935471D01*
X2914392Y-10950858D01*
X2923185Y-10968443D01*
X2923185Y-10977480D01*
X2923185Y-10990181D01*
X2911950Y-11001660D01*
X2902669Y-11002637D01*
X2888991Y-11011919D01*
X2863346Y-11015826D01*
X2842585Y-11019490D01*
X2814497Y-11024375D01*
X2787386Y-11029260D01*
X2770778Y-11032679D01*
X2736584Y-11037076D01*
X2687979Y-11043426D01*
X2640596Y-11050265D01*
X2611531Y-11053928D01*
X2584176Y-11057348D01*
X2544853Y-11062233D01*
X2506263Y-11067117D01*
X2482083Y-11070781D01*
X2457903Y-11072002D01*
X2427861Y-11073468D01*
X2400017Y-11075666D01*
X2382431Y-11077864D01*
X2280826Y-11077864D01*
X2183618Y-11077864D01*
X2165055Y-11069316D01*
X2149180Y-11058080D01*
X2132083Y-11046357D01*
X2119870Y-11037076D01*
X2103506Y-11035366D01*
X2075907Y-11033900D01*
X2048551Y-11032435D01*
X2027547Y-11031214D01*
X2013381Y-11025352D01*
X1966857Y-11006438D01*
X1964532Y-11005324D01*
X1999947Y-11006301D01*
X2003855Y-11001660D01*
X2012892Y-10997752D01*
X2030478Y-10996287D01*
X2056367Y-10993356D01*
X2082745Y-10990425D01*
X2100331Y-10997020D01*
X1878558Y-11004836D01*
X1840945Y-10992135D01*
X1849249Y-10982854D01*
X1865369Y-10980655D01*
X1881734Y-10978457D01*
X1891992Y-10976992D01*
X1916660Y-10973328D01*
X1962090Y-10971130D01*
X2006786Y-10971130D01*
X2031210Y-10971130D01*
X2046598Y-10968199D01*
X2068579Y-10965512D01*
X2088607Y-10964047D01*
X2097644Y-10963558D01*
X2106437Y-10957208D01*
X2114009Y-10952079D01*
X2120115Y-10954033D01*
X2126221Y-10945973D01*
X2136967Y-10949148D01*
X2139166Y-10935959D01*
X2154064Y-10927166D01*
X2170917Y-10927166D01*
X2191922Y-10927166D01*
G37*
G36*
X2306960Y-11091542D02*
G01*
X2331385Y-11099113D01*
X2347993Y-11106685D01*
X2367044Y-11117920D01*
X2377058Y-11124026D01*
X2387561Y-11129888D01*
X2407588Y-11149427D01*
X2434455Y-11176294D01*
X2458391Y-11201695D01*
X2471824Y-11215617D01*
X2478175Y-11224410D01*
X2487456Y-11238087D01*
X2496737Y-11252009D01*
X2502843Y-11261046D01*
X2509193Y-11270816D01*
X2516521Y-11285715D01*
X2523604Y-11299881D01*
X2528733Y-11311605D01*
X2535816Y-11328946D01*
X2542655Y-11348729D01*
X2548028Y-11361430D01*
X2550471Y-11372665D01*
X2555111Y-11387808D01*
X2560729Y-11407592D01*
X2565125Y-11425177D01*
X2567323Y-11435924D01*
X2567323Y-11445694D01*
X2567323Y-11468408D01*
X2567323Y-11493810D01*
X2567323Y-11513593D01*
X2567323Y-11529713D01*
X2567323Y-11555115D01*
X2567323Y-11580516D01*
X2567323Y-11596880D01*
X2559263Y-11612023D01*
X2548272Y-11624968D01*
X2543876Y-11629364D01*
X2539480Y-11633517D01*
X2530931Y-11635715D01*
X2523604Y-11634982D01*
X2521406Y-11634249D01*
X2505774Y-11630830D01*
X2491852Y-11627411D01*
X2480861Y-11628632D01*
X2457414Y-11632051D01*
X2430547Y-11636936D01*
X2408077Y-11642798D01*
X2396109Y-11644752D01*
X2376570Y-11648660D01*
X2354832Y-11653056D01*
X2340177Y-11655254D01*
X2325523Y-11659162D01*
X2305739Y-11664780D01*
X2286688Y-11669909D01*
X2276919Y-11670397D01*
X2257868Y-11678702D01*
X2231734Y-11679678D01*
X2229780Y-11687983D01*
X2215125Y-11693845D01*
X2203157Y-11698485D01*
X2196318Y-11701660D01*
X2169696Y-11709965D01*
X2148447Y-11718269D01*
X2135258Y-11718269D01*
X2119382Y-11718269D01*
X2107414Y-11712651D01*
X2096423Y-11708255D01*
X2083478Y-11697264D01*
X2066381Y-11681144D01*
X2049284Y-11664291D01*
X2038782Y-11650858D01*
X2034385Y-11641577D01*
X2031210Y-11626434D01*
X2031210Y-11613977D01*
X2031210Y-11599078D01*
X2040491Y-11591263D01*
X2060275Y-11582226D01*
X2080303Y-11574898D01*
X2096179Y-11568060D01*
X2118161Y-11560976D01*
X2139410Y-11554626D01*
X2151378Y-11551695D01*
X2167254Y-11545833D01*
X2193387Y-11538506D01*
X2218789Y-11531667D01*
X2233688Y-11527271D01*
X2241259Y-11527515D01*
X2228314Y-11520432D01*
X2208775Y-11499672D01*
X2189480Y-11478178D01*
X2175558Y-11460837D01*
X2169207Y-11449846D01*
X2164811Y-11438611D01*
X2150401Y-11416140D01*
X2138433Y-11396601D01*
X2132815Y-11380725D01*
X2126221Y-11359476D01*
X2120115Y-11338715D01*
X2116207Y-11328702D01*
X2112299Y-11326503D01*
X2099110Y-11322107D01*
X2097400Y-11314780D01*
X2094274Y-11305987D01*
X2262020Y-11305987D01*
X2262020Y-11361186D01*
X2262020Y-11413454D01*
X2263974Y-11418339D01*
X2269347Y-11425666D01*
X2282048Y-11441053D01*
X2297435Y-11450579D01*
X2315265Y-11460104D01*
X2341399Y-11467676D01*
X2358984Y-11472561D01*
X2377302Y-11475980D01*
X2407100Y-11475980D01*
X2434944Y-11475980D01*
X2435921Y-11472805D01*
X2437630Y-11468408D01*
X2437630Y-11437145D01*
X2437630Y-11407836D01*
X2436165Y-11400997D01*
X2433478Y-11390251D01*
X2431036Y-11379260D01*
X2418579Y-11376817D01*
X2400261Y-11369734D01*
X2421510Y-11354591D01*
X2403681Y-11357034D01*
X2381943Y-11349706D01*
X2374371Y-11347508D01*
X2361427Y-11345310D01*
X2366800Y-11328213D01*
X2375104Y-11324305D01*
X2397575Y-11318443D01*
X2417114Y-11319176D01*
X2413450Y-11316489D01*
X2413450Y-11306475D01*
X2404413Y-11289134D01*
X2394155Y-11266420D01*
X2385851Y-11256650D01*
X2376325Y-11244438D01*
X2371929Y-11233203D01*
X2366800Y-11230516D01*
X2357274Y-11224654D01*
X2351901Y-11221967D01*
X2332117Y-11221967D01*
X2316974Y-11219525D01*
X2313066Y-11225143D01*
X2307693Y-11226852D01*
X2304762Y-11230272D01*
X2296702Y-11234180D01*
X2293283Y-11242972D01*
X2280338Y-11254207D01*
X2276186Y-11261535D01*
X2268126Y-11287913D01*
X2262020Y-11305987D01*
X2094274Y-11305987D01*
X2093492Y-11303789D01*
X2101465Y-11293156D01*
X1973569Y-11295973D01*
X1986758Y-11271793D01*
X2006786Y-11266664D01*
X2030966Y-11264954D01*
X2052948Y-11263489D01*
X2067602Y-11260802D01*
X2095690Y-11257138D01*
X2120603Y-11253475D01*
X2121336Y-11248346D01*
X2128175Y-11244193D01*
X2128419Y-11229539D01*
X2132083Y-11214152D01*
X2134281Y-11200963D01*
X2139410Y-11185819D01*
X2144050Y-11173607D01*
X2146004Y-11168478D01*
X2154064Y-11153824D01*
X2165300Y-11140146D01*
X2173604Y-11132086D01*
X2184839Y-11120851D01*
X2195830Y-11108639D01*
X2205355Y-11100334D01*
X2211217Y-11097159D01*
X2215614Y-11094717D01*
X2222697Y-11090809D01*
X2234665Y-11087878D01*
X2247121Y-11085191D01*
X2267149Y-11085191D01*
X2285467Y-11085191D01*
X2306960Y-11091542D01*
G37*
G36*
X2125732Y-11737808D02*
G01*
X2135502Y-11730725D01*
X2150889Y-11718269D01*
X2173848Y-11717780D01*
X2197540Y-11711919D01*
X2209996Y-11708743D01*
X2229047Y-11705812D01*
X2248586Y-11703126D01*
X2261775Y-11700683D01*
X2294016Y-11696775D01*
X2343726Y-11692783D01*
X2354344Y-11691891D01*
X2404225Y-11687735D01*
X2428349Y-11685540D01*
X2478178Y-11680947D01*
X2502599Y-11678457D01*
X2552186Y-11673707D01*
X2561706Y-11672840D01*
X2592725Y-11669665D01*
X2627407Y-11664047D01*
X2656472Y-11658429D01*
X2664288Y-11655987D01*
X2672348Y-11657452D01*
X2675767Y-11651102D01*
X2683827Y-11648171D01*
X2695551Y-11641577D01*
X2706542Y-11641577D01*
X2713625Y-11646706D01*
X2721685Y-11643042D01*
X2730233Y-11644263D01*
X2745865Y-11651835D01*
X2767847Y-11664047D01*
X2769801Y-11672595D01*
X2781280Y-11682609D01*
X2792515Y-11695066D01*
X2801552Y-11704836D01*
X2808391Y-11722177D01*
X2812787Y-11739030D01*
X2812787Y-11752951D01*
X2809124Y-11768583D01*
X2804727Y-11772247D01*
X2799354Y-11777376D01*
X2781524Y-11783482D01*
X2763695Y-11789344D01*
X2756123Y-11790565D01*
X2741713Y-11793740D01*
X2725593Y-11797892D01*
X2711427Y-11801556D01*
X2697260Y-11802288D01*
X2678698Y-11804242D01*
X2659403Y-11806929D01*
X2646946Y-11808394D01*
X2634490Y-11810348D01*
X2612752Y-11813768D01*
X2590526Y-11816454D01*
X2579291Y-11813768D01*
X2573185Y-11821095D01*
X2566591Y-11818408D01*
X2577581Y-11821584D01*
X2597365Y-11835750D01*
X2616660Y-11850893D01*
X2627407Y-11860418D01*
X2647435Y-11877515D01*
X2675767Y-11903649D01*
X2677233Y-11908778D01*
X2678942Y-11915129D01*
X2691643Y-11926852D01*
X2703367Y-11942240D01*
X2712159Y-11967397D01*
X2724127Y-11995973D01*
X2720952Y-11996461D01*
X2720952Y-12003300D01*
X2720219Y-12007941D01*
X2719487Y-12010139D01*
X2719487Y-12020397D01*
X2712404Y-12026748D01*
X2708007Y-12035052D01*
X2693108Y-12046775D01*
X2679919Y-12055324D01*
X2663555Y-12057766D01*
X2658914Y-12066071D01*
X2646458Y-12069246D01*
X2614462Y-12078527D01*
X2567643Y-12092586D01*
X2558286Y-12095380D01*
X2509787Y-12109825D01*
X2501378Y-12112233D01*
X2466695Y-12122979D01*
X2458391Y-12124933D01*
X2442759Y-12129574D01*
X2423953Y-12135436D01*
X2410764Y-12138367D01*
X2382676Y-12144228D01*
X2333816Y-12153578D01*
X2326256Y-12154975D01*
X2277930Y-12163650D01*
X2269591Y-12164989D01*
X2241748Y-12166454D01*
X2231245Y-12174270D01*
X2214637Y-12177690D01*
X2205355Y-12176224D01*
X2198272Y-12174759D01*
X2182152Y-12168897D01*
X2176535Y-12158394D01*
X2166521Y-12158639D01*
X2151866Y-12147892D01*
X2137700Y-12136657D01*
X2129640Y-12130307D01*
X2119870Y-12128353D01*
X2099354Y-12125666D01*
X2078593Y-12122979D01*
X2066381Y-12113698D01*
X2079082Y-12099288D01*
X2092027Y-12099776D01*
X2103262Y-12096601D01*
X2114009Y-12097090D01*
X2109368Y-12087808D01*
X2109368Y-12074619D01*
X2109368Y-12070467D01*
X2117184Y-12064849D01*
X2110833Y-12049951D01*
X2120603Y-12042135D01*
X2138433Y-12037006D01*
X2154064Y-12034075D01*
X2192899Y-12026503D01*
X2241740Y-12017671D01*
X2262020Y-12013803D01*
X2310306Y-12004630D01*
X2330652Y-12000614D01*
X2366556Y-11992798D01*
X2397819Y-11983272D01*
X2444713Y-11967641D01*
X2491852Y-11951277D01*
X2526779Y-11948590D01*
X2480861Y-11956406D01*
X2430998Y-11956406D01*
X2402948Y-11956406D01*
X2353241Y-11955356D01*
X2325523Y-11953719D01*
X2280094Y-11948590D01*
X2256158Y-11945170D01*
X2217568Y-11922700D01*
X2261775Y-11922700D01*
X2309159Y-11922700D01*
X2356542Y-11922700D01*
X2381454Y-11922700D01*
X2397575Y-11922700D01*
X2422976Y-11922700D01*
X2448377Y-11922700D01*
X2464741Y-11922700D01*
X2487944Y-11922700D01*
X2522627Y-11922700D01*
X2557065Y-11922700D01*
X2575139Y-11929050D01*
X2564148Y-11929539D01*
X2547540Y-11920258D01*
X2529954Y-11910000D01*
X2517986Y-11902672D01*
X2499912Y-11892658D01*
X2481838Y-11882644D01*
X2470115Y-11879225D01*
X2451064Y-11873607D01*
X2433234Y-11868234D01*
X2424441Y-11865792D01*
X2387805Y-11862372D01*
X2338431Y-11860279D01*
X2323325Y-11860174D01*
X2273179Y-11860174D01*
X2257623Y-11860174D01*
X2220010Y-11860174D01*
X2200471Y-11849672D01*
X2185816Y-11840390D01*
X2176535Y-11830865D01*
X2163590Y-11816210D01*
X2151622Y-11803510D01*
X2143562Y-11798869D01*
X2133548Y-11794228D01*
X2113520Y-11790809D01*
X2091294Y-11786413D01*
X2079082Y-11782260D01*
X2069312Y-11778353D01*
X2060764Y-11765652D01*
X2135502Y-11772491D01*
X2113520Y-11773712D01*
X2083967Y-11767362D01*
X2053681Y-11761744D01*
X2034630Y-11758080D01*
X2012159Y-11750753D01*
X1993108Y-11734633D01*
X2125732Y-11737808D01*
G37*
G36*
X2343597Y-12179155D02*
G01*
X2346772Y-12167431D01*
X2357519Y-12169385D01*
X2359228Y-12158639D01*
X2370219Y-12153754D01*
X2378768Y-12153754D01*
X2380966Y-12157173D01*
X2390980Y-12159127D01*
X2406856Y-12168164D01*
X2420045Y-12176713D01*
X2425662Y-12180376D01*
X2434455Y-12178911D01*
X2453995Y-12176224D01*
X2474267Y-12174026D01*
X2485258Y-12173538D01*
X2505774Y-12173538D01*
X2540945Y-12173538D01*
X2578314Y-12173538D01*
X2605181Y-12173538D01*
X2628628Y-12173538D01*
X2651343Y-12169874D01*
X2668684Y-12173538D01*
X2687491Y-12173538D01*
X2704588Y-12173538D01*
X2714357Y-12173538D01*
X2724616Y-12175003D01*
X2747819Y-12179155D01*
X2773709Y-12184773D01*
X2793492Y-12191367D01*
X2807903Y-12193321D01*
X2830861Y-12197473D01*
X2853087Y-12201625D01*
X2869452Y-12203579D01*
X2888014Y-12213593D01*
X2897540Y-12229225D01*
X2908286Y-12247543D01*
X2916346Y-12247787D01*
X2916102Y-12254870D01*
X2928803Y-12268792D01*
X2924651Y-12281249D01*
X2933932Y-12287843D01*
X2937351Y-12295170D01*
X2937351Y-12309337D01*
X2932222Y-12320327D01*
X2933199Y-12321304D01*
X2919033Y-12332295D01*
X2905600Y-12338157D01*
X2884106Y-12335226D01*
X2852599Y-12328876D01*
X2821092Y-12321793D01*
X2801552Y-12317152D01*
X2787875Y-12315687D01*
X2767114Y-12314221D01*
X2744888Y-12314221D01*
X2727791Y-12314221D01*
X2712404Y-12314221D01*
X2684071Y-12314221D01*
X2653053Y-12313489D01*
X2632536Y-12311290D01*
X2611531Y-12312756D01*
X2588328Y-12315931D01*
X2571475Y-12314221D01*
X2550959Y-12314221D01*
X2531908Y-12314221D01*
X2523360Y-12314221D01*
X2508461Y-12314221D01*
X2499424Y-12309825D01*
X2500401Y-12315198D01*
X2513590Y-12341821D01*
X2527267Y-12365268D01*
X2546074Y-12393356D01*
X2563171Y-12419246D01*
X2573185Y-12434389D01*
X2580757Y-12440006D01*
X2594434Y-12448066D01*
X2608845Y-12456127D01*
X2620080Y-12464675D01*
X2622522Y-12473468D01*
X2633025Y-12488611D01*
X2643771Y-12507906D01*
X2646214Y-12520851D01*
X2656228Y-12531109D01*
X2659647Y-12540879D01*
X2656716Y-12551625D01*
X2654030Y-12559930D01*
X2651099Y-12569211D01*
X2651099Y-12576294D01*
X2645481Y-12588750D01*
X2633513Y-12595589D01*
X2614706Y-12595589D01*
X2605914Y-12589239D01*
X2601762Y-12588750D01*
X2580268Y-12571653D01*
X2557065Y-12557976D01*
X2543632Y-12543321D01*
X2528000Y-12525980D01*
X2513346Y-12509860D01*
X2504309Y-12500334D01*
X2489410Y-12478841D01*
X2468405Y-12449532D01*
X2447400Y-12419490D01*
X2443004Y-12394577D01*
X2444469Y-12409476D01*
X2438119Y-12419734D01*
X2435921Y-12431214D01*
X2430059Y-12449532D01*
X2424441Y-12465652D01*
X2422732Y-12476643D01*
X2413695Y-12497648D01*
X2410031Y-12520118D01*
X2399773Y-12523293D01*
X2391224Y-12542100D01*
X2379256Y-12562128D01*
X2369975Y-12581667D01*
X2357763Y-12595345D01*
X2347993Y-12610000D01*
X2340666Y-12619525D01*
X2328454Y-12634180D01*
X2316974Y-12647613D01*
X2309403Y-12661779D01*
X2291329Y-12671060D01*
X2275453Y-12678876D01*
X2259577Y-12693042D01*
X2243702Y-12694263D01*
X2238572Y-12702323D01*
X2227337Y-12705010D01*
X2218789Y-12705010D01*
X2210729Y-12702812D01*
X2207309Y-12700125D01*
X2200471Y-12695729D01*
X2189235Y-12688401D01*
X2176535Y-12679609D01*
X2163590Y-12663489D01*
X2149424Y-12638820D01*
X2142585Y-12624898D01*
X2137944Y-12612930D01*
X2110345Y-12607069D01*
X2063939Y-12595345D01*
X2018021Y-12583621D01*
X1989445Y-12575317D01*
X1959891Y-12566769D01*
X1939619Y-12554556D01*
X1927896Y-12550404D01*
X1919103Y-12527690D01*
X2135746Y-12568234D01*
X2142585Y-12562616D01*
X2153576Y-12554312D01*
X2164811Y-12556022D01*
X2168719Y-12538925D01*
X2183862Y-12549427D01*
X2191189Y-12541123D01*
X2198761Y-12535261D01*
X2207554Y-12530621D01*
X2180687Y-12523293D01*
X2200226Y-12511325D01*
X2221475Y-12503998D01*
X2227581Y-12501067D01*
X2233932Y-12503510D01*
X2232955Y-12495205D01*
X2237107Y-12486657D01*
X2250785Y-12471758D01*
X2260799Y-12458325D01*
X2264951Y-12448555D01*
X2273255Y-12434389D01*
X2283025Y-12419490D01*
X2292306Y-12418513D01*
X2290108Y-12403614D01*
X2294504Y-12384563D01*
X2305983Y-12362581D01*
X2312578Y-12348171D01*
X2312578Y-12336936D01*
X2317463Y-12328632D01*
X2314532Y-12333517D01*
X2299389Y-12338157D01*
X2274720Y-12345240D01*
X2250540Y-12351835D01*
X2231978Y-12359651D01*
X2206577Y-12359651D01*
X2180687Y-12363070D01*
X2176535Y-12363070D01*
X2171406Y-12363070D01*
X2154309Y-12347683D01*
X2136235Y-12337913D01*
X2133304Y-12324235D01*
X2117672Y-12308848D01*
X2103018Y-12291263D01*
X2094958Y-12282226D01*
X2085921Y-12279783D01*
X2067602Y-12276608D01*
X2046109Y-12272944D01*
X2028279Y-12266838D01*
X2012892Y-12240704D01*
X2091050Y-12259755D01*
X2088852Y-12254626D01*
X2091538Y-12248764D01*
X2092515Y-12244612D01*
X2092515Y-12242658D01*
X2095690Y-12238750D01*
X2083478Y-12244368D01*
X2061741Y-12242170D01*
X2040736Y-12239972D01*
X2027791Y-12239483D01*
X2015823Y-12238018D01*
X1998970Y-12238018D01*
X1979187Y-12229713D01*
X1970882Y-12224096D01*
X1958914Y-12220188D01*
X1939131Y-12199672D01*
X1957693Y-12197718D01*
X1966486Y-12194054D01*
X1985781Y-12196008D01*
X2015823Y-12200893D01*
X2043667Y-12205045D01*
X2059542Y-12206510D01*
X2079326Y-12206510D01*
X2104727Y-12206510D01*
X2113764Y-12206510D01*
X2127198Y-12206510D01*
X2142096Y-12206510D01*
X2156751Y-12202847D01*
X2183129Y-12196741D01*
X2209019Y-12191123D01*
X2224406Y-12189169D01*
X2235886Y-12189169D01*
X2244923Y-12190146D01*
X2263729Y-12185750D01*
X2293527Y-12181842D01*
X2321127Y-12179155D01*
X2336758Y-12177934D01*
X2343597Y-12179155D01*
G37*
G36*
X2117672Y-13062093D02*
G01*
X2113520Y-13054033D01*
X2115474Y-13042065D01*
X2125000Y-13033028D01*
X2133304Y-13024235D01*
X2151378Y-13021060D01*
X2174337Y-13020572D01*
X2195830Y-13018618D01*
X2208775Y-13016908D01*
X2228803Y-13013244D01*
X2253227Y-13013244D01*
X2273255Y-13011046D01*
X2281803Y-13008848D01*
X2315020Y-13008848D01*
X2364470Y-13008848D01*
X2369975Y-13008848D01*
X2420251Y-13008848D01*
X2427128Y-13008848D01*
X2467428Y-13008848D01*
X2485746Y-13008848D01*
X2516765Y-13008848D01*
X2549738Y-13008848D01*
X2573185Y-13008848D01*
X2588572Y-13008848D01*
X2612020Y-13008848D01*
X2634979Y-13008848D01*
X2647435Y-13015443D01*
X2644504Y-13012267D01*
X2643039Y-13013733D01*
X2641573Y-13009581D01*
X2632292Y-12999811D01*
X2617149Y-12989309D01*
X2608845Y-12976120D01*
X2599075Y-12961465D01*
X2589305Y-12946322D01*
X2589549Y-12937041D01*
X2576116Y-12927515D01*
X2564392Y-12909441D01*
X2554378Y-12891367D01*
X2549738Y-12880865D01*
X2548517Y-12873782D01*
X2547051Y-12862791D01*
X2547051Y-12843740D01*
X2559263Y-12833970D01*
X2574162Y-12833970D01*
X2580512Y-12832505D01*
X2587351Y-12832505D01*
X2591503Y-12831284D01*
X2609577Y-12837634D01*
X2633269Y-12843740D01*
X2634979Y-12853998D01*
X2648656Y-12862058D01*
X2661601Y-12872805D01*
X2671859Y-12879888D01*
X2678698Y-12893321D01*
X2683583Y-12901870D01*
X2688224Y-12909197D01*
X2694085Y-12924096D01*
X2697993Y-12938750D01*
X2702634Y-12945345D01*
X2714602Y-12947299D01*
X2726325Y-12964152D01*
X2745376Y-12980027D01*
X2765404Y-12996880D01*
X2777372Y-13008848D01*
X2790561Y-13016664D01*
X2808147Y-13026434D01*
X2828419Y-13037424D01*
X2845760Y-13047683D01*
X2859438Y-13053789D01*
X2878489Y-13059895D01*
X2879221Y-13066489D01*
X2884106Y-13072840D01*
X2896074Y-13086029D01*
X2903646Y-13099706D01*
X2913660Y-13107766D01*
X2919521Y-13117048D01*
X2919521Y-13131702D01*
X2919521Y-13135854D01*
X2922208Y-13141228D01*
X2913171Y-13152463D01*
X2903157Y-13157348D01*
X2884839Y-13157348D01*
X2880687Y-13157348D01*
X2875558Y-13158813D01*
X2865300Y-13160767D01*
X2856751Y-13158080D01*
X2840631Y-13152707D01*
X2826465Y-13148066D01*
X2819138Y-13146357D01*
X2801796Y-13143426D01*
X2778349Y-13145624D01*
X2779326Y-13138053D01*
X2767114Y-13140006D01*
X2752948Y-13138541D01*
X2742445Y-13137808D01*
X2711915Y-13137808D01*
X2688712Y-13137808D01*
X2671859Y-13137808D01*
X2645725Y-13137808D01*
X2621057Y-13137808D01*
X2607135Y-13137808D01*
X2577337Y-13137808D01*
X2532885Y-13137808D01*
X2489166Y-13137808D01*
X2460345Y-13137808D01*
X2411358Y-13137808D01*
X2406856Y-13137808D01*
X2357193Y-13137808D01*
X2329919Y-13137808D01*
X2280396Y-13137808D01*
X2256891Y-13137808D01*
X2212927Y-13149532D01*
X2175558Y-13149532D01*
X2125732Y-13149532D01*
X2076151Y-13152707D01*
X2040980Y-13157592D01*
X2004588Y-13145624D01*
X2041713Y-13129993D01*
X2059298Y-13126329D01*
X2080547Y-13120711D01*
X2113032Y-13115582D01*
X2143806Y-13111674D01*
X2158949Y-13114117D01*
X2131106Y-13097508D01*
X2114253Y-13096043D01*
X2085188Y-13095554D01*
X2055879Y-13095554D01*
X2037316Y-13095554D01*
X2022662Y-13095554D01*
X2001413Y-13095554D01*
X1980896Y-13094822D01*
X1956960Y-13094089D01*
X1966974Y-13066734D01*
X2117672Y-13062093D01*
G37*
G36*
X2117916Y-13363733D02*
G01*
X2118649Y-13355184D01*
X2096912Y-13352498D01*
X2070533Y-13346636D01*
X2056367Y-13345903D01*
X2040247Y-13343461D01*
X2016800Y-13339309D01*
X2016800Y-13310732D01*
X2123778Y-13313175D01*
X2121580Y-13310976D01*
X2123534Y-13307313D01*
X2125732Y-13294368D01*
X2130861Y-13275073D01*
X2136723Y-13256266D01*
X2140387Y-13246008D01*
X2145760Y-13227201D01*
X2156018Y-13206196D01*
X2159193Y-13194961D01*
X2164078Y-13186657D01*
X2172627Y-13178841D01*
X2183374Y-13167850D01*
X2194120Y-13155150D01*
X2203890Y-13147090D01*
X2211217Y-13144159D01*
X2215125Y-13141716D01*
X2221231Y-13138053D01*
X2233199Y-13135122D01*
X2244434Y-13131946D01*
X2269103Y-13131946D01*
X2290352Y-13131946D01*
X2308426Y-13134877D01*
X2329187Y-13137808D01*
X2363136Y-13145868D01*
X2393911Y-13154173D01*
X2412473Y-13160523D01*
X2445446Y-13170537D01*
X2478663Y-13180551D01*
X2497958Y-13185436D01*
X2528977Y-13194473D01*
X2560729Y-13202777D01*
X2580268Y-13206441D01*
X2597609Y-13210104D01*
X2635711Y-13210104D01*
X2673569Y-13210104D01*
X2678698Y-13208883D01*
X2686758Y-13206196D01*
X2696284Y-13203754D01*
X2698970Y-13190076D01*
X2706786Y-13177376D01*
X2708740Y-13168827D01*
X2716067Y-13165163D01*
X2724860Y-13162721D01*
X2734874Y-13161011D01*
X2742445Y-13161011D01*
X2748307Y-13161011D01*
X2756856Y-13162965D01*
X2763450Y-13165163D01*
X2780547Y-13170537D01*
X2798377Y-13179574D01*
X2831350Y-13212302D01*
X2839166Y-13223293D01*
X2847714Y-13236971D01*
X2851133Y-13248450D01*
X2854797Y-13261151D01*
X2854797Y-13268234D01*
X2854797Y-13273119D01*
X2845760Y-13288995D01*
X2837944Y-13301939D01*
X2834281Y-13310244D01*
X2830373Y-13314152D01*
X2812055Y-13322700D01*
X2796179Y-13331981D01*
X2779082Y-13335401D01*
X2762229Y-13339064D01*
X2700191Y-13339064D01*
X2641329Y-13339064D01*
X2623499Y-13335401D01*
X2602250Y-13331981D01*
X2587351Y-13328318D01*
X2568300Y-13323433D01*
X2549738Y-13318304D01*
X2541434Y-13311709D01*
X2517986Y-13309511D01*
X2476221Y-13297543D01*
X2434699Y-13284842D01*
X2411741Y-13277271D01*
X2391468Y-13272386D01*
X2376081Y-13268967D01*
X2340666Y-13268967D01*
X2310380Y-13268967D01*
X2300610Y-13278248D01*
X2289375Y-13290949D01*
X2282536Y-13301451D01*
X2277896Y-13309267D01*
X2276430Y-13313907D01*
X2272766Y-13326852D01*
X2269103Y-13338332D01*
X2263729Y-13356650D01*
X2254692Y-13369595D01*
X2257623Y-13378143D01*
X2255425Y-13394263D01*
X2253227Y-13409895D01*
X2252006Y-13419665D01*
X2250540Y-13437494D01*
X2249075Y-13461430D01*
X2248342Y-13482923D01*
X2247854Y-13494403D01*
X2246388Y-13513454D01*
X2244923Y-13536168D01*
X2244923Y-13543251D01*
X2246388Y-13551800D01*
X2246388Y-13557662D01*
X2263241Y-13561814D01*
X2308670Y-13561814D01*
X2376081Y-13561814D01*
X2388538Y-13561814D01*
X2409542Y-13561814D01*
X2431280Y-13561814D01*
X2444225Y-13564989D01*
X2454727Y-13558639D01*
X2478419Y-13553998D01*
X2502355Y-13549846D01*
X2519940Y-13546182D01*
X2537526Y-13541053D01*
X2565125Y-13534703D01*
X2591503Y-13528353D01*
X2608112Y-13523224D01*
X2644016Y-13512233D01*
X2691807Y-13497807D01*
X2698970Y-13495624D01*
X2747162Y-13481038D01*
X2753681Y-13479016D01*
X2792027Y-13468025D01*
X2812543Y-13468025D01*
X2830861Y-13468025D01*
X2841364Y-13470223D01*
X2851133Y-13476817D01*
X2861636Y-13483656D01*
X2873360Y-13490983D01*
X2882152Y-13500997D01*
X2892166Y-13511256D01*
X2897540Y-13521758D01*
X2908775Y-13532016D01*
X2911461Y-13543251D01*
X2914392Y-13553754D01*
X2914392Y-13566699D01*
X2914392Y-13575003D01*
X2906088Y-13587948D01*
X2894120Y-13598695D01*
X2876046Y-13605533D01*
X2860415Y-13610907D01*
X2848447Y-13614570D01*
X2800331Y-13627759D01*
X2753014Y-13641437D01*
X2715579Y-13652184D01*
X2665753Y-13666777D01*
X2616380Y-13681235D01*
X2612997Y-13682226D01*
X2563627Y-13696855D01*
X2516726Y-13710519D01*
X2510659Y-13712267D01*
X2462585Y-13726025D01*
X2425662Y-13736448D01*
X2378279Y-13749881D01*
X2364846Y-13754033D01*
X2345307Y-13760139D01*
X2323569Y-13767222D01*
X2308426Y-13771130D01*
X2294993Y-13776259D01*
X2272766Y-13785052D01*
X2250052Y-13794577D01*
X2233688Y-13803126D01*
X2220010Y-13809232D01*
X2205111Y-13819734D01*
X2186304Y-13819734D01*
X2168230Y-13819734D01*
X2156751Y-13813384D01*
X2150889Y-13808255D01*
X2153332Y-13801905D01*
X2139410Y-13800195D01*
X2130129Y-13791646D01*
X2122069Y-13785540D01*
X2109612Y-13781632D01*
X2103506Y-13765268D01*
X2093004Y-13750125D01*
X2089584Y-13741577D01*
X2085921Y-13731074D01*
X2085921Y-13722526D01*
X2085921Y-13709825D01*
X2097400Y-13690774D01*
X2110833Y-13675631D01*
X2117672Y-13663419D01*
X2126709Y-13646566D01*
X2135502Y-13645589D01*
X2139410Y-13643391D01*
X2146493Y-13639727D01*
X2151133Y-13639727D01*
X2156263Y-13639727D01*
X2168475Y-13642658D01*
X2181420Y-13648276D01*
X2185083Y-13648032D01*
X2183618Y-13648764D01*
X2185083Y-13647299D01*
X2191922Y-13649009D01*
X2182885Y-13649009D01*
X2172871Y-13638018D01*
X2163590Y-13628248D01*
X2158461Y-13622142D01*
X2145760Y-13609441D01*
X2130617Y-13591367D01*
X2126953Y-13582330D01*
X2126709Y-13573782D01*
X2120359Y-13564256D01*
X2117916Y-13552288D01*
X2112299Y-13531039D01*
X2109368Y-13512721D01*
X2109368Y-13397438D01*
X2073709Y-13397438D01*
X2024433Y-13397438D01*
X2006786Y-13397438D01*
X1957446Y-13397438D01*
X1939375Y-13397438D01*
X1892236Y-13397438D01*
X1876360Y-13389623D01*
X1853157Y-13386203D01*
X1828489Y-13382784D01*
X1813101Y-13371549D01*
X1818719Y-13363733D01*
X2117916Y-13363733D01*
G37*
G36*
X2117672Y-13943321D02*
G01*
X2113520Y-13935261D01*
X2115474Y-13923293D01*
X2125000Y-13914256D01*
X2133304Y-13905464D01*
X2151378Y-13902288D01*
X2174337Y-13901800D01*
X2195830Y-13899846D01*
X2208775Y-13898136D01*
X2228803Y-13894473D01*
X2253227Y-13894473D01*
X2273255Y-13892274D01*
X2281803Y-13890076D01*
X2315020Y-13890076D01*
X2364470Y-13890076D01*
X2369975Y-13890076D01*
X2420251Y-13890076D01*
X2427128Y-13890076D01*
X2467428Y-13890076D01*
X2485746Y-13890076D01*
X2516765Y-13890076D01*
X2549738Y-13890076D01*
X2573185Y-13890076D01*
X2588572Y-13890076D01*
X2612020Y-13890076D01*
X2634979Y-13890076D01*
X2647435Y-13896671D01*
X2644504Y-13893496D01*
X2643039Y-13894961D01*
X2641573Y-13890809D01*
X2632292Y-13881039D01*
X2617149Y-13870537D01*
X2608845Y-13857348D01*
X2599075Y-13842693D01*
X2589305Y-13827550D01*
X2589549Y-13818269D01*
X2576116Y-13808743D01*
X2564392Y-13790669D01*
X2554378Y-13772595D01*
X2549738Y-13762093D01*
X2548517Y-13755010D01*
X2547051Y-13744019D01*
X2547051Y-13724968D01*
X2559263Y-13715198D01*
X2574162Y-13715198D01*
X2580512Y-13713733D01*
X2587351Y-13713733D01*
X2591503Y-13712512D01*
X2609577Y-13718862D01*
X2633269Y-13724968D01*
X2634979Y-13735226D01*
X2648656Y-13743286D01*
X2661601Y-13754033D01*
X2671859Y-13761116D01*
X2678698Y-13774549D01*
X2683583Y-13783098D01*
X2688224Y-13790425D01*
X2694085Y-13805324D01*
X2697993Y-13819979D01*
X2702634Y-13826573D01*
X2714602Y-13828527D01*
X2726325Y-13845380D01*
X2745376Y-13861256D01*
X2765404Y-13878108D01*
X2777372Y-13890076D01*
X2790561Y-13897892D01*
X2808147Y-13907662D01*
X2828419Y-13918653D01*
X2845760Y-13928911D01*
X2859438Y-13935017D01*
X2878489Y-13941123D01*
X2879221Y-13947718D01*
X2884106Y-13954068D01*
X2896074Y-13967257D01*
X2903646Y-13980935D01*
X2913660Y-13988995D01*
X2919521Y-13998276D01*
X2919521Y-14012930D01*
X2919521Y-14017083D01*
X2922208Y-14022456D01*
X2913171Y-14033691D01*
X2903157Y-14038576D01*
X2884839Y-14038576D01*
X2880687Y-14038576D01*
X2875558Y-14040041D01*
X2865300Y-14041995D01*
X2856751Y-14039309D01*
X2840631Y-14033935D01*
X2826465Y-14029295D01*
X2819138Y-14027585D01*
X2801796Y-14024654D01*
X2778349Y-14026852D01*
X2779326Y-14019281D01*
X2767114Y-14021235D01*
X2752948Y-14019769D01*
X2742445Y-14019036D01*
X2711915Y-14019036D01*
X2688712Y-14019036D01*
X2671859Y-14019036D01*
X2645725Y-14019036D01*
X2621057Y-14019036D01*
X2607135Y-14019036D01*
X2577337Y-14019036D01*
X2532885Y-14019036D01*
X2489166Y-14019036D01*
X2460345Y-14019036D01*
X2411358Y-14019036D01*
X2406856Y-14019036D01*
X2357193Y-14019036D01*
X2329919Y-14019036D01*
X2280396Y-14019036D01*
X2256891Y-14019036D01*
X2212927Y-14030760D01*
X2175558Y-14030760D01*
X2125732Y-14030760D01*
X2076151Y-14033935D01*
X2040980Y-14038820D01*
X2004588Y-14026852D01*
X2041713Y-14011221D01*
X2059298Y-14007557D01*
X2080547Y-14001939D01*
X2113032Y-13996810D01*
X2143806Y-13992903D01*
X2158949Y-13995345D01*
X2131106Y-13978736D01*
X2114253Y-13977271D01*
X2085188Y-13976782D01*
X2055879Y-13976782D01*
X2037316Y-13976782D01*
X2022662Y-13976782D01*
X2001413Y-13976782D01*
X1980896Y-13976050D01*
X1956960Y-13975317D01*
X1966974Y-13947962D01*
X2117672Y-13943321D01*
G37*
G36*
X2086409Y-14108185D02*
G01*
X2102041Y-14100858D01*
X2119138Y-14095484D01*
X2133060Y-14089623D01*
X2151866Y-14085715D01*
X2165544Y-14083517D01*
X2192166Y-14078632D01*
X2220498Y-14073747D01*
X2241748Y-14070572D01*
X2271301Y-14067641D01*
X2296458Y-14064954D01*
X2347134Y-14058385D01*
X2351901Y-14057871D01*
X2401494Y-14052395D01*
X2432257Y-14048834D01*
X2481678Y-14042919D01*
X2508949Y-14039553D01*
X2557309Y-14032714D01*
X2577581Y-14032714D01*
X2603227Y-14031493D01*
X2626430Y-14029539D01*
X2639863Y-14028806D01*
X2728768Y-14028806D01*
X2813276Y-14028806D01*
X2834769Y-14031249D01*
X2863834Y-14033935D01*
X2879954Y-14039309D01*
X2892166Y-14041995D01*
X2915858Y-14053230D01*
X2942480Y-14064466D01*
X2952494Y-14071060D01*
X2964218Y-14077655D01*
X2983269Y-14094996D01*
X2990108Y-14105498D01*
X2997191Y-14114535D01*
X3001099Y-14121618D01*
X3006228Y-14130655D01*
X3011357Y-14145310D01*
X3013555Y-14149951D01*
X3015753Y-14158499D01*
X3013555Y-14166803D01*
X3011357Y-14170956D01*
X3004030Y-14184145D01*
X2990840Y-14191472D01*
X2991329Y-14192937D01*
X2986688Y-14193426D01*
X2980826Y-14194159D01*
X2975209Y-14191472D01*
X2957379Y-14188541D01*
X2950296Y-14179504D01*
X2944434Y-14179016D01*
X2933199Y-14174375D01*
X2922941Y-14165582D01*
X2916102Y-14159965D01*
X2914637Y-14158499D01*
X2911461Y-14157766D01*
X2906332Y-14157766D01*
X2685781Y-14157766D01*
X2685781Y-14158743D01*
X2687002Y-14165582D01*
X2689200Y-14178283D01*
X2691399Y-14190495D01*
X2692864Y-14196357D01*
X2698970Y-14232016D01*
X2707824Y-14281667D01*
X2708740Y-14287215D01*
X2716968Y-14335995D01*
X2718021Y-14342414D01*
X2723639Y-14376852D01*
X2727547Y-14384424D01*
X2959822Y-14384424D01*
X2976674Y-14392484D01*
X2995725Y-14405673D01*
X3036758Y-14448904D01*
X3042131Y-14462826D01*
X3049459Y-14480655D01*
X3049459Y-14487739D01*
X3049459Y-14492135D01*
X3044818Y-14513384D01*
X3036025Y-14513384D01*
X2762473Y-14513384D01*
X2716067Y-14513140D01*
X2483060Y-14513140D01*
X2435188Y-14517292D01*
X2385222Y-14517292D01*
X2364846Y-14517292D01*
X2314326Y-14517292D01*
X2295725Y-14517292D01*
X2250540Y-14521200D01*
X2241015Y-14524375D01*
X2221720Y-14529016D01*
X2201448Y-14530969D01*
X2189968Y-14533168D01*
X2170184Y-14533168D01*
X2151866Y-14533168D01*
X2137944Y-14528039D01*
X2125488Y-14523154D01*
X2110833Y-14519002D01*
X2085432Y-14517292D01*
X2058565Y-14516559D01*
X2044399Y-14514605D01*
X2030722Y-14513872D01*
X2017533Y-14510697D01*
X2016067Y-14503126D01*
X2010205Y-14489448D01*
X2096912Y-14497264D01*
X2080547Y-14505080D01*
X2054658Y-14503614D01*
X2028768Y-14500683D01*
X2012648Y-14497997D01*
X1996528Y-14493112D01*
X1991154Y-14481632D01*
X1988468Y-14482365D01*
X1980652Y-14486762D01*
X1980652Y-14477480D01*
X1980652Y-14474549D01*
X1992620Y-14465512D01*
X2010205Y-14462581D01*
X2028768Y-14459651D01*
X2051482Y-14453789D01*
X2070045Y-14452812D01*
X2068091Y-14441332D01*
X2072487Y-14428387D01*
X2081524Y-14425457D01*
X2088607Y-14416175D01*
X2103995Y-14412267D01*
X2125732Y-14406650D01*
X2143562Y-14404452D01*
X2166521Y-14401277D01*
X2203646Y-14400055D01*
X2239549Y-14396392D01*
X2263974Y-14388332D01*
X2314043Y-14388332D01*
X2363865Y-14388332D01*
X2395865Y-14388332D01*
X2445801Y-14388332D01*
X2477686Y-14388332D01*
X2525558Y-14388332D01*
X2540212Y-14388332D01*
X2562194Y-14384180D01*
X2585397Y-14380027D01*
X2597609Y-14383691D01*
X2593946Y-14367327D01*
X2593946Y-14348276D01*
X2591015Y-14321165D01*
X2593213Y-14298939D01*
X2587107Y-14298695D01*
X2584176Y-14296252D01*
X2554867Y-14294542D01*
X2509438Y-14294542D01*
X2462299Y-14294542D01*
X2431280Y-14291612D01*
X2416381Y-14288681D01*
X2387561Y-14285994D01*
X2356542Y-14283796D01*
X2335293Y-14281842D01*
X2319173Y-14281842D01*
X2294993Y-14279644D01*
X2272034Y-14277690D01*
X2257868Y-14277690D01*
X2245900Y-14275247D01*
X2230024Y-14273538D01*
X2213904Y-14271828D01*
X2204134Y-14263035D01*
X2225872Y-14252288D01*
X2249319Y-14249357D01*
X2267637Y-14249357D01*
X2287421Y-14249357D01*
X2318928Y-14249357D01*
X2368831Y-14249357D01*
X2372418Y-14249357D01*
X2422406Y-14249357D01*
X2425418Y-14249357D01*
X2456437Y-14249357D01*
X2577093Y-14249357D01*
X2581978Y-14250579D01*
X2575139Y-14255952D01*
X2559752Y-14256929D01*
X2543632Y-14258150D01*
X2530931Y-14258883D01*
X2510659Y-14254487D01*
X2486723Y-14247648D01*
X2486723Y-14240321D01*
X2486723Y-14233726D01*
X2497958Y-14224689D01*
X2508705Y-14220293D01*
X2522627Y-14220293D01*
X2543387Y-14220293D01*
X2563171Y-14221025D01*
X2573674Y-14226887D01*
X2570010Y-14212477D01*
X2571475Y-14196357D01*
X2568056Y-14182191D01*
X2566102Y-14170956D01*
X2546807Y-14172421D01*
X2526779Y-14172421D01*
X2506507Y-14175840D01*
X2468649Y-14181214D01*
X2427128Y-14186343D01*
X2394888Y-14190251D01*
X2374860Y-14192205D01*
X2343353Y-14197334D01*
X2309891Y-14202463D01*
X2287421Y-14204661D01*
X2273499Y-14206615D01*
X2248586Y-14211744D01*
X2222941Y-14217850D01*
X2205355Y-14222491D01*
X2189968Y-14222491D01*
X2169940Y-14222491D01*
X2165544Y-14219071D01*
X2158705Y-14214187D01*
X2155774Y-14211011D01*
X2142096Y-14203196D01*
X2130617Y-14195624D01*
X2120603Y-14187076D01*
X2106681Y-14172909D01*
X2094713Y-14158988D01*
X2089829Y-14153859D01*
X1745202Y-14153859D01*
X1719312Y-14140181D01*
X1749110Y-14123817D01*
X1771336Y-14119420D01*
X1786235Y-14117711D01*
X1809193Y-14116245D01*
X1831420Y-14112826D01*
X1847295Y-14109406D01*
X1896144Y-14109406D01*
X1945228Y-14109406D01*
X1968684Y-14109406D01*
X2019343Y-14109406D01*
X2041224Y-14109406D01*
X2086409Y-14108185D01*
G37*
G36*
X2888747Y-14407871D02*
G01*
X2900959Y-14412267D01*
X2914392Y-14421549D01*
X2926849Y-14430830D01*
X2940771Y-14450369D01*
X2950540Y-14464291D01*
X2961775Y-14482609D01*
X2966905Y-14502393D01*
X2966905Y-14508743D01*
X2966905Y-14517780D01*
X2962020Y-14526329D01*
X2959822Y-14535854D01*
X2944923Y-14547090D01*
X2925383Y-14564187D01*
X2907065Y-14580551D01*
X2897784Y-14590809D01*
X2888503Y-14604242D01*
X2879954Y-14619141D01*
X2870184Y-14640635D01*
X2859682Y-14661395D01*
X2856018Y-14674584D01*
X2849424Y-14696566D01*
X2843318Y-14719281D01*
X2839898Y-14733447D01*
X2833060Y-14766420D01*
X2827442Y-14795240D01*
X2820359Y-14845066D01*
X2813430Y-14893656D01*
X2808391Y-14929085D01*
X2801170Y-14978098D01*
X2795446Y-15014082D01*
X2786759Y-15062382D01*
X2786409Y-15063663D01*
X2784211Y-15077829D01*
X2779815Y-15098346D01*
X2776395Y-15118618D01*
X2775174Y-15134494D01*
X2768824Y-15147194D01*
X2763939Y-15160872D01*
X2759298Y-15176503D01*
X2752459Y-15190669D01*
X2742201Y-15205568D01*
X2730722Y-15214117D01*
X2726325Y-15222421D01*
X2718021Y-15230969D01*
X2705809Y-15237320D01*
X2698237Y-15237320D01*
X2684071Y-15237320D01*
X2664532Y-15237320D01*
X2647923Y-15234389D01*
X2633513Y-15233168D01*
X2623499Y-15229993D01*
X2615683Y-15226085D01*
X2608112Y-15222177D01*
X2591748Y-15212407D01*
X2577337Y-15201905D01*
X2564148Y-15191158D01*
X2549982Y-15178213D01*
X2532885Y-15157452D01*
X2508949Y-15130097D01*
X2485990Y-15104207D01*
X2470359Y-15087599D01*
X2467184Y-15076852D01*
X2455216Y-15058534D01*
X2442515Y-15036796D01*
X2432257Y-15020676D01*
X2425418Y-15007243D01*
X2419801Y-14995764D01*
X2408077Y-14974515D01*
X2390003Y-14936413D01*
X2372418Y-14898066D01*
X2366800Y-14875108D01*
X2361915Y-14873642D01*
X2360450Y-14873154D01*
X2338956Y-14869734D01*
X2309647Y-14866071D01*
X2280094Y-14863384D01*
X2262508Y-14862163D01*
X2246877Y-14862163D01*
X2223674Y-14862163D01*
X2201203Y-14862163D01*
X2186060Y-14862163D01*
X2134703Y-14858154D01*
X2085770Y-14853108D01*
X2078349Y-14852149D01*
X2052948Y-14839692D01*
X2091538Y-14831388D01*
X2141093Y-14830907D01*
X2148935Y-14830900D01*
X2199442Y-14830900D01*
X2213904Y-14830900D01*
X2263091Y-14836910D01*
X2265439Y-14837739D01*
X2283513Y-14837739D01*
X2307693Y-14837739D01*
X2333827Y-14837739D01*
X2354099Y-14842623D01*
X2347505Y-14836762D01*
X2342376Y-14829434D01*
X2337491Y-14814535D01*
X2332362Y-14796706D01*
X2326744Y-14778387D01*
X2323813Y-14767397D01*
X2317707Y-14752742D01*
X2312822Y-14739309D01*
X2295237Y-14735401D01*
X2290874Y-14734668D01*
X2429326Y-14734668D01*
X2432501Y-14735157D01*
X2432501Y-14742240D01*
X2431769Y-14746880D01*
X2431036Y-14749323D01*
X2431036Y-14753475D01*
X2433722Y-14762756D01*
X2436653Y-14774235D01*
X2443492Y-14792798D01*
X2451308Y-14818443D01*
X2457658Y-14840669D01*
X2460833Y-14852149D01*
X2466695Y-14869002D01*
X2477930Y-14897090D01*
X2489166Y-14925422D01*
X2495760Y-14942763D01*
X2505774Y-14960593D01*
X2518963Y-14982819D01*
X2524337Y-14995764D01*
X2531664Y-15010418D01*
X2538991Y-15023607D01*
X2545341Y-15031912D01*
X2547540Y-15040460D01*
X2557309Y-15052672D01*
X2567323Y-15066350D01*
X2577337Y-15076120D01*
X2581245Y-15083203D01*
X2584420Y-15087599D01*
X2593702Y-15094438D01*
X2602494Y-15100055D01*
X2607135Y-15109092D01*
X2609333Y-15101277D01*
X2612264Y-15101277D01*
X2613485Y-15101277D01*
X2619103Y-15097124D01*
X2632048Y-15095903D01*
X2628872Y-15086866D01*
X2632536Y-15079539D01*
X2639619Y-15065617D01*
X2642794Y-15059511D01*
X2648412Y-15033866D01*
X2655495Y-15011395D01*
X2657449Y-15000160D01*
X2661357Y-14973538D01*
X2665753Y-14942274D01*
X2669173Y-14916873D01*
X2669173Y-14913210D01*
X2674302Y-14910279D01*
X2664043Y-14913942D01*
X2644016Y-14911011D01*
X2622278Y-14906615D01*
X2607379Y-14902463D01*
X2594434Y-14900509D01*
X2577581Y-14896845D01*
X2553157Y-14892205D01*
X2543876Y-14882679D01*
X2536793Y-14862651D01*
X2656523Y-14873594D01*
X2641817Y-14867292D01*
X2632048Y-14858255D01*
X2628140Y-14846531D01*
X2676256Y-14846531D01*
X2684367Y-14797515D01*
X2686514Y-14785471D01*
X2695993Y-14736746D01*
X2697749Y-14727341D01*
X2706576Y-14682068D01*
X2677965Y-14687529D01*
X2629571Y-14698369D01*
X2627896Y-14698764D01*
X2578836Y-14709693D01*
X2577337Y-14710000D01*
X2543632Y-14717571D01*
X2522138Y-14722456D01*
X2487212Y-14729539D01*
X2450819Y-14735157D01*
X2429326Y-14734668D01*
X2290874Y-14734668D01*
X2264706Y-14730272D01*
X2233932Y-14724166D01*
X2214637Y-14721479D01*
X2203890Y-14721479D01*
X2186549Y-14720746D01*
X2168475Y-14719036D01*
X2158217Y-14715129D01*
X2146493Y-14713419D01*
X2134036Y-14706336D01*
X2123046Y-14698520D01*
X2111322Y-14690704D01*
X2095690Y-14673852D01*
X2082013Y-14655533D01*
X2074685Y-14643565D01*
X2068579Y-14628422D01*
X2066137Y-14619874D01*
X2062962Y-14603998D01*
X2064427Y-14599846D01*
X2064427Y-14596427D01*
X2077372Y-14580795D01*
X2086165Y-14580795D01*
X2290402Y-14588238D01*
X2296702Y-14572247D01*
X2301099Y-14555394D01*
X2307449Y-14544891D01*
X2317951Y-14534145D01*
X2334071Y-14518757D01*
X2343108Y-14521933D01*
X2348482Y-14521933D01*
X2355565Y-14522665D01*
X2361182Y-14523398D01*
X2379256Y-14532191D01*
X2394888Y-14544647D01*
X2403436Y-14551730D01*
X2416625Y-14564919D01*
X2427372Y-14576643D01*
X2431769Y-14580795D01*
X2446423Y-14580795D01*
X2459856Y-14578108D01*
X2478419Y-14575910D01*
X2501866Y-14571025D01*
X2525558Y-14566140D01*
X2538747Y-14563942D01*
X2568056Y-14555394D01*
X2599563Y-14545868D01*
X2612997Y-14542449D01*
X2633269Y-14535122D01*
X2655251Y-14526573D01*
X2672592Y-14520467D01*
X2688468Y-14516803D01*
X2703855Y-14508011D01*
X2721441Y-14500683D01*
X2741957Y-14490914D01*
X2753681Y-14484319D01*
X2764427Y-14477969D01*
X2776395Y-14467955D01*
X2787142Y-14456231D01*
X2803018Y-14445973D01*
X2811810Y-14435959D01*
X2819138Y-14424235D01*
X2828419Y-14423991D01*
X2836235Y-14415443D01*
X2850889Y-14407138D01*
X2863590Y-14405184D01*
X2876535Y-14402986D01*
X2888747Y-14407871D01*
G37*
G36*
X2134281Y-15673049D02*
G01*
X2134281Y-15675980D01*
X2115474Y-15673782D01*
X2093492Y-15669141D01*
X2075174Y-15666210D01*
X2042690Y-15663524D01*
X2061985Y-15635436D01*
X2123778Y-15640321D01*
X2121580Y-15626643D01*
X2129396Y-15615408D01*
X2140387Y-15603684D01*
X2161636Y-15594403D01*
X2182641Y-15584877D01*
X2202913Y-15578527D01*
X2219033Y-15575596D01*
X2238817Y-15572909D01*
X2251762Y-15570223D01*
X2273011Y-15567292D01*
X2292550Y-15564605D01*
X2305251Y-15561674D01*
X2316486Y-15559720D01*
X2336025Y-15554591D01*
X2357274Y-15547752D01*
X2372662Y-15541891D01*
X2387316Y-15537739D01*
X2411252Y-15532609D01*
X2433234Y-15529190D01*
X2442027Y-15525526D01*
X2489166Y-15508185D01*
X2536182Y-15490706D01*
X2568789Y-15478387D01*
X2615928Y-15460863D01*
X2662339Y-15444101D01*
X2665509Y-15442972D01*
X2712009Y-15426135D01*
X2759125Y-15408412D01*
X2761985Y-15407313D01*
X2809546Y-15389350D01*
X2840875Y-15377515D01*
X2886549Y-15360418D01*
X2907798Y-15360418D01*
X2926116Y-15360418D01*
X2942969Y-15367013D01*
X2963241Y-15375317D01*
X2977163Y-15392170D01*
X2991085Y-15408046D01*
X3000610Y-15425631D01*
X3008182Y-15442972D01*
X3008182Y-15455673D01*
X3008182Y-15466420D01*
X2990596Y-15486448D01*
X2973743Y-15501591D01*
X2952006Y-15508429D01*
X2930024Y-15509895D01*
X2565125Y-15620781D01*
X2593946Y-15624689D01*
X2838677Y-15719944D01*
X2852843Y-15719944D01*
X2869696Y-15719944D01*
X2874092Y-15714570D01*
X2883862Y-15704312D01*
X2888014Y-15704312D01*
X2890945Y-15704312D01*
X2908531Y-15707243D01*
X2916346Y-15716524D01*
X2930024Y-15719455D01*
X2944434Y-15730690D01*
X2951029Y-15736064D01*
X2962264Y-15741681D01*
X2966660Y-15758534D01*
X2973743Y-15772456D01*
X2976674Y-15775631D01*
X2981071Y-15782470D01*
X2984734Y-15787355D01*
X2984734Y-15809581D01*
X2984734Y-15829609D01*
X2972766Y-15834249D01*
X2963485Y-15846217D01*
X2954692Y-15848171D01*
X2945900Y-15852812D01*
X2938817Y-15852812D01*
X2929047Y-15852812D01*
X2910973Y-15849392D01*
X2888991Y-15845973D01*
X2872138Y-15840355D01*
X2858217Y-15834982D01*
X2820359Y-15824724D01*
X2772597Y-15812613D01*
X2749284Y-15806650D01*
X2701800Y-15794253D01*
X2678942Y-15787843D01*
X2639375Y-15777585D01*
X2610554Y-15769036D01*
X2585153Y-15761221D01*
X2566591Y-15753649D01*
X2536060Y-15737773D01*
X2507972Y-15723119D01*
X2494050Y-15716769D01*
X2470115Y-15711639D01*
X2452285Y-15708220D01*
X2389026Y-15708220D01*
X2355076Y-15708220D01*
X2340910Y-15710907D01*
X2327233Y-15714815D01*
X2305495Y-15718234D01*
X2280094Y-15722386D01*
X2257868Y-15725806D01*
X2248342Y-15727271D01*
X2241992Y-15728248D01*
X2228070Y-15731423D01*
X2214392Y-15728248D01*
X2209752Y-15727271D01*
X2193632Y-15722386D01*
X2180198Y-15717501D01*
X1987002Y-15717501D01*
X1967219Y-15717501D01*
X1933025Y-15715792D01*
X1897365Y-15712616D01*
X1872208Y-15709441D01*
X1850226Y-15706022D01*
X1810659Y-15702847D01*
X1839968Y-15673049D01*
X2134281Y-15673049D01*
G37*
G36*
X2117672Y-15952951D02*
G01*
X2113520Y-15944891D01*
X2115474Y-15932923D01*
X2125000Y-15923886D01*
X2133304Y-15915094D01*
X2151378Y-15911919D01*
X2174337Y-15911430D01*
X2195830Y-15909476D01*
X2208775Y-15907766D01*
X2228803Y-15904103D01*
X2253227Y-15904103D01*
X2273255Y-15901905D01*
X2281803Y-15899706D01*
X2315020Y-15899706D01*
X2364470Y-15899706D01*
X2369975Y-15899706D01*
X2420251Y-15899706D01*
X2427128Y-15899706D01*
X2467428Y-15899706D01*
X2485746Y-15899706D01*
X2516765Y-15899706D01*
X2549738Y-15899706D01*
X2573185Y-15899706D01*
X2588572Y-15899706D01*
X2612020Y-15899706D01*
X2634979Y-15899706D01*
X2647435Y-15906301D01*
X2644504Y-15903126D01*
X2643039Y-15904591D01*
X2641573Y-15900439D01*
X2632292Y-15890669D01*
X2617149Y-15880167D01*
X2608845Y-15866978D01*
X2599075Y-15852323D01*
X2589305Y-15837180D01*
X2589549Y-15827899D01*
X2576116Y-15818374D01*
X2564392Y-15800300D01*
X2554378Y-15782226D01*
X2549738Y-15771723D01*
X2548517Y-15764640D01*
X2547051Y-15753649D01*
X2547051Y-15734598D01*
X2559263Y-15724829D01*
X2574162Y-15724829D01*
X2580512Y-15723363D01*
X2587351Y-15723363D01*
X2591503Y-15722142D01*
X2609577Y-15728492D01*
X2633269Y-15734598D01*
X2634979Y-15744856D01*
X2648656Y-15752916D01*
X2661601Y-15763663D01*
X2671859Y-15770746D01*
X2678698Y-15784180D01*
X2683583Y-15792728D01*
X2688224Y-15800055D01*
X2694085Y-15814954D01*
X2697993Y-15829609D01*
X2702634Y-15836203D01*
X2714602Y-15838157D01*
X2726325Y-15855010D01*
X2745376Y-15870886D01*
X2765404Y-15887739D01*
X2777372Y-15899706D01*
X2790561Y-15907522D01*
X2808147Y-15917292D01*
X2828419Y-15928283D01*
X2845760Y-15938541D01*
X2859438Y-15944647D01*
X2878489Y-15950753D01*
X2879221Y-15957348D01*
X2884106Y-15963698D01*
X2896074Y-15976887D01*
X2903646Y-15990565D01*
X2913660Y-15998625D01*
X2919521Y-16007906D01*
X2919521Y-16022561D01*
X2919521Y-16026713D01*
X2922208Y-16032086D01*
X2913171Y-16043321D01*
X2903157Y-16048206D01*
X2884839Y-16048206D01*
X2880687Y-16048206D01*
X2875558Y-16049672D01*
X2865300Y-16051625D01*
X2856751Y-16048939D01*
X2840631Y-16043565D01*
X2826465Y-16038925D01*
X2819138Y-16037215D01*
X2801796Y-16034284D01*
X2778349Y-16036482D01*
X2779326Y-16028911D01*
X2767114Y-16030865D01*
X2752948Y-16029399D01*
X2742445Y-16028667D01*
X2711915Y-16028667D01*
X2688712Y-16028667D01*
X2671859Y-16028667D01*
X2645725Y-16028667D01*
X2621057Y-16028667D01*
X2607135Y-16028667D01*
X2577337Y-16028667D01*
X2532885Y-16028667D01*
X2489166Y-16028667D01*
X2460345Y-16028667D01*
X2411358Y-16028667D01*
X2406856Y-16028667D01*
X2357193Y-16028667D01*
X2329919Y-16028667D01*
X2280396Y-16028667D01*
X2256891Y-16028667D01*
X2212927Y-16040390D01*
X2175558Y-16040390D01*
X2125732Y-16040390D01*
X2076151Y-16043565D01*
X2040980Y-16048450D01*
X2004588Y-16036482D01*
X2041713Y-16020851D01*
X2059298Y-16017187D01*
X2080547Y-16011570D01*
X2113032Y-16006441D01*
X2143806Y-16002533D01*
X2158949Y-16004975D01*
X2131106Y-15988367D01*
X2114253Y-15986901D01*
X2085188Y-15986413D01*
X2055879Y-15986413D01*
X2037316Y-15986413D01*
X2022662Y-15986413D01*
X2001413Y-15986413D01*
X1980896Y-15985680D01*
X1956960Y-15984947D01*
X1966974Y-15957592D01*
X2117672Y-15952951D01*
G37*
G36*
X1848761Y-16855673D02*
G01*
X1852669Y-16831981D01*
X1860729Y-16812930D01*
X1867079Y-16807801D01*
X1879047Y-16804138D01*
X1886130Y-16804138D01*
X1887595Y-16804138D01*
X1903471Y-16807313D01*
X1915195Y-16811953D01*
X1926919Y-16820013D01*
X1942794Y-16833935D01*
X1958426Y-16848346D01*
X1966730Y-16855917D01*
X1986025Y-16855917D01*
X2016311Y-16842728D01*
X2062865Y-16823580D01*
X2066381Y-16822212D01*
X2113475Y-16803868D01*
X2124755Y-16799497D01*
X2170503Y-16781859D01*
X2182885Y-16777027D01*
X2228821Y-16759312D01*
X2232955Y-16757732D01*
X2264218Y-16745519D01*
X2301831Y-16731109D01*
X2348367Y-16713798D01*
X2357519Y-16710593D01*
X2404260Y-16693804D01*
X2412229Y-16690809D01*
X2439340Y-16686413D01*
X2423464Y-16692030D01*
X2398307Y-16692030D01*
X2379256Y-16692030D01*
X2354344Y-16692030D01*
X2329187Y-16693740D01*
X2314776Y-16695450D01*
X2302076Y-16700090D01*
X2278140Y-16707418D01*
X2253715Y-16713524D01*
X2236618Y-16716210D01*
X2217323Y-16716210D01*
X2198761Y-16716210D01*
X2177756Y-16708639D01*
X2158461Y-16699113D01*
X2141608Y-16695450D01*
X2120359Y-16692030D01*
X2104239Y-16679330D01*
X2119138Y-16665163D01*
X2125000Y-16660279D01*
X2125000Y-16657592D01*
X2128175Y-16657592D01*
X2023883Y-16646357D01*
X2044888Y-16627550D01*
X2056612Y-16623886D01*
X2085432Y-16620223D01*
X2112543Y-16621444D01*
X2111566Y-16613384D01*
X2114986Y-16602637D01*
X2126465Y-16593112D01*
X2136967Y-16585052D01*
X2153332Y-16579678D01*
X2179466Y-16572107D01*
X2205355Y-16564780D01*
X2220743Y-16559895D01*
X2237840Y-16552568D01*
X2261043Y-16544752D01*
X2273011Y-16538157D01*
X2286933Y-16528632D01*
X2298168Y-16522281D01*
X2314288Y-16513244D01*
X2329431Y-16504696D01*
X2338956Y-16499078D01*
X2359473Y-16485157D01*
X2390247Y-16465129D01*
X2420289Y-16445589D01*
X2435921Y-16438262D01*
X2432013Y-16437041D01*
X2220987Y-16437041D01*
X2193632Y-16418722D01*
X2169452Y-16406022D01*
X2153087Y-16406022D01*
X2124023Y-16403824D01*
X2095202Y-16401625D01*
X2077861Y-16401625D01*
X2061496Y-16398450D01*
X2026814Y-16395275D01*
X2052215Y-16374515D01*
X2063695Y-16370607D01*
X2078838Y-16369141D01*
X2102041Y-16367920D01*
X2124755Y-16366454D01*
X2138677Y-16371828D01*
X2132083Y-16371828D01*
X2132083Y-16367676D01*
X2128175Y-16357662D01*
X2125000Y-16343740D01*
X2125000Y-16331772D01*
X2125000Y-16326154D01*
X2133060Y-16315163D01*
X2146004Y-16306371D01*
X2194838Y-16308054D01*
X2204623Y-16308080D01*
X2254749Y-16308080D01*
X2291329Y-16308080D01*
X2341681Y-16308080D01*
X2378279Y-16308080D01*
X2427402Y-16308080D01*
X2435921Y-16308080D01*
X2514567Y-16308080D01*
X2594678Y-16308080D01*
X2602983Y-16306859D01*
X2619103Y-16305150D01*
X2635467Y-16303440D01*
X2644748Y-16302463D01*
X2661113Y-16298555D01*
X2674302Y-16295624D01*
X2686758Y-16290739D01*
X2706786Y-16284633D01*
X2726325Y-16279260D01*
X2739270Y-16276817D01*
X2746353Y-16276817D01*
X2756123Y-16276817D01*
X2777128Y-16285610D01*
X2787875Y-16297578D01*
X2796912Y-16300753D01*
X2808635Y-16312965D01*
X2820359Y-16324200D01*
X2831594Y-16334214D01*
X2837700Y-16350823D01*
X2844050Y-16367920D01*
X2846249Y-16372072D01*
X2848447Y-16380621D01*
X2846249Y-16389413D01*
X2844050Y-16393565D01*
X2840631Y-16402114D01*
X2833792Y-16408709D01*
X2819138Y-16414082D01*
X2795446Y-16425561D01*
X2771755Y-16438262D01*
X2759542Y-16445833D01*
X2736584Y-16457801D01*
X2702145Y-16476608D01*
X2667463Y-16495170D01*
X2643771Y-16506894D01*
X2633757Y-16512267D01*
X2617637Y-16521549D01*
X2602006Y-16530586D01*
X2592480Y-16536936D01*
X2569277Y-16553300D01*
X2549005Y-16563558D01*
X2549982Y-16561849D01*
X2544609Y-16563070D01*
X2553646Y-16557208D01*
X2572452Y-16558674D01*
X2591259Y-16560628D01*
X2603715Y-16562093D01*
X2632292Y-16567955D01*
X2679919Y-16576503D01*
X2727547Y-16583831D01*
X2754902Y-16586762D01*
X2773464Y-16587983D01*
X2804483Y-16589448D01*
X2835990Y-16590669D01*
X2854553Y-16593600D01*
X2868963Y-16595799D01*
X2886549Y-16599462D01*
X2894120Y-16604591D01*
X2902669Y-16606545D01*
X2917568Y-16620956D01*
X2934665Y-16637564D01*
X2950540Y-16655394D01*
X2954692Y-16667117D01*
X2963974Y-16676154D01*
X2969103Y-16691297D01*
X2969103Y-16701311D01*
X2969103Y-16708394D01*
X2963241Y-16717676D01*
X2952983Y-16724515D01*
X2941259Y-16727201D01*
X2929047Y-16730132D01*
X2815230Y-16730132D01*
X2799110Y-16733551D01*
X2778593Y-16736971D01*
X2766870Y-16740635D01*
X2749040Y-16746252D01*
X2730722Y-16751137D01*
X2717288Y-16753335D01*
X2689445Y-16760662D01*
X2665020Y-16767013D01*
X2630094Y-16778736D01*
X2583558Y-16793619D01*
X2574406Y-16796566D01*
X2527381Y-16811597D01*
X2519207Y-16814152D01*
X2483548Y-16826608D01*
X2466451Y-16832470D01*
X2440561Y-16841995D01*
X2415404Y-16851032D01*
X2400750Y-16856161D01*
X2359961Y-16872037D01*
X2312346Y-16890004D01*
X2287421Y-16899392D01*
X2239473Y-16917794D01*
X2200471Y-16932854D01*
X2153719Y-16951177D01*
X2114986Y-16966315D01*
X2068827Y-16984729D01*
X2044888Y-16994403D01*
X2003122Y-17011256D01*
X1997749Y-17012233D01*
X1991643Y-17014675D01*
X1982850Y-17019316D01*
X1970638Y-17019316D01*
X1963555Y-17019316D01*
X1951343Y-17015408D01*
X1940596Y-17011011D01*
X1931803Y-17007592D01*
X1920324Y-17004173D01*
X1907379Y-16993182D01*
X1901517Y-16982435D01*
X1894190Y-16984633D01*
X1882955Y-16981946D01*
X1873918Y-16976085D01*
X1849494Y-16966071D01*
X1869766Y-16955080D01*
X1867812Y-16948974D01*
X1797714Y-16948974D01*
X1788189Y-16927725D01*
X1798203Y-16915512D01*
X1829466Y-16910139D01*
X1850715Y-16910872D01*
X1848761Y-16855673D01*
G37*
G36*
X2487944Y-16901591D02*
G01*
X2501622Y-16905254D01*
X2517009Y-16909895D01*
X2526779Y-16914780D01*
X2534595Y-16917711D01*
X2543143Y-16921374D01*
X2555844Y-16928702D01*
X2571964Y-16939448D01*
X2585886Y-16949706D01*
X2591748Y-16954103D01*
X2600052Y-16962163D01*
X2614218Y-16975596D01*
X2629361Y-16989762D01*
X2640108Y-17000509D01*
X2651831Y-17016140D01*
X2663555Y-17032016D01*
X2671371Y-17044961D01*
X2681629Y-17063524D01*
X2691154Y-17082086D01*
X2697749Y-17096985D01*
X2700436Y-17112861D01*
X2703367Y-17129225D01*
X2703367Y-17174410D01*
X2703367Y-17221060D01*
X2700436Y-17234982D01*
X2697749Y-17250125D01*
X2692131Y-17261360D01*
X2685048Y-17268688D01*
X2673813Y-17284319D01*
X2657205Y-17295554D01*
X2651099Y-17296775D01*
X2639375Y-17298729D01*
X2628628Y-17299951D01*
X2623743Y-17302149D01*
X2612508Y-17308743D01*
X2595655Y-17319490D01*
X2579291Y-17330969D01*
X2570254Y-17338053D01*
X2551448Y-17350753D01*
X2529221Y-17362477D01*
X2496981Y-17377864D01*
X2470115Y-17390076D01*
X2446667Y-17400334D01*
X2423220Y-17407662D01*
X2400750Y-17412302D01*
X2384141Y-17415966D01*
X2354344Y-17415966D01*
X2328942Y-17415966D01*
X2313799Y-17412302D01*
X2295969Y-17407662D01*
X2285223Y-17404242D01*
X2275453Y-17400823D01*
X2263485Y-17396427D01*
X2257135Y-17386657D01*
X2245167Y-17385436D01*
X2231978Y-17375910D01*
X2217323Y-17362965D01*
X2201936Y-17351974D01*
X2195097Y-17345380D01*
X2182641Y-17330237D01*
X2171161Y-17313384D01*
X2161147Y-17301172D01*
X2158949Y-17288960D01*
X2158189Y-17287983D01*
X2262264Y-17287983D01*
X2272278Y-17283831D01*
X2294260Y-17283098D01*
X2315753Y-17281632D01*
X2328942Y-17280411D01*
X2334071Y-17278457D01*
X2345795Y-17274305D01*
X2358984Y-17268932D01*
X2368510Y-17264535D01*
X2379989Y-17259162D01*
X2398063Y-17251591D01*
X2416381Y-17243286D01*
X2429082Y-17236692D01*
X2448866Y-17225457D01*
X2466695Y-17214954D01*
X2482327Y-17203230D01*
X2498447Y-17187843D01*
X2505107Y-17183846D01*
X2486723Y-17185889D01*
X2458147Y-17182470D01*
X2440073Y-17179050D01*
X2418579Y-17175631D01*
X2418579Y-17163419D01*
X2418579Y-17150230D01*
X2435432Y-17144612D01*
X2447644Y-17139239D01*
X2463520Y-17136796D01*
X2490387Y-17134598D01*
X2517498Y-17134598D01*
X2531175Y-17137285D01*
X2539968Y-17130202D01*
X2550226Y-17127271D01*
X2555111Y-17120676D01*
X2557317Y-17121166D01*
X2557554Y-17117745D01*
X2546807Y-17110174D01*
X2544364Y-17105289D01*
X2543143Y-17103091D01*
X2538503Y-17103335D01*
X2534839Y-17089169D01*
X2531420Y-17078911D01*
X2531420Y-17070851D01*
X2531420Y-17055219D01*
X2539724Y-17046915D01*
X2549005Y-17042030D01*
X2552424Y-17041786D01*
X2548272Y-17038122D01*
X2540701Y-17033237D01*
X2534351Y-17031772D01*
X2522383Y-17029085D01*
X2497226Y-17029085D01*
X2471092Y-17029085D01*
X2457170Y-17031772D01*
X2444469Y-17033482D01*
X2433722Y-17040565D01*
X2414183Y-17050090D01*
X2397086Y-17058639D01*
X2387805Y-17065722D01*
X2370464Y-17075980D01*
X2355809Y-17086482D01*
X2341399Y-17101137D01*
X2326256Y-17115547D01*
X2314288Y-17131667D01*
X2301587Y-17144856D01*
X2298656Y-17155359D01*
X2289375Y-17173677D01*
X2280826Y-17192240D01*
X2276919Y-17206650D01*
X2267882Y-17217885D01*
X2265683Y-17224724D01*
X2265683Y-17238890D01*
X2265683Y-17259406D01*
X2265683Y-17278946D01*
X2262264Y-17287983D01*
X2158189Y-17287983D01*
X2148691Y-17275771D01*
X2138921Y-17266245D01*
X2126953Y-17254766D01*
X2106193Y-17251102D01*
X2106193Y-17239134D01*
X2106193Y-17225701D01*
X2124755Y-17219351D01*
X2136723Y-17218374D01*
X2131594Y-17218129D01*
X2131594Y-17215687D01*
X2130373Y-17205673D01*
X2130861Y-17203475D01*
X1987735Y-17190530D01*
X1983583Y-17181737D01*
X1983583Y-17175875D01*
X1992864Y-17166350D01*
X2003611Y-17162686D01*
X2015579Y-17159267D01*
X2039515Y-17155359D01*
X2076639Y-17151695D01*
X2114253Y-17150230D01*
X2133060Y-17152428D01*
X2136967Y-17133866D01*
X2143318Y-17110662D01*
X2149912Y-17098450D01*
X2158949Y-17080865D01*
X2168230Y-17061325D01*
X2176046Y-17048381D01*
X2184106Y-17035436D01*
X2192899Y-17022979D01*
X2205844Y-17009302D01*
X2227093Y-16989274D01*
X2248831Y-16968757D01*
X2265683Y-16958743D01*
X2271057Y-16947264D01*
X2286933Y-16938715D01*
X2298900Y-16932121D01*
X2316730Y-16923084D01*
X2334071Y-16913803D01*
X2348237Y-16905743D01*
X2360450Y-16902812D01*
X2371441Y-16900125D01*
X2428838Y-16900125D01*
X2479396Y-16900125D01*
X2487944Y-16901591D01*
G37*
G36*
X2733408Y-17373468D02*
G01*
X2782684Y-17387329D01*
X2818649Y-17414256D01*
X2843662Y-17457971D01*
X2852110Y-17499986D01*
X2852100Y-17550328D01*
X2844633Y-17599736D01*
X2842096Y-17610628D01*
X2828087Y-17658416D01*
X2809080Y-17706527D01*
X2798621Y-17728841D01*
X2775128Y-17772381D01*
X2746266Y-17816526D01*
X2729256Y-17838995D01*
X2695340Y-17877376D01*
X2658683Y-17910758D01*
X2640840Y-17924480D01*
X2597497Y-17950252D01*
X2548775Y-17966763D01*
X2538747Y-17968688D01*
X2535816Y-17966978D01*
X2512857Y-17966978D01*
X2529221Y-17953056D01*
X2533618Y-17947438D01*
X2535816Y-17944752D01*
X2523360Y-17941821D01*
X2504064Y-17934982D01*
X2494539Y-17922770D01*
X2485502Y-17912267D01*
X2481594Y-17901521D01*
X2470115Y-17889553D01*
X2470847Y-17879783D01*
X2471580Y-17873921D01*
X2473046Y-17862930D01*
X2473046Y-17859755D01*
X2476709Y-17849497D01*
X2474267Y-17843147D01*
X2480373Y-17834598D01*
X2481350Y-17826050D01*
X2497470Y-17829469D01*
X2507484Y-17825561D01*
X2516521Y-17824096D01*
X2534351Y-17818234D01*
X2558042Y-17832400D01*
X2578803Y-17829958D01*
X2595411Y-17819699D01*
X2602739Y-17808709D01*
X2619591Y-17791123D01*
X2654274Y-17764501D01*
X2687491Y-17741053D01*
X2704832Y-17733237D01*
X2709294Y-17731530D01*
X2701901Y-17729574D01*
X2691643Y-17728353D01*
X2656960Y-17722735D01*
X2609089Y-17713698D01*
X2561461Y-17704661D01*
X2533374Y-17700753D01*
X2509193Y-17736168D01*
X2487212Y-17775491D01*
X2482815Y-17792344D01*
X2473290Y-17825073D01*
X2461566Y-17859267D01*
X2447889Y-17881004D01*
X2441294Y-17889553D01*
X2432257Y-17904452D01*
X2424197Y-17918374D01*
X2420533Y-17927899D01*
X2400994Y-17951346D01*
X2383897Y-17972107D01*
X2377302Y-17979923D01*
X2365334Y-17993600D01*
X2353611Y-18006545D01*
X2346772Y-18015582D01*
X2336270Y-18025108D01*
X2322836Y-18037076D01*
X2311113Y-18047334D01*
X2306960Y-18056859D01*
X2282536Y-18071514D01*
X2256402Y-18090321D01*
X2245900Y-18091542D01*
X2235642Y-18093007D01*
X2226360Y-18089588D01*
X2217812Y-18087390D01*
X2207798Y-18086168D01*
X2197540Y-18084703D01*
X2186304Y-18079574D01*
X2175802Y-18072979D01*
X2166277Y-18060767D01*
X2156751Y-18053928D01*
X2138921Y-18031458D01*
X2122557Y-18010697D01*
X2115474Y-17993112D01*
X2111566Y-17977969D01*
X2106193Y-17961849D01*
X2102041Y-17948171D01*
X2095935Y-17919839D01*
X2095238Y-17912331D01*
X2218595Y-17912331D01*
X2227826Y-17904452D01*
X2233443Y-17898834D01*
X2237595Y-17892972D01*
X2253471Y-17876608D01*
X2266172Y-17863419D01*
X2275209Y-17850963D01*
X2291573Y-17829713D01*
X2308670Y-17807732D01*
X2324057Y-17796741D01*
X2323813Y-17788192D01*
X2332850Y-17775491D01*
X2342376Y-17761325D01*
X2348237Y-17750579D01*
X2364357Y-17730795D01*
X2373150Y-17716629D01*
X2384630Y-17693670D01*
X2398004Y-17669979D01*
X2530443Y-17669979D01*
X2536549Y-17668757D01*
X2544364Y-17670956D01*
X2589794Y-17674863D01*
X2638333Y-17681515D01*
X2645237Y-17682435D01*
X2666428Y-17685860D01*
X2650366Y-17672177D01*
X2682606Y-17669979D01*
X2694574Y-17667780D01*
X2705076Y-17670467D01*
X2710450Y-17670711D01*
X2719731Y-17678039D01*
X2729012Y-17662407D01*
X2734630Y-17627480D01*
X2731454Y-17587669D01*
X2718265Y-17557627D01*
X2688956Y-17545903D01*
X2671859Y-17541507D01*
X2657205Y-17538820D01*
X2645237Y-17541507D01*
X2629117Y-17548101D01*
X2612997Y-17561046D01*
X2602983Y-17576678D01*
X2596388Y-17584494D01*
X2585397Y-17598904D01*
X2572452Y-17615512D01*
X2564148Y-17625038D01*
X2548761Y-17648974D01*
X2530443Y-17669979D01*
X2398004Y-17669979D01*
X2401727Y-17663384D01*
X2419556Y-17632365D01*
X2431083Y-17621023D01*
X2423464Y-17617711D01*
X2425174Y-17616001D01*
X2411252Y-17622107D01*
X2397575Y-17626015D01*
X2385362Y-17633831D01*
X2367288Y-17646287D01*
X2349947Y-17659476D01*
X2336270Y-17671688D01*
X2324302Y-17678283D01*
X2313799Y-17687076D01*
X2301099Y-17706615D01*
X2284490Y-17726643D01*
X2274232Y-17741786D01*
X2264706Y-17759860D01*
X2258112Y-17771095D01*
X2253471Y-17785750D01*
X2241748Y-17807976D01*
X2238084Y-17821165D01*
X2235642Y-17831179D01*
X2231245Y-17849009D01*
X2227337Y-17868060D01*
X2225383Y-17880760D01*
X2223674Y-17891263D01*
X2220743Y-17905429D01*
X2218595Y-17912331D01*
X2095238Y-17912331D01*
X2093736Y-17896147D01*
X2093736Y-17881493D01*
X2093736Y-17859023D01*
X2093736Y-17836064D01*
X2097156Y-17824829D01*
X1918859Y-17818234D01*
X1918859Y-17797473D01*
X1934002Y-17796741D01*
X1948168Y-17796008D01*
X1964532Y-17797962D01*
X1971615Y-17804556D01*
X1996284Y-17797229D01*
X2038782Y-17791612D01*
X2082013Y-17787459D01*
X2102294Y-17788360D01*
X2103018Y-17782330D01*
X2103750Y-17780132D01*
X2108635Y-17778667D01*
X2103995Y-17777445D01*
X2104239Y-17777934D01*
X2082257Y-17764501D01*
X2063450Y-17749113D01*
X2073464Y-17741297D01*
X2081280Y-17743740D01*
X2098377Y-17738611D01*
X2117672Y-17741053D01*
X2118405Y-17728353D01*
X2126953Y-17706371D01*
X2135013Y-17685122D01*
X2139166Y-17670467D01*
X2146493Y-17655812D01*
X2157972Y-17637494D01*
X2170429Y-17619665D01*
X2178733Y-17611605D01*
X2181664Y-17602568D01*
X2191678Y-17588890D01*
X2201692Y-17575457D01*
X2209019Y-17566664D01*
X2216346Y-17557627D01*
X2229535Y-17544926D01*
X2246144Y-17532958D01*
X2259089Y-17523189D01*
X2260043Y-17522456D01*
X2440317Y-17522456D01*
X2442271Y-17522456D01*
X2442340Y-17522136D01*
X2440317Y-17522456D01*
X2260043Y-17522456D01*
X2275942Y-17510244D01*
X2294016Y-17501695D01*
X2304030Y-17491926D01*
X2324057Y-17486796D01*
X2339445Y-17482889D01*
X2355809Y-17477027D01*
X2370464Y-17475561D01*
X2383897Y-17474096D01*
X2397819Y-17477271D01*
X2408077Y-17479958D01*
X2414427Y-17481179D01*
X2434699Y-17484110D01*
X2446667Y-17487285D01*
X2451980Y-17496995D01*
X2456193Y-17488750D01*
X2470603Y-17464815D01*
X2485746Y-17456755D01*
X2492096Y-17442100D01*
X2508949Y-17428422D01*
X2518230Y-17420851D01*
X2530198Y-17415478D01*
X2539235Y-17410837D01*
X2551203Y-17404731D01*
X2572452Y-17398625D01*
X2591503Y-17394717D01*
X2642303Y-17380363D01*
X2691406Y-17372673D01*
X2733408Y-17373468D01*
G37*
G36*
X2098621Y-18251521D02*
G01*
X2106193Y-18239553D01*
X2114741Y-18224898D01*
X2126221Y-18212198D01*
X2139898Y-18199986D01*
X2153576Y-18192414D01*
X2167986Y-18185819D01*
X2181908Y-18179469D01*
X2201936Y-18171165D01*
X2220010Y-18163349D01*
X2232711Y-18157487D01*
X2244923Y-18155289D01*
X2264218Y-18150404D01*
X2285223Y-18144542D01*
X2301099Y-18139902D01*
X2314776Y-18139169D01*
X2334071Y-18136238D01*
X2352878Y-18132819D01*
X2364846Y-18129399D01*
X2386584Y-18128667D01*
X2410764Y-18128178D01*
X2422732Y-18128178D01*
X2442515Y-18128178D01*
X2462055Y-18128178D01*
X2472069Y-18128178D01*
X2490875Y-18124759D01*
X2505774Y-18126224D01*
X2504553Y-18125003D01*
X2505774Y-18121339D01*
X2505041Y-18116454D01*
X2503820Y-18105464D01*
X2502355Y-18092519D01*
X2501622Y-18084214D01*
X2502355Y-18075177D01*
X2503087Y-18063210D01*
X2503820Y-18056859D01*
X2504553Y-18053440D01*
X2504553Y-18046357D01*
X2513590Y-18034389D01*
X2527512Y-18026085D01*
X2533374Y-18026085D01*
X2534839Y-18026085D01*
X2549249Y-18029993D01*
X2562438Y-18035122D01*
X2571964Y-18041472D01*
X2577581Y-18046601D01*
X2589794Y-18058325D01*
X2607868Y-18078353D01*
X2624232Y-18099113D01*
X2634002Y-18112791D01*
X2641817Y-18124759D01*
X2644016Y-18137704D01*
X2663555Y-18138436D01*
X2696039Y-18146496D01*
X2728035Y-18153824D01*
X2748063Y-18159685D01*
X2759542Y-18161395D01*
X2774441Y-18164082D01*
X2792515Y-18168722D01*
X2819626Y-18183866D01*
X2843318Y-18201451D01*
X2856507Y-18216350D01*
X2868475Y-18235157D01*
X2877023Y-18250788D01*
X2883862Y-18272037D01*
X2882641Y-18275945D01*
X2882641Y-18283517D01*
X2881175Y-18294752D01*
X2876779Y-18301102D01*
X2875558Y-18309406D01*
X2844539Y-18307208D01*
X2824511Y-18305010D01*
X2797644Y-18301102D01*
X2777128Y-18298904D01*
X2764427Y-18288890D01*
X2758077Y-18284494D01*
X2735118Y-18284494D01*
X2702145Y-18283028D01*
X2670394Y-18280097D01*
X2656228Y-18275945D01*
X2658182Y-18283272D01*
X2664288Y-18312337D01*
X2675034Y-18356789D01*
X2684804Y-18401242D01*
X2691643Y-18429574D01*
X2694574Y-18443496D01*
X2698970Y-18460593D01*
X2703367Y-18483307D01*
X2703367Y-18496252D01*
X2703367Y-18514570D01*
X2700436Y-18524829D01*
X2700680Y-18542170D01*
X2691399Y-18546810D01*
X2679187Y-18555603D01*
X2677233Y-18551695D01*
X2673080Y-18551695D01*
X2666730Y-18550963D01*
X2664532Y-18550230D01*
X2657205Y-18550230D01*
X2649145Y-18545101D01*
X2643771Y-18541926D01*
X2637177Y-18537285D01*
X2628628Y-18528981D01*
X2620812Y-18522142D01*
X2612264Y-18514082D01*
X2602983Y-18508220D01*
X2594434Y-18490635D01*
X2589061Y-18474026D01*
X2583443Y-18461814D01*
X2582711Y-18448625D01*
X2479152Y-18443496D01*
X2507972Y-18421514D01*
X2570010Y-18415163D01*
X2572941Y-18411988D01*
X2572208Y-18414675D01*
X2545830Y-18416140D01*
X2518475Y-18417362D01*
X2502355Y-18417362D01*
X2478419Y-18417362D01*
X2455216Y-18417362D01*
X2441782Y-18417362D01*
X2436165Y-18417362D01*
X2428593Y-18417362D01*
X2403681Y-18413698D01*
X2422487Y-18392937D01*
X2568789Y-18376329D01*
X2541189Y-18269839D01*
X2540457Y-18271304D01*
X2533374Y-18270572D01*
X2527756Y-18269839D01*
X2512857Y-18269839D01*
X2501133Y-18269839D01*
X2482815Y-18269839D01*
X2468405Y-18269839D01*
X2457170Y-18271304D01*
X2437386Y-18272770D01*
X2415160Y-18274235D01*
X2399773Y-18275701D01*
X2386095Y-18278632D01*
X2369731Y-18282784D01*
X2347993Y-18288890D01*
X2327965Y-18294996D01*
X2316242Y-18298171D01*
X2306228Y-18300858D01*
X2287421Y-18307941D01*
X2267149Y-18315757D01*
X2253960Y-18321863D01*
X2251273Y-18323572D01*
X2249319Y-18323572D01*
X2245900Y-18338715D01*
X2242480Y-18356301D01*
X2233199Y-18363384D01*
X2223429Y-18367780D01*
X2217568Y-18366315D01*
X2207798Y-18366315D01*
X2202913Y-18365582D01*
X2200715Y-18364849D01*
X2192166Y-18364849D01*
X2176779Y-18354591D01*
X2156263Y-18343845D01*
X2150157Y-18333098D01*
X2142096Y-18326748D01*
X2022662Y-18316489D01*
X2025837Y-18291577D01*
X2042201Y-18287180D01*
X2052459Y-18285226D01*
X2061008Y-18284494D01*
X2073220Y-18284494D01*
X2089096Y-18284494D01*
X2104483Y-18283761D01*
X2113032Y-18289867D01*
X1812857Y-18259337D01*
X2098621Y-18251521D01*
G37*
G36*
X2191922Y-18419560D02*
G01*
X2209019Y-18427131D01*
X2221720Y-18434947D01*
X2293527Y-18434947D01*
X2365823Y-18434947D01*
X2389026Y-18431528D01*
X2431524Y-18426643D01*
X2477442Y-18421758D01*
X2513101Y-18418583D01*
X2538503Y-18415163D01*
X2584176Y-18408080D01*
X2632947Y-18402143D01*
X2634490Y-18401974D01*
X2669661Y-18398311D01*
X2692376Y-18392449D01*
X2721685Y-18387564D01*
X2748063Y-18383656D01*
X2763206Y-18381458D01*
X2767114Y-18380725D01*
X2775907Y-18375596D01*
X2791294Y-18367536D01*
X2801064Y-18367536D01*
X2806926Y-18367536D01*
X2819870Y-18370223D01*
X2832083Y-18372909D01*
X2852843Y-18382435D01*
X2866277Y-18389274D01*
X2887037Y-18408325D01*
X2905844Y-18427864D01*
X2914392Y-18443251D01*
X2923185Y-18460837D01*
X2923185Y-18469874D01*
X2923185Y-18482575D01*
X2911950Y-18494054D01*
X2902669Y-18495031D01*
X2888991Y-18504312D01*
X2863346Y-18508220D01*
X2842585Y-18511884D01*
X2814497Y-18516769D01*
X2787386Y-18521653D01*
X2770778Y-18525073D01*
X2736584Y-18529469D01*
X2687979Y-18535819D01*
X2640596Y-18542658D01*
X2611531Y-18546322D01*
X2584176Y-18549741D01*
X2544853Y-18554626D01*
X2506263Y-18559511D01*
X2482083Y-18563175D01*
X2457903Y-18564396D01*
X2427861Y-18565861D01*
X2400017Y-18568060D01*
X2382431Y-18570258D01*
X2280826Y-18570258D01*
X2183618Y-18570258D01*
X2165055Y-18561709D01*
X2149180Y-18550474D01*
X2132083Y-18538750D01*
X2119870Y-18529469D01*
X2103506Y-18527759D01*
X2075907Y-18526294D01*
X2048551Y-18524829D01*
X2027547Y-18523607D01*
X2013381Y-18517745D01*
X1966857Y-18498831D01*
X1964532Y-18497718D01*
X1999947Y-18498695D01*
X2003855Y-18494054D01*
X2012892Y-18490146D01*
X2030478Y-18488681D01*
X2056367Y-18485750D01*
X2082745Y-18482819D01*
X2100331Y-18489413D01*
X1878558Y-18497229D01*
X1840945Y-18484528D01*
X1849249Y-18475247D01*
X1865369Y-18473049D01*
X1881734Y-18470851D01*
X1891992Y-18469385D01*
X1916660Y-18465722D01*
X1962090Y-18463524D01*
X2006786Y-18463524D01*
X2031210Y-18463524D01*
X2046598Y-18460593D01*
X2068579Y-18457906D01*
X2088607Y-18456441D01*
X2097644Y-18455952D01*
X2106437Y-18449602D01*
X2114009Y-18444473D01*
X2120115Y-18446427D01*
X2126221Y-18438367D01*
X2136967Y-18441542D01*
X2139166Y-18428353D01*
X2154064Y-18419560D01*
X2170917Y-18419560D01*
X2191922Y-18419560D01*
G37*
G36*
X1710519Y-18905847D02*
G01*
X1727128Y-18911709D01*
X1735432Y-18917571D01*
X1733234Y-18916838D01*
X1741538Y-18919036D01*
X1745690Y-18920502D01*
X1752041Y-18921967D01*
X1755949Y-18923433D01*
X1756193Y-18923433D01*
X1767428Y-18920502D01*
X1799912Y-18920502D01*
X1846807Y-18918304D01*
X1894434Y-18913663D01*
X1927163Y-18912930D01*
X1938154Y-18911953D01*
X1958670Y-18911221D01*
X1979675Y-18910244D01*
X1991154Y-18909511D01*
X2032920Y-18901939D01*
X2081887Y-18898341D01*
X2102285Y-18898032D01*
X2153030Y-18898032D01*
X2171650Y-18898032D01*
X2212683Y-18898032D01*
X2214637Y-18901695D01*
X2205111Y-18894368D01*
X2191922Y-18874829D01*
X2178977Y-18856022D01*
X2168963Y-18844298D01*
X2165788Y-18835261D01*
X2159193Y-18816699D01*
X2152599Y-18799113D01*
X2148203Y-18789832D01*
X2146249Y-18778353D01*
X2135258Y-18777864D01*
X2125244Y-18774689D01*
X2120115Y-18761988D01*
X2127442Y-18759790D01*
X2120603Y-18761744D01*
X2116695Y-18759546D01*
X2093004Y-18750020D01*
X2055146Y-18741472D01*
X2016311Y-18732923D01*
X1990422Y-18727062D01*
X1951831Y-18713384D01*
X1929849Y-18704347D01*
X1913729Y-18695310D01*
X1901762Y-18692135D01*
X1878314Y-18669176D01*
X2161880Y-18719490D01*
X2161636Y-18710453D01*
X2169207Y-18703126D01*
X2181908Y-18691402D01*
X2199738Y-18676503D01*
X2218056Y-18663070D01*
X2231734Y-18654277D01*
X2249319Y-18647438D01*
X2275942Y-18632051D01*
X2292062Y-18632295D01*
X2306716Y-18624968D01*
X2329431Y-18622037D01*
X2350924Y-18619106D01*
X2367044Y-18614954D01*
X2394888Y-18609092D01*
X2422976Y-18603719D01*
X2442515Y-18601521D01*
X2452041Y-18600055D01*
X2468649Y-18597369D01*
X2485746Y-18594193D01*
X2498447Y-18592728D01*
X2512124Y-18591018D01*
X2519940Y-18596392D01*
X2532885Y-18586133D01*
X2549005Y-18579783D01*
X2570010Y-18582470D01*
X2589061Y-18585401D01*
X2598586Y-18585401D01*
X2612264Y-18586866D01*
X2634979Y-18588576D01*
X2641817Y-18601765D01*
X2654518Y-18611046D01*
X2669661Y-18625945D01*
X2683827Y-18641821D01*
X2690910Y-18657208D01*
X2689200Y-18672351D01*
X2697505Y-18680900D01*
X2702634Y-18697020D01*
X2696039Y-18707766D01*
X2688712Y-18714849D01*
X2677721Y-18723398D01*
X2664288Y-18724619D01*
X2652564Y-18726085D01*
X2636200Y-18726085D01*
X2611531Y-18726085D01*
X2588328Y-18726085D01*
X2576360Y-18726085D01*
X2565125Y-18727794D01*
X2546074Y-18730237D01*
X2527512Y-18731702D01*
X2518475Y-18731214D01*
X2505286Y-18735610D01*
X2487212Y-18738053D01*
X2471580Y-18740251D01*
X2462055Y-18741960D01*
X2451552Y-18744159D01*
X2432990Y-18748799D01*
X2414183Y-18753684D01*
X2403681Y-18756127D01*
X2387316Y-18760279D01*
X2365579Y-18767606D01*
X2344574Y-18773956D01*
X2331629Y-18777620D01*
X2322103Y-18785680D01*
X2313799Y-18793251D01*
X2307205Y-18800579D01*
X2296458Y-18808883D01*
X2286200Y-18809860D01*
X2289375Y-18809860D01*
X2289375Y-18812791D01*
X2290840Y-18818164D01*
X2285956Y-18825003D01*
X2294748Y-18821095D01*
X2312578Y-18827445D01*
X2332117Y-18835261D01*
X2351168Y-18845519D01*
X2367533Y-18851870D01*
X2387316Y-18857732D01*
X2395865Y-18860907D01*
X2409787Y-18866036D01*
X2422487Y-18871165D01*
X2429570Y-18873119D01*
X2446912Y-18878248D01*
X2467916Y-18885087D01*
X2486723Y-18890949D01*
X2495027Y-18893147D01*
X2510415Y-18898276D01*
X2522138Y-18901451D01*
X2533129Y-18905115D01*
X2560240Y-18908046D01*
X2580512Y-18911221D01*
X2615928Y-18911221D01*
X2665204Y-18911221D01*
X2682850Y-18911221D01*
X2733546Y-18911221D01*
X2749040Y-18911221D01*
X2784211Y-18911221D01*
X2794225Y-18912442D01*
X2818161Y-18916594D01*
X2845516Y-18922700D01*
X2866765Y-18928806D01*
X2880198Y-18930027D01*
X2904378Y-18933203D01*
X2929047Y-18937110D01*
X2952250Y-18939309D01*
X2958356Y-18949567D01*
X2976186Y-18954940D01*
X2982780Y-18967885D01*
X2992062Y-18981318D01*
X3002808Y-18994752D01*
X3005006Y-19004766D01*
X3014776Y-19017466D01*
X3019905Y-19037006D01*
X3019905Y-19047020D01*
X3014532Y-19051905D01*
X3015753Y-19048974D01*
X3006960Y-19063140D01*
X2991817Y-19071444D01*
X2975453Y-19069979D01*
X2961287Y-19069979D01*
X2950052Y-19069979D01*
X2936618Y-19069979D01*
X2920498Y-19069979D01*
X2899249Y-19069979D01*
X2863346Y-19067780D01*
X2814115Y-19063659D01*
X2794713Y-19061919D01*
X2745339Y-19057514D01*
X2709473Y-19054103D01*
X2660615Y-19049586D01*
X2624965Y-19046287D01*
X2575754Y-19042163D01*
X2556821Y-19040669D01*
X2522871Y-19038715D01*
X2502599Y-19038715D01*
X2467184Y-19036762D01*
X2429082Y-19034808D01*
X2398307Y-19036029D01*
X2372906Y-19034808D01*
X2330163Y-19034808D01*
X2284246Y-19034808D01*
X2252494Y-19030655D01*
X2237840Y-19035052D01*
X2211706Y-19038715D01*
X2186549Y-19038715D01*
X2170184Y-19038715D01*
X2138433Y-19038715D01*
X2088499Y-19038715D01*
X2082990Y-19038715D01*
X2033194Y-19038715D01*
X2028524Y-19038715D01*
X1998970Y-19040181D01*
X1980652Y-19043112D01*
X1951343Y-19047264D01*
X1922522Y-19051905D01*
X1903715Y-19054347D01*
X1883688Y-19054347D01*
X1849738Y-19056301D01*
X1816032Y-19061186D01*
X1795272Y-19064117D01*
X1782571Y-19061919D01*
X1768893Y-19059720D01*
X1756926Y-19056301D01*
X1748621Y-19054347D01*
X1730547Y-19048974D01*
X1712962Y-19037739D01*
X1705879Y-19029434D01*
X1696353Y-19015757D01*
X1687561Y-19002568D01*
X1680233Y-18993775D01*
X1676081Y-18979364D01*
X1671685Y-18965198D01*
X1671685Y-18956406D01*
X1672418Y-18948834D01*
X1673150Y-18944438D01*
X1675348Y-18930027D01*
X1677302Y-18917083D01*
X1689026Y-18905847D01*
X1710519Y-18905847D01*
G37*
G36*
X2070045Y-19408255D02*
G01*
X2072976Y-19387983D01*
X2082501Y-19361849D01*
X2093981Y-19339134D01*
X2104972Y-19316664D01*
X2113520Y-19303719D01*
X2126953Y-19283447D01*
X2141120Y-19262442D01*
X2150645Y-19248520D01*
X2157484Y-19238995D01*
X2167742Y-19227027D01*
X2177023Y-19215792D01*
X2183374Y-19208953D01*
X2298168Y-19096113D01*
X2310136Y-19087320D01*
X2318928Y-19081214D01*
X2326256Y-19074863D01*
X2340422Y-19066315D01*
X2352145Y-19058011D01*
X2367533Y-19049706D01*
X2379745Y-19047264D01*
X2391957Y-19041402D01*
X2410275Y-19038715D01*
X2423953Y-19035785D01*
X2451796Y-19035785D01*
X2477198Y-19035785D01*
X2494295Y-19038471D01*
X2511392Y-19041402D01*
X2530687Y-19050439D01*
X2554867Y-19062651D01*
X2576605Y-19073886D01*
X2591992Y-19081214D01*
X2603960Y-19094647D01*
X2625942Y-19116140D01*
X2650122Y-19139588D01*
X2667951Y-19158150D01*
X2677233Y-19170607D01*
X2686758Y-19185505D01*
X2696284Y-19208464D01*
X2707519Y-19230935D01*
X2716311Y-19255115D01*
X2725104Y-19278806D01*
X2725104Y-19295903D01*
X2725837Y-19320572D01*
X2726814Y-19345973D01*
X2722173Y-19357941D01*
X2739026Y-19352812D01*
X2759054Y-19354521D01*
X2777128Y-19361849D01*
X2794713Y-19372351D01*
X2814497Y-19391402D01*
X2835746Y-19411919D01*
X2851866Y-19443426D01*
X2851866Y-19454905D01*
X2851866Y-19464919D01*
X2846737Y-19473712D01*
X2840387Y-19481772D01*
X2834769Y-19488611D01*
X2826953Y-19492763D01*
X2817672Y-19496671D01*
X2809612Y-19498869D01*
X2797156Y-19505952D01*
X2785676Y-19513035D01*
X2764916Y-19532575D01*
X2731454Y-19565792D01*
X2696039Y-19599986D01*
X2669661Y-19619281D01*
X2667219Y-19630760D01*
X2652564Y-19648346D01*
X2638154Y-19665443D01*
X2629605Y-19676678D01*
X2618126Y-19688157D01*
X2601762Y-19703789D01*
X2585886Y-19718443D01*
X2574406Y-19728946D01*
X2564392Y-19734563D01*
X2550715Y-19738715D01*
X2541678Y-19734075D01*
X2535816Y-19731144D01*
X2531908Y-19730167D01*
X2523848Y-19728213D01*
X2519207Y-19725526D01*
X2510415Y-19721863D01*
X2501622Y-19712337D01*
X2490631Y-19700614D01*
X2478907Y-19689623D01*
X2470847Y-19682295D01*
X2462787Y-19666175D01*
X2455216Y-19648101D01*
X2455216Y-19635645D01*
X2455216Y-19621235D01*
X2463764Y-19608778D01*
X2475976Y-19593391D01*
X2487700Y-19578004D01*
X2494783Y-19567501D01*
X2512857Y-19542344D01*
X2526535Y-19522805D01*
X2536549Y-19502777D01*
X2546563Y-19478353D01*
X2554867Y-19456127D01*
X2562927Y-19435122D01*
X2562927Y-19432435D01*
X2486235Y-19432435D01*
X2486235Y-19403126D01*
X2570010Y-19403126D01*
X2570254Y-19404103D01*
X2555355Y-19398485D01*
X2535327Y-19391158D01*
X2521406Y-19377236D01*
X2539724Y-19365512D01*
X2549494Y-19359651D01*
X2573429Y-19355987D01*
X2589061Y-19352568D01*
X2591259Y-19336936D01*
X2593946Y-19316908D01*
X2593946Y-19271967D01*
X2593946Y-19234110D01*
X2590282Y-19226294D01*
X2583199Y-19211884D01*
X2576360Y-19196008D01*
X2570254Y-19182819D01*
X2565125Y-19177690D01*
X2558042Y-19173782D01*
X2552913Y-19170607D01*
X2513590Y-19170607D01*
X2478907Y-19170607D01*
X2470359Y-19176224D01*
X2461078Y-19181598D01*
X2453750Y-19185261D01*
X2440073Y-19192588D01*
X2430547Y-19200648D01*
X2420289Y-19208220D01*
X2407344Y-19219944D01*
X2393422Y-19232156D01*
X2382431Y-19240460D01*
X2373150Y-19248032D01*
X2358251Y-19263663D01*
X2341399Y-19280272D01*
X2328942Y-19291263D01*
X2321615Y-19299811D01*
X2308182Y-19315198D01*
X2294748Y-19331318D01*
X2287421Y-19344019D01*
X2273743Y-19359406D01*
X2260554Y-19373572D01*
X2254448Y-19383098D01*
X2246144Y-19397508D01*
X2238084Y-19411919D01*
X2232222Y-19421444D01*
X2221964Y-19440739D01*
X2210973Y-19463942D01*
X2208042Y-19469804D01*
X2205600Y-19475910D01*
X2203157Y-19482993D01*
X2203157Y-19511081D01*
X2203157Y-19535750D01*
X2201692Y-19535261D01*
X2208286Y-19537215D01*
X2220254Y-19542588D01*
X2233932Y-19546496D01*
X2249563Y-19548450D01*
X2260310Y-19552114D01*
X2276430Y-19555289D01*
X2292794Y-19557243D01*
X2302808Y-19557976D01*
X2319661Y-19561395D01*
X2332606Y-19564815D01*
X2346284Y-19569211D01*
X2353122Y-19578004D01*
X2362892Y-19582400D01*
X2377547Y-19596322D01*
X2390980Y-19609267D01*
X2400994Y-19618792D01*
X2404902Y-19627585D01*
X2404413Y-19638576D01*
X2410031Y-19641995D01*
X2413450Y-19646880D01*
X2420289Y-19662512D01*
X2407833Y-19676434D01*
X2394644Y-19684494D01*
X2366556Y-19684494D01*
X2341154Y-19684494D01*
X2320150Y-19681807D01*
X2289863Y-19679120D01*
X2274965Y-19672770D01*
X2261775Y-19668129D01*
X2244190Y-19661779D01*
X2225628Y-19654452D01*
X2205844Y-19646392D01*
X2192899Y-19634424D01*
X2180443Y-19632226D01*
X2165788Y-19623189D01*
X2150157Y-19610244D01*
X2135258Y-19598764D01*
X2122313Y-19586552D01*
X2109612Y-19571409D01*
X2095690Y-19553824D01*
X2092759Y-19547229D01*
X2089096Y-19542100D01*
X2083478Y-19534040D01*
X2079082Y-19525491D01*
X2073953Y-19513279D01*
X2068824Y-19500823D01*
X2071022Y-19493251D01*
X2064427Y-19486413D01*
X2062718Y-19483237D01*
X2047086Y-19476643D01*
X2039515Y-19470048D01*
X2035362Y-19453928D01*
X2050505Y-19452219D01*
X2061008Y-19447090D01*
X2060764Y-19452219D01*
X2060764Y-19450020D01*
X2060031Y-19449043D01*
X2029012Y-19449043D01*
X1979562Y-19449043D01*
X1974057Y-19449043D01*
X1923861Y-19449043D01*
X1919103Y-19449043D01*
X1883688Y-19449043D01*
X1858286Y-19445136D01*
X1826779Y-19441228D01*
X1805774Y-19433168D01*
X1790631Y-19429504D01*
X1781350Y-19422909D01*
X1776465Y-19412407D01*
X2070045Y-19408255D01*
G37*
G36*
X2487944Y-19649811D02*
G01*
X2501622Y-19653475D01*
X2517009Y-19658115D01*
X2526779Y-19663000D01*
X2534595Y-19665931D01*
X2543143Y-19669595D01*
X2555844Y-19676922D01*
X2571964Y-19687669D01*
X2585886Y-19697927D01*
X2591748Y-19702323D01*
X2600052Y-19710383D01*
X2614218Y-19723817D01*
X2629361Y-19737983D01*
X2640108Y-19748729D01*
X2651831Y-19764361D01*
X2663555Y-19780237D01*
X2671371Y-19793182D01*
X2681629Y-19811744D01*
X2691154Y-19830307D01*
X2697749Y-19845205D01*
X2700436Y-19861081D01*
X2703367Y-19877445D01*
X2703367Y-19922630D01*
X2703367Y-19969281D01*
X2700436Y-19983203D01*
X2697749Y-19998346D01*
X2692131Y-20009581D01*
X2685048Y-20016908D01*
X2673813Y-20032540D01*
X2657205Y-20043775D01*
X2651099Y-20044996D01*
X2639375Y-20046950D01*
X2628628Y-20048171D01*
X2623743Y-20050369D01*
X2612508Y-20056964D01*
X2595655Y-20067711D01*
X2579291Y-20079190D01*
X2570254Y-20086273D01*
X2551448Y-20098974D01*
X2529221Y-20110697D01*
X2496981Y-20126085D01*
X2470115Y-20138297D01*
X2446667Y-20148555D01*
X2423220Y-20155882D01*
X2400750Y-20160523D01*
X2384141Y-20164187D01*
X2354344Y-20164187D01*
X2328942Y-20164187D01*
X2313799Y-20160523D01*
X2295969Y-20155882D01*
X2285223Y-20152463D01*
X2275453Y-20149043D01*
X2263485Y-20144647D01*
X2257135Y-20134877D01*
X2245167Y-20133656D01*
X2231978Y-20124131D01*
X2217323Y-20111186D01*
X2201936Y-20100195D01*
X2195097Y-20093600D01*
X2182641Y-20078457D01*
X2171161Y-20061605D01*
X2161147Y-20049392D01*
X2158949Y-20037180D01*
X2158189Y-20036203D01*
X2262264Y-20036203D01*
X2272278Y-20032051D01*
X2294260Y-20031318D01*
X2315753Y-20029853D01*
X2328942Y-20028632D01*
X2334071Y-20026678D01*
X2345795Y-20022526D01*
X2358984Y-20017152D01*
X2368510Y-20012756D01*
X2379989Y-20007383D01*
X2398063Y-19999811D01*
X2416381Y-19991507D01*
X2429082Y-19984912D01*
X2448866Y-19973677D01*
X2466695Y-19963175D01*
X2482327Y-19951451D01*
X2498447Y-19936064D01*
X2505107Y-19932067D01*
X2486723Y-19934110D01*
X2458147Y-19930690D01*
X2440073Y-19927271D01*
X2418579Y-19923852D01*
X2418579Y-19911639D01*
X2418579Y-19898450D01*
X2435432Y-19892833D01*
X2447644Y-19887459D01*
X2463520Y-19885017D01*
X2490387Y-19882819D01*
X2517498Y-19882819D01*
X2531175Y-19885505D01*
X2539968Y-19878422D01*
X2550226Y-19875491D01*
X2555111Y-19868897D01*
X2557317Y-19869387D01*
X2557554Y-19865966D01*
X2546807Y-19858394D01*
X2544364Y-19853510D01*
X2543143Y-19851311D01*
X2538503Y-19851556D01*
X2534839Y-19837390D01*
X2531420Y-19827131D01*
X2531420Y-19819071D01*
X2531420Y-19803440D01*
X2539724Y-19795136D01*
X2549005Y-19790251D01*
X2552424Y-19790006D01*
X2548272Y-19786343D01*
X2540701Y-19781458D01*
X2534351Y-19779993D01*
X2522383Y-19777306D01*
X2497226Y-19777306D01*
X2471092Y-19777306D01*
X2457170Y-19779993D01*
X2444469Y-19781702D01*
X2433722Y-19788785D01*
X2414183Y-19798311D01*
X2397086Y-19806859D01*
X2387805Y-19813942D01*
X2370464Y-19824200D01*
X2355809Y-19834703D01*
X2341399Y-19849357D01*
X2326256Y-19863768D01*
X2314288Y-19879888D01*
X2301587Y-19893077D01*
X2298656Y-19903579D01*
X2289375Y-19921898D01*
X2280826Y-19940460D01*
X2276919Y-19954870D01*
X2267882Y-19966106D01*
X2265683Y-19972944D01*
X2265683Y-19987110D01*
X2265683Y-20007627D01*
X2265683Y-20027166D01*
X2262264Y-20036203D01*
X2158189Y-20036203D01*
X2148691Y-20023991D01*
X2138921Y-20014466D01*
X2126953Y-20002986D01*
X2106193Y-19999323D01*
X2106193Y-19987355D01*
X2106193Y-19973921D01*
X2124755Y-19967571D01*
X2136723Y-19966594D01*
X2131594Y-19966350D01*
X2131594Y-19963907D01*
X2130373Y-19953893D01*
X2130861Y-19951695D01*
X1987735Y-19938750D01*
X1983583Y-19929958D01*
X1983583Y-19924096D01*
X1992864Y-19914570D01*
X2003611Y-19910907D01*
X2015579Y-19907487D01*
X2039515Y-19903579D01*
X2076639Y-19899916D01*
X2114253Y-19898450D01*
X2133060Y-19900648D01*
X2136967Y-19882086D01*
X2143318Y-19858883D01*
X2149912Y-19846671D01*
X2158949Y-19829085D01*
X2168230Y-19809546D01*
X2176046Y-19796601D01*
X2184106Y-19783656D01*
X2192899Y-19771200D01*
X2205844Y-19757522D01*
X2227093Y-19737494D01*
X2248831Y-19716978D01*
X2265683Y-19706964D01*
X2271057Y-19695484D01*
X2286933Y-19686936D01*
X2298900Y-19680341D01*
X2316730Y-19671304D01*
X2334071Y-19662023D01*
X2348237Y-19653963D01*
X2360450Y-19651032D01*
X2371441Y-19648346D01*
X2428838Y-19648346D01*
X2479396Y-19648346D01*
X2487944Y-19649811D01*
G37*
G36*
X2138189Y-20257487D02*
G01*
X2130129Y-20259441D01*
X2127930Y-20258709D01*
X2105704Y-20252602D01*
X2054759Y-20249430D01*
X2052459Y-20249427D01*
X2095202Y-20227201D01*
X2119626Y-20224515D01*
X2141608Y-20219141D01*
X2158217Y-20213279D01*
X2173360Y-20212302D01*
X2181420Y-20202288D01*
X2197051Y-20197892D01*
X2208531Y-20194717D01*
X2227826Y-20190809D01*
X2244923Y-20186901D01*
X2255914Y-20183237D01*
X2272522Y-20182016D01*
X2296702Y-20178841D01*
X2321615Y-20174933D01*
X2338956Y-20171758D01*
X2374616Y-20165408D01*
X2423719Y-20157383D01*
X2435921Y-20155394D01*
X2485055Y-20148125D01*
X2497958Y-20146357D01*
X2532885Y-20142449D01*
X2546074Y-20139274D01*
X2570010Y-20134633D01*
X2593702Y-20129993D01*
X2609822Y-20126329D01*
X2619347Y-20123642D01*
X2630582Y-20126085D01*
X2636688Y-20114117D01*
X2654518Y-20106545D01*
X2674057Y-20106545D01*
X2692376Y-20106545D01*
X2704832Y-20109232D01*
X2716311Y-20111919D01*
X2729501Y-20120467D01*
X2741713Y-20128039D01*
X2755390Y-20138785D01*
X2768091Y-20150997D01*
X2775907Y-20164187D01*
X2775662Y-20178108D01*
X2784211Y-20181528D01*
X2790561Y-20196427D01*
X2790561Y-20203265D01*
X2790561Y-20208883D01*
X2780547Y-20219874D01*
X2771999Y-20229155D01*
X2762473Y-20233551D01*
X2751727Y-20231109D01*
X2743667Y-20241856D01*
X2730233Y-20245519D01*
X2718510Y-20248695D01*
X2700924Y-20253824D01*
X2683339Y-20258953D01*
X2669661Y-20262861D01*
X2649633Y-20266524D01*
X2634734Y-20263593D01*
X2648412Y-20267990D01*
X2666242Y-20287041D01*
X2683583Y-20305603D01*
X2698726Y-20319281D01*
X2708007Y-20334912D01*
X2719487Y-20351765D01*
X2728524Y-20364710D01*
X2735607Y-20375212D01*
X2743911Y-20394996D01*
X2751727Y-20415512D01*
X2756612Y-20442379D01*
X2758077Y-20466315D01*
X2758077Y-20475840D01*
X2757344Y-20493182D01*
X2755146Y-20510034D01*
X2752459Y-20520537D01*
X2745865Y-20537390D01*
X2735607Y-20555464D01*
X2726081Y-20566943D01*
X2712892Y-20575491D01*
X2695062Y-20575491D01*
X2670150Y-20575491D01*
X2654518Y-20568897D01*
X2642550Y-20557418D01*
X2626430Y-20541297D01*
X2614706Y-20528353D01*
X2580268Y-20528353D01*
X2530493Y-20528353D01*
X2525069Y-20528353D01*
X2475038Y-20528353D01*
X2470115Y-20528353D01*
X2434211Y-20528353D01*
X2419556Y-20527620D01*
X2398307Y-20525177D01*
X2378035Y-20521025D01*
X2365334Y-20517850D01*
X2347749Y-20513942D01*
X2334071Y-20502463D01*
X2600540Y-20494647D01*
X2603227Y-20492205D01*
X2609089Y-20493914D01*
X2604204Y-20488541D01*
X2604204Y-20484633D01*
X2601029Y-20482191D01*
X2596632Y-20478283D01*
X2592236Y-20477062D01*
X2581489Y-20475352D01*
X2569033Y-20473154D01*
X2559508Y-20471688D01*
X2550471Y-20467292D01*
X2538747Y-20465826D01*
X2528000Y-20445066D01*
X2545097Y-20435052D01*
X2562683Y-20431388D01*
X2586863Y-20429923D01*
X2608600Y-20428702D01*
X2623499Y-20425771D01*
X2624965Y-20426259D01*
X2625209Y-20420886D01*
X2625209Y-20392798D01*
X2625209Y-20370572D01*
X2620812Y-20362267D01*
X2616172Y-20357871D01*
X2593702Y-20350055D01*
X2573918Y-20344438D01*
X2485013Y-20344438D01*
X2396109Y-20344438D01*
X2381699Y-20344438D01*
X2355321Y-20346147D01*
X2328454Y-20349811D01*
X2313066Y-20351521D01*
X2274965Y-20351521D01*
X2241259Y-20351521D01*
X2231734Y-20346880D01*
X2223918Y-20343705D01*
X2220010Y-20342484D01*
X2210973Y-20337599D01*
X2202424Y-20335401D01*
X2188747Y-20324654D01*
X2177512Y-20316594D01*
X2162124Y-20306092D01*
X2147714Y-20295101D01*
X2115963Y-20294124D01*
X2065890Y-20294124D01*
X2064183Y-20294124D01*
X2014795Y-20294124D01*
X2011671Y-20294124D01*
X1976744Y-20292170D01*
X1963066Y-20290216D01*
X1943771Y-20287529D01*
X1925697Y-20284842D01*
X1915439Y-20283133D01*
X1904204Y-20278248D01*
X1889794Y-20256755D01*
X1922522Y-20253091D01*
X1944993Y-20249672D01*
X2138189Y-20257487D01*
G37*
G36*
X2306960Y-20499776D02*
G01*
X2331385Y-20507348D01*
X2347993Y-20514919D01*
X2367044Y-20526154D01*
X2377058Y-20532260D01*
X2387561Y-20538122D01*
X2407588Y-20557662D01*
X2434455Y-20584528D01*
X2458391Y-20609930D01*
X2471824Y-20623852D01*
X2478175Y-20632644D01*
X2487456Y-20646322D01*
X2496737Y-20660244D01*
X2502843Y-20669281D01*
X2509193Y-20679050D01*
X2516521Y-20693949D01*
X2523604Y-20708115D01*
X2528733Y-20719839D01*
X2535816Y-20737180D01*
X2542655Y-20756964D01*
X2548028Y-20769665D01*
X2550471Y-20780900D01*
X2555111Y-20796043D01*
X2560729Y-20815826D01*
X2565125Y-20833412D01*
X2567323Y-20844159D01*
X2567323Y-20853928D01*
X2567323Y-20876643D01*
X2567323Y-20902044D01*
X2567323Y-20921828D01*
X2567323Y-20937948D01*
X2567323Y-20963349D01*
X2567323Y-20988750D01*
X2567323Y-21005115D01*
X2559263Y-21020258D01*
X2548272Y-21033203D01*
X2543876Y-21037599D01*
X2539480Y-21041751D01*
X2530931Y-21043949D01*
X2523604Y-21043217D01*
X2521406Y-21042484D01*
X2505774Y-21039064D01*
X2491852Y-21035645D01*
X2480861Y-21036866D01*
X2457414Y-21040286D01*
X2430547Y-21045170D01*
X2408077Y-21051032D01*
X2396109Y-21052986D01*
X2376570Y-21056894D01*
X2354832Y-21061290D01*
X2340177Y-21063489D01*
X2325523Y-21067397D01*
X2305739Y-21073014D01*
X2286688Y-21078143D01*
X2276919Y-21078632D01*
X2257868Y-21086936D01*
X2231734Y-21087913D01*
X2229780Y-21096217D01*
X2215125Y-21102079D01*
X2203157Y-21106720D01*
X2196318Y-21109895D01*
X2169696Y-21118199D01*
X2148447Y-21126503D01*
X2135258Y-21126503D01*
X2119382Y-21126503D01*
X2107414Y-21120886D01*
X2096423Y-21116489D01*
X2083478Y-21105498D01*
X2066381Y-21089378D01*
X2049284Y-21072526D01*
X2038782Y-21059092D01*
X2034385Y-21049811D01*
X2031210Y-21034668D01*
X2031210Y-21022212D01*
X2031210Y-21007313D01*
X2040491Y-20999497D01*
X2060275Y-20990460D01*
X2080303Y-20983133D01*
X2096179Y-20976294D01*
X2118161Y-20969211D01*
X2139410Y-20962861D01*
X2151378Y-20959930D01*
X2167254Y-20954068D01*
X2193387Y-20946741D01*
X2218789Y-20939902D01*
X2233688Y-20935505D01*
X2241259Y-20935750D01*
X2228314Y-20928667D01*
X2208775Y-20907906D01*
X2189480Y-20886413D01*
X2175558Y-20869071D01*
X2169207Y-20858080D01*
X2164811Y-20846845D01*
X2150401Y-20824375D01*
X2138433Y-20804836D01*
X2132815Y-20788960D01*
X2126221Y-20767711D01*
X2120115Y-20746950D01*
X2116207Y-20736936D01*
X2112299Y-20734738D01*
X2099110Y-20730341D01*
X2097400Y-20723014D01*
X2094274Y-20714221D01*
X2262020Y-20714221D01*
X2262020Y-20769420D01*
X2262020Y-20821688D01*
X2263974Y-20826573D01*
X2269347Y-20833900D01*
X2282048Y-20849288D01*
X2297435Y-20858813D01*
X2315265Y-20868339D01*
X2341399Y-20875910D01*
X2358984Y-20880795D01*
X2377302Y-20884214D01*
X2407100Y-20884214D01*
X2434944Y-20884214D01*
X2435921Y-20881039D01*
X2437630Y-20876643D01*
X2437630Y-20845380D01*
X2437630Y-20816071D01*
X2436165Y-20809232D01*
X2433478Y-20798485D01*
X2431036Y-20787494D01*
X2418579Y-20785052D01*
X2400261Y-20777969D01*
X2421510Y-20762826D01*
X2403681Y-20765268D01*
X2381943Y-20757941D01*
X2374371Y-20755743D01*
X2361427Y-20753545D01*
X2366800Y-20736448D01*
X2375104Y-20732540D01*
X2397575Y-20726678D01*
X2417114Y-20727411D01*
X2413450Y-20724724D01*
X2413450Y-20714710D01*
X2404413Y-20697369D01*
X2394155Y-20674654D01*
X2385851Y-20664884D01*
X2376325Y-20652672D01*
X2371929Y-20641437D01*
X2366800Y-20638750D01*
X2357274Y-20632889D01*
X2351901Y-20630202D01*
X2332117Y-20630202D01*
X2316974Y-20627759D01*
X2313066Y-20633377D01*
X2307693Y-20635087D01*
X2304762Y-20638506D01*
X2296702Y-20642414D01*
X2293283Y-20651207D01*
X2280338Y-20662442D01*
X2276186Y-20669769D01*
X2268126Y-20696147D01*
X2262020Y-20714221D01*
X2094274Y-20714221D01*
X2093492Y-20712023D01*
X2101465Y-20701391D01*
X1973569Y-20704207D01*
X1986758Y-20680027D01*
X2006786Y-20674898D01*
X2030966Y-20673189D01*
X2052948Y-20671723D01*
X2067602Y-20669036D01*
X2095690Y-20665373D01*
X2120603Y-20661709D01*
X2121336Y-20656580D01*
X2128175Y-20652428D01*
X2128419Y-20637773D01*
X2132083Y-20622386D01*
X2134281Y-20609197D01*
X2139410Y-20594054D01*
X2144050Y-20581842D01*
X2146004Y-20576713D01*
X2154064Y-20562058D01*
X2165300Y-20548381D01*
X2173604Y-20540321D01*
X2184839Y-20529085D01*
X2195830Y-20516873D01*
X2205355Y-20508569D01*
X2211217Y-20505394D01*
X2215614Y-20502951D01*
X2222697Y-20499043D01*
X2234665Y-20496113D01*
X2247121Y-20493426D01*
X2267149Y-20493426D01*
X2285467Y-20493426D01*
X2306960Y-20499776D01*
G37*
G36*
X2140143Y-21297473D02*
G01*
X2145760Y-21284284D01*
X2157484Y-21262058D01*
X2169696Y-21240565D01*
X2178244Y-21227376D01*
X2186549Y-21211011D01*
X2197295Y-21200509D01*
X2208531Y-21186587D01*
X2229780Y-21164117D01*
X2250540Y-21141891D01*
X2265928Y-21128457D01*
X2284002Y-21118932D01*
X2309403Y-21104521D01*
X2313311Y-21096461D01*
X2322592Y-21090844D01*
X2344574Y-21082295D01*
X2361915Y-21073747D01*
X2381210Y-21070816D01*
X2396109Y-21067885D01*
X2458147Y-21067885D01*
X2522383Y-21067885D01*
X2537526Y-21070816D01*
X2549738Y-21072770D01*
X2564148Y-21073503D01*
X2572941Y-21079120D01*
X2584176Y-21082784D01*
X2603471Y-21092554D01*
X2632048Y-21106231D01*
X2659159Y-21119420D01*
X2678942Y-21127725D01*
X2692620Y-21140425D01*
X2706053Y-21152149D01*
X2726081Y-21172177D01*
X2754902Y-21200753D01*
X2781036Y-21227131D01*
X2796667Y-21241786D01*
X2803750Y-21250579D01*
X2813276Y-21264989D01*
X2823046Y-21279399D01*
X2831350Y-21292100D01*
X2840875Y-21314326D01*
X2852110Y-21336064D01*
X2860659Y-21358534D01*
X2869696Y-21384668D01*
X2872383Y-21407138D01*
X2875314Y-21429609D01*
X2875314Y-21453300D01*
X2875314Y-21474305D01*
X2872627Y-21497752D01*
X2869940Y-21525840D01*
X2863101Y-21538785D01*
X2856263Y-21547090D01*
X2852355Y-21564675D01*
X2844050Y-21581039D01*
X2831594Y-21597404D01*
X2817184Y-21608394D01*
X2808879Y-21622072D01*
X2791538Y-21634773D01*
X2787386Y-21637948D01*
X2781036Y-21642588D01*
X2772976Y-21646252D01*
X2755635Y-21646252D01*
X2738782Y-21646252D01*
X2725837Y-21641856D01*
X2712648Y-21634284D01*
X2700191Y-21623782D01*
X2683827Y-21608394D01*
X2667219Y-21593007D01*
X2654274Y-21578353D01*
X2651343Y-21564919D01*
X2648656Y-21550020D01*
X2648656Y-21542693D01*
X2648656Y-21534877D01*
X2662090Y-21517780D01*
X2676256Y-21503859D01*
X2689200Y-21500195D01*
X2699214Y-21497997D01*
X2708007Y-21488715D01*
X2718265Y-21478946D01*
X2724616Y-21465757D01*
X2732187Y-21448415D01*
X2739026Y-21437669D01*
X2742445Y-21429120D01*
X2742445Y-21398346D01*
X2743422Y-21377096D01*
X2727547Y-21378073D01*
X2694330Y-21376608D01*
X2661113Y-21372944D01*
X2640352Y-21369525D01*
X2621789Y-21365861D01*
X2581245Y-21362198D01*
X2615683Y-21333621D01*
X2707030Y-21333621D01*
X2677721Y-21322630D01*
X2697749Y-21309441D01*
X2716067Y-21307243D01*
X2729501Y-21310418D01*
X2725348Y-21310418D01*
X2729501Y-21310418D01*
X2721685Y-21304556D01*
X2718754Y-21297962D01*
X2721685Y-21292588D01*
X2709961Y-21282575D01*
X2708984Y-21270362D01*
X2694574Y-21262058D01*
X2680896Y-21249113D01*
X2667463Y-21236901D01*
X2653785Y-21229330D01*
X2638154Y-21219316D01*
X2620324Y-21210034D01*
X2610799Y-21207103D01*
X2600296Y-21202707D01*
X2581489Y-21199776D01*
X2565369Y-21196845D01*
X2527267Y-21196845D01*
X2489166Y-21196845D01*
X2476709Y-21199532D01*
X2461322Y-21202463D01*
X2448866Y-21207348D01*
X2437142Y-21207592D01*
X2424930Y-21217850D01*
X2407344Y-21226399D01*
X2399773Y-21231528D01*
X2391957Y-21237390D01*
X2384874Y-21239099D01*
X2369731Y-21250823D01*
X2360205Y-21262302D01*
X2339689Y-21277445D01*
X2326988Y-21289658D01*
X2316486Y-21306999D01*
X2304518Y-21322142D01*
X2300122Y-21330935D01*
X2290840Y-21348520D01*
X2281315Y-21367083D01*
X2275697Y-21378806D01*
X2272034Y-21389064D01*
X2268614Y-21399811D01*
X2264706Y-21413733D01*
X2261287Y-21430586D01*
X2259333Y-21445240D01*
X2258845Y-21453056D01*
X2261775Y-21466489D01*
X2266416Y-21477969D01*
X2278872Y-21491891D01*
X2293039Y-21504836D01*
X2319417Y-21520467D01*
X2337002Y-21529016D01*
X2435921Y-21529016D01*
X2437630Y-21500683D01*
X2437630Y-21450441D01*
X2437630Y-21448660D01*
X2437630Y-21398871D01*
X2437630Y-21393949D01*
X2444713Y-21356824D01*
X2444713Y-21334110D01*
X2444713Y-21300404D01*
X2446179Y-21268653D01*
X2447644Y-21248381D01*
X2452285Y-21234947D01*
X2460589Y-21222735D01*
X2467916Y-21217850D01*
X2478907Y-21214187D01*
X2485013Y-21214187D01*
X2488921Y-21214187D01*
X2503576Y-21217606D01*
X2513101Y-21222247D01*
X2526046Y-21231772D01*
X2542899Y-21248381D01*
X2558042Y-21264501D01*
X2569277Y-21277445D01*
X2572697Y-21290635D01*
X2576116Y-21303824D01*
X2576116Y-21322142D01*
X2576116Y-21349741D01*
X2576116Y-21399655D01*
X2576116Y-21405917D01*
X2576116Y-21454781D01*
X2576116Y-21478213D01*
X2576116Y-21528327D01*
X2576116Y-21554661D01*
X2576116Y-21604270D01*
X2576116Y-21624759D01*
X2576116Y-21674126D01*
X2576116Y-21678248D01*
X2576116Y-21703893D01*
X2576116Y-21716106D01*
X2574406Y-21736133D01*
X2571720Y-21755917D01*
X2570743Y-21771793D01*
X2551203Y-21786936D01*
X2534351Y-21786936D01*
X2521650Y-21786936D01*
X2509438Y-21781807D01*
X2500401Y-21774724D01*
X2488433Y-21768374D01*
X2471580Y-21759337D01*
X2472557Y-21756406D01*
X2469138Y-21755673D01*
X2452529Y-21735157D01*
X2446179Y-21719036D01*
X2435432Y-21699253D01*
X2427128Y-21678004D01*
X2419556Y-21676294D01*
X2409542Y-21672630D01*
X2400261Y-21672630D01*
X2392201Y-21672630D01*
X2378279Y-21675806D01*
X2351413Y-21680690D01*
X2322348Y-21685331D01*
X2300610Y-21688262D01*
X2281315Y-21691681D01*
X2263485Y-21696322D01*
X2249319Y-21698276D01*
X2232222Y-21702916D01*
X2214881Y-21707801D01*
X2201448Y-21712442D01*
X2190212Y-21714152D01*
X2173115Y-21718060D01*
X2156507Y-21722212D01*
X2146737Y-21724410D01*
X2131838Y-21724410D01*
X2115474Y-21724410D01*
X2096667Y-21724410D01*
X2081280Y-21724410D01*
X2069068Y-21717815D01*
X2062962Y-21713419D01*
X2057344Y-21712198D01*
X2039270Y-21692903D01*
X2026325Y-21678248D01*
X2015579Y-21661884D01*
X2007763Y-21643810D01*
X2007763Y-21633063D01*
X2007763Y-21617431D01*
X2017044Y-21609616D01*
X2041224Y-21600334D01*
X2068091Y-21592519D01*
X2079570Y-21589588D01*
X2088119Y-21586413D01*
X2096912Y-21582505D01*
X2115963Y-21579818D01*
X2146249Y-21572979D01*
X2179221Y-21565163D01*
X2200226Y-21561744D01*
X2209996Y-21558080D01*
X2220010Y-21561256D01*
X2201203Y-21549288D01*
X2185572Y-21529504D01*
X2169940Y-21510209D01*
X2159926Y-21494822D01*
X2150645Y-21474794D01*
X2139898Y-21453300D01*
X2129396Y-21429364D01*
X2126953Y-21406650D01*
X2108391Y-21412267D01*
X2081769Y-21409581D01*
X2064672Y-21406161D01*
X2014602Y-21402742D01*
X2046109Y-21384180D01*
X2052215Y-21388087D01*
X2061252Y-21377341D01*
X2082013Y-21373189D01*
X2102773Y-21369525D01*
X2121092Y-21366106D01*
X2121336Y-21365617D01*
X2121824Y-21364152D01*
X2121824Y-21361465D01*
X2125244Y-21361465D01*
X2104239Y-21364884D01*
X2065648Y-21364884D01*
X2026814Y-21364884D01*
X1997993Y-21364884D01*
X1984071Y-21353893D01*
X1965753Y-21349253D01*
X1945237Y-21347543D01*
X1930826Y-21346078D01*
X1911531Y-21342170D01*
X1884909Y-21338506D01*
X1882955Y-21328736D01*
X1879291Y-21312128D01*
X1904692Y-21308464D01*
X1925209Y-21304801D01*
X2001413Y-21304801D01*
X2016067Y-21304312D01*
X2031943Y-21303824D01*
X2050505Y-21303091D01*
X2080303Y-21302602D01*
X2110101Y-21302358D01*
X2128175Y-21302358D01*
X2140143Y-21297473D01*
G37*
G36*
X2138189Y-21833342D02*
G01*
X2130129Y-21835296D01*
X2127930Y-21834563D01*
X2105704Y-21828457D01*
X2054759Y-21825285D01*
X2052459Y-21825282D01*
X2095202Y-21803056D01*
X2119626Y-21800369D01*
X2141608Y-21794996D01*
X2158217Y-21789134D01*
X2173360Y-21788157D01*
X2181420Y-21778143D01*
X2197051Y-21773747D01*
X2208531Y-21770572D01*
X2227826Y-21766664D01*
X2244923Y-21762756D01*
X2255914Y-21759092D01*
X2272522Y-21757871D01*
X2296702Y-21754696D01*
X2321615Y-21750788D01*
X2338956Y-21747613D01*
X2374616Y-21741263D01*
X2423719Y-21733238D01*
X2435921Y-21731249D01*
X2485055Y-21723980D01*
X2497958Y-21722212D01*
X2532885Y-21718304D01*
X2546074Y-21715129D01*
X2570010Y-21710488D01*
X2593702Y-21705847D01*
X2609822Y-21702184D01*
X2619347Y-21699497D01*
X2630582Y-21701939D01*
X2636688Y-21689972D01*
X2654518Y-21682400D01*
X2674057Y-21682400D01*
X2692376Y-21682400D01*
X2704832Y-21685087D01*
X2716311Y-21687773D01*
X2729501Y-21696322D01*
X2741713Y-21703893D01*
X2755390Y-21714640D01*
X2768091Y-21726852D01*
X2775907Y-21740041D01*
X2775662Y-21753963D01*
X2784211Y-21757383D01*
X2790561Y-21772281D01*
X2790561Y-21779120D01*
X2790561Y-21784738D01*
X2780547Y-21795729D01*
X2771999Y-21805010D01*
X2762473Y-21809406D01*
X2751727Y-21806964D01*
X2743667Y-21817711D01*
X2730233Y-21821374D01*
X2718510Y-21824549D01*
X2700924Y-21829678D01*
X2683339Y-21834808D01*
X2669661Y-21838715D01*
X2649633Y-21842379D01*
X2634734Y-21839448D01*
X2648412Y-21843845D01*
X2666242Y-21862896D01*
X2683583Y-21881458D01*
X2698726Y-21895136D01*
X2708007Y-21910767D01*
X2719487Y-21927620D01*
X2728524Y-21940565D01*
X2735607Y-21951067D01*
X2743911Y-21970851D01*
X2751727Y-21991367D01*
X2756612Y-22018234D01*
X2758077Y-22042170D01*
X2758077Y-22051695D01*
X2757344Y-22069036D01*
X2755146Y-22085889D01*
X2752459Y-22096392D01*
X2745865Y-22113244D01*
X2735607Y-22131318D01*
X2726081Y-22142798D01*
X2712892Y-22151346D01*
X2695062Y-22151346D01*
X2670150Y-22151346D01*
X2654518Y-22144752D01*
X2642550Y-22133272D01*
X2626430Y-22117152D01*
X2614706Y-22104207D01*
X2580268Y-22104207D01*
X2530493Y-22104207D01*
X2525069Y-22104207D01*
X2475038Y-22104207D01*
X2470115Y-22104207D01*
X2434211Y-22104207D01*
X2419556Y-22103475D01*
X2398307Y-22101032D01*
X2378035Y-22096880D01*
X2365334Y-22093705D01*
X2347749Y-22089797D01*
X2334071Y-22078318D01*
X2600540Y-22070502D01*
X2603227Y-22068060D01*
X2609089Y-22069769D01*
X2604204Y-22064396D01*
X2604204Y-22060488D01*
X2601029Y-22058046D01*
X2596632Y-22054138D01*
X2592236Y-22052916D01*
X2581489Y-22051207D01*
X2569033Y-22049009D01*
X2559508Y-22047543D01*
X2550471Y-22043147D01*
X2538747Y-22041681D01*
X2528000Y-22020921D01*
X2545097Y-22010907D01*
X2562683Y-22007243D01*
X2586863Y-22005778D01*
X2608600Y-22004556D01*
X2623499Y-22001625D01*
X2624965Y-22002114D01*
X2625209Y-21996741D01*
X2625209Y-21968653D01*
X2625209Y-21946427D01*
X2620812Y-21938122D01*
X2616172Y-21933726D01*
X2593702Y-21925910D01*
X2573918Y-21920293D01*
X2485013Y-21920293D01*
X2396109Y-21920293D01*
X2381699Y-21920293D01*
X2355321Y-21922002D01*
X2328454Y-21925666D01*
X2313066Y-21927376D01*
X2274965Y-21927376D01*
X2241259Y-21927376D01*
X2231734Y-21922735D01*
X2223918Y-21919560D01*
X2220010Y-21918339D01*
X2210973Y-21913454D01*
X2202424Y-21911256D01*
X2188747Y-21900509D01*
X2177512Y-21892449D01*
X2162124Y-21881946D01*
X2147714Y-21870956D01*
X2115963Y-21869979D01*
X2065890Y-21869979D01*
X2064183Y-21869979D01*
X2014795Y-21869979D01*
X2011671Y-21869979D01*
X1976744Y-21868025D01*
X1963066Y-21866071D01*
X1943771Y-21863384D01*
X1925697Y-21860697D01*
X1915439Y-21858988D01*
X1904204Y-21854103D01*
X1889794Y-21832609D01*
X1922522Y-21828946D01*
X1944993Y-21825526D01*
X2138189Y-21833342D01*
G37*
G36*
X2306960Y-22075631D02*
G01*
X2331385Y-22083203D01*
X2347993Y-22090774D01*
X2367044Y-22102009D01*
X2377058Y-22108115D01*
X2387561Y-22113977D01*
X2407588Y-22133517D01*
X2434455Y-22160383D01*
X2458391Y-22185785D01*
X2471824Y-22199706D01*
X2478175Y-22208499D01*
X2487456Y-22222177D01*
X2496737Y-22236099D01*
X2502843Y-22245136D01*
X2509193Y-22254905D01*
X2516521Y-22269804D01*
X2523604Y-22283970D01*
X2528733Y-22295694D01*
X2535816Y-22313035D01*
X2542655Y-22332819D01*
X2548028Y-22345519D01*
X2550471Y-22356755D01*
X2555111Y-22371898D01*
X2560729Y-22391681D01*
X2565125Y-22409267D01*
X2567323Y-22420013D01*
X2567323Y-22429783D01*
X2567323Y-22452498D01*
X2567323Y-22477899D01*
X2567323Y-22497683D01*
X2567323Y-22513803D01*
X2567323Y-22539204D01*
X2567323Y-22564605D01*
X2567323Y-22580969D01*
X2559263Y-22596113D01*
X2548272Y-22609057D01*
X2543876Y-22613454D01*
X2539480Y-22617606D01*
X2530931Y-22619804D01*
X2523604Y-22619071D01*
X2521406Y-22618339D01*
X2505774Y-22614919D01*
X2491852Y-22611500D01*
X2480861Y-22612721D01*
X2457414Y-22616140D01*
X2430547Y-22621025D01*
X2408077Y-22626887D01*
X2396109Y-22628841D01*
X2376570Y-22632749D01*
X2354832Y-22637145D01*
X2340177Y-22639344D01*
X2325523Y-22643251D01*
X2305739Y-22648869D01*
X2286688Y-22653998D01*
X2276919Y-22654487D01*
X2257868Y-22662791D01*
X2231734Y-22663768D01*
X2229780Y-22672072D01*
X2215125Y-22677934D01*
X2203157Y-22682575D01*
X2196318Y-22685750D01*
X2169696Y-22694054D01*
X2148447Y-22702358D01*
X2135258Y-22702358D01*
X2119382Y-22702358D01*
X2107414Y-22696741D01*
X2096423Y-22692344D01*
X2083478Y-22681353D01*
X2066381Y-22665233D01*
X2049284Y-22648381D01*
X2038782Y-22634947D01*
X2034385Y-22625666D01*
X2031210Y-22610523D01*
X2031210Y-22598066D01*
X2031210Y-22583168D01*
X2040491Y-22575352D01*
X2060275Y-22566315D01*
X2080303Y-22558988D01*
X2096179Y-22552149D01*
X2118161Y-22545066D01*
X2139410Y-22538715D01*
X2151378Y-22535785D01*
X2167254Y-22529923D01*
X2193387Y-22522595D01*
X2218789Y-22515757D01*
X2233688Y-22511360D01*
X2241259Y-22511605D01*
X2228314Y-22504521D01*
X2208775Y-22483761D01*
X2189480Y-22462267D01*
X2175558Y-22444926D01*
X2169207Y-22433935D01*
X2164811Y-22422700D01*
X2150401Y-22400230D01*
X2138433Y-22380690D01*
X2132815Y-22364815D01*
X2126221Y-22343565D01*
X2120115Y-22322805D01*
X2116207Y-22312791D01*
X2112299Y-22310593D01*
X2099110Y-22306196D01*
X2097400Y-22298869D01*
X2094274Y-22290076D01*
X2262020Y-22290076D01*
X2262020Y-22345275D01*
X2262020Y-22397543D01*
X2263974Y-22402428D01*
X2269347Y-22409755D01*
X2282048Y-22425143D01*
X2297435Y-22434668D01*
X2315265Y-22444193D01*
X2341399Y-22451765D01*
X2358984Y-22456650D01*
X2377302Y-22460069D01*
X2407100Y-22460069D01*
X2434944Y-22460069D01*
X2435921Y-22456894D01*
X2437630Y-22452498D01*
X2437630Y-22421235D01*
X2437630Y-22391926D01*
X2436165Y-22385087D01*
X2433478Y-22374340D01*
X2431036Y-22363349D01*
X2418579Y-22360907D01*
X2400261Y-22353824D01*
X2421510Y-22338681D01*
X2403681Y-22341123D01*
X2381943Y-22333796D01*
X2374371Y-22331598D01*
X2361427Y-22329399D01*
X2366800Y-22312302D01*
X2375104Y-22308394D01*
X2397575Y-22302533D01*
X2417114Y-22303265D01*
X2413450Y-22300579D01*
X2413450Y-22290565D01*
X2404413Y-22273224D01*
X2394155Y-22250509D01*
X2385851Y-22240739D01*
X2376325Y-22228527D01*
X2371929Y-22217292D01*
X2366800Y-22214605D01*
X2357274Y-22208743D01*
X2351901Y-22206057D01*
X2332117Y-22206057D01*
X2316974Y-22203614D01*
X2313066Y-22209232D01*
X2307693Y-22210942D01*
X2304762Y-22214361D01*
X2296702Y-22218269D01*
X2293283Y-22227062D01*
X2280338Y-22238297D01*
X2276186Y-22245624D01*
X2268126Y-22272002D01*
X2262020Y-22290076D01*
X2094274Y-22290076D01*
X2093492Y-22287878D01*
X2101465Y-22277245D01*
X1973569Y-22280062D01*
X1986758Y-22255882D01*
X2006786Y-22250753D01*
X2030966Y-22249043D01*
X2052948Y-22247578D01*
X2067602Y-22244891D01*
X2095690Y-22241228D01*
X2120603Y-22237564D01*
X2121336Y-22232435D01*
X2128175Y-22228283D01*
X2128419Y-22213628D01*
X2132083Y-22198241D01*
X2134281Y-22185052D01*
X2139410Y-22169909D01*
X2144050Y-22157697D01*
X2146004Y-22152568D01*
X2154064Y-22137913D01*
X2165300Y-22124235D01*
X2173604Y-22116175D01*
X2184839Y-22104940D01*
X2195830Y-22092728D01*
X2205355Y-22084424D01*
X2211217Y-22081249D01*
X2215614Y-22078806D01*
X2222697Y-22074898D01*
X2234665Y-22071967D01*
X2247121Y-22069281D01*
X2267149Y-22069281D01*
X2285467Y-22069281D01*
X2306960Y-22075631D01*
G37*
G36*
X2093736Y-23002288D02*
G01*
X2098866Y-22993251D01*
X2090561Y-22997648D01*
X2072487Y-22995694D01*
X2053925Y-22993496D01*
X2039026Y-22993007D01*
X2029501Y-22989588D01*
X2016556Y-22986901D01*
X1995062Y-22982993D01*
X1995062Y-22962965D01*
X2013381Y-22958813D01*
X2022906Y-22955150D01*
X2031699Y-22950509D01*
X2048307Y-22949043D01*
X2070778Y-22947578D01*
X2094225Y-22946113D01*
X2107658Y-22944891D01*
X2111078Y-22942205D01*
X2119870Y-22923886D01*
X2126465Y-22908255D01*
X2136967Y-22881144D01*
X2149180Y-22857697D01*
X2154797Y-22850125D01*
X2163590Y-22837180D01*
X2172871Y-22822770D01*
X2180198Y-22812512D01*
X2192655Y-22795170D01*
X2205844Y-22780027D01*
X2215369Y-22770502D01*
X2230757Y-22754382D01*
X2246144Y-22738506D01*
X2256402Y-22726538D01*
X2275942Y-22712861D01*
X2294993Y-22698206D01*
X2308914Y-22686727D01*
X2322592Y-22678667D01*
X2336758Y-22671828D01*
X2359961Y-22660593D01*
X2382920Y-22648381D01*
X2396842Y-22641786D01*
X2406856Y-22637878D01*
X2419068Y-22632260D01*
X2430547Y-22631528D01*
X2443492Y-22629818D01*
X2460345Y-22628108D01*
X2491364Y-22628108D01*
X2523848Y-22628108D01*
X2539480Y-22630795D01*
X2555355Y-22633726D01*
X2578314Y-22646671D01*
X2601029Y-22658883D01*
X2612508Y-22665233D01*
X2623988Y-22671584D01*
X2648900Y-22696252D01*
X2671859Y-22721409D01*
X2678942Y-22733866D01*
X2685537Y-22744856D01*
X2692376Y-22754870D01*
X2700680Y-22769525D01*
X2707519Y-22783203D01*
X2710694Y-22791995D01*
X2715334Y-22808604D01*
X2718998Y-22824968D01*
X2718998Y-22862826D01*
X2718998Y-22900683D01*
X2715334Y-22915826D01*
X2710205Y-22933900D01*
X2706786Y-22942937D01*
X2702634Y-22956127D01*
X2699214Y-22968339D01*
X2697993Y-22976643D01*
X2688712Y-22993496D01*
X2679675Y-23009371D01*
X2663799Y-23031353D01*
X2647191Y-23054312D01*
X2632292Y-23072142D01*
X2609822Y-23099009D01*
X2604204Y-23104626D01*
X2585153Y-23120258D01*
X2566591Y-23130027D01*
X2562683Y-23131493D01*
X2555355Y-23136133D01*
X2543143Y-23143949D01*
X2528000Y-23143949D01*
X2515055Y-23143949D01*
X2497226Y-23137599D01*
X2481106Y-23129783D01*
X2471092Y-23122456D01*
X2458391Y-23110732D01*
X2446667Y-23099009D01*
X2440561Y-23092658D01*
X2431036Y-23078492D01*
X2421999Y-23062128D01*
X2421999Y-23051625D01*
X2421999Y-23044542D01*
X2425174Y-23028422D01*
X2430059Y-23017920D01*
X2439340Y-23005464D01*
X2450087Y-23000090D01*
X2468161Y-22996182D01*
X2483304Y-23002044D01*
X2486967Y-22992274D01*
X2501622Y-22978597D01*
X2515055Y-22965408D01*
X2523360Y-22954173D01*
X2538503Y-22934877D01*
X2556332Y-22909965D01*
X2564881Y-22895066D01*
X2572208Y-22881632D01*
X2572208Y-22880900D01*
X2575872Y-22880900D01*
X2552669Y-22881632D01*
X2524337Y-22878946D01*
X2521406Y-22872595D01*
X2517254Y-22864291D01*
X2519452Y-22870642D01*
X2513101Y-22860872D01*
X2522138Y-22847927D01*
X2522138Y-22854277D01*
X2524825Y-22844508D01*
X2538014Y-22838157D01*
X2549494Y-22836692D01*
X2565858Y-22834738D01*
X2581978Y-22832540D01*
X2590282Y-22834982D01*
X2590282Y-22815687D01*
X2593946Y-22792728D01*
X2593946Y-22788576D01*
X2593946Y-22787110D01*
X2590282Y-22774166D01*
X2587107Y-22762442D01*
X2559752Y-22762686D01*
X2523848Y-22762686D01*
X2509438Y-22766106D01*
X2494050Y-22770746D01*
X2421022Y-22807138D01*
X2410764Y-22815198D01*
X2399284Y-22823747D01*
X2379256Y-22842309D01*
X2351413Y-22870153D01*
X2323813Y-22897508D01*
X2304762Y-22910209D01*
X2304030Y-22919490D01*
X2293283Y-22933168D01*
X2283269Y-22946601D01*
X2277407Y-22955638D01*
X2266172Y-22977376D01*
X2256891Y-22997648D01*
X2253471Y-23011325D01*
X2250052Y-23021828D01*
X2248831Y-23027934D01*
X2248831Y-23026713D01*
X2253715Y-23024515D01*
X2262508Y-23018897D01*
X2278872Y-23018897D01*
X2293771Y-23018897D01*
X2306472Y-23022316D01*
X2318684Y-23025736D01*
X2328698Y-23036482D01*
X2341643Y-23049916D01*
X2355565Y-23063593D01*
X2365823Y-23076050D01*
X2369242Y-23083377D01*
X2375104Y-23091437D01*
X2375104Y-23107069D01*
X2375104Y-23122944D01*
X2370708Y-23131493D01*
X2364846Y-23137110D01*
X2351413Y-23143461D01*
X2333583Y-23152254D01*
X2315020Y-23161046D01*
X2303053Y-23166175D01*
X2292306Y-23171304D01*
X2278628Y-23175212D01*
X2249808Y-23175212D01*
X2225139Y-23175212D01*
X2212927Y-23171549D01*
X2202180Y-23167152D01*
X2195830Y-23165198D01*
X2191434Y-23162512D01*
X2181175Y-23158360D01*
X2167742Y-23147613D01*
X2147958Y-23135157D01*
X2146004Y-23129539D01*
X2146493Y-23123921D01*
X2129396Y-23112442D01*
X2121824Y-23096566D01*
X2116207Y-23090949D01*
X2110101Y-23082644D01*
X2103995Y-23064082D01*
X2097400Y-23050160D01*
X2071022Y-23050160D01*
X2022906Y-23050160D01*
X1974057Y-23047718D01*
X1942794Y-23043810D01*
X1927163Y-23041123D01*
X1906158Y-23034040D01*
X1894434Y-23020607D01*
X1916905Y-23002288D01*
X2093736Y-23002288D01*
G37*
G36*
X2525558Y-23143949D02*
G01*
X2545830Y-23146636D01*
X2572941Y-23154696D01*
X2601762Y-23164710D01*
X2602494Y-23170327D01*
X2615439Y-23173747D01*
X2629361Y-23180097D01*
X2641573Y-23185471D01*
X2653785Y-23193775D01*
X2664532Y-23202568D01*
X2679675Y-23213803D01*
X2694085Y-23222351D01*
X2708007Y-23236762D01*
X2716311Y-23249951D01*
X2730233Y-23260697D01*
X2741713Y-23279748D01*
X2758077Y-23301730D01*
X2769801Y-23326887D01*
X2780303Y-23350334D01*
X2783722Y-23360348D01*
X2791538Y-23372316D01*
X2794225Y-23391856D01*
X2797156Y-23406266D01*
X2797156Y-23446810D01*
X2797156Y-23488820D01*
X2794225Y-23508604D01*
X2791538Y-23538157D01*
X2784211Y-23557697D01*
X2780547Y-23574305D01*
X2773953Y-23597997D01*
X2765893Y-23621200D01*
X2760031Y-23632923D01*
X2751727Y-23651486D01*
X2742690Y-23670537D01*
X2736584Y-23684214D01*
X2727302Y-23699602D01*
X2716800Y-23709127D01*
X2703855Y-23725247D01*
X2687491Y-23740390D01*
X2672348Y-23750404D01*
X2654030Y-23758464D01*
X2633025Y-23758464D01*
X2606646Y-23758464D01*
X2595655Y-23755289D01*
X2586618Y-23751137D01*
X2581978Y-23747473D01*
X2572452Y-23745519D01*
X2563171Y-23739413D01*
X2549005Y-23730132D01*
X2532641Y-23717920D01*
X2519940Y-23706685D01*
X2505774Y-23694473D01*
X2493806Y-23675910D01*
X2489166Y-23659302D01*
X2479884Y-23657348D01*
X2471336Y-23642693D01*
X2463764Y-23628039D01*
X2458147Y-23614849D01*
X2455216Y-23602637D01*
X2452285Y-23589937D01*
X2446667Y-23574549D01*
X2443492Y-23559895D01*
X2442027Y-23544752D01*
X2440561Y-23520816D01*
X2439096Y-23497369D01*
X2437630Y-23483447D01*
X2437630Y-23445345D01*
X2437630Y-23423363D01*
X2574651Y-23423363D01*
X2574651Y-23525212D01*
X2574651Y-23597264D01*
X2579535Y-23619246D01*
X2590282Y-23603126D01*
X2609333Y-23582121D01*
X2614218Y-23574794D01*
X2622766Y-23558674D01*
X2631559Y-23540355D01*
X2636444Y-23527899D01*
X2638886Y-23518862D01*
X2644016Y-23503963D01*
X2648656Y-23490774D01*
X2650366Y-23481737D01*
X2657693Y-23460488D01*
X2661601Y-23445589D01*
X2661601Y-23389169D01*
X2661601Y-23333726D01*
X2652564Y-23319316D01*
X2644993Y-23303928D01*
X2643039Y-23302219D01*
X2645725Y-23302951D01*
X2641085Y-23295136D01*
X2625453Y-23291960D01*
X2610554Y-23283412D01*
X2599808Y-23280481D01*
X2591259Y-23273154D01*
X2590526Y-23271444D01*
X2594678Y-23281458D01*
X2593946Y-23302219D01*
X2593946Y-23323956D01*
X2593946Y-23339832D01*
X2589794Y-23352777D01*
X2585642Y-23362791D01*
X2578314Y-23394298D01*
X2574651Y-23423363D01*
X2437630Y-23423363D01*
X2437630Y-23407243D01*
X2439096Y-23386482D01*
X2440561Y-23351800D01*
X2444469Y-23317606D01*
X2448621Y-23300265D01*
X2448621Y-23287808D01*
X2453506Y-23279504D01*
X2445446Y-23287808D01*
X2434211Y-23291228D01*
X2412718Y-23301486D01*
X2390491Y-23312721D01*
X2375104Y-23322247D01*
X2363136Y-23326887D01*
X2354099Y-23339099D01*
X2335048Y-23357662D01*
X2316486Y-23376224D01*
X2302808Y-23392100D01*
X2294993Y-23397962D01*
X2288154Y-23410907D01*
X2277163Y-23432156D01*
X2267637Y-23452428D01*
X2263974Y-23463175D01*
X2260310Y-23474166D01*
X2254937Y-23500300D01*
X2250052Y-23522770D01*
X2250052Y-23541332D01*
X2250052Y-23564047D01*
X2254448Y-23579678D01*
X2258356Y-23594089D01*
X2262508Y-23598241D01*
X2352145Y-23598241D01*
X2362892Y-23601172D01*
X2371685Y-23604103D01*
X2379256Y-23607278D01*
X2378279Y-23607278D01*
X2386828Y-23609965D01*
X2393667Y-23612407D01*
X2433722Y-23648555D01*
X2443492Y-23663698D01*
X2453262Y-23682260D01*
X2453262Y-23689344D01*
X2453262Y-23699357D01*
X2441294Y-23711570D01*
X2430303Y-23716943D01*
X2413695Y-23722316D01*
X2391468Y-23727201D01*
X2363869Y-23727201D01*
X2334804Y-23727201D01*
X2314776Y-23721828D01*
X2297435Y-23718897D01*
X2288398Y-23715722D01*
X2273988Y-23709127D01*
X2258845Y-23701067D01*
X2248831Y-23694473D01*
X2233932Y-23686168D01*
X2227581Y-23674933D01*
X2214392Y-23668827D01*
X2198272Y-23652951D01*
X2181664Y-23636831D01*
X2173848Y-23625352D01*
X2162857Y-23617536D01*
X2153332Y-23603370D01*
X2145760Y-23588227D01*
X2137700Y-23572107D01*
X2131106Y-23553056D01*
X2120847Y-23535715D01*
X2117428Y-23527899D01*
X2118649Y-23520572D01*
X2091538Y-23524724D01*
X2045376Y-23523991D01*
X1998237Y-23521793D01*
X1967951Y-23518129D01*
X1949145Y-23515931D01*
X1929361Y-23508360D01*
X1922034Y-23506650D01*
X1890282Y-23505184D01*
X1933025Y-23484180D01*
X1954762Y-23481004D01*
X1981629Y-23479050D01*
X2022662Y-23477096D01*
X2027849Y-23476911D01*
X2012648Y-23469036D01*
X2026325Y-23445833D01*
X2117916Y-23448520D01*
X2117184Y-23439239D01*
X2122069Y-23420676D01*
X2126953Y-23401625D01*
X2130373Y-23389169D01*
X2132571Y-23379399D01*
X2137944Y-23365233D01*
X2143073Y-23351067D01*
X2146249Y-23342274D01*
X2151378Y-23328108D01*
X2161147Y-23308325D01*
X2169696Y-23299043D01*
X2178244Y-23287808D01*
X2190701Y-23273398D01*
X2197295Y-23258011D01*
X2216591Y-23242379D01*
X2230268Y-23222595D01*
X2247365Y-23214047D01*
X2264706Y-23201591D01*
X2276186Y-23193775D01*
X2287909Y-23186203D01*
X2298168Y-23180341D01*
X2312822Y-23173747D01*
X2326256Y-23168129D01*
X2332850Y-23163733D01*
X2357274Y-23154696D01*
X2383897Y-23146636D01*
X2406856Y-23143949D01*
X2429570Y-23141018D01*
X2468161Y-23141018D01*
X2506751Y-23141018D01*
X2525558Y-23143949D01*
G37*
D11*
X298411Y-9979819D02*
X298411Y-8979819D01*
X298411Y-9456009D02*
X869839Y-9456009D01*
X869839Y-9979819D02*
X869839Y-8979819D01*
X1869839Y-9979819D02*
X1298411Y-9979819D01*
X1584125Y-9979819D02*
X1584125Y-8979819D01*
X1584125Y-8979819D02*
X1488887Y-9122676D01*
X1488887Y-9122676D02*
X1393649Y-9217914D01*
X1393649Y-9217914D02*
X1298411Y-9265533D01*
X298411Y-35429819D02*
X298411Y-34429819D01*
X298411Y-34906009D02*
X869839Y-34906009D01*
X869839Y-35429819D02*
X869839Y-34429819D01*
X1298411Y-34525057D02*
X1346030Y-34477438D01*
X1346030Y-34477438D02*
X1441268Y-34429819D01*
X1441268Y-34429819D02*
X1679363Y-34429819D01*
X1679363Y-34429819D02*
X1774601Y-34477438D01*
X1774601Y-34477438D02*
X1822220Y-34525057D01*
X1822220Y-34525057D02*
X1869839Y-34620295D01*
X1869839Y-34620295D02*
X1869839Y-34715533D01*
X1869839Y-34715533D02*
X1822220Y-34858390D01*
X1822220Y-34858390D02*
X1250792Y-35429819D01*
X1250792Y-35429819D02*
X1869839Y-35429819D01*
%LPC*%
D12*
%TO.C,H1*%
X2540000Y-5425000D03*
%TD*%
%TO.C,H2*%
X2540000Y-39075000D03*
%TD*%
%LPD*%
M02*
