%TF.GenerationSoftware,KiCad,Pcbnew,8.0.6*%
%TF.CreationDate,2024-11-05T14:24:08+11:00*%
%TF.ProjectId,Blank_1U1HP,426c616e-6b5f-4315-9531-48502e6b6963,rev?*%
%TF.SameCoordinates,Original*%
%TF.FileFunction,Legend,Bot*%
%TF.FilePolarity,Positive*%
%FSLAX46Y46*%
G04 Gerber Fmt 4.6, Leading zero omitted, Abs format (unit mm)*
G04 Created by KiCad (PCBNEW 8.0.6) date 2024-11-05 14:24:08*
%MOMM*%
%LPD*%
G01*
G04 APERTURE LIST*
%ADD10C,0.250000*%
%ADD11C,3.200000*%
G04 APERTURE END LIST*
D10*
G36*
X2464986Y-22923153D02*
G01*
X2481106Y-22929748D01*
X2478419Y-22929015D01*
X2483060Y-22932190D01*
X2484525Y-22930480D01*
X2494050Y-22934144D01*
X2506263Y-22946112D01*
X2519452Y-22955882D01*
X2529466Y-22976154D01*
X2531664Y-22988610D01*
X2534595Y-22996670D01*
X2537526Y-23012546D01*
X2540457Y-23034528D01*
X2543143Y-23054556D01*
X2546074Y-23066768D01*
X2546074Y-23093635D01*
X2546074Y-23122944D01*
X2544609Y-23144437D01*
X2541922Y-23177898D01*
X2538991Y-23213069D01*
X2536304Y-23236517D01*
X2535572Y-23247508D01*
X2533374Y-23266070D01*
X2531175Y-23283656D01*
X2530743Y-23292948D01*
X2538258Y-23275840D01*
X2543632Y-23264360D01*
X2552669Y-23240669D01*
X2563171Y-23215268D01*
X2568789Y-23201590D01*
X2572452Y-23189622D01*
X2579780Y-23174479D01*
X2587107Y-23159580D01*
X2595900Y-23157382D01*
X2597854Y-23145414D01*
X2610799Y-23131248D01*
X2624720Y-23117570D01*
X2634002Y-23108533D01*
X2644260Y-23100473D01*
X2656472Y-23096077D01*
X2672103Y-23096077D01*
X2691887Y-23096077D01*
X2697260Y-23100718D01*
X2702634Y-23112930D01*
X2706297Y-23133935D01*
X2712648Y-23168129D01*
X2719975Y-23203055D01*
X2720464Y-23225282D01*
X2726570Y-23233342D01*
X2731699Y-23251171D01*
X2736828Y-23270222D01*
X2740247Y-23283900D01*
X2747819Y-23312965D01*
X2755146Y-23336900D01*
X2766870Y-23367675D01*
X2777616Y-23396251D01*
X2784944Y-23409685D01*
X2794225Y-23428736D01*
X2803018Y-23446566D01*
X2810101Y-23457556D01*
X2817916Y-23472455D01*
X2831594Y-23492972D01*
X2845027Y-23512755D01*
X2853087Y-23525456D01*
X2868719Y-23540843D01*
X2887281Y-23550857D01*
X2890212Y-23559161D01*
X2909752Y-23563802D01*
X2929780Y-23571618D01*
X2940526Y-23576014D01*
X2949075Y-23578945D01*
X2955669Y-23581632D01*
X2964706Y-23590913D01*
X2961287Y-23585784D01*
X2969103Y-23592867D01*
X2969103Y-23619489D01*
X2969103Y-23635121D01*
X2962508Y-23650508D01*
X2951273Y-23665163D01*
X2937595Y-23681527D01*
X2922941Y-23697891D01*
X2902424Y-23706928D01*
X2885083Y-23713523D01*
X2862857Y-23713523D01*
X2841608Y-23713523D01*
X2828419Y-23710592D01*
X2815963Y-23707661D01*
X2804972Y-23701555D01*
X2791538Y-23693739D01*
X2777616Y-23685924D01*
X2769801Y-23682016D01*
X2758810Y-23678352D01*
X2749284Y-23674688D01*
X2732187Y-23671757D01*
X2716067Y-23668827D01*
X2703107Y-23665728D01*
X2655251Y-23654416D01*
X2632649Y-23649193D01*
X2583932Y-23638540D01*
X2550785Y-23631595D01*
X2500889Y-23621443D01*
X2493562Y-23621443D01*
X2485990Y-23629992D01*
X2470603Y-23646600D01*
X2453750Y-23663697D01*
X2442759Y-23673467D01*
X2428349Y-23682260D01*
X2410764Y-23692030D01*
X2400017Y-23692030D01*
X2390247Y-23692030D01*
X2376570Y-23680550D01*
X2368021Y-23666873D01*
X2367288Y-23658324D01*
X2365334Y-23641471D01*
X2363136Y-23624619D01*
X2362404Y-23616070D01*
X2356053Y-23604102D01*
X2293771Y-23604102D01*
X2224162Y-23604102D01*
X2219033Y-23605568D01*
X2207798Y-23608987D01*
X2194364Y-23612895D01*
X2185083Y-23614360D01*
X2172383Y-23614360D01*
X2163834Y-23614360D01*
X2150889Y-23606300D01*
X2139166Y-23593355D01*
X2139166Y-23588471D01*
X2139166Y-23584318D01*
X2146737Y-23561604D01*
X2156018Y-23544263D01*
X2156018Y-23540111D01*
X2158217Y-23540111D01*
X2150645Y-23530829D01*
X2140143Y-23512267D01*
X2129640Y-23492483D01*
X2124755Y-23478073D01*
X2122313Y-23470013D01*
X2121797Y-23468792D01*
X2562194Y-23468792D01*
X2562683Y-23478806D01*
X2562683Y-23483202D01*
X2562683Y-23485889D01*
X2563171Y-23486621D01*
X2565858Y-23488820D01*
X2577581Y-23491506D01*
X2599075Y-23495658D01*
X2621789Y-23499810D01*
X2636200Y-23502741D01*
X2648656Y-23502741D01*
X2648656Y-23496880D01*
X2613241Y-23361569D01*
X2611043Y-23365965D01*
X2611531Y-23367919D01*
X2602250Y-23385993D01*
X2589549Y-23413104D01*
X2576360Y-23441436D01*
X2568056Y-23465861D01*
X2562194Y-23468792D01*
X2121797Y-23468792D01*
X2117672Y-23459022D01*
X2113276Y-23435086D01*
X2107903Y-23412860D01*
X2108635Y-23402358D01*
X2109368Y-23388680D01*
X2111078Y-23375491D01*
X2107903Y-23369141D01*
X2106437Y-23365721D01*
X2098133Y-23364988D01*
X2082501Y-23363034D01*
X2066625Y-23360836D01*
X2048796Y-23360104D01*
X2048796Y-23348136D01*
X2048796Y-23343251D01*
X2059542Y-23332748D01*
X2070533Y-23327864D01*
X2092515Y-23324444D01*
X2101520Y-23322734D01*
X2087875Y-23322734D01*
X2065893Y-23322734D01*
X2029256Y-23322734D01*
X1993353Y-23322734D01*
X1973569Y-23322734D01*
X1959403Y-23322734D01*
X1933513Y-23322734D01*
X1903960Y-23322734D01*
X1880512Y-23322734D01*
X1862927Y-23322734D01*
X1835327Y-23322734D01*
X1807972Y-23322734D01*
X1790143Y-23314919D01*
X1798935Y-23304416D01*
X1811392Y-23301485D01*
X1820673Y-23300264D01*
X1838747Y-23298310D01*
X1857798Y-23296112D01*
X1871475Y-23294646D01*
X1908600Y-23290739D01*
X1921550Y-23289468D01*
X1971615Y-23285121D01*
X1984174Y-23284139D01*
X2034630Y-23280480D01*
X2070778Y-23278282D01*
X2081705Y-23277305D01*
X2248098Y-23277305D01*
X2248098Y-23322734D01*
X2248098Y-23363034D01*
X2249319Y-23371094D01*
X2252006Y-23379155D01*
X2250296Y-23385749D01*
X2260066Y-23398205D01*
X2263241Y-23415791D01*
X2274232Y-23421897D01*
X2284490Y-23436796D01*
X2296946Y-23456579D01*
X2302808Y-23463418D01*
X2375837Y-23463418D01*
X2375593Y-23463174D01*
X2375348Y-23454870D01*
X2379256Y-23442413D01*
X2383897Y-23418966D01*
X2389026Y-23393076D01*
X2392445Y-23374025D01*
X2395865Y-23346182D01*
X2400555Y-23322734D01*
X2352634Y-23322734D01*
X2352634Y-23311011D01*
X2352634Y-23300508D01*
X2361915Y-23296845D01*
X2372662Y-23293181D01*
X2373506Y-23292978D01*
X2360450Y-23292204D01*
X2332362Y-23288785D01*
X2315509Y-23285365D01*
X2304274Y-23284633D01*
X2287421Y-23282190D01*
X2271545Y-23279748D01*
X2262020Y-23270955D01*
X2275453Y-23258987D01*
X2293039Y-23254835D01*
X2316242Y-23250683D01*
X2353611Y-23246286D01*
X2390003Y-23244577D01*
X2407100Y-23245309D01*
X2406367Y-23090948D01*
X2403436Y-23081667D01*
X2400750Y-23071409D01*
X2391468Y-23063104D01*
X2383164Y-23056998D01*
X2370464Y-23056998D01*
X2355076Y-23056998D01*
X2347993Y-23059929D01*
X2340177Y-23057242D01*
X2340177Y-23062127D01*
X2339933Y-23066279D01*
X2322836Y-23086307D01*
X2309647Y-23095344D01*
X2307449Y-23109999D01*
X2295969Y-23132469D01*
X2283269Y-23154207D01*
X2276430Y-23166907D01*
X2271301Y-23186691D01*
X2262997Y-23215023D01*
X2258356Y-23227724D01*
X2255181Y-23240913D01*
X2253471Y-23249950D01*
X2250785Y-23262895D01*
X2248098Y-23277305D01*
X2081705Y-23277305D01*
X2100819Y-23275596D01*
X2127198Y-23273642D01*
X2128663Y-23262651D01*
X2135990Y-23242623D01*
X2142341Y-23222595D01*
X2146981Y-23207696D01*
X2155530Y-23187912D01*
X2164567Y-23169106D01*
X2170429Y-23158359D01*
X2179710Y-23140529D01*
X2188503Y-23122700D01*
X2196318Y-23110732D01*
X2206332Y-23092169D01*
X2216835Y-23068966D01*
X2230268Y-23054556D01*
X2243213Y-23041122D01*
X2257135Y-23027201D01*
X2280582Y-23003509D01*
X2303541Y-22980550D01*
X2317707Y-22967605D01*
X2327965Y-22959057D01*
X2340422Y-22949776D01*
X2367533Y-22938052D01*
X2389026Y-22928526D01*
X2404413Y-22922909D01*
X2423709Y-22916803D01*
X2433967Y-22916803D01*
X2449354Y-22916803D01*
X2464986Y-22923153D01*
G37*
G36*
X2191922Y-22961988D02*
G01*
X2209019Y-22954416D01*
X2221720Y-22946600D01*
X2293527Y-22946600D01*
X2365823Y-22946600D01*
X2389026Y-22950020D01*
X2431524Y-22954905D01*
X2477442Y-22959790D01*
X2513101Y-22962965D01*
X2538503Y-22966384D01*
X2584176Y-22973467D01*
X2632947Y-22979405D01*
X2634490Y-22979573D01*
X2669661Y-22983237D01*
X2692376Y-22989099D01*
X2721685Y-22993984D01*
X2748063Y-22997891D01*
X2763206Y-23000090D01*
X2767114Y-23000822D01*
X2775907Y-23005951D01*
X2791294Y-23014011D01*
X2801064Y-23014011D01*
X2806926Y-23014011D01*
X2819870Y-23011325D01*
X2832083Y-23008638D01*
X2852843Y-22999113D01*
X2866277Y-22992274D01*
X2887037Y-22973223D01*
X2905844Y-22953683D01*
X2914392Y-22938296D01*
X2923185Y-22920711D01*
X2923185Y-22911674D01*
X2923185Y-22898973D01*
X2911950Y-22887494D01*
X2902669Y-22886517D01*
X2888991Y-22877235D01*
X2863346Y-22873328D01*
X2842585Y-22869664D01*
X2814497Y-22864779D01*
X2787386Y-22859894D01*
X2770778Y-22856475D01*
X2736584Y-22852078D01*
X2687979Y-22845728D01*
X2640596Y-22838889D01*
X2611531Y-22835226D01*
X2584176Y-22831806D01*
X2544853Y-22826921D01*
X2506263Y-22822037D01*
X2482083Y-22818373D01*
X2457903Y-22817152D01*
X2427861Y-22815686D01*
X2400017Y-22813488D01*
X2382431Y-22811290D01*
X2280826Y-22811290D01*
X2183618Y-22811290D01*
X2165055Y-22819838D01*
X2149180Y-22831074D01*
X2132083Y-22842797D01*
X2119870Y-22852078D01*
X2103506Y-22853788D01*
X2075907Y-22855254D01*
X2048551Y-22856719D01*
X2027547Y-22857940D01*
X2013381Y-22863802D01*
X1966857Y-22882716D01*
X1964532Y-22883830D01*
X1999947Y-22882853D01*
X2003855Y-22887494D01*
X2012892Y-22891402D01*
X2030478Y-22892867D01*
X2056367Y-22895798D01*
X2082745Y-22898729D01*
X2100331Y-22892134D01*
X1878558Y-22884318D01*
X1840945Y-22897019D01*
X1849249Y-22906300D01*
X1865369Y-22908499D01*
X1881734Y-22910697D01*
X1891992Y-22912162D01*
X1916660Y-22915826D01*
X1962090Y-22918024D01*
X2006786Y-22918024D01*
X2031210Y-22918024D01*
X2046598Y-22920955D01*
X2068579Y-22923642D01*
X2088607Y-22925107D01*
X2097644Y-22925596D01*
X2106437Y-22931946D01*
X2114009Y-22937075D01*
X2120115Y-22935121D01*
X2126221Y-22943181D01*
X2136967Y-22940006D01*
X2139166Y-22953195D01*
X2154064Y-22961988D01*
X2170917Y-22961988D01*
X2191922Y-22961988D01*
G37*
G36*
X2169696Y-22179189D02*
G01*
X2196318Y-22187494D01*
X2203157Y-22190669D01*
X2215125Y-22195309D01*
X2229780Y-22201171D01*
X2231734Y-22209476D01*
X2257868Y-22210452D01*
X2276919Y-22218757D01*
X2286688Y-22219245D01*
X2305739Y-22224374D01*
X2325523Y-22229992D01*
X2340177Y-22233900D01*
X2354832Y-22236098D01*
X2376570Y-22240494D01*
X2396109Y-22244402D01*
X2408077Y-22246356D01*
X2430547Y-22252218D01*
X2457414Y-22257103D01*
X2480861Y-22260522D01*
X2491852Y-22261743D01*
X2505774Y-22258324D01*
X2521406Y-22254905D01*
X2523604Y-22254172D01*
X2530931Y-22253439D01*
X2539480Y-22255637D01*
X2543876Y-22259790D01*
X2548272Y-22264186D01*
X2559263Y-22277131D01*
X2567323Y-22292274D01*
X2567323Y-22308638D01*
X2567323Y-22334039D01*
X2567323Y-22359441D01*
X2567323Y-22375561D01*
X2567323Y-22395344D01*
X2567323Y-22420746D01*
X2567323Y-22443460D01*
X2567323Y-22453230D01*
X2565125Y-22463977D01*
X2560729Y-22481562D01*
X2555111Y-22501346D01*
X2550471Y-22516489D01*
X2548028Y-22527724D01*
X2542655Y-22540425D01*
X2535816Y-22560208D01*
X2528733Y-22577549D01*
X2523604Y-22589273D01*
X2516521Y-22603439D01*
X2509193Y-22618338D01*
X2502843Y-22628108D01*
X2496737Y-22637145D01*
X2487456Y-22651067D01*
X2478175Y-22664744D01*
X2471824Y-22673537D01*
X2458391Y-22687459D01*
X2434455Y-22712860D01*
X2407588Y-22739727D01*
X2387561Y-22759266D01*
X2377058Y-22765128D01*
X2367044Y-22771234D01*
X2347993Y-22782469D01*
X2331385Y-22790041D01*
X2306960Y-22797612D01*
X2285467Y-22803963D01*
X2267149Y-22803963D01*
X2247121Y-22803963D01*
X2234665Y-22801276D01*
X2222697Y-22798345D01*
X2215614Y-22794437D01*
X2211217Y-22791995D01*
X2205355Y-22788820D01*
X2195830Y-22780515D01*
X2184839Y-22768303D01*
X2173604Y-22757068D01*
X2165300Y-22749008D01*
X2154064Y-22735330D01*
X2146004Y-22720676D01*
X2144050Y-22715547D01*
X2139410Y-22703335D01*
X2134281Y-22688191D01*
X2132083Y-22675002D01*
X2128419Y-22659615D01*
X2128175Y-22644961D01*
X2121336Y-22640808D01*
X2120603Y-22635679D01*
X2095690Y-22632016D01*
X2067602Y-22628352D01*
X2052948Y-22625665D01*
X2030966Y-22624200D01*
X2006786Y-22622490D01*
X1986758Y-22617361D01*
X1973569Y-22593181D01*
X2101465Y-22595997D01*
X2093492Y-22585365D01*
X2097400Y-22574374D01*
X2099110Y-22567047D01*
X2112299Y-22562651D01*
X2116207Y-22560452D01*
X2120115Y-22550439D01*
X2126221Y-22529678D01*
X2132815Y-22508429D01*
X2138433Y-22492553D01*
X2148756Y-22475700D01*
X2262020Y-22475700D01*
X2262020Y-22527968D01*
X2262020Y-22583167D01*
X2268126Y-22601241D01*
X2276186Y-22627619D01*
X2280338Y-22634947D01*
X2293283Y-22646182D01*
X2296702Y-22654974D01*
X2304762Y-22658882D01*
X2307693Y-22662302D01*
X2313066Y-22664011D01*
X2316974Y-22669629D01*
X2332117Y-22667187D01*
X2351901Y-22667187D01*
X2357274Y-22664500D01*
X2366800Y-22658638D01*
X2371929Y-22655951D01*
X2376325Y-22644716D01*
X2385851Y-22632504D01*
X2394155Y-22622734D01*
X2404413Y-22600020D01*
X2413450Y-22582679D01*
X2413450Y-22572665D01*
X2417114Y-22569978D01*
X2397575Y-22570711D01*
X2375104Y-22564849D01*
X2366800Y-22560941D01*
X2361427Y-22543844D01*
X2374371Y-22541646D01*
X2381943Y-22539448D01*
X2403681Y-22532120D01*
X2421510Y-22534563D01*
X2400261Y-22519420D01*
X2418579Y-22512337D01*
X2431036Y-22509894D01*
X2433478Y-22498903D01*
X2436165Y-22488157D01*
X2437630Y-22481318D01*
X2437630Y-22452009D01*
X2437630Y-22420746D01*
X2435921Y-22416349D01*
X2434944Y-22413174D01*
X2407100Y-22413174D01*
X2377302Y-22413174D01*
X2358984Y-22416593D01*
X2341399Y-22421478D01*
X2315265Y-22429050D01*
X2297435Y-22438575D01*
X2282048Y-22448101D01*
X2269347Y-22463488D01*
X2263974Y-22470815D01*
X2262020Y-22475700D01*
X2148756Y-22475700D01*
X2150401Y-22473014D01*
X2164811Y-22450543D01*
X2169207Y-22439308D01*
X2175558Y-22428317D01*
X2189480Y-22410976D01*
X2208775Y-22389482D01*
X2228314Y-22368722D01*
X2241259Y-22361639D01*
X2233688Y-22361883D01*
X2218789Y-22357487D01*
X2193387Y-22350648D01*
X2167254Y-22343321D01*
X2151378Y-22337459D01*
X2139410Y-22334528D01*
X2118161Y-22328178D01*
X2096179Y-22321094D01*
X2080303Y-22314256D01*
X2060275Y-22306928D01*
X2040491Y-22297891D01*
X2031210Y-22290076D01*
X2031210Y-22275177D01*
X2031210Y-22262720D01*
X2034385Y-22247577D01*
X2038782Y-22238296D01*
X2049284Y-22224863D01*
X2066381Y-22208010D01*
X2083478Y-22191890D01*
X2096423Y-22180899D01*
X2107414Y-22176503D01*
X2119382Y-22170885D01*
X2135258Y-22170885D01*
X2148447Y-22170885D01*
X2169696Y-22179189D01*
G37*
G36*
X2125732Y-22151346D02*
G01*
X2135502Y-22158429D01*
X2150889Y-22170885D01*
X2173848Y-22171374D01*
X2197540Y-22177235D01*
X2209996Y-22180411D01*
X2229047Y-22183342D01*
X2248586Y-22186028D01*
X2261775Y-22188471D01*
X2294016Y-22192379D01*
X2343726Y-22196371D01*
X2354344Y-22197263D01*
X2404225Y-22201419D01*
X2428349Y-22203614D01*
X2478178Y-22208207D01*
X2502599Y-22210697D01*
X2552186Y-22215447D01*
X2561706Y-22216314D01*
X2592725Y-22219489D01*
X2627407Y-22225107D01*
X2656472Y-22230725D01*
X2664288Y-22233167D01*
X2672348Y-22231702D01*
X2675767Y-22238052D01*
X2683827Y-22240983D01*
X2695551Y-22247577D01*
X2706542Y-22247577D01*
X2713625Y-22242448D01*
X2721685Y-22246112D01*
X2730233Y-22244891D01*
X2745865Y-22237319D01*
X2767847Y-22225107D01*
X2769801Y-22216559D01*
X2781280Y-22206545D01*
X2792515Y-22194088D01*
X2801552Y-22184318D01*
X2808391Y-22166977D01*
X2812787Y-22150124D01*
X2812787Y-22136203D01*
X2809124Y-22120571D01*
X2804727Y-22116907D01*
X2799354Y-22111778D01*
X2781524Y-22105672D01*
X2763695Y-22099810D01*
X2756123Y-22098589D01*
X2741713Y-22095414D01*
X2725593Y-22091262D01*
X2711427Y-22087598D01*
X2697260Y-22086866D01*
X2678698Y-22084912D01*
X2659403Y-22082225D01*
X2646946Y-22080760D01*
X2634490Y-22078806D01*
X2612752Y-22075386D01*
X2590526Y-22072700D01*
X2579291Y-22075386D01*
X2573185Y-22068059D01*
X2566591Y-22070746D01*
X2577581Y-22067570D01*
X2597365Y-22053404D01*
X2616660Y-22038261D01*
X2627407Y-22028736D01*
X2647435Y-22011639D01*
X2675767Y-21985505D01*
X2677233Y-21980376D01*
X2678942Y-21974025D01*
X2691643Y-21962302D01*
X2703367Y-21946914D01*
X2712159Y-21921757D01*
X2724127Y-21893181D01*
X2720952Y-21892693D01*
X2720952Y-21885854D01*
X2720219Y-21881213D01*
X2719487Y-21879015D01*
X2719487Y-21868757D01*
X2712404Y-21862406D01*
X2708007Y-21854102D01*
X2693108Y-21842379D01*
X2679919Y-21833830D01*
X2663555Y-21831388D01*
X2658914Y-21823083D01*
X2646458Y-21819908D01*
X2614462Y-21810627D01*
X2567643Y-21796568D01*
X2558286Y-21793774D01*
X2509787Y-21779329D01*
X2501378Y-21776921D01*
X2466695Y-21766175D01*
X2458391Y-21764221D01*
X2442759Y-21759580D01*
X2423953Y-21753718D01*
X2410764Y-21750787D01*
X2382676Y-21744926D01*
X2333816Y-21735576D01*
X2326256Y-21734179D01*
X2277930Y-21725504D01*
X2269591Y-21724165D01*
X2241748Y-21722700D01*
X2231245Y-21714884D01*
X2214637Y-21711464D01*
X2205355Y-21712930D01*
X2198272Y-21714395D01*
X2182152Y-21720257D01*
X2176535Y-21730760D01*
X2166521Y-21730515D01*
X2151866Y-21741262D01*
X2137700Y-21752497D01*
X2129640Y-21758847D01*
X2119870Y-21760801D01*
X2099354Y-21763488D01*
X2078593Y-21766175D01*
X2066381Y-21775456D01*
X2079082Y-21789866D01*
X2092027Y-21789378D01*
X2103262Y-21792553D01*
X2114009Y-21792064D01*
X2109368Y-21801346D01*
X2109368Y-21814535D01*
X2109368Y-21818687D01*
X2117184Y-21824305D01*
X2110833Y-21839203D01*
X2120603Y-21847019D01*
X2138433Y-21852148D01*
X2154064Y-21855079D01*
X2192899Y-21862651D01*
X2241740Y-21871483D01*
X2262020Y-21875351D01*
X2310306Y-21884524D01*
X2330652Y-21888540D01*
X2366556Y-21896356D01*
X2397819Y-21905882D01*
X2444713Y-21921513D01*
X2491852Y-21937877D01*
X2526779Y-21940564D01*
X2480861Y-21932748D01*
X2430998Y-21932748D01*
X2402948Y-21932748D01*
X2353241Y-21933798D01*
X2325523Y-21935435D01*
X2280094Y-21940564D01*
X2256158Y-21943984D01*
X2217568Y-21966454D01*
X2261775Y-21966454D01*
X2309159Y-21966454D01*
X2356542Y-21966454D01*
X2381454Y-21966454D01*
X2397575Y-21966454D01*
X2422976Y-21966454D01*
X2448377Y-21966454D01*
X2464741Y-21966454D01*
X2487944Y-21966454D01*
X2522627Y-21966454D01*
X2557065Y-21966454D01*
X2575139Y-21960104D01*
X2564148Y-21959615D01*
X2547540Y-21968896D01*
X2529954Y-21979155D01*
X2517986Y-21986482D01*
X2499912Y-21996496D01*
X2481838Y-22006510D01*
X2470115Y-22009929D01*
X2451064Y-22015547D01*
X2433234Y-22020920D01*
X2424441Y-22023362D01*
X2387805Y-22026782D01*
X2338431Y-22028875D01*
X2323325Y-22028980D01*
X2273179Y-22028980D01*
X2257623Y-22028980D01*
X2220010Y-22028980D01*
X2200471Y-22039482D01*
X2185816Y-22048764D01*
X2176535Y-22058289D01*
X2163590Y-22072944D01*
X2151622Y-22085644D01*
X2143562Y-22090285D01*
X2133548Y-22094926D01*
X2113520Y-22098345D01*
X2091294Y-22102741D01*
X2079082Y-22106894D01*
X2069312Y-22110801D01*
X2060764Y-22123502D01*
X2135502Y-22116663D01*
X2113520Y-22115442D01*
X2083967Y-22121792D01*
X2053681Y-22127410D01*
X2034630Y-22131074D01*
X2012159Y-22138401D01*
X1993108Y-22154521D01*
X2125732Y-22151346D01*
G37*
G36*
X2343597Y-21709999D02*
G01*
X2346772Y-21721723D01*
X2357519Y-21719769D01*
X2359228Y-21730515D01*
X2370219Y-21735400D01*
X2378768Y-21735400D01*
X2380966Y-21731981D01*
X2390980Y-21730027D01*
X2406856Y-21720990D01*
X2420045Y-21712441D01*
X2425662Y-21708778D01*
X2434455Y-21710243D01*
X2453995Y-21712930D01*
X2474267Y-21715128D01*
X2485258Y-21715616D01*
X2505774Y-21715616D01*
X2540945Y-21715616D01*
X2578314Y-21715616D01*
X2605181Y-21715616D01*
X2628628Y-21715616D01*
X2651343Y-21719280D01*
X2668684Y-21715616D01*
X2687491Y-21715616D01*
X2704588Y-21715616D01*
X2714357Y-21715616D01*
X2724616Y-21714151D01*
X2747819Y-21709999D01*
X2773709Y-21704381D01*
X2793492Y-21697787D01*
X2807903Y-21695833D01*
X2830861Y-21691681D01*
X2853087Y-21687529D01*
X2869452Y-21685575D01*
X2888014Y-21675561D01*
X2897540Y-21659929D01*
X2908286Y-21641611D01*
X2916346Y-21641367D01*
X2916102Y-21634284D01*
X2928803Y-21620362D01*
X2924651Y-21607905D01*
X2933932Y-21601311D01*
X2937351Y-21593984D01*
X2937351Y-21579817D01*
X2932222Y-21568827D01*
X2933199Y-21567850D01*
X2919033Y-21556859D01*
X2905600Y-21550997D01*
X2884106Y-21553928D01*
X2852599Y-21560278D01*
X2821092Y-21567361D01*
X2801552Y-21572002D01*
X2787875Y-21573467D01*
X2767114Y-21574933D01*
X2744888Y-21574933D01*
X2727791Y-21574933D01*
X2712404Y-21574933D01*
X2684071Y-21574933D01*
X2653053Y-21575665D01*
X2632536Y-21577864D01*
X2611531Y-21576398D01*
X2588328Y-21573223D01*
X2571475Y-21574933D01*
X2550959Y-21574933D01*
X2531908Y-21574933D01*
X2523360Y-21574933D01*
X2508461Y-21574933D01*
X2499424Y-21579329D01*
X2500401Y-21573956D01*
X2513590Y-21547333D01*
X2527267Y-21523886D01*
X2546074Y-21495798D01*
X2563171Y-21469908D01*
X2573185Y-21454765D01*
X2580757Y-21449148D01*
X2594434Y-21441088D01*
X2608845Y-21433027D01*
X2620080Y-21424479D01*
X2622522Y-21415686D01*
X2633025Y-21400543D01*
X2643771Y-21381248D01*
X2646214Y-21368303D01*
X2656228Y-21358045D01*
X2659647Y-21348275D01*
X2656716Y-21337529D01*
X2654030Y-21329224D01*
X2651099Y-21319943D01*
X2651099Y-21312860D01*
X2645481Y-21300404D01*
X2633513Y-21293565D01*
X2614706Y-21293565D01*
X2605914Y-21299915D01*
X2601762Y-21300404D01*
X2580268Y-21317501D01*
X2557065Y-21331178D01*
X2543632Y-21345833D01*
X2528000Y-21363174D01*
X2513346Y-21379294D01*
X2504309Y-21388820D01*
X2489410Y-21410313D01*
X2468405Y-21439622D01*
X2447400Y-21469664D01*
X2443004Y-21494577D01*
X2444469Y-21479678D01*
X2438119Y-21469420D01*
X2435921Y-21457940D01*
X2430059Y-21439622D01*
X2424441Y-21423502D01*
X2422732Y-21412511D01*
X2413695Y-21391506D01*
X2410031Y-21369036D01*
X2399773Y-21365861D01*
X2391224Y-21347054D01*
X2379256Y-21327026D01*
X2369975Y-21307487D01*
X2357763Y-21293809D01*
X2347993Y-21279155D01*
X2340666Y-21269629D01*
X2328454Y-21254974D01*
X2316974Y-21241541D01*
X2309403Y-21227375D01*
X2291329Y-21218094D01*
X2275453Y-21210278D01*
X2259577Y-21196112D01*
X2243702Y-21194891D01*
X2238572Y-21186831D01*
X2227337Y-21184144D01*
X2218789Y-21184144D01*
X2210729Y-21186342D01*
X2207309Y-21189029D01*
X2200471Y-21193425D01*
X2189235Y-21200753D01*
X2176535Y-21209545D01*
X2163590Y-21225665D01*
X2149424Y-21250334D01*
X2142585Y-21264256D01*
X2137944Y-21276224D01*
X2110345Y-21282085D01*
X2063939Y-21293809D01*
X2018021Y-21305533D01*
X1989445Y-21313837D01*
X1959891Y-21322385D01*
X1939619Y-21334598D01*
X1927896Y-21338750D01*
X1919103Y-21361464D01*
X2135746Y-21320920D01*
X2142585Y-21326538D01*
X2153576Y-21334842D01*
X2164811Y-21333132D01*
X2168719Y-21350229D01*
X2183862Y-21339727D01*
X2191189Y-21348031D01*
X2198761Y-21353893D01*
X2207554Y-21358533D01*
X2180687Y-21365861D01*
X2200226Y-21377829D01*
X2221475Y-21385156D01*
X2227581Y-21388087D01*
X2233932Y-21385644D01*
X2232955Y-21393949D01*
X2237107Y-21402497D01*
X2250785Y-21417396D01*
X2260799Y-21430829D01*
X2264951Y-21440599D01*
X2273255Y-21454765D01*
X2283025Y-21469664D01*
X2292306Y-21470641D01*
X2290108Y-21485540D01*
X2294504Y-21504591D01*
X2305983Y-21526573D01*
X2312578Y-21540983D01*
X2312578Y-21552218D01*
X2317463Y-21560522D01*
X2314532Y-21555637D01*
X2299389Y-21550997D01*
X2274720Y-21543914D01*
X2250540Y-21537319D01*
X2231978Y-21529503D01*
X2206577Y-21529503D01*
X2180687Y-21526084D01*
X2176535Y-21526084D01*
X2171406Y-21526084D01*
X2154309Y-21541471D01*
X2136235Y-21551241D01*
X2133304Y-21564919D01*
X2117672Y-21580306D01*
X2103018Y-21597891D01*
X2094958Y-21606928D01*
X2085921Y-21609371D01*
X2067602Y-21612546D01*
X2046109Y-21616210D01*
X2028279Y-21622316D01*
X2012892Y-21648450D01*
X2091050Y-21629399D01*
X2088852Y-21634528D01*
X2091538Y-21640390D01*
X2092515Y-21644542D01*
X2092515Y-21646496D01*
X2095690Y-21650404D01*
X2083478Y-21644786D01*
X2061741Y-21646984D01*
X2040736Y-21649182D01*
X2027791Y-21649671D01*
X2015823Y-21651136D01*
X1998970Y-21651136D01*
X1979187Y-21659441D01*
X1970882Y-21665058D01*
X1958914Y-21668966D01*
X1939131Y-21689482D01*
X1957693Y-21691436D01*
X1966486Y-21695100D01*
X1985781Y-21693146D01*
X2015823Y-21688261D01*
X2043667Y-21684109D01*
X2059542Y-21682644D01*
X2079326Y-21682644D01*
X2104727Y-21682644D01*
X2113764Y-21682644D01*
X2127198Y-21682644D01*
X2142096Y-21682644D01*
X2156751Y-21686307D01*
X2183129Y-21692413D01*
X2209019Y-21698031D01*
X2224406Y-21699985D01*
X2235886Y-21699985D01*
X2244923Y-21699008D01*
X2263729Y-21703404D01*
X2293527Y-21707312D01*
X2321127Y-21709999D01*
X2336758Y-21711220D01*
X2343597Y-21709999D01*
G37*
G36*
X2117672Y-20827061D02*
G01*
X2113520Y-20835121D01*
X2115474Y-20847089D01*
X2125000Y-20856126D01*
X2133304Y-20864919D01*
X2151378Y-20868094D01*
X2174337Y-20868582D01*
X2195830Y-20870536D01*
X2208775Y-20872246D01*
X2228803Y-20875910D01*
X2253227Y-20875910D01*
X2273255Y-20878108D01*
X2281803Y-20880306D01*
X2315020Y-20880306D01*
X2364470Y-20880306D01*
X2369975Y-20880306D01*
X2420251Y-20880306D01*
X2427128Y-20880306D01*
X2467428Y-20880306D01*
X2485746Y-20880306D01*
X2516765Y-20880306D01*
X2549738Y-20880306D01*
X2573185Y-20880306D01*
X2588572Y-20880306D01*
X2612020Y-20880306D01*
X2634979Y-20880306D01*
X2647435Y-20873711D01*
X2644504Y-20876887D01*
X2643039Y-20875421D01*
X2641573Y-20879573D01*
X2632292Y-20889343D01*
X2617149Y-20899845D01*
X2608845Y-20913034D01*
X2599075Y-20927689D01*
X2589305Y-20942832D01*
X2589549Y-20952113D01*
X2576116Y-20961639D01*
X2564392Y-20979713D01*
X2554378Y-20997787D01*
X2549738Y-21008289D01*
X2548517Y-21015372D01*
X2547051Y-21026363D01*
X2547051Y-21045414D01*
X2559263Y-21055184D01*
X2574162Y-21055184D01*
X2580512Y-21056649D01*
X2587351Y-21056649D01*
X2591503Y-21057870D01*
X2609577Y-21051520D01*
X2633269Y-21045414D01*
X2634979Y-21035156D01*
X2648656Y-21027096D01*
X2661601Y-21016349D01*
X2671859Y-21009266D01*
X2678698Y-20995833D01*
X2683583Y-20987284D01*
X2688224Y-20979957D01*
X2694085Y-20965058D01*
X2697993Y-20950404D01*
X2702634Y-20943809D01*
X2714602Y-20941855D01*
X2726325Y-20925002D01*
X2745376Y-20909127D01*
X2765404Y-20892274D01*
X2777372Y-20880306D01*
X2790561Y-20872490D01*
X2808147Y-20862720D01*
X2828419Y-20851730D01*
X2845760Y-20841471D01*
X2859438Y-20835365D01*
X2878489Y-20829259D01*
X2879221Y-20822665D01*
X2884106Y-20816314D01*
X2896074Y-20803125D01*
X2903646Y-20789448D01*
X2913660Y-20781388D01*
X2919521Y-20772106D01*
X2919521Y-20757452D01*
X2919521Y-20753300D01*
X2922208Y-20747926D01*
X2913171Y-20736691D01*
X2903157Y-20731806D01*
X2884839Y-20731806D01*
X2880687Y-20731806D01*
X2875558Y-20730341D01*
X2865300Y-20728387D01*
X2856751Y-20731074D01*
X2840631Y-20736447D01*
X2826465Y-20741088D01*
X2819138Y-20742797D01*
X2801796Y-20745728D01*
X2778349Y-20743530D01*
X2779326Y-20751101D01*
X2767114Y-20749148D01*
X2752948Y-20750613D01*
X2742445Y-20751346D01*
X2711915Y-20751346D01*
X2688712Y-20751346D01*
X2671859Y-20751346D01*
X2645725Y-20751346D01*
X2621057Y-20751346D01*
X2607135Y-20751346D01*
X2577337Y-20751346D01*
X2532885Y-20751346D01*
X2489166Y-20751346D01*
X2460345Y-20751346D01*
X2411358Y-20751346D01*
X2406856Y-20751346D01*
X2357193Y-20751346D01*
X2329919Y-20751346D01*
X2280396Y-20751346D01*
X2256891Y-20751346D01*
X2212927Y-20739622D01*
X2175558Y-20739622D01*
X2125732Y-20739622D01*
X2076151Y-20736447D01*
X2040980Y-20731562D01*
X2004588Y-20743530D01*
X2041713Y-20759161D01*
X2059298Y-20762825D01*
X2080547Y-20768443D01*
X2113032Y-20773572D01*
X2143806Y-20777480D01*
X2158949Y-20775037D01*
X2131106Y-20791646D01*
X2114253Y-20793111D01*
X2085188Y-20793600D01*
X2055879Y-20793600D01*
X2037316Y-20793600D01*
X2022662Y-20793600D01*
X2001413Y-20793600D01*
X1980896Y-20794332D01*
X1956960Y-20795065D01*
X1966974Y-20822420D01*
X2117672Y-20827061D01*
G37*
G36*
X2117916Y-20525421D02*
G01*
X2118649Y-20533970D01*
X2096912Y-20536656D01*
X2070533Y-20542518D01*
X2056367Y-20543251D01*
X2040247Y-20545693D01*
X2016800Y-20549845D01*
X2016800Y-20578422D01*
X2123778Y-20575979D01*
X2121580Y-20578178D01*
X2123534Y-20581841D01*
X2125732Y-20594786D01*
X2130861Y-20614081D01*
X2136723Y-20632888D01*
X2140387Y-20643146D01*
X2145760Y-20661953D01*
X2156018Y-20682958D01*
X2159193Y-20694193D01*
X2164078Y-20702497D01*
X2172627Y-20710313D01*
X2183374Y-20721304D01*
X2194120Y-20734004D01*
X2203890Y-20742064D01*
X2211217Y-20744995D01*
X2215125Y-20747438D01*
X2221231Y-20751101D01*
X2233199Y-20754032D01*
X2244434Y-20757208D01*
X2269103Y-20757208D01*
X2290352Y-20757208D01*
X2308426Y-20754277D01*
X2329187Y-20751346D01*
X2363136Y-20743286D01*
X2393911Y-20734981D01*
X2412473Y-20728631D01*
X2445446Y-20718617D01*
X2478663Y-20708603D01*
X2497958Y-20703718D01*
X2528977Y-20694681D01*
X2560729Y-20686377D01*
X2580268Y-20682713D01*
X2597609Y-20679050D01*
X2635711Y-20679050D01*
X2673569Y-20679050D01*
X2678698Y-20680271D01*
X2686758Y-20682958D01*
X2696284Y-20685400D01*
X2698970Y-20699078D01*
X2706786Y-20711778D01*
X2708740Y-20720327D01*
X2716067Y-20723991D01*
X2724860Y-20726433D01*
X2734874Y-20728143D01*
X2742445Y-20728143D01*
X2748307Y-20728143D01*
X2756856Y-20726189D01*
X2763450Y-20723991D01*
X2780547Y-20718617D01*
X2798377Y-20709580D01*
X2831350Y-20676852D01*
X2839166Y-20665861D01*
X2847714Y-20652183D01*
X2851133Y-20640704D01*
X2854797Y-20628003D01*
X2854797Y-20620920D01*
X2854797Y-20616035D01*
X2845760Y-20600159D01*
X2837944Y-20587215D01*
X2834281Y-20578910D01*
X2830373Y-20575002D01*
X2812055Y-20566454D01*
X2796179Y-20557173D01*
X2779082Y-20553753D01*
X2762229Y-20550090D01*
X2700191Y-20550090D01*
X2641329Y-20550090D01*
X2623499Y-20553753D01*
X2602250Y-20557173D01*
X2587351Y-20560836D01*
X2568300Y-20565721D01*
X2549738Y-20570850D01*
X2541434Y-20577445D01*
X2517986Y-20579643D01*
X2476221Y-20591611D01*
X2434699Y-20604312D01*
X2411741Y-20611883D01*
X2391468Y-20616768D01*
X2376081Y-20620187D01*
X2340666Y-20620187D01*
X2310380Y-20620187D01*
X2300610Y-20610906D01*
X2289375Y-20598205D01*
X2282536Y-20587703D01*
X2277896Y-20579887D01*
X2276430Y-20575247D01*
X2272766Y-20562302D01*
X2269103Y-20550822D01*
X2263729Y-20532504D01*
X2254692Y-20519559D01*
X2257623Y-20511011D01*
X2255425Y-20494891D01*
X2253227Y-20479259D01*
X2252006Y-20469489D01*
X2250540Y-20451660D01*
X2249075Y-20427724D01*
X2248342Y-20406231D01*
X2247854Y-20394751D01*
X2246388Y-20375700D01*
X2244923Y-20352986D01*
X2244923Y-20345903D01*
X2246388Y-20337354D01*
X2246388Y-20331492D01*
X2263241Y-20327340D01*
X2308670Y-20327340D01*
X2376081Y-20327340D01*
X2388538Y-20327340D01*
X2409542Y-20327340D01*
X2431280Y-20327340D01*
X2444225Y-20324165D01*
X2454727Y-20330515D01*
X2478419Y-20335156D01*
X2502355Y-20339308D01*
X2519940Y-20342972D01*
X2537526Y-20348101D01*
X2565125Y-20354451D01*
X2591503Y-20360801D01*
X2608112Y-20365930D01*
X2644016Y-20376921D01*
X2691807Y-20391347D01*
X2698970Y-20393530D01*
X2747162Y-20408116D01*
X2753681Y-20410138D01*
X2792027Y-20421129D01*
X2812543Y-20421129D01*
X2830861Y-20421129D01*
X2841364Y-20418931D01*
X2851133Y-20412337D01*
X2861636Y-20405498D01*
X2873360Y-20398171D01*
X2882152Y-20388157D01*
X2892166Y-20377898D01*
X2897540Y-20367396D01*
X2908775Y-20357138D01*
X2911461Y-20345903D01*
X2914392Y-20335400D01*
X2914392Y-20322455D01*
X2914392Y-20314151D01*
X2906088Y-20301206D01*
X2894120Y-20290459D01*
X2876046Y-20283621D01*
X2860415Y-20278247D01*
X2848447Y-20274584D01*
X2800331Y-20261395D01*
X2753014Y-20247717D01*
X2715579Y-20236970D01*
X2665753Y-20222377D01*
X2616380Y-20207919D01*
X2612997Y-20206928D01*
X2563627Y-20192299D01*
X2516726Y-20178635D01*
X2510659Y-20176887D01*
X2462585Y-20163129D01*
X2425662Y-20152706D01*
X2378279Y-20139273D01*
X2364846Y-20135121D01*
X2345307Y-20129015D01*
X2323569Y-20121932D01*
X2308426Y-20118024D01*
X2294993Y-20112895D01*
X2272766Y-20104102D01*
X2250052Y-20094577D01*
X2233688Y-20086028D01*
X2220010Y-20079922D01*
X2205111Y-20069420D01*
X2186304Y-20069420D01*
X2168230Y-20069420D01*
X2156751Y-20075770D01*
X2150889Y-20080899D01*
X2153332Y-20087249D01*
X2139410Y-20088959D01*
X2130129Y-20097508D01*
X2122069Y-20103614D01*
X2109612Y-20107522D01*
X2103506Y-20123886D01*
X2093004Y-20139029D01*
X2089584Y-20147577D01*
X2085921Y-20158080D01*
X2085921Y-20166628D01*
X2085921Y-20179329D01*
X2097400Y-20198380D01*
X2110833Y-20213523D01*
X2117672Y-20225735D01*
X2126709Y-20242588D01*
X2135502Y-20243565D01*
X2139410Y-20245763D01*
X2146493Y-20249427D01*
X2151133Y-20249427D01*
X2156263Y-20249427D01*
X2168475Y-20246496D01*
X2181420Y-20240878D01*
X2185083Y-20241122D01*
X2183618Y-20240390D01*
X2185083Y-20241855D01*
X2191922Y-20240145D01*
X2182885Y-20240145D01*
X2172871Y-20251136D01*
X2163590Y-20260906D01*
X2158461Y-20267012D01*
X2145760Y-20279713D01*
X2130617Y-20297787D01*
X2126953Y-20306824D01*
X2126709Y-20315372D01*
X2120359Y-20324898D01*
X2117916Y-20336866D01*
X2112299Y-20358115D01*
X2109368Y-20376433D01*
X2109368Y-20491716D01*
X2073709Y-20491716D01*
X2024433Y-20491716D01*
X2006786Y-20491716D01*
X1957446Y-20491716D01*
X1939375Y-20491716D01*
X1892236Y-20491716D01*
X1876360Y-20499531D01*
X1853157Y-20502951D01*
X1828489Y-20506370D01*
X1813101Y-20517605D01*
X1818719Y-20525421D01*
X2117916Y-20525421D01*
G37*
G36*
X2117672Y-19945833D02*
G01*
X2113520Y-19953893D01*
X2115474Y-19965861D01*
X2125000Y-19974898D01*
X2133304Y-19983690D01*
X2151378Y-19986866D01*
X2174337Y-19987354D01*
X2195830Y-19989308D01*
X2208775Y-19991018D01*
X2228803Y-19994681D01*
X2253227Y-19994681D01*
X2273255Y-19996880D01*
X2281803Y-19999078D01*
X2315020Y-19999078D01*
X2364470Y-19999078D01*
X2369975Y-19999078D01*
X2420251Y-19999078D01*
X2427128Y-19999078D01*
X2467428Y-19999078D01*
X2485746Y-19999078D01*
X2516765Y-19999078D01*
X2549738Y-19999078D01*
X2573185Y-19999078D01*
X2588572Y-19999078D01*
X2612020Y-19999078D01*
X2634979Y-19999078D01*
X2647435Y-19992483D01*
X2644504Y-19995658D01*
X2643039Y-19994193D01*
X2641573Y-19998345D01*
X2632292Y-20008115D01*
X2617149Y-20018617D01*
X2608845Y-20031806D01*
X2599075Y-20046461D01*
X2589305Y-20061604D01*
X2589549Y-20070885D01*
X2576116Y-20080411D01*
X2564392Y-20098485D01*
X2554378Y-20116559D01*
X2549738Y-20127061D01*
X2548517Y-20134144D01*
X2547051Y-20145135D01*
X2547051Y-20164186D01*
X2559263Y-20173956D01*
X2574162Y-20173956D01*
X2580512Y-20175421D01*
X2587351Y-20175421D01*
X2591503Y-20176642D01*
X2609577Y-20170292D01*
X2633269Y-20164186D01*
X2634979Y-20153928D01*
X2648656Y-20145868D01*
X2661601Y-20135121D01*
X2671859Y-20128038D01*
X2678698Y-20114605D01*
X2683583Y-20106056D01*
X2688224Y-20098729D01*
X2694085Y-20083830D01*
X2697993Y-20069175D01*
X2702634Y-20062581D01*
X2714602Y-20060627D01*
X2726325Y-20043774D01*
X2745376Y-20027898D01*
X2765404Y-20011046D01*
X2777372Y-19999078D01*
X2790561Y-19991262D01*
X2808147Y-19981492D01*
X2828419Y-19970501D01*
X2845760Y-19960243D01*
X2859438Y-19954137D01*
X2878489Y-19948031D01*
X2879221Y-19941436D01*
X2884106Y-19935086D01*
X2896074Y-19921897D01*
X2903646Y-19908219D01*
X2913660Y-19900159D01*
X2919521Y-19890878D01*
X2919521Y-19876224D01*
X2919521Y-19872071D01*
X2922208Y-19866698D01*
X2913171Y-19855463D01*
X2903157Y-19850578D01*
X2884839Y-19850578D01*
X2880687Y-19850578D01*
X2875558Y-19849113D01*
X2865300Y-19847159D01*
X2856751Y-19849845D01*
X2840631Y-19855219D01*
X2826465Y-19859859D01*
X2819138Y-19861569D01*
X2801796Y-19864500D01*
X2778349Y-19862302D01*
X2779326Y-19869873D01*
X2767114Y-19867919D01*
X2752948Y-19869385D01*
X2742445Y-19870118D01*
X2711915Y-19870118D01*
X2688712Y-19870118D01*
X2671859Y-19870118D01*
X2645725Y-19870118D01*
X2621057Y-19870118D01*
X2607135Y-19870118D01*
X2577337Y-19870118D01*
X2532885Y-19870118D01*
X2489166Y-19870118D01*
X2460345Y-19870118D01*
X2411358Y-19870118D01*
X2406856Y-19870118D01*
X2357193Y-19870118D01*
X2329919Y-19870118D01*
X2280396Y-19870118D01*
X2256891Y-19870118D01*
X2212927Y-19858394D01*
X2175558Y-19858394D01*
X2125732Y-19858394D01*
X2076151Y-19855219D01*
X2040980Y-19850334D01*
X2004588Y-19862302D01*
X2041713Y-19877933D01*
X2059298Y-19881597D01*
X2080547Y-19887215D01*
X2113032Y-19892344D01*
X2143806Y-19896251D01*
X2158949Y-19893809D01*
X2131106Y-19910418D01*
X2114253Y-19911883D01*
X2085188Y-19912372D01*
X2055879Y-19912372D01*
X2037316Y-19912372D01*
X2022662Y-19912372D01*
X2001413Y-19912372D01*
X1980896Y-19913104D01*
X1956960Y-19913837D01*
X1966974Y-19941192D01*
X2117672Y-19945833D01*
G37*
G36*
X2086409Y-19780969D02*
G01*
X2102041Y-19788296D01*
X2119138Y-19793670D01*
X2133060Y-19799531D01*
X2151866Y-19803439D01*
X2165544Y-19805637D01*
X2192166Y-19810522D01*
X2220498Y-19815407D01*
X2241748Y-19818582D01*
X2271301Y-19821513D01*
X2296458Y-19824200D01*
X2347134Y-19830769D01*
X2351901Y-19831283D01*
X2401494Y-19836759D01*
X2432257Y-19840320D01*
X2481678Y-19846235D01*
X2508949Y-19849601D01*
X2557309Y-19856440D01*
X2577581Y-19856440D01*
X2603227Y-19857661D01*
X2626430Y-19859615D01*
X2639863Y-19860348D01*
X2728768Y-19860348D01*
X2813276Y-19860348D01*
X2834769Y-19857905D01*
X2863834Y-19855219D01*
X2879954Y-19849845D01*
X2892166Y-19847159D01*
X2915858Y-19835924D01*
X2942480Y-19824688D01*
X2952494Y-19818094D01*
X2964218Y-19811499D01*
X2983269Y-19794158D01*
X2990108Y-19783656D01*
X2997191Y-19774619D01*
X3001099Y-19767536D01*
X3006228Y-19758499D01*
X3011357Y-19743844D01*
X3013555Y-19739203D01*
X3015753Y-19730655D01*
X3013555Y-19722351D01*
X3011357Y-19718198D01*
X3004030Y-19705009D01*
X2990840Y-19697682D01*
X2991329Y-19696217D01*
X2986688Y-19695728D01*
X2980826Y-19694995D01*
X2975209Y-19697682D01*
X2957379Y-19700613D01*
X2950296Y-19709650D01*
X2944434Y-19710138D01*
X2933199Y-19714779D01*
X2922941Y-19723572D01*
X2916102Y-19729189D01*
X2914637Y-19730655D01*
X2911461Y-19731388D01*
X2906332Y-19731388D01*
X2685781Y-19731388D01*
X2685781Y-19730411D01*
X2687002Y-19723572D01*
X2689200Y-19710871D01*
X2691399Y-19698659D01*
X2692864Y-19692797D01*
X2698970Y-19657138D01*
X2707824Y-19607487D01*
X2708740Y-19601939D01*
X2716968Y-19553159D01*
X2718021Y-19546740D01*
X2723639Y-19512302D01*
X2727547Y-19504730D01*
X2959822Y-19504730D01*
X2976674Y-19496670D01*
X2995725Y-19483481D01*
X3036758Y-19440250D01*
X3042131Y-19426328D01*
X3049459Y-19408499D01*
X3049459Y-19401415D01*
X3049459Y-19397019D01*
X3044818Y-19375770D01*
X3036025Y-19375770D01*
X2762473Y-19375770D01*
X2716067Y-19376014D01*
X2483060Y-19376014D01*
X2435188Y-19371862D01*
X2385222Y-19371862D01*
X2364846Y-19371862D01*
X2314326Y-19371862D01*
X2295725Y-19371862D01*
X2250540Y-19367954D01*
X2241015Y-19364779D01*
X2221720Y-19360138D01*
X2201448Y-19358185D01*
X2189968Y-19355986D01*
X2170184Y-19355986D01*
X2151866Y-19355986D01*
X2137944Y-19361115D01*
X2125488Y-19366000D01*
X2110833Y-19370152D01*
X2085432Y-19371862D01*
X2058565Y-19372595D01*
X2044399Y-19374549D01*
X2030722Y-19375282D01*
X2017533Y-19378457D01*
X2016067Y-19386028D01*
X2010205Y-19399706D01*
X2096912Y-19391890D01*
X2080547Y-19384074D01*
X2054658Y-19385540D01*
X2028768Y-19388471D01*
X2012648Y-19391157D01*
X1996528Y-19396042D01*
X1991154Y-19407522D01*
X1988468Y-19406789D01*
X1980652Y-19402392D01*
X1980652Y-19411674D01*
X1980652Y-19414605D01*
X1992620Y-19423642D01*
X2010205Y-19426573D01*
X2028768Y-19429503D01*
X2051482Y-19435365D01*
X2070045Y-19436342D01*
X2068091Y-19447822D01*
X2072487Y-19460767D01*
X2081524Y-19463697D01*
X2088607Y-19472979D01*
X2103995Y-19476887D01*
X2125732Y-19482504D01*
X2143562Y-19484702D01*
X2166521Y-19487877D01*
X2203646Y-19489099D01*
X2239549Y-19492762D01*
X2263974Y-19500822D01*
X2314043Y-19500822D01*
X2363865Y-19500822D01*
X2395865Y-19500822D01*
X2445801Y-19500822D01*
X2477686Y-19500822D01*
X2525558Y-19500822D01*
X2540212Y-19500822D01*
X2562194Y-19504974D01*
X2585397Y-19509127D01*
X2597609Y-19505463D01*
X2593946Y-19521827D01*
X2593946Y-19540878D01*
X2591015Y-19567989D01*
X2593213Y-19590215D01*
X2587107Y-19590459D01*
X2584176Y-19592902D01*
X2554867Y-19594612D01*
X2509438Y-19594612D01*
X2462299Y-19594612D01*
X2431280Y-19597542D01*
X2416381Y-19600473D01*
X2387561Y-19603160D01*
X2356542Y-19605358D01*
X2335293Y-19607312D01*
X2319173Y-19607312D01*
X2294993Y-19609510D01*
X2272034Y-19611464D01*
X2257868Y-19611464D01*
X2245900Y-19613907D01*
X2230024Y-19615616D01*
X2213904Y-19617326D01*
X2204134Y-19626119D01*
X2225872Y-19636866D01*
X2249319Y-19639797D01*
X2267637Y-19639797D01*
X2287421Y-19639797D01*
X2318928Y-19639797D01*
X2368831Y-19639797D01*
X2372418Y-19639797D01*
X2422406Y-19639797D01*
X2425418Y-19639797D01*
X2456437Y-19639797D01*
X2577093Y-19639797D01*
X2581978Y-19638575D01*
X2575139Y-19633202D01*
X2559752Y-19632225D01*
X2543632Y-19631004D01*
X2530931Y-19630271D01*
X2510659Y-19634667D01*
X2486723Y-19641506D01*
X2486723Y-19648833D01*
X2486723Y-19655428D01*
X2497958Y-19664465D01*
X2508705Y-19668861D01*
X2522627Y-19668861D01*
X2543387Y-19668861D01*
X2563171Y-19668129D01*
X2573674Y-19662267D01*
X2570010Y-19676677D01*
X2571475Y-19692797D01*
X2568056Y-19706963D01*
X2566102Y-19718198D01*
X2546807Y-19716733D01*
X2526779Y-19716733D01*
X2506507Y-19713314D01*
X2468649Y-19707940D01*
X2427128Y-19702811D01*
X2394888Y-19698903D01*
X2374860Y-19696949D01*
X2343353Y-19691820D01*
X2309891Y-19686691D01*
X2287421Y-19684493D01*
X2273499Y-19682539D01*
X2248586Y-19677410D01*
X2222941Y-19671304D01*
X2205355Y-19666663D01*
X2189968Y-19666663D01*
X2169940Y-19666663D01*
X2165544Y-19670083D01*
X2158705Y-19674967D01*
X2155774Y-19678143D01*
X2142096Y-19685958D01*
X2130617Y-19693530D01*
X2120603Y-19702078D01*
X2106681Y-19716245D01*
X2094713Y-19730166D01*
X2089829Y-19735295D01*
X1745202Y-19735295D01*
X1719312Y-19748973D01*
X1749110Y-19765337D01*
X1771336Y-19769734D01*
X1786235Y-19771443D01*
X1809193Y-19772909D01*
X1831420Y-19776328D01*
X1847295Y-19779748D01*
X1896144Y-19779748D01*
X1945228Y-19779748D01*
X1968684Y-19779748D01*
X2019343Y-19779748D01*
X2041224Y-19779748D01*
X2086409Y-19780969D01*
G37*
G36*
X2718021Y-18658185D02*
G01*
X2726325Y-18666733D01*
X2730722Y-18675037D01*
X2742201Y-18683586D01*
X2752459Y-18698485D01*
X2759298Y-18712651D01*
X2763939Y-18728282D01*
X2768824Y-18741960D01*
X2775174Y-18754660D01*
X2776395Y-18770536D01*
X2779815Y-18790808D01*
X2784211Y-18811325D01*
X2786409Y-18825491D01*
X2786759Y-18826772D01*
X2795446Y-18875072D01*
X2801170Y-18911056D01*
X2808391Y-18960069D01*
X2813430Y-18995498D01*
X2820359Y-19044088D01*
X2827442Y-19093914D01*
X2833060Y-19122734D01*
X2839898Y-19155707D01*
X2843318Y-19169873D01*
X2849424Y-19192588D01*
X2856018Y-19214570D01*
X2859682Y-19227759D01*
X2870184Y-19248519D01*
X2879954Y-19270013D01*
X2888503Y-19284912D01*
X2897784Y-19298345D01*
X2907065Y-19308603D01*
X2925383Y-19324967D01*
X2944923Y-19342064D01*
X2959822Y-19353300D01*
X2962020Y-19362825D01*
X2966905Y-19371374D01*
X2966905Y-19380411D01*
X2966905Y-19386761D01*
X2961775Y-19406545D01*
X2950540Y-19424863D01*
X2940771Y-19438785D01*
X2926849Y-19458324D01*
X2914392Y-19467605D01*
X2900959Y-19476887D01*
X2888747Y-19481283D01*
X2876535Y-19486168D01*
X2863590Y-19483970D01*
X2850889Y-19482016D01*
X2836235Y-19473711D01*
X2828419Y-19465163D01*
X2819138Y-19464919D01*
X2811810Y-19453195D01*
X2803018Y-19443181D01*
X2787142Y-19432923D01*
X2776395Y-19421199D01*
X2764427Y-19411185D01*
X2753681Y-19404835D01*
X2741957Y-19398240D01*
X2721441Y-19388471D01*
X2703855Y-19381143D01*
X2688468Y-19372351D01*
X2672592Y-19368687D01*
X2655251Y-19362581D01*
X2633269Y-19354032D01*
X2612997Y-19346705D01*
X2599563Y-19343286D01*
X2568056Y-19333760D01*
X2538747Y-19325212D01*
X2525558Y-19323014D01*
X2501866Y-19318129D01*
X2478419Y-19313244D01*
X2459856Y-19311046D01*
X2446423Y-19308359D01*
X2431769Y-19308359D01*
X2427372Y-19312511D01*
X2416625Y-19324235D01*
X2403436Y-19337424D01*
X2394888Y-19344507D01*
X2379256Y-19356963D01*
X2361182Y-19365756D01*
X2355565Y-19366489D01*
X2348482Y-19367221D01*
X2343108Y-19367221D01*
X2334071Y-19370397D01*
X2317951Y-19355009D01*
X2307449Y-19344263D01*
X2301099Y-19333760D01*
X2296702Y-19316907D01*
X2290402Y-19300915D01*
X2086165Y-19308359D01*
X2077372Y-19308359D01*
X2064427Y-19292727D01*
X2064427Y-19289308D01*
X2062962Y-19285156D01*
X2066137Y-19269280D01*
X2068579Y-19260732D01*
X2074685Y-19245589D01*
X2082013Y-19233621D01*
X2095690Y-19215302D01*
X2111322Y-19198450D01*
X2123046Y-19190634D01*
X2134036Y-19182818D01*
X2146493Y-19175735D01*
X2158217Y-19174025D01*
X2168475Y-19170118D01*
X2186549Y-19168408D01*
X2203890Y-19167675D01*
X2214637Y-19167675D01*
X2233932Y-19164988D01*
X2264706Y-19158882D01*
X2290874Y-19154486D01*
X2429326Y-19154486D01*
X2450819Y-19153997D01*
X2487212Y-19159615D01*
X2522138Y-19166698D01*
X2543632Y-19171583D01*
X2577337Y-19179155D01*
X2578836Y-19179461D01*
X2627896Y-19190390D01*
X2629571Y-19190785D01*
X2677965Y-19201625D01*
X2706576Y-19207085D01*
X2697749Y-19161813D01*
X2695993Y-19152408D01*
X2686514Y-19103683D01*
X2684367Y-19091639D01*
X2676256Y-19042623D01*
X2628140Y-19042623D01*
X2632048Y-19030899D01*
X2641817Y-19021862D01*
X2656523Y-19015559D01*
X2536793Y-19026503D01*
X2543876Y-19006475D01*
X2553157Y-18996949D01*
X2577581Y-18992309D01*
X2594434Y-18988645D01*
X2607379Y-18986691D01*
X2622278Y-18982539D01*
X2644016Y-18978143D01*
X2664043Y-18975212D01*
X2674302Y-18978875D01*
X2669173Y-18975944D01*
X2669173Y-18972281D01*
X2665753Y-18946880D01*
X2661357Y-18915616D01*
X2657449Y-18888994D01*
X2655495Y-18877759D01*
X2648412Y-18855288D01*
X2642794Y-18829643D01*
X2639619Y-18823537D01*
X2632536Y-18809615D01*
X2628872Y-18802288D01*
X2632048Y-18793251D01*
X2619103Y-18792030D01*
X2613485Y-18787877D01*
X2612264Y-18787877D01*
X2609333Y-18787877D01*
X2607135Y-18780062D01*
X2602494Y-18789099D01*
X2593702Y-18794716D01*
X2584420Y-18801555D01*
X2581245Y-18805951D01*
X2577337Y-18813034D01*
X2567323Y-18822804D01*
X2557309Y-18836482D01*
X2547540Y-18848694D01*
X2545341Y-18857242D01*
X2538991Y-18865547D01*
X2531664Y-18878736D01*
X2524337Y-18893390D01*
X2518963Y-18906335D01*
X2505774Y-18928561D01*
X2495760Y-18946391D01*
X2489166Y-18963732D01*
X2477930Y-18992064D01*
X2466695Y-19020152D01*
X2460833Y-19037005D01*
X2457658Y-19048485D01*
X2451308Y-19070711D01*
X2443492Y-19096356D01*
X2436653Y-19114919D01*
X2433722Y-19126398D01*
X2431036Y-19135679D01*
X2431036Y-19139831D01*
X2431769Y-19142274D01*
X2432501Y-19146914D01*
X2432501Y-19153997D01*
X2429326Y-19154486D01*
X2290874Y-19154486D01*
X2295237Y-19153753D01*
X2312822Y-19149845D01*
X2317707Y-19136412D01*
X2323813Y-19121757D01*
X2326744Y-19110767D01*
X2332362Y-19092448D01*
X2337491Y-19074619D01*
X2342376Y-19059720D01*
X2347505Y-19052392D01*
X2354099Y-19046531D01*
X2333827Y-19051415D01*
X2307693Y-19051415D01*
X2283513Y-19051415D01*
X2265439Y-19051415D01*
X2263091Y-19052244D01*
X2213904Y-19058254D01*
X2199442Y-19058254D01*
X2148935Y-19058254D01*
X2141093Y-19058247D01*
X2091538Y-19057766D01*
X2052948Y-19049462D01*
X2078349Y-19037005D01*
X2085770Y-19036046D01*
X2134703Y-19031000D01*
X2186060Y-19026991D01*
X2201203Y-19026991D01*
X2223674Y-19026991D01*
X2246877Y-19026991D01*
X2262508Y-19026991D01*
X2280094Y-19025770D01*
X2309647Y-19023083D01*
X2338956Y-19019420D01*
X2360450Y-19016000D01*
X2361915Y-19015512D01*
X2366800Y-19014046D01*
X2372418Y-18991088D01*
X2390003Y-18952741D01*
X2408077Y-18914639D01*
X2419801Y-18893390D01*
X2425418Y-18881911D01*
X2432257Y-18868478D01*
X2442515Y-18852358D01*
X2455216Y-18830620D01*
X2467184Y-18812302D01*
X2470359Y-18801555D01*
X2485990Y-18784947D01*
X2508949Y-18759057D01*
X2532885Y-18731702D01*
X2549982Y-18710941D01*
X2564148Y-18697996D01*
X2577337Y-18687249D01*
X2591748Y-18676747D01*
X2608112Y-18666977D01*
X2615683Y-18663069D01*
X2623499Y-18659161D01*
X2633513Y-18655986D01*
X2647923Y-18654765D01*
X2664532Y-18651834D01*
X2684071Y-18651834D01*
X2698237Y-18651834D01*
X2705809Y-18651834D01*
X2718021Y-18658185D01*
G37*
G36*
X2134281Y-18216105D02*
G01*
X2134281Y-18213174D01*
X2115474Y-18215372D01*
X2093492Y-18220013D01*
X2075174Y-18222944D01*
X2042690Y-18225630D01*
X2061985Y-18253718D01*
X2123778Y-18248833D01*
X2121580Y-18262511D01*
X2129396Y-18273746D01*
X2140387Y-18285470D01*
X2161636Y-18294751D01*
X2182641Y-18304277D01*
X2202913Y-18310627D01*
X2219033Y-18313558D01*
X2238817Y-18316245D01*
X2251762Y-18318931D01*
X2273011Y-18321862D01*
X2292550Y-18324549D01*
X2305251Y-18327480D01*
X2316486Y-18329434D01*
X2336025Y-18334563D01*
X2357274Y-18341402D01*
X2372662Y-18347263D01*
X2387316Y-18351415D01*
X2411252Y-18356545D01*
X2433234Y-18359964D01*
X2442027Y-18363628D01*
X2489166Y-18380969D01*
X2536182Y-18398448D01*
X2568789Y-18410767D01*
X2615928Y-18428291D01*
X2662339Y-18445053D01*
X2665509Y-18446182D01*
X2712009Y-18463019D01*
X2759125Y-18480742D01*
X2761985Y-18481841D01*
X2809546Y-18499804D01*
X2840875Y-18511639D01*
X2886549Y-18528736D01*
X2907798Y-18528736D01*
X2926116Y-18528736D01*
X2942969Y-18522141D01*
X2963241Y-18513837D01*
X2977163Y-18496984D01*
X2991085Y-18481108D01*
X3000610Y-18463523D01*
X3008182Y-18446182D01*
X3008182Y-18433481D01*
X3008182Y-18422734D01*
X2990596Y-18402706D01*
X2973743Y-18387563D01*
X2952006Y-18380725D01*
X2930024Y-18379259D01*
X2565125Y-18268373D01*
X2593946Y-18264465D01*
X2838677Y-18169210D01*
X2852843Y-18169210D01*
X2869696Y-18169210D01*
X2874092Y-18174584D01*
X2883862Y-18184842D01*
X2888014Y-18184842D01*
X2890945Y-18184842D01*
X2908531Y-18181911D01*
X2916346Y-18172630D01*
X2930024Y-18169699D01*
X2944434Y-18158464D01*
X2951029Y-18153090D01*
X2962264Y-18147473D01*
X2966660Y-18130620D01*
X2973743Y-18116698D01*
X2976674Y-18113523D01*
X2981071Y-18106684D01*
X2984734Y-18101799D01*
X2984734Y-18079573D01*
X2984734Y-18059545D01*
X2972766Y-18054905D01*
X2963485Y-18042937D01*
X2954692Y-18040983D01*
X2945900Y-18036342D01*
X2938817Y-18036342D01*
X2929047Y-18036342D01*
X2910973Y-18039762D01*
X2888991Y-18043181D01*
X2872138Y-18048799D01*
X2858217Y-18054172D01*
X2820359Y-18064430D01*
X2772597Y-18076541D01*
X2749284Y-18082504D01*
X2701800Y-18094901D01*
X2678942Y-18101311D01*
X2639375Y-18111569D01*
X2610554Y-18120118D01*
X2585153Y-18127933D01*
X2566591Y-18135505D01*
X2536060Y-18151381D01*
X2507972Y-18166035D01*
X2494050Y-18172385D01*
X2470115Y-18177515D01*
X2452285Y-18180934D01*
X2389026Y-18180934D01*
X2355076Y-18180934D01*
X2340910Y-18178247D01*
X2327233Y-18174339D01*
X2305495Y-18170920D01*
X2280094Y-18166768D01*
X2257868Y-18163348D01*
X2248342Y-18161883D01*
X2241992Y-18160906D01*
X2228070Y-18157731D01*
X2214392Y-18160906D01*
X2209752Y-18161883D01*
X2193632Y-18166768D01*
X2180198Y-18171653D01*
X1987002Y-18171653D01*
X1967219Y-18171653D01*
X1933025Y-18173362D01*
X1897365Y-18176538D01*
X1872208Y-18179713D01*
X1850226Y-18183132D01*
X1810659Y-18186307D01*
X1839968Y-18216105D01*
X2134281Y-18216105D01*
G37*
G36*
X2117672Y-17936203D02*
G01*
X2113520Y-17944263D01*
X2115474Y-17956231D01*
X2125000Y-17965268D01*
X2133304Y-17974060D01*
X2151378Y-17977235D01*
X2174337Y-17977724D01*
X2195830Y-17979678D01*
X2208775Y-17981388D01*
X2228803Y-17985051D01*
X2253227Y-17985051D01*
X2273255Y-17987249D01*
X2281803Y-17989448D01*
X2315020Y-17989448D01*
X2364470Y-17989448D01*
X2369975Y-17989448D01*
X2420251Y-17989448D01*
X2427128Y-17989448D01*
X2467428Y-17989448D01*
X2485746Y-17989448D01*
X2516765Y-17989448D01*
X2549738Y-17989448D01*
X2573185Y-17989448D01*
X2588572Y-17989448D01*
X2612020Y-17989448D01*
X2634979Y-17989448D01*
X2647435Y-17982853D01*
X2644504Y-17986028D01*
X2643039Y-17984563D01*
X2641573Y-17988715D01*
X2632292Y-17998485D01*
X2617149Y-18008987D01*
X2608845Y-18022176D01*
X2599075Y-18036831D01*
X2589305Y-18051974D01*
X2589549Y-18061255D01*
X2576116Y-18070780D01*
X2564392Y-18088854D01*
X2554378Y-18106928D01*
X2549738Y-18117431D01*
X2548517Y-18124514D01*
X2547051Y-18135505D01*
X2547051Y-18154556D01*
X2559263Y-18164325D01*
X2574162Y-18164325D01*
X2580512Y-18165791D01*
X2587351Y-18165791D01*
X2591503Y-18167012D01*
X2609577Y-18160662D01*
X2633269Y-18154556D01*
X2634979Y-18144298D01*
X2648656Y-18136238D01*
X2661601Y-18125491D01*
X2671859Y-18118408D01*
X2678698Y-18104974D01*
X2683583Y-18096426D01*
X2688224Y-18089099D01*
X2694085Y-18074200D01*
X2697993Y-18059545D01*
X2702634Y-18052951D01*
X2714602Y-18050997D01*
X2726325Y-18034144D01*
X2745376Y-18018268D01*
X2765404Y-18001415D01*
X2777372Y-17989448D01*
X2790561Y-17981632D01*
X2808147Y-17971862D01*
X2828419Y-17960871D01*
X2845760Y-17950613D01*
X2859438Y-17944507D01*
X2878489Y-17938401D01*
X2879221Y-17931806D01*
X2884106Y-17925456D01*
X2896074Y-17912267D01*
X2903646Y-17898589D01*
X2913660Y-17890529D01*
X2919521Y-17881248D01*
X2919521Y-17866593D01*
X2919521Y-17862441D01*
X2922208Y-17857068D01*
X2913171Y-17845833D01*
X2903157Y-17840948D01*
X2884839Y-17840948D01*
X2880687Y-17840948D01*
X2875558Y-17839482D01*
X2865300Y-17837529D01*
X2856751Y-17840215D01*
X2840631Y-17845589D01*
X2826465Y-17850229D01*
X2819138Y-17851939D01*
X2801796Y-17854870D01*
X2778349Y-17852672D01*
X2779326Y-17860243D01*
X2767114Y-17858289D01*
X2752948Y-17859755D01*
X2742445Y-17860487D01*
X2711915Y-17860487D01*
X2688712Y-17860487D01*
X2671859Y-17860487D01*
X2645725Y-17860487D01*
X2621057Y-17860487D01*
X2607135Y-17860487D01*
X2577337Y-17860487D01*
X2532885Y-17860487D01*
X2489166Y-17860487D01*
X2460345Y-17860487D01*
X2411358Y-17860487D01*
X2406856Y-17860487D01*
X2357193Y-17860487D01*
X2329919Y-17860487D01*
X2280396Y-17860487D01*
X2256891Y-17860487D01*
X2212927Y-17848764D01*
X2175558Y-17848764D01*
X2125732Y-17848764D01*
X2076151Y-17845589D01*
X2040980Y-17840704D01*
X2004588Y-17852672D01*
X2041713Y-17868303D01*
X2059298Y-17871967D01*
X2080547Y-17877584D01*
X2113032Y-17882713D01*
X2143806Y-17886621D01*
X2158949Y-17884179D01*
X2131106Y-17900787D01*
X2114253Y-17902253D01*
X2085188Y-17902741D01*
X2055879Y-17902741D01*
X2037316Y-17902741D01*
X2022662Y-17902741D01*
X2001413Y-17902741D01*
X1980896Y-17903474D01*
X1956960Y-17904207D01*
X1966974Y-17931562D01*
X2117672Y-17936203D01*
G37*
G36*
X1848761Y-17033481D02*
G01*
X1852669Y-17057173D01*
X1860729Y-17076224D01*
X1867079Y-17081353D01*
X1879047Y-17085016D01*
X1886130Y-17085016D01*
X1887595Y-17085016D01*
X1903471Y-17081841D01*
X1915195Y-17077201D01*
X1926919Y-17069141D01*
X1942794Y-17055219D01*
X1958426Y-17040808D01*
X1966730Y-17033237D01*
X1986025Y-17033237D01*
X2016311Y-17046426D01*
X2062865Y-17065574D01*
X2066381Y-17066942D01*
X2113475Y-17085286D01*
X2124755Y-17089657D01*
X2170503Y-17107295D01*
X2182885Y-17112127D01*
X2228821Y-17129842D01*
X2232955Y-17131422D01*
X2264218Y-17143635D01*
X2301831Y-17158045D01*
X2348367Y-17175356D01*
X2357519Y-17178561D01*
X2404260Y-17195350D01*
X2412229Y-17198345D01*
X2439340Y-17202741D01*
X2423464Y-17197124D01*
X2398307Y-17197124D01*
X2379256Y-17197124D01*
X2354344Y-17197124D01*
X2329187Y-17195414D01*
X2314776Y-17193704D01*
X2302076Y-17189064D01*
X2278140Y-17181736D01*
X2253715Y-17175630D01*
X2236618Y-17172944D01*
X2217323Y-17172944D01*
X2198761Y-17172944D01*
X2177756Y-17180515D01*
X2158461Y-17190041D01*
X2141608Y-17193704D01*
X2120359Y-17197124D01*
X2104239Y-17209824D01*
X2119138Y-17223991D01*
X2125000Y-17228875D01*
X2125000Y-17231562D01*
X2128175Y-17231562D01*
X2023883Y-17242797D01*
X2044888Y-17261604D01*
X2056612Y-17265268D01*
X2085432Y-17268931D01*
X2112543Y-17267710D01*
X2111566Y-17275770D01*
X2114986Y-17286517D01*
X2126465Y-17296042D01*
X2136967Y-17304102D01*
X2153332Y-17309476D01*
X2179466Y-17317047D01*
X2205355Y-17324374D01*
X2220743Y-17329259D01*
X2237840Y-17336586D01*
X2261043Y-17344402D01*
X2273011Y-17350997D01*
X2286933Y-17360522D01*
X2298168Y-17366873D01*
X2314288Y-17375910D01*
X2329431Y-17384458D01*
X2338956Y-17390076D01*
X2359473Y-17403997D01*
X2390247Y-17424025D01*
X2420289Y-17443565D01*
X2435921Y-17450892D01*
X2432013Y-17452113D01*
X2220987Y-17452113D01*
X2193632Y-17470432D01*
X2169452Y-17483132D01*
X2153087Y-17483132D01*
X2124023Y-17485330D01*
X2095202Y-17487529D01*
X2077861Y-17487529D01*
X2061496Y-17490704D01*
X2026814Y-17493879D01*
X2052215Y-17514639D01*
X2063695Y-17518547D01*
X2078838Y-17520013D01*
X2102041Y-17521234D01*
X2124755Y-17522700D01*
X2138677Y-17517326D01*
X2132083Y-17517326D01*
X2132083Y-17521478D01*
X2128175Y-17531492D01*
X2125000Y-17545414D01*
X2125000Y-17557382D01*
X2125000Y-17563000D01*
X2133060Y-17573991D01*
X2146004Y-17582783D01*
X2194838Y-17581100D01*
X2204623Y-17581074D01*
X2254749Y-17581074D01*
X2291329Y-17581074D01*
X2341681Y-17581074D01*
X2378279Y-17581074D01*
X2427402Y-17581074D01*
X2435921Y-17581074D01*
X2514567Y-17581074D01*
X2594678Y-17581074D01*
X2602983Y-17582295D01*
X2619103Y-17584004D01*
X2635467Y-17585714D01*
X2644748Y-17586691D01*
X2661113Y-17590599D01*
X2674302Y-17593530D01*
X2686758Y-17598415D01*
X2706786Y-17604521D01*
X2726325Y-17609894D01*
X2739270Y-17612337D01*
X2746353Y-17612337D01*
X2756123Y-17612337D01*
X2777128Y-17603544D01*
X2787875Y-17591576D01*
X2796912Y-17588401D01*
X2808635Y-17576189D01*
X2820359Y-17564954D01*
X2831594Y-17554940D01*
X2837700Y-17538331D01*
X2844050Y-17521234D01*
X2846249Y-17517082D01*
X2848447Y-17508533D01*
X2846249Y-17499741D01*
X2844050Y-17495589D01*
X2840631Y-17487040D01*
X2833792Y-17480445D01*
X2819138Y-17475072D01*
X2795446Y-17463593D01*
X2771755Y-17450892D01*
X2759542Y-17443321D01*
X2736584Y-17431353D01*
X2702145Y-17412546D01*
X2667463Y-17393984D01*
X2643771Y-17382260D01*
X2633757Y-17376887D01*
X2617637Y-17367605D01*
X2602006Y-17358568D01*
X2592480Y-17352218D01*
X2569277Y-17335854D01*
X2549005Y-17325596D01*
X2549982Y-17327305D01*
X2544609Y-17326084D01*
X2553646Y-17331946D01*
X2572452Y-17330480D01*
X2591259Y-17328526D01*
X2603715Y-17327061D01*
X2632292Y-17321199D01*
X2679919Y-17312651D01*
X2727547Y-17305323D01*
X2754902Y-17302392D01*
X2773464Y-17301171D01*
X2804483Y-17299706D01*
X2835990Y-17298485D01*
X2854553Y-17295554D01*
X2868963Y-17293355D01*
X2886549Y-17289692D01*
X2894120Y-17284563D01*
X2902669Y-17282609D01*
X2917568Y-17268198D01*
X2934665Y-17251590D01*
X2950540Y-17233760D01*
X2954692Y-17222037D01*
X2963974Y-17213000D01*
X2969103Y-17197857D01*
X2969103Y-17187843D01*
X2969103Y-17180760D01*
X2963241Y-17171478D01*
X2952983Y-17164639D01*
X2941259Y-17161953D01*
X2929047Y-17159022D01*
X2815230Y-17159022D01*
X2799110Y-17155603D01*
X2778593Y-17152183D01*
X2766870Y-17148519D01*
X2749040Y-17142902D01*
X2730722Y-17138017D01*
X2717288Y-17135819D01*
X2689445Y-17128492D01*
X2665020Y-17122141D01*
X2630094Y-17110418D01*
X2583558Y-17095535D01*
X2574406Y-17092588D01*
X2527381Y-17077557D01*
X2519207Y-17075002D01*
X2483548Y-17062546D01*
X2466451Y-17056684D01*
X2440561Y-17047159D01*
X2415404Y-17038122D01*
X2400750Y-17032993D01*
X2359961Y-17017117D01*
X2312346Y-16999150D01*
X2287421Y-16989762D01*
X2239473Y-16971360D01*
X2200471Y-16956300D01*
X2153719Y-16937977D01*
X2114986Y-16922839D01*
X2068827Y-16904425D01*
X2044888Y-16894751D01*
X2003122Y-16877898D01*
X1997749Y-16876921D01*
X1991643Y-16874479D01*
X1982850Y-16869838D01*
X1970638Y-16869838D01*
X1963555Y-16869838D01*
X1951343Y-16873746D01*
X1940596Y-16878143D01*
X1931803Y-16881562D01*
X1920324Y-16884981D01*
X1907379Y-16895972D01*
X1901517Y-16906719D01*
X1894190Y-16904521D01*
X1882955Y-16907208D01*
X1873918Y-16913069D01*
X1849494Y-16923083D01*
X1869766Y-16934074D01*
X1867812Y-16940180D01*
X1797714Y-16940180D01*
X1788189Y-16961429D01*
X1798203Y-16973642D01*
X1829466Y-16979015D01*
X1850715Y-16978282D01*
X1848761Y-17033481D01*
G37*
G36*
X2400750Y-16476852D02*
G01*
X2423220Y-16481492D01*
X2446667Y-16488820D01*
X2470115Y-16499078D01*
X2496981Y-16511290D01*
X2529221Y-16526677D01*
X2551448Y-16538401D01*
X2570254Y-16551101D01*
X2579291Y-16558185D01*
X2595655Y-16569664D01*
X2612508Y-16580411D01*
X2623743Y-16587005D01*
X2628628Y-16589203D01*
X2639375Y-16590425D01*
X2651099Y-16592379D01*
X2657205Y-16593600D01*
X2673813Y-16604835D01*
X2685048Y-16620466D01*
X2692131Y-16627794D01*
X2697749Y-16639029D01*
X2700436Y-16654172D01*
X2703367Y-16668094D01*
X2703367Y-16714744D01*
X2703367Y-16759929D01*
X2700436Y-16776293D01*
X2697749Y-16792169D01*
X2691154Y-16807068D01*
X2681629Y-16825630D01*
X2671371Y-16844193D01*
X2663555Y-16857138D01*
X2651831Y-16873014D01*
X2640108Y-16888645D01*
X2629361Y-16899392D01*
X2614218Y-16913558D01*
X2600052Y-16926991D01*
X2591748Y-16935051D01*
X2585886Y-16939448D01*
X2571964Y-16949706D01*
X2555844Y-16960452D01*
X2543143Y-16967780D01*
X2534595Y-16971443D01*
X2526779Y-16974374D01*
X2517009Y-16979259D01*
X2501622Y-16983900D01*
X2487944Y-16987563D01*
X2479396Y-16989029D01*
X2428838Y-16989029D01*
X2371441Y-16989029D01*
X2360450Y-16986342D01*
X2348237Y-16983411D01*
X2334071Y-16975351D01*
X2316730Y-16966070D01*
X2298900Y-16957033D01*
X2286933Y-16950439D01*
X2271057Y-16941890D01*
X2265683Y-16930411D01*
X2248831Y-16920397D01*
X2227093Y-16899880D01*
X2205844Y-16879852D01*
X2192899Y-16866175D01*
X2184106Y-16853718D01*
X2176046Y-16840773D01*
X2168230Y-16827829D01*
X2158949Y-16808289D01*
X2149912Y-16790704D01*
X2143318Y-16778492D01*
X2136967Y-16755288D01*
X2133060Y-16736726D01*
X2114253Y-16738924D01*
X2076639Y-16737459D01*
X2039515Y-16733795D01*
X2015579Y-16729887D01*
X2003611Y-16726468D01*
X1992864Y-16722804D01*
X1983583Y-16713279D01*
X1983583Y-16707417D01*
X1987735Y-16698624D01*
X2130861Y-16685679D01*
X2130373Y-16683481D01*
X2131594Y-16673467D01*
X2131594Y-16671025D01*
X2136723Y-16670780D01*
X2124755Y-16669803D01*
X2106193Y-16663453D01*
X2106193Y-16650020D01*
X2106193Y-16638052D01*
X2126953Y-16634388D01*
X2138921Y-16622909D01*
X2148691Y-16613383D01*
X2158189Y-16601171D01*
X2262264Y-16601171D01*
X2265683Y-16610208D01*
X2265683Y-16629748D01*
X2265683Y-16650264D01*
X2265683Y-16664430D01*
X2267882Y-16671269D01*
X2276919Y-16682504D01*
X2280826Y-16696914D01*
X2289375Y-16715477D01*
X2298656Y-16733795D01*
X2301587Y-16744298D01*
X2314288Y-16757487D01*
X2326256Y-16773607D01*
X2341399Y-16788017D01*
X2355809Y-16802672D01*
X2370464Y-16813174D01*
X2387805Y-16823432D01*
X2397086Y-16830515D01*
X2414183Y-16839064D01*
X2433722Y-16848589D01*
X2444469Y-16855672D01*
X2457170Y-16857382D01*
X2471092Y-16860069D01*
X2497226Y-16860069D01*
X2522383Y-16860069D01*
X2534351Y-16857382D01*
X2540701Y-16855917D01*
X2548272Y-16851032D01*
X2552424Y-16847368D01*
X2549005Y-16847124D01*
X2539724Y-16842239D01*
X2531420Y-16833935D01*
X2531420Y-16818303D01*
X2531420Y-16810243D01*
X2534839Y-16799985D01*
X2538503Y-16785819D01*
X2543143Y-16786063D01*
X2544364Y-16783865D01*
X2546807Y-16778980D01*
X2557554Y-16771409D01*
X2557317Y-16767987D01*
X2555111Y-16768478D01*
X2550226Y-16761883D01*
X2539968Y-16758952D01*
X2531175Y-16751869D01*
X2517498Y-16754556D01*
X2490387Y-16754556D01*
X2463520Y-16752358D01*
X2447644Y-16749915D01*
X2435432Y-16744542D01*
X2418579Y-16738924D01*
X2418579Y-16725735D01*
X2418579Y-16713523D01*
X2440073Y-16710104D01*
X2458147Y-16706684D01*
X2486723Y-16703265D01*
X2505107Y-16705307D01*
X2498447Y-16701311D01*
X2482327Y-16685924D01*
X2466695Y-16674200D01*
X2448866Y-16663697D01*
X2429082Y-16652462D01*
X2416381Y-16645868D01*
X2398063Y-16637563D01*
X2379989Y-16629992D01*
X2368510Y-16624619D01*
X2358984Y-16620222D01*
X2345795Y-16614849D01*
X2334071Y-16610697D01*
X2328942Y-16608743D01*
X2315753Y-16607522D01*
X2294260Y-16606056D01*
X2272278Y-16605323D01*
X2262264Y-16601171D01*
X2158189Y-16601171D01*
X2158949Y-16600194D01*
X2161147Y-16587982D01*
X2171161Y-16575770D01*
X2182641Y-16558917D01*
X2195097Y-16543774D01*
X2201936Y-16537180D01*
X2217323Y-16526189D01*
X2231978Y-16513244D01*
X2245167Y-16503718D01*
X2257135Y-16502497D01*
X2263485Y-16492727D01*
X2275453Y-16488331D01*
X2285223Y-16484912D01*
X2295969Y-16481492D01*
X2313799Y-16476852D01*
X2328942Y-16473188D01*
X2354344Y-16473188D01*
X2384141Y-16473188D01*
X2400750Y-16476852D01*
G37*
G36*
X2245900Y-15797612D02*
G01*
X2256402Y-15798833D01*
X2282536Y-15817640D01*
X2306960Y-15832295D01*
X2311113Y-15841820D01*
X2322836Y-15852078D01*
X2336270Y-15864046D01*
X2346772Y-15873572D01*
X2353611Y-15882609D01*
X2365334Y-15895554D01*
X2377302Y-15909231D01*
X2383897Y-15917047D01*
X2400994Y-15937808D01*
X2420533Y-15961255D01*
X2424197Y-15970780D01*
X2432257Y-15984702D01*
X2441294Y-15999601D01*
X2447889Y-16008150D01*
X2461566Y-16029887D01*
X2473290Y-16064081D01*
X2482815Y-16096810D01*
X2487212Y-16113663D01*
X2509193Y-16152986D01*
X2533374Y-16188401D01*
X2561461Y-16184493D01*
X2609089Y-16175456D01*
X2656960Y-16166419D01*
X2691643Y-16160801D01*
X2701901Y-16159580D01*
X2709294Y-16157623D01*
X2704832Y-16155917D01*
X2687491Y-16148101D01*
X2654274Y-16124653D01*
X2619591Y-16098031D01*
X2602739Y-16080445D01*
X2595411Y-16069455D01*
X2578803Y-16059196D01*
X2558042Y-16056754D01*
X2534351Y-16070920D01*
X2516521Y-16065058D01*
X2507484Y-16063593D01*
X2497470Y-16059685D01*
X2481350Y-16063104D01*
X2480373Y-16054556D01*
X2474267Y-16046007D01*
X2476709Y-16039657D01*
X2473046Y-16029399D01*
X2473046Y-16026224D01*
X2471580Y-16015233D01*
X2470847Y-16009371D01*
X2470115Y-15999601D01*
X2481594Y-15987633D01*
X2485502Y-15976887D01*
X2494539Y-15966384D01*
X2504064Y-15954172D01*
X2523360Y-15947333D01*
X2535816Y-15944402D01*
X2533618Y-15941716D01*
X2529221Y-15936098D01*
X2512857Y-15922176D01*
X2535816Y-15922176D01*
X2538747Y-15920466D01*
X2548775Y-15922391D01*
X2597497Y-15938902D01*
X2640840Y-15964674D01*
X2658683Y-15978396D01*
X2695340Y-16011778D01*
X2729256Y-16050159D01*
X2746266Y-16072628D01*
X2775128Y-16116773D01*
X2798621Y-16160313D01*
X2809080Y-16182627D01*
X2828087Y-16230738D01*
X2842096Y-16278526D01*
X2844633Y-16289418D01*
X2852100Y-16338826D01*
X2852110Y-16389168D01*
X2843662Y-16431183D01*
X2818649Y-16474898D01*
X2782684Y-16501825D01*
X2733408Y-16515686D01*
X2691406Y-16516481D01*
X2642303Y-16508791D01*
X2591503Y-16494437D01*
X2572452Y-16490529D01*
X2551203Y-16484423D01*
X2539235Y-16478317D01*
X2530198Y-16473676D01*
X2518230Y-16468303D01*
X2508949Y-16460732D01*
X2492096Y-16447054D01*
X2485746Y-16432399D01*
X2470603Y-16424339D01*
X2456193Y-16400404D01*
X2451980Y-16392158D01*
X2446667Y-16401869D01*
X2434699Y-16405044D01*
X2414427Y-16407975D01*
X2408077Y-16409196D01*
X2397819Y-16411883D01*
X2383897Y-16415058D01*
X2370464Y-16413593D01*
X2355809Y-16412127D01*
X2339445Y-16406265D01*
X2324057Y-16402358D01*
X2304030Y-16397228D01*
X2294016Y-16387459D01*
X2275942Y-16378910D01*
X2260043Y-16366698D01*
X2440317Y-16366698D01*
X2442340Y-16367017D01*
X2442271Y-16366698D01*
X2440317Y-16366698D01*
X2260043Y-16366698D01*
X2259089Y-16365965D01*
X2246144Y-16356196D01*
X2229535Y-16344228D01*
X2216346Y-16331527D01*
X2209019Y-16322490D01*
X2201692Y-16313697D01*
X2191678Y-16300264D01*
X2181664Y-16286586D01*
X2178733Y-16277549D01*
X2170429Y-16269489D01*
X2157972Y-16251660D01*
X2146493Y-16233342D01*
X2139166Y-16218687D01*
X2135013Y-16204032D01*
X2126953Y-16182783D01*
X2118405Y-16160801D01*
X2117672Y-16148101D01*
X2098377Y-16150543D01*
X2081280Y-16145414D01*
X2073464Y-16147857D01*
X2063450Y-16140041D01*
X2082257Y-16124653D01*
X2104239Y-16111220D01*
X2103995Y-16111709D01*
X2108635Y-16110487D01*
X2103750Y-16109022D01*
X2103018Y-16106824D01*
X2102294Y-16100793D01*
X2082013Y-16101695D01*
X2038782Y-16097542D01*
X1996284Y-16091925D01*
X1971615Y-16084598D01*
X1964532Y-16091192D01*
X1948168Y-16093146D01*
X1934002Y-16092413D01*
X1918859Y-16091681D01*
X1918859Y-16070920D01*
X2097156Y-16064325D01*
X2093736Y-16053090D01*
X2093736Y-16030131D01*
X2093736Y-16007661D01*
X2093736Y-15993007D01*
X2095238Y-15976822D01*
X2218595Y-15976822D01*
X2220743Y-15983725D01*
X2223674Y-15997891D01*
X2225383Y-16008394D01*
X2227337Y-16021094D01*
X2231245Y-16040145D01*
X2235642Y-16057975D01*
X2238084Y-16067989D01*
X2241748Y-16081178D01*
X2253471Y-16103404D01*
X2258112Y-16118059D01*
X2264706Y-16129294D01*
X2274232Y-16147368D01*
X2284490Y-16162511D01*
X2301099Y-16182539D01*
X2313799Y-16202078D01*
X2324302Y-16210871D01*
X2336270Y-16217466D01*
X2349947Y-16229678D01*
X2367288Y-16242867D01*
X2385362Y-16255323D01*
X2397575Y-16263139D01*
X2411252Y-16267047D01*
X2425174Y-16273153D01*
X2423464Y-16271443D01*
X2431083Y-16268130D01*
X2419556Y-16256789D01*
X2401727Y-16225770D01*
X2398004Y-16219175D01*
X2530443Y-16219175D01*
X2548761Y-16240180D01*
X2564148Y-16264116D01*
X2572452Y-16273642D01*
X2585397Y-16290250D01*
X2596388Y-16304660D01*
X2602983Y-16312476D01*
X2612997Y-16328108D01*
X2629117Y-16341053D01*
X2645237Y-16347647D01*
X2657205Y-16350334D01*
X2671859Y-16347647D01*
X2688956Y-16343251D01*
X2718265Y-16331527D01*
X2731454Y-16301485D01*
X2734630Y-16261674D01*
X2729012Y-16226747D01*
X2719731Y-16211115D01*
X2710450Y-16218443D01*
X2705076Y-16218687D01*
X2694574Y-16221374D01*
X2682606Y-16219175D01*
X2650366Y-16216977D01*
X2666428Y-16203293D01*
X2645237Y-16206719D01*
X2638333Y-16207639D01*
X2589794Y-16214291D01*
X2544364Y-16218198D01*
X2536549Y-16220397D01*
X2530443Y-16219175D01*
X2398004Y-16219175D01*
X2384630Y-16195484D01*
X2373150Y-16172525D01*
X2364357Y-16158359D01*
X2348237Y-16138575D01*
X2342376Y-16127829D01*
X2332850Y-16113663D01*
X2323813Y-16100962D01*
X2324057Y-16092413D01*
X2308670Y-16081422D01*
X2291573Y-16059441D01*
X2275209Y-16038191D01*
X2266172Y-16025735D01*
X2253471Y-16012546D01*
X2237595Y-15996182D01*
X2233443Y-15990320D01*
X2227826Y-15984702D01*
X2218595Y-15976822D01*
X2095238Y-15976822D01*
X2095935Y-15969315D01*
X2102041Y-15940983D01*
X2106193Y-15927305D01*
X2111566Y-15911185D01*
X2115474Y-15896042D01*
X2122557Y-15878457D01*
X2138921Y-15857696D01*
X2156751Y-15835226D01*
X2166277Y-15828387D01*
X2175802Y-15816175D01*
X2186304Y-15809580D01*
X2197540Y-15804451D01*
X2207798Y-15802986D01*
X2217812Y-15801764D01*
X2226360Y-15799566D01*
X2235642Y-15796147D01*
X2245900Y-15797612D01*
G37*
G36*
X2098621Y-15637633D02*
G01*
X2106193Y-15649601D01*
X2114741Y-15664256D01*
X2126221Y-15676956D01*
X2139898Y-15689168D01*
X2153576Y-15696740D01*
X2167986Y-15703335D01*
X2181908Y-15709685D01*
X2201936Y-15717989D01*
X2220010Y-15725805D01*
X2232711Y-15731667D01*
X2244923Y-15733865D01*
X2264218Y-15738750D01*
X2285223Y-15744612D01*
X2301099Y-15749252D01*
X2314776Y-15749985D01*
X2334071Y-15752916D01*
X2352878Y-15756335D01*
X2364846Y-15759755D01*
X2386584Y-15760487D01*
X2410764Y-15760976D01*
X2422732Y-15760976D01*
X2442515Y-15760976D01*
X2462055Y-15760976D01*
X2472069Y-15760976D01*
X2490875Y-15764395D01*
X2505774Y-15762930D01*
X2504553Y-15764151D01*
X2505774Y-15767815D01*
X2505041Y-15772700D01*
X2503820Y-15783690D01*
X2502355Y-15796635D01*
X2501622Y-15804940D01*
X2502355Y-15813977D01*
X2503087Y-15825944D01*
X2503820Y-15832295D01*
X2504553Y-15835714D01*
X2504553Y-15842797D01*
X2513590Y-15854765D01*
X2527512Y-15863069D01*
X2533374Y-15863069D01*
X2534839Y-15863069D01*
X2549249Y-15859161D01*
X2562438Y-15854032D01*
X2571964Y-15847682D01*
X2577581Y-15842553D01*
X2589794Y-15830829D01*
X2607868Y-15810801D01*
X2624232Y-15790041D01*
X2634002Y-15776363D01*
X2641817Y-15764395D01*
X2644016Y-15751450D01*
X2663555Y-15750718D01*
X2696039Y-15742658D01*
X2728035Y-15735330D01*
X2748063Y-15729469D01*
X2759542Y-15727759D01*
X2774441Y-15725072D01*
X2792515Y-15720432D01*
X2819626Y-15705288D01*
X2843318Y-15687703D01*
X2856507Y-15672804D01*
X2868475Y-15653997D01*
X2877023Y-15638366D01*
X2883862Y-15617117D01*
X2882641Y-15613209D01*
X2882641Y-15605637D01*
X2881175Y-15594402D01*
X2876779Y-15588052D01*
X2875558Y-15579748D01*
X2844539Y-15581946D01*
X2824511Y-15584144D01*
X2797644Y-15588052D01*
X2777128Y-15590250D01*
X2764427Y-15600264D01*
X2758077Y-15604660D01*
X2735118Y-15604660D01*
X2702145Y-15606126D01*
X2670394Y-15609057D01*
X2656228Y-15613209D01*
X2658182Y-15605882D01*
X2664288Y-15576817D01*
X2675034Y-15532365D01*
X2684804Y-15487912D01*
X2691643Y-15459580D01*
X2694574Y-15445658D01*
X2698970Y-15428561D01*
X2703367Y-15405847D01*
X2703367Y-15392902D01*
X2703367Y-15374584D01*
X2700436Y-15364325D01*
X2700680Y-15346984D01*
X2691399Y-15342344D01*
X2679187Y-15333551D01*
X2677233Y-15337459D01*
X2673080Y-15337459D01*
X2666730Y-15338191D01*
X2664532Y-15338924D01*
X2657205Y-15338924D01*
X2649145Y-15344053D01*
X2643771Y-15347228D01*
X2637177Y-15351869D01*
X2628628Y-15360173D01*
X2620812Y-15367012D01*
X2612264Y-15375072D01*
X2602983Y-15380934D01*
X2594434Y-15398519D01*
X2589061Y-15415128D01*
X2583443Y-15427340D01*
X2582711Y-15440529D01*
X2479152Y-15445658D01*
X2507972Y-15467640D01*
X2570010Y-15473991D01*
X2572941Y-15477166D01*
X2572208Y-15474479D01*
X2545830Y-15473014D01*
X2518475Y-15471792D01*
X2502355Y-15471792D01*
X2478419Y-15471792D01*
X2455216Y-15471792D01*
X2441782Y-15471792D01*
X2436165Y-15471792D01*
X2428593Y-15471792D01*
X2403681Y-15475456D01*
X2422487Y-15496217D01*
X2568789Y-15512825D01*
X2541189Y-15619315D01*
X2540457Y-15617850D01*
X2533374Y-15618582D01*
X2527756Y-15619315D01*
X2512857Y-15619315D01*
X2501133Y-15619315D01*
X2482815Y-15619315D01*
X2468405Y-15619315D01*
X2457170Y-15617850D01*
X2437386Y-15616384D01*
X2415160Y-15614919D01*
X2399773Y-15613453D01*
X2386095Y-15610522D01*
X2369731Y-15606370D01*
X2347993Y-15600264D01*
X2327965Y-15594158D01*
X2316242Y-15590983D01*
X2306228Y-15588296D01*
X2287421Y-15581213D01*
X2267149Y-15573397D01*
X2253960Y-15567291D01*
X2251273Y-15565582D01*
X2249319Y-15565582D01*
X2245900Y-15550439D01*
X2242480Y-15532853D01*
X2233199Y-15525770D01*
X2223429Y-15521374D01*
X2217568Y-15522839D01*
X2207798Y-15522839D01*
X2202913Y-15523572D01*
X2200715Y-15524305D01*
X2192166Y-15524305D01*
X2176779Y-15534563D01*
X2156263Y-15545309D01*
X2150157Y-15556056D01*
X2142096Y-15562406D01*
X2022662Y-15572665D01*
X2025837Y-15597577D01*
X2042201Y-15601974D01*
X2052459Y-15603928D01*
X2061008Y-15604660D01*
X2073220Y-15604660D01*
X2089096Y-15604660D01*
X2104483Y-15605393D01*
X2113032Y-15599287D01*
X1812857Y-15629817D01*
X2098621Y-15637633D01*
G37*
G36*
X2191922Y-15469594D02*
G01*
X2209019Y-15462023D01*
X2221720Y-15454207D01*
X2293527Y-15454207D01*
X2365823Y-15454207D01*
X2389026Y-15457626D01*
X2431524Y-15462511D01*
X2477442Y-15467396D01*
X2513101Y-15470571D01*
X2538503Y-15473991D01*
X2584176Y-15481074D01*
X2632947Y-15487011D01*
X2634490Y-15487180D01*
X2669661Y-15490843D01*
X2692376Y-15496705D01*
X2721685Y-15501590D01*
X2748063Y-15505498D01*
X2763206Y-15507696D01*
X2767114Y-15508429D01*
X2775907Y-15513558D01*
X2791294Y-15521618D01*
X2801064Y-15521618D01*
X2806926Y-15521618D01*
X2819870Y-15518931D01*
X2832083Y-15516245D01*
X2852843Y-15506719D01*
X2866277Y-15499880D01*
X2887037Y-15480829D01*
X2905844Y-15461290D01*
X2914392Y-15445903D01*
X2923185Y-15428317D01*
X2923185Y-15419280D01*
X2923185Y-15406579D01*
X2911950Y-15395100D01*
X2902669Y-15394123D01*
X2888991Y-15384842D01*
X2863346Y-15380934D01*
X2842585Y-15377270D01*
X2814497Y-15372385D01*
X2787386Y-15367501D01*
X2770778Y-15364081D01*
X2736584Y-15359685D01*
X2687979Y-15353335D01*
X2640596Y-15346496D01*
X2611531Y-15342832D01*
X2584176Y-15339413D01*
X2544853Y-15334528D01*
X2506263Y-15329643D01*
X2482083Y-15325979D01*
X2457903Y-15324758D01*
X2427861Y-15323293D01*
X2400017Y-15321094D01*
X2382431Y-15318896D01*
X2280826Y-15318896D01*
X2183618Y-15318896D01*
X2165055Y-15327445D01*
X2149180Y-15338680D01*
X2132083Y-15350404D01*
X2119870Y-15359685D01*
X2103506Y-15361395D01*
X2075907Y-15362860D01*
X2048551Y-15364325D01*
X2027547Y-15365547D01*
X2013381Y-15371409D01*
X1966857Y-15390323D01*
X1964532Y-15391436D01*
X1999947Y-15390459D01*
X2003855Y-15395100D01*
X2012892Y-15399008D01*
X2030478Y-15400473D01*
X2056367Y-15403404D01*
X2082745Y-15406335D01*
X2100331Y-15399741D01*
X1878558Y-15391925D01*
X1840945Y-15404626D01*
X1849249Y-15413907D01*
X1865369Y-15416105D01*
X1881734Y-15418303D01*
X1891992Y-15419769D01*
X1916660Y-15423432D01*
X1962090Y-15425630D01*
X2006786Y-15425630D01*
X2031210Y-15425630D01*
X2046598Y-15428561D01*
X2068579Y-15431248D01*
X2088607Y-15432713D01*
X2097644Y-15433202D01*
X2106437Y-15439552D01*
X2114009Y-15444681D01*
X2120115Y-15442727D01*
X2126221Y-15450787D01*
X2136967Y-15447612D01*
X2139166Y-15460801D01*
X2154064Y-15469594D01*
X2170917Y-15469594D01*
X2191922Y-15469594D01*
G37*
G36*
X1710519Y-14983307D02*
G01*
X1727128Y-14977445D01*
X1735432Y-14971583D01*
X1733234Y-14972316D01*
X1741538Y-14970118D01*
X1745690Y-14968652D01*
X1752041Y-14967187D01*
X1755949Y-14965721D01*
X1756193Y-14965721D01*
X1767428Y-14968652D01*
X1799912Y-14968652D01*
X1846807Y-14970850D01*
X1894434Y-14975491D01*
X1927163Y-14976224D01*
X1938154Y-14977201D01*
X1958670Y-14977933D01*
X1979675Y-14978910D01*
X1991154Y-14979643D01*
X2032920Y-14987215D01*
X2081887Y-14990813D01*
X2102285Y-14991122D01*
X2153030Y-14991122D01*
X2171650Y-14991122D01*
X2212683Y-14991122D01*
X2214637Y-14987459D01*
X2205111Y-14994786D01*
X2191922Y-15014325D01*
X2178977Y-15033132D01*
X2168963Y-15044856D01*
X2165788Y-15053893D01*
X2159193Y-15072455D01*
X2152599Y-15090041D01*
X2148203Y-15099322D01*
X2146249Y-15110801D01*
X2135258Y-15111290D01*
X2125244Y-15114465D01*
X2120115Y-15127166D01*
X2127442Y-15129364D01*
X2120603Y-15127410D01*
X2116695Y-15129608D01*
X2093004Y-15139134D01*
X2055146Y-15147682D01*
X2016311Y-15156231D01*
X1990422Y-15162092D01*
X1951831Y-15175770D01*
X1929849Y-15184807D01*
X1913729Y-15193844D01*
X1901762Y-15197019D01*
X1878314Y-15219978D01*
X2161880Y-15169664D01*
X2161636Y-15178701D01*
X2169207Y-15186028D01*
X2181908Y-15197752D01*
X2199738Y-15212651D01*
X2218056Y-15226084D01*
X2231734Y-15234877D01*
X2249319Y-15241716D01*
X2275942Y-15257103D01*
X2292062Y-15256859D01*
X2306716Y-15264186D01*
X2329431Y-15267117D01*
X2350924Y-15270048D01*
X2367044Y-15274200D01*
X2394888Y-15280062D01*
X2422976Y-15285435D01*
X2442515Y-15287633D01*
X2452041Y-15289099D01*
X2468649Y-15291785D01*
X2485746Y-15294961D01*
X2498447Y-15296426D01*
X2512124Y-15298136D01*
X2519940Y-15292762D01*
X2532885Y-15303021D01*
X2549005Y-15309371D01*
X2570010Y-15306684D01*
X2589061Y-15303753D01*
X2598586Y-15303753D01*
X2612264Y-15302288D01*
X2634979Y-15300578D01*
X2641817Y-15287389D01*
X2654518Y-15278108D01*
X2669661Y-15263209D01*
X2683827Y-15247333D01*
X2690910Y-15231946D01*
X2689200Y-15216803D01*
X2697505Y-15208254D01*
X2702634Y-15192134D01*
X2696039Y-15181388D01*
X2688712Y-15174305D01*
X2677721Y-15165756D01*
X2664288Y-15164535D01*
X2652564Y-15163069D01*
X2636200Y-15163069D01*
X2611531Y-15163069D01*
X2588328Y-15163069D01*
X2576360Y-15163069D01*
X2565125Y-15161360D01*
X2546074Y-15158917D01*
X2527512Y-15157452D01*
X2518475Y-15157940D01*
X2505286Y-15153544D01*
X2487212Y-15151101D01*
X2471580Y-15148903D01*
X2462055Y-15147194D01*
X2451552Y-15144995D01*
X2432990Y-15140355D01*
X2414183Y-15135470D01*
X2403681Y-15133027D01*
X2387316Y-15128875D01*
X2365579Y-15121548D01*
X2344574Y-15115198D01*
X2331629Y-15111534D01*
X2322103Y-15103474D01*
X2313799Y-15095903D01*
X2307205Y-15088575D01*
X2296458Y-15080271D01*
X2286200Y-15079294D01*
X2289375Y-15079294D01*
X2289375Y-15076363D01*
X2290840Y-15070990D01*
X2285956Y-15064151D01*
X2294748Y-15068059D01*
X2312578Y-15061709D01*
X2332117Y-15053893D01*
X2351168Y-15043635D01*
X2367533Y-15037284D01*
X2387316Y-15031422D01*
X2395865Y-15028247D01*
X2409787Y-15023118D01*
X2422487Y-15017989D01*
X2429570Y-15016035D01*
X2446912Y-15010906D01*
X2467916Y-15004067D01*
X2486723Y-14998205D01*
X2495027Y-14996007D01*
X2510415Y-14990878D01*
X2522138Y-14987703D01*
X2533129Y-14984039D01*
X2560240Y-14981108D01*
X2580512Y-14977933D01*
X2615928Y-14977933D01*
X2665204Y-14977933D01*
X2682850Y-14977933D01*
X2733546Y-14977933D01*
X2749040Y-14977933D01*
X2784211Y-14977933D01*
X2794225Y-14976712D01*
X2818161Y-14972560D01*
X2845516Y-14966454D01*
X2866765Y-14960348D01*
X2880198Y-14959127D01*
X2904378Y-14955951D01*
X2929047Y-14952044D01*
X2952250Y-14949845D01*
X2958356Y-14939587D01*
X2976186Y-14934214D01*
X2982780Y-14921269D01*
X2992062Y-14907836D01*
X3002808Y-14894402D01*
X3005006Y-14884388D01*
X3014776Y-14871688D01*
X3019905Y-14852148D01*
X3019905Y-14842134D01*
X3014532Y-14837249D01*
X3015753Y-14840180D01*
X3006960Y-14826014D01*
X2991817Y-14817710D01*
X2975453Y-14819175D01*
X2961287Y-14819175D01*
X2950052Y-14819175D01*
X2936618Y-14819175D01*
X2920498Y-14819175D01*
X2899249Y-14819175D01*
X2863346Y-14821374D01*
X2814115Y-14825495D01*
X2794713Y-14827235D01*
X2745339Y-14831640D01*
X2709473Y-14835051D01*
X2660615Y-14839568D01*
X2624965Y-14842867D01*
X2575754Y-14846991D01*
X2556821Y-14848485D01*
X2522871Y-14850439D01*
X2502599Y-14850439D01*
X2467184Y-14852392D01*
X2429082Y-14854346D01*
X2398307Y-14853125D01*
X2372906Y-14854346D01*
X2330163Y-14854346D01*
X2284246Y-14854346D01*
X2252494Y-14858499D01*
X2237840Y-14854102D01*
X2211706Y-14850439D01*
X2186549Y-14850439D01*
X2170184Y-14850439D01*
X2138433Y-14850439D01*
X2088499Y-14850439D01*
X2082990Y-14850439D01*
X2033194Y-14850439D01*
X2028524Y-14850439D01*
X1998970Y-14848973D01*
X1980652Y-14846042D01*
X1951343Y-14841890D01*
X1922522Y-14837249D01*
X1903715Y-14834807D01*
X1883688Y-14834807D01*
X1849738Y-14832853D01*
X1816032Y-14827968D01*
X1795272Y-14825037D01*
X1782571Y-14827235D01*
X1768893Y-14829434D01*
X1756926Y-14832853D01*
X1748621Y-14834807D01*
X1730547Y-14840180D01*
X1712962Y-14851415D01*
X1705879Y-14859720D01*
X1696353Y-14873397D01*
X1687561Y-14886586D01*
X1680233Y-14895379D01*
X1676081Y-14909790D01*
X1671685Y-14923956D01*
X1671685Y-14932748D01*
X1672418Y-14940320D01*
X1673150Y-14944716D01*
X1675348Y-14959127D01*
X1677302Y-14972071D01*
X1689026Y-14983307D01*
X1710519Y-14983307D01*
G37*
G36*
X2070045Y-14480899D02*
G01*
X2072976Y-14501171D01*
X2082501Y-14527305D01*
X2093981Y-14550020D01*
X2104972Y-14572490D01*
X2113520Y-14585435D01*
X2126953Y-14605707D01*
X2141120Y-14626712D01*
X2150645Y-14640634D01*
X2157484Y-14650159D01*
X2167742Y-14662127D01*
X2177023Y-14673362D01*
X2183374Y-14680201D01*
X2298168Y-14793041D01*
X2310136Y-14801834D01*
X2318928Y-14807940D01*
X2326256Y-14814291D01*
X2340422Y-14822839D01*
X2352145Y-14831143D01*
X2367533Y-14839448D01*
X2379745Y-14841890D01*
X2391957Y-14847752D01*
X2410275Y-14850439D01*
X2423953Y-14853369D01*
X2451796Y-14853369D01*
X2477198Y-14853369D01*
X2494295Y-14850683D01*
X2511392Y-14847752D01*
X2530687Y-14838715D01*
X2554867Y-14826503D01*
X2576605Y-14815268D01*
X2591992Y-14807940D01*
X2603960Y-14794507D01*
X2625942Y-14773014D01*
X2650122Y-14749566D01*
X2667951Y-14731004D01*
X2677233Y-14718547D01*
X2686758Y-14703649D01*
X2696284Y-14680690D01*
X2707519Y-14658219D01*
X2716311Y-14634039D01*
X2725104Y-14610348D01*
X2725104Y-14593251D01*
X2725837Y-14568582D01*
X2726814Y-14543181D01*
X2722173Y-14531213D01*
X2739026Y-14536342D01*
X2759054Y-14534633D01*
X2777128Y-14527305D01*
X2794713Y-14516803D01*
X2814497Y-14497752D01*
X2835746Y-14477235D01*
X2851866Y-14445728D01*
X2851866Y-14434249D01*
X2851866Y-14424235D01*
X2846737Y-14415442D01*
X2840387Y-14407382D01*
X2834769Y-14400543D01*
X2826953Y-14396391D01*
X2817672Y-14392483D01*
X2809612Y-14390285D01*
X2797156Y-14383202D01*
X2785676Y-14376119D01*
X2764916Y-14356579D01*
X2731454Y-14323362D01*
X2696039Y-14289168D01*
X2669661Y-14269873D01*
X2667219Y-14258394D01*
X2652564Y-14240808D01*
X2638154Y-14223711D01*
X2629605Y-14212476D01*
X2618126Y-14200997D01*
X2601762Y-14185365D01*
X2585886Y-14170711D01*
X2574406Y-14160208D01*
X2564392Y-14154591D01*
X2550715Y-14150439D01*
X2541678Y-14155079D01*
X2535816Y-14158010D01*
X2531908Y-14158987D01*
X2523848Y-14160941D01*
X2519207Y-14163628D01*
X2510415Y-14167291D01*
X2501622Y-14176817D01*
X2490631Y-14188540D01*
X2478907Y-14199531D01*
X2470847Y-14206859D01*
X2462787Y-14222979D01*
X2455216Y-14241053D01*
X2455216Y-14253509D01*
X2455216Y-14267919D01*
X2463764Y-14280376D01*
X2475976Y-14295763D01*
X2487700Y-14311150D01*
X2494783Y-14321653D01*
X2512857Y-14346810D01*
X2526535Y-14366349D01*
X2536549Y-14386377D01*
X2546563Y-14410801D01*
X2554867Y-14433027D01*
X2562927Y-14454032D01*
X2562927Y-14456719D01*
X2486235Y-14456719D01*
X2486235Y-14486028D01*
X2570010Y-14486028D01*
X2570254Y-14485051D01*
X2555355Y-14490669D01*
X2535327Y-14497996D01*
X2521406Y-14511918D01*
X2539724Y-14523642D01*
X2549494Y-14529503D01*
X2573429Y-14533167D01*
X2589061Y-14536586D01*
X2591259Y-14552218D01*
X2593946Y-14572246D01*
X2593946Y-14617187D01*
X2593946Y-14655044D01*
X2590282Y-14662860D01*
X2583199Y-14677270D01*
X2576360Y-14693146D01*
X2570254Y-14706335D01*
X2565125Y-14711464D01*
X2558042Y-14715372D01*
X2552913Y-14718547D01*
X2513590Y-14718547D01*
X2478907Y-14718547D01*
X2470359Y-14712930D01*
X2461078Y-14707556D01*
X2453750Y-14703893D01*
X2440073Y-14696566D01*
X2430547Y-14688506D01*
X2420289Y-14680934D01*
X2407344Y-14669210D01*
X2393422Y-14656998D01*
X2382431Y-14648694D01*
X2373150Y-14641122D01*
X2358251Y-14625491D01*
X2341399Y-14608882D01*
X2328942Y-14597891D01*
X2321615Y-14589343D01*
X2308182Y-14573956D01*
X2294748Y-14557836D01*
X2287421Y-14545135D01*
X2273743Y-14529748D01*
X2260554Y-14515582D01*
X2254448Y-14506056D01*
X2246144Y-14491646D01*
X2238084Y-14477235D01*
X2232222Y-14467710D01*
X2221964Y-14448415D01*
X2210973Y-14425212D01*
X2208042Y-14419350D01*
X2205600Y-14413244D01*
X2203157Y-14406161D01*
X2203157Y-14378073D01*
X2203157Y-14353404D01*
X2201692Y-14353893D01*
X2208286Y-14351939D01*
X2220254Y-14346566D01*
X2233932Y-14342658D01*
X2249563Y-14340704D01*
X2260310Y-14337040D01*
X2276430Y-14333865D01*
X2292794Y-14331911D01*
X2302808Y-14331178D01*
X2319661Y-14327759D01*
X2332606Y-14324339D01*
X2346284Y-14319943D01*
X2353122Y-14311150D01*
X2362892Y-14306754D01*
X2377547Y-14292832D01*
X2390980Y-14279887D01*
X2400994Y-14270362D01*
X2404902Y-14261569D01*
X2404413Y-14250578D01*
X2410031Y-14247159D01*
X2413450Y-14242274D01*
X2420289Y-14226642D01*
X2407833Y-14212720D01*
X2394644Y-14204660D01*
X2366556Y-14204660D01*
X2341154Y-14204660D01*
X2320150Y-14207347D01*
X2289863Y-14210034D01*
X2274965Y-14216384D01*
X2261775Y-14221025D01*
X2244190Y-14227375D01*
X2225628Y-14234702D01*
X2205844Y-14242762D01*
X2192899Y-14254730D01*
X2180443Y-14256928D01*
X2165788Y-14265965D01*
X2150157Y-14278910D01*
X2135258Y-14290390D01*
X2122313Y-14302602D01*
X2109612Y-14317745D01*
X2095690Y-14335330D01*
X2092759Y-14341925D01*
X2089096Y-14347054D01*
X2083478Y-14355114D01*
X2079082Y-14363663D01*
X2073953Y-14375875D01*
X2068824Y-14388331D01*
X2071022Y-14395903D01*
X2064427Y-14402741D01*
X2062718Y-14405917D01*
X2047086Y-14412511D01*
X2039515Y-14419106D01*
X2035362Y-14435226D01*
X2050505Y-14436935D01*
X2061008Y-14442064D01*
X2060764Y-14436935D01*
X2060764Y-14439134D01*
X2060031Y-14440111D01*
X2029012Y-14440111D01*
X1979562Y-14440111D01*
X1974057Y-14440111D01*
X1923861Y-14440111D01*
X1919103Y-14440111D01*
X1883688Y-14440111D01*
X1858286Y-14444018D01*
X1826779Y-14447926D01*
X1805774Y-14455986D01*
X1790631Y-14459650D01*
X1781350Y-14466245D01*
X1776465Y-14476747D01*
X2070045Y-14480899D01*
G37*
G36*
X2400750Y-13728631D02*
G01*
X2423220Y-13733272D01*
X2446667Y-13740599D01*
X2470115Y-13750857D01*
X2496981Y-13763069D01*
X2529221Y-13778457D01*
X2551448Y-13790180D01*
X2570254Y-13802881D01*
X2579291Y-13809964D01*
X2595655Y-13821443D01*
X2612508Y-13832190D01*
X2623743Y-13838785D01*
X2628628Y-13840983D01*
X2639375Y-13842204D01*
X2651099Y-13844158D01*
X2657205Y-13845379D01*
X2673813Y-13856614D01*
X2685048Y-13872246D01*
X2692131Y-13879573D01*
X2697749Y-13890808D01*
X2700436Y-13905951D01*
X2703367Y-13919873D01*
X2703367Y-13966524D01*
X2703367Y-14011709D01*
X2700436Y-14028073D01*
X2697749Y-14043949D01*
X2691154Y-14058847D01*
X2681629Y-14077410D01*
X2671371Y-14095972D01*
X2663555Y-14108917D01*
X2651831Y-14124793D01*
X2640108Y-14140425D01*
X2629361Y-14151171D01*
X2614218Y-14165337D01*
X2600052Y-14178771D01*
X2591748Y-14186831D01*
X2585886Y-14191227D01*
X2571964Y-14201485D01*
X2555844Y-14212232D01*
X2543143Y-14219559D01*
X2534595Y-14223223D01*
X2526779Y-14226154D01*
X2517009Y-14231039D01*
X2501622Y-14235679D01*
X2487944Y-14239343D01*
X2479396Y-14240808D01*
X2428838Y-14240808D01*
X2371441Y-14240808D01*
X2360450Y-14238122D01*
X2348237Y-14235191D01*
X2334071Y-14227131D01*
X2316730Y-14217850D01*
X2298900Y-14208813D01*
X2286933Y-14202218D01*
X2271057Y-14193670D01*
X2265683Y-14182190D01*
X2248831Y-14172176D01*
X2227093Y-14151660D01*
X2205844Y-14131632D01*
X2192899Y-14117954D01*
X2184106Y-14105498D01*
X2176046Y-14092553D01*
X2168230Y-14079608D01*
X2158949Y-14060069D01*
X2149912Y-14042483D01*
X2143318Y-14030271D01*
X2136967Y-14007068D01*
X2133060Y-13988506D01*
X2114253Y-13990704D01*
X2076639Y-13989238D01*
X2039515Y-13985575D01*
X2015579Y-13981667D01*
X2003611Y-13978247D01*
X1992864Y-13974584D01*
X1983583Y-13965058D01*
X1983583Y-13959196D01*
X1987735Y-13950404D01*
X2130861Y-13937459D01*
X2130373Y-13935261D01*
X2131594Y-13925247D01*
X2131594Y-13922804D01*
X2136723Y-13922560D01*
X2124755Y-13921583D01*
X2106193Y-13915233D01*
X2106193Y-13901799D01*
X2106193Y-13889831D01*
X2126953Y-13886168D01*
X2138921Y-13874688D01*
X2148691Y-13865163D01*
X2158189Y-13852951D01*
X2262264Y-13852951D01*
X2265683Y-13861988D01*
X2265683Y-13881527D01*
X2265683Y-13902044D01*
X2265683Y-13916210D01*
X2267882Y-13923048D01*
X2276919Y-13934284D01*
X2280826Y-13948694D01*
X2289375Y-13967256D01*
X2298656Y-13985575D01*
X2301587Y-13996077D01*
X2314288Y-14009266D01*
X2326256Y-14025386D01*
X2341399Y-14039797D01*
X2355809Y-14054451D01*
X2370464Y-14064954D01*
X2387805Y-14075212D01*
X2397086Y-14082295D01*
X2414183Y-14090843D01*
X2433722Y-14100369D01*
X2444469Y-14107452D01*
X2457170Y-14109161D01*
X2471092Y-14111848D01*
X2497226Y-14111848D01*
X2522383Y-14111848D01*
X2534351Y-14109161D01*
X2540701Y-14107696D01*
X2548272Y-14102811D01*
X2552424Y-14099148D01*
X2549005Y-14098903D01*
X2539724Y-14094018D01*
X2531420Y-14085714D01*
X2531420Y-14070083D01*
X2531420Y-14062023D01*
X2534839Y-14051764D01*
X2538503Y-14037598D01*
X2543143Y-14037843D01*
X2544364Y-14035644D01*
X2546807Y-14030760D01*
X2557554Y-14023188D01*
X2557317Y-14019766D01*
X2555111Y-14020257D01*
X2550226Y-14013663D01*
X2539968Y-14010732D01*
X2531175Y-14003649D01*
X2517498Y-14006335D01*
X2490387Y-14006335D01*
X2463520Y-14004137D01*
X2447644Y-14001695D01*
X2435432Y-13996321D01*
X2418579Y-13990704D01*
X2418579Y-13977515D01*
X2418579Y-13965302D01*
X2440073Y-13961883D01*
X2458147Y-13958464D01*
X2486723Y-13955044D01*
X2505107Y-13957086D01*
X2498447Y-13953090D01*
X2482327Y-13937703D01*
X2466695Y-13925979D01*
X2448866Y-13915477D01*
X2429082Y-13904242D01*
X2416381Y-13897647D01*
X2398063Y-13889343D01*
X2379989Y-13881771D01*
X2368510Y-13876398D01*
X2358984Y-13872002D01*
X2345795Y-13866628D01*
X2334071Y-13862476D01*
X2328942Y-13860522D01*
X2315753Y-13859301D01*
X2294260Y-13857836D01*
X2272278Y-13857103D01*
X2262264Y-13852951D01*
X2158189Y-13852951D01*
X2158949Y-13851974D01*
X2161147Y-13839762D01*
X2171161Y-13827549D01*
X2182641Y-13810697D01*
X2195097Y-13795554D01*
X2201936Y-13788959D01*
X2217323Y-13777968D01*
X2231978Y-13765023D01*
X2245167Y-13755498D01*
X2257135Y-13754277D01*
X2263485Y-13744507D01*
X2275453Y-13740111D01*
X2285223Y-13736691D01*
X2295969Y-13733272D01*
X2313799Y-13728631D01*
X2328942Y-13724967D01*
X2354344Y-13724967D01*
X2384141Y-13724967D01*
X2400750Y-13728631D01*
G37*
G36*
X2138189Y-13631667D02*
G01*
X2130129Y-13629713D01*
X2127930Y-13630445D01*
X2105704Y-13636552D01*
X2054759Y-13639724D01*
X2052459Y-13639727D01*
X2095202Y-13661953D01*
X2119626Y-13664639D01*
X2141608Y-13670013D01*
X2158217Y-13675875D01*
X2173360Y-13676852D01*
X2181420Y-13686866D01*
X2197051Y-13691262D01*
X2208531Y-13694437D01*
X2227826Y-13698345D01*
X2244923Y-13702253D01*
X2255914Y-13705917D01*
X2272522Y-13707138D01*
X2296702Y-13710313D01*
X2321615Y-13714221D01*
X2338956Y-13717396D01*
X2374616Y-13723746D01*
X2423719Y-13731771D01*
X2435921Y-13733760D01*
X2485055Y-13741029D01*
X2497958Y-13742797D01*
X2532885Y-13746705D01*
X2546074Y-13749880D01*
X2570010Y-13754521D01*
X2593702Y-13759161D01*
X2609822Y-13762825D01*
X2619347Y-13765512D01*
X2630582Y-13763069D01*
X2636688Y-13775037D01*
X2654518Y-13782609D01*
X2674057Y-13782609D01*
X2692376Y-13782609D01*
X2704832Y-13779922D01*
X2716311Y-13777235D01*
X2729501Y-13768687D01*
X2741713Y-13761115D01*
X2755390Y-13750369D01*
X2768091Y-13738157D01*
X2775907Y-13724967D01*
X2775662Y-13711046D01*
X2784211Y-13707626D01*
X2790561Y-13692727D01*
X2790561Y-13685889D01*
X2790561Y-13680271D01*
X2780547Y-13669280D01*
X2771999Y-13659999D01*
X2762473Y-13655603D01*
X2751727Y-13658045D01*
X2743667Y-13647298D01*
X2730233Y-13643635D01*
X2718510Y-13640459D01*
X2700924Y-13635330D01*
X2683339Y-13630201D01*
X2669661Y-13626293D01*
X2649633Y-13622630D01*
X2634734Y-13625561D01*
X2648412Y-13621164D01*
X2666242Y-13602113D01*
X2683583Y-13583551D01*
X2698726Y-13569873D01*
X2708007Y-13554242D01*
X2719487Y-13537389D01*
X2728524Y-13524444D01*
X2735607Y-13513942D01*
X2743911Y-13494158D01*
X2751727Y-13473642D01*
X2756612Y-13446775D01*
X2758077Y-13422839D01*
X2758077Y-13413314D01*
X2757344Y-13395972D01*
X2755146Y-13379120D01*
X2752459Y-13368617D01*
X2745865Y-13351764D01*
X2735607Y-13333690D01*
X2726081Y-13322211D01*
X2712892Y-13313663D01*
X2695062Y-13313663D01*
X2670150Y-13313663D01*
X2654518Y-13320257D01*
X2642550Y-13331736D01*
X2626430Y-13347857D01*
X2614706Y-13360801D01*
X2580268Y-13360801D01*
X2530493Y-13360801D01*
X2525069Y-13360801D01*
X2475038Y-13360801D01*
X2470115Y-13360801D01*
X2434211Y-13360801D01*
X2419556Y-13361534D01*
X2398307Y-13363977D01*
X2378035Y-13368129D01*
X2365334Y-13371304D01*
X2347749Y-13375212D01*
X2334071Y-13386691D01*
X2600540Y-13394507D01*
X2603227Y-13396949D01*
X2609089Y-13395240D01*
X2604204Y-13400613D01*
X2604204Y-13404521D01*
X2601029Y-13406963D01*
X2596632Y-13410871D01*
X2592236Y-13412092D01*
X2581489Y-13413802D01*
X2569033Y-13416000D01*
X2559508Y-13417466D01*
X2550471Y-13421862D01*
X2538747Y-13423328D01*
X2528000Y-13444088D01*
X2545097Y-13454102D01*
X2562683Y-13457766D01*
X2586863Y-13459231D01*
X2608600Y-13460452D01*
X2623499Y-13463383D01*
X2624965Y-13462895D01*
X2625209Y-13468268D01*
X2625209Y-13496356D01*
X2625209Y-13518582D01*
X2620812Y-13526887D01*
X2616172Y-13531283D01*
X2593702Y-13539099D01*
X2573918Y-13544716D01*
X2485013Y-13544716D01*
X2396109Y-13544716D01*
X2381699Y-13544716D01*
X2355321Y-13543007D01*
X2328454Y-13539343D01*
X2313066Y-13537633D01*
X2274965Y-13537633D01*
X2241259Y-13537633D01*
X2231734Y-13542274D01*
X2223918Y-13545449D01*
X2220010Y-13546670D01*
X2210973Y-13551555D01*
X2202424Y-13553753D01*
X2188747Y-13564500D01*
X2177512Y-13572560D01*
X2162124Y-13583062D01*
X2147714Y-13594053D01*
X2115963Y-13595030D01*
X2065890Y-13595030D01*
X2064183Y-13595030D01*
X2014795Y-13595030D01*
X2011671Y-13595030D01*
X1976744Y-13596984D01*
X1963066Y-13598938D01*
X1943771Y-13601625D01*
X1925697Y-13604312D01*
X1915439Y-13606021D01*
X1904204Y-13610906D01*
X1889794Y-13632399D01*
X1922522Y-13636063D01*
X1944993Y-13639482D01*
X2138189Y-13631667D01*
G37*
G36*
X2169696Y-12770955D02*
G01*
X2196318Y-12779259D01*
X2203157Y-12782434D01*
X2215125Y-12787075D01*
X2229780Y-12792937D01*
X2231734Y-12801241D01*
X2257868Y-12802218D01*
X2276919Y-12810522D01*
X2286688Y-12811011D01*
X2305739Y-12816140D01*
X2325523Y-12821757D01*
X2340177Y-12825665D01*
X2354832Y-12827864D01*
X2376570Y-12832260D01*
X2396109Y-12836168D01*
X2408077Y-12838122D01*
X2430547Y-12843984D01*
X2457414Y-12848868D01*
X2480861Y-12852288D01*
X2491852Y-12853509D01*
X2505774Y-12850090D01*
X2521406Y-12846670D01*
X2523604Y-12845937D01*
X2530931Y-12845205D01*
X2539480Y-12847403D01*
X2543876Y-12851555D01*
X2548272Y-12855951D01*
X2559263Y-12868896D01*
X2567323Y-12884039D01*
X2567323Y-12900404D01*
X2567323Y-12925805D01*
X2567323Y-12951206D01*
X2567323Y-12967326D01*
X2567323Y-12987110D01*
X2567323Y-13012511D01*
X2567323Y-13035226D01*
X2567323Y-13044995D01*
X2565125Y-13055742D01*
X2560729Y-13073328D01*
X2555111Y-13093111D01*
X2550471Y-13108254D01*
X2548028Y-13119489D01*
X2542655Y-13132190D01*
X2535816Y-13151974D01*
X2528733Y-13169315D01*
X2523604Y-13181039D01*
X2516521Y-13195205D01*
X2509193Y-13210104D01*
X2502843Y-13219873D01*
X2496737Y-13228910D01*
X2487456Y-13242832D01*
X2478175Y-13256510D01*
X2471824Y-13265302D01*
X2458391Y-13279224D01*
X2434455Y-13304626D01*
X2407588Y-13331492D01*
X2387561Y-13351032D01*
X2377058Y-13356894D01*
X2367044Y-13363000D01*
X2347993Y-13374235D01*
X2331385Y-13381806D01*
X2306960Y-13389378D01*
X2285467Y-13395728D01*
X2267149Y-13395728D01*
X2247121Y-13395728D01*
X2234665Y-13393041D01*
X2222697Y-13390111D01*
X2215614Y-13386203D01*
X2211217Y-13383760D01*
X2205355Y-13380585D01*
X2195830Y-13372281D01*
X2184839Y-13360069D01*
X2173604Y-13348833D01*
X2165300Y-13340773D01*
X2154064Y-13327096D01*
X2146004Y-13312441D01*
X2144050Y-13307312D01*
X2139410Y-13295100D01*
X2134281Y-13279957D01*
X2132083Y-13266768D01*
X2128419Y-13251381D01*
X2128175Y-13236726D01*
X2121336Y-13232574D01*
X2120603Y-13227445D01*
X2095690Y-13223781D01*
X2067602Y-13220118D01*
X2052948Y-13217431D01*
X2030966Y-13215965D01*
X2006786Y-13214256D01*
X1986758Y-13209127D01*
X1973569Y-13184947D01*
X2101465Y-13187762D01*
X2093492Y-13177131D01*
X2097400Y-13166140D01*
X2099110Y-13158813D01*
X2112299Y-13154416D01*
X2116207Y-13152218D01*
X2120115Y-13142204D01*
X2126221Y-13121443D01*
X2132815Y-13100194D01*
X2138433Y-13084318D01*
X2148755Y-13067466D01*
X2262020Y-13067466D01*
X2262020Y-13119734D01*
X2262020Y-13174933D01*
X2268126Y-13193007D01*
X2276186Y-13219385D01*
X2280338Y-13226712D01*
X2293283Y-13237947D01*
X2296702Y-13246740D01*
X2304762Y-13250648D01*
X2307693Y-13254067D01*
X2313066Y-13255777D01*
X2316974Y-13261395D01*
X2332117Y-13258952D01*
X2351901Y-13258952D01*
X2357274Y-13256265D01*
X2366800Y-13250404D01*
X2371929Y-13247717D01*
X2376325Y-13236482D01*
X2385851Y-13224270D01*
X2394155Y-13214500D01*
X2404413Y-13191785D01*
X2413450Y-13174444D01*
X2413450Y-13164430D01*
X2417114Y-13161743D01*
X2397575Y-13162476D01*
X2375104Y-13156614D01*
X2366800Y-13152706D01*
X2361427Y-13135609D01*
X2374371Y-13133411D01*
X2381943Y-13131213D01*
X2403681Y-13123886D01*
X2421510Y-13126328D01*
X2400261Y-13111185D01*
X2418579Y-13104102D01*
X2431036Y-13101660D01*
X2433478Y-13090669D01*
X2436165Y-13079922D01*
X2437630Y-13073083D01*
X2437630Y-13043774D01*
X2437630Y-13012511D01*
X2435921Y-13008115D01*
X2434944Y-13004940D01*
X2407100Y-13004940D01*
X2377302Y-13004940D01*
X2358984Y-13008359D01*
X2341399Y-13013244D01*
X2315265Y-13020815D01*
X2297435Y-13030341D01*
X2282048Y-13039866D01*
X2269347Y-13055254D01*
X2263974Y-13062581D01*
X2262020Y-13067466D01*
X2148755Y-13067466D01*
X2150401Y-13064779D01*
X2164811Y-13042309D01*
X2169207Y-13031074D01*
X2175558Y-13020083D01*
X2189480Y-13002741D01*
X2208775Y-12981248D01*
X2228314Y-12960487D01*
X2241259Y-12953404D01*
X2233688Y-12953649D01*
X2218789Y-12949252D01*
X2193387Y-12942413D01*
X2167254Y-12935086D01*
X2151378Y-12929224D01*
X2139410Y-12926293D01*
X2118161Y-12919943D01*
X2096179Y-12912860D01*
X2080303Y-12906021D01*
X2060275Y-12898694D01*
X2040491Y-12889657D01*
X2031210Y-12881841D01*
X2031210Y-12866942D01*
X2031210Y-12854486D01*
X2034385Y-12839343D01*
X2038782Y-12830062D01*
X2049284Y-12816628D01*
X2066381Y-12799776D01*
X2083478Y-12783656D01*
X2096423Y-12772665D01*
X2107414Y-12768268D01*
X2119382Y-12762651D01*
X2135258Y-12762651D01*
X2148447Y-12762651D01*
X2169696Y-12770955D01*
G37*
G36*
X2140143Y-12591681D02*
G01*
X2145760Y-12604870D01*
X2157484Y-12627096D01*
X2169696Y-12648589D01*
X2178244Y-12661778D01*
X2186549Y-12678143D01*
X2197295Y-12688645D01*
X2208531Y-12702567D01*
X2229780Y-12725037D01*
X2250540Y-12747263D01*
X2265928Y-12760697D01*
X2284002Y-12770222D01*
X2309403Y-12784633D01*
X2313311Y-12792693D01*
X2322592Y-12798310D01*
X2344574Y-12806859D01*
X2361915Y-12815407D01*
X2381210Y-12818338D01*
X2396109Y-12821269D01*
X2458147Y-12821269D01*
X2522383Y-12821269D01*
X2537526Y-12818338D01*
X2549738Y-12816384D01*
X2564148Y-12815651D01*
X2572941Y-12810034D01*
X2584176Y-12806370D01*
X2603471Y-12796600D01*
X2632048Y-12782923D01*
X2659159Y-12769734D01*
X2678942Y-12761429D01*
X2692620Y-12748729D01*
X2706053Y-12737005D01*
X2726081Y-12716977D01*
X2754902Y-12688401D01*
X2781036Y-12662023D01*
X2796667Y-12647368D01*
X2803750Y-12638575D01*
X2813276Y-12624165D01*
X2823046Y-12609755D01*
X2831350Y-12597054D01*
X2840875Y-12574828D01*
X2852110Y-12553090D01*
X2860659Y-12530620D01*
X2869696Y-12504486D01*
X2872383Y-12482016D01*
X2875314Y-12459545D01*
X2875314Y-12435854D01*
X2875314Y-12414849D01*
X2872627Y-12391402D01*
X2869940Y-12363314D01*
X2863101Y-12350369D01*
X2856263Y-12342064D01*
X2852355Y-12324479D01*
X2844050Y-12308115D01*
X2831594Y-12291750D01*
X2817184Y-12280760D01*
X2808879Y-12267082D01*
X2791538Y-12254381D01*
X2787386Y-12251206D01*
X2781036Y-12246566D01*
X2772976Y-12242902D01*
X2755635Y-12242902D01*
X2738782Y-12242902D01*
X2725837Y-12247298D01*
X2712648Y-12254870D01*
X2700191Y-12265372D01*
X2683827Y-12280760D01*
X2667219Y-12296147D01*
X2654274Y-12310801D01*
X2651343Y-12324235D01*
X2648656Y-12339134D01*
X2648656Y-12346461D01*
X2648656Y-12354277D01*
X2662090Y-12371374D01*
X2676256Y-12385295D01*
X2689200Y-12388959D01*
X2699214Y-12391157D01*
X2708007Y-12400439D01*
X2718265Y-12410208D01*
X2724616Y-12423397D01*
X2732187Y-12440739D01*
X2739026Y-12451485D01*
X2742445Y-12460034D01*
X2742445Y-12490808D01*
X2743422Y-12512058D01*
X2727547Y-12511081D01*
X2694330Y-12512546D01*
X2661113Y-12516210D01*
X2640352Y-12519629D01*
X2621789Y-12523293D01*
X2581245Y-12526956D01*
X2615683Y-12555533D01*
X2707030Y-12555533D01*
X2677721Y-12566524D01*
X2697749Y-12579713D01*
X2716067Y-12581911D01*
X2729501Y-12578736D01*
X2725348Y-12578736D01*
X2729501Y-12578736D01*
X2721685Y-12584598D01*
X2718754Y-12591192D01*
X2721685Y-12596566D01*
X2709961Y-12606579D01*
X2708984Y-12618792D01*
X2694574Y-12627096D01*
X2680896Y-12640041D01*
X2667463Y-12652253D01*
X2653785Y-12659824D01*
X2638154Y-12669838D01*
X2620324Y-12679120D01*
X2610799Y-12682051D01*
X2600296Y-12686447D01*
X2581489Y-12689378D01*
X2565369Y-12692309D01*
X2527267Y-12692309D01*
X2489166Y-12692309D01*
X2476709Y-12689622D01*
X2461322Y-12686691D01*
X2448866Y-12681806D01*
X2437142Y-12681562D01*
X2424930Y-12671304D01*
X2407344Y-12662755D01*
X2399773Y-12657626D01*
X2391957Y-12651764D01*
X2384874Y-12650055D01*
X2369731Y-12638331D01*
X2360205Y-12626852D01*
X2339689Y-12611709D01*
X2326988Y-12599496D01*
X2316486Y-12582155D01*
X2304518Y-12567012D01*
X2300122Y-12558219D01*
X2290840Y-12540634D01*
X2281315Y-12522071D01*
X2275697Y-12510348D01*
X2272034Y-12500090D01*
X2268614Y-12489343D01*
X2264706Y-12475421D01*
X2261287Y-12458568D01*
X2259333Y-12443914D01*
X2258845Y-12436098D01*
X2261775Y-12422665D01*
X2266416Y-12411185D01*
X2278872Y-12397263D01*
X2293039Y-12384318D01*
X2319417Y-12368687D01*
X2337002Y-12360138D01*
X2435921Y-12360138D01*
X2437630Y-12388471D01*
X2437630Y-12438713D01*
X2437630Y-12440494D01*
X2437630Y-12490283D01*
X2437630Y-12495205D01*
X2444713Y-12532330D01*
X2444713Y-12555044D01*
X2444713Y-12588750D01*
X2446179Y-12620501D01*
X2447644Y-12640773D01*
X2452285Y-12654207D01*
X2460589Y-12666419D01*
X2467916Y-12671304D01*
X2478907Y-12674967D01*
X2485013Y-12674967D01*
X2488921Y-12674967D01*
X2503576Y-12671548D01*
X2513101Y-12666907D01*
X2526046Y-12657382D01*
X2542899Y-12640773D01*
X2558042Y-12624653D01*
X2569277Y-12611709D01*
X2572697Y-12598519D01*
X2576116Y-12585330D01*
X2576116Y-12567012D01*
X2576116Y-12539413D01*
X2576116Y-12489499D01*
X2576116Y-12483237D01*
X2576116Y-12434373D01*
X2576116Y-12410941D01*
X2576116Y-12360827D01*
X2576116Y-12334493D01*
X2576116Y-12284884D01*
X2576116Y-12264395D01*
X2576116Y-12215028D01*
X2576116Y-12210906D01*
X2576116Y-12185261D01*
X2576116Y-12173048D01*
X2574406Y-12153021D01*
X2571720Y-12133237D01*
X2570743Y-12117361D01*
X2551203Y-12102218D01*
X2534351Y-12102218D01*
X2521650Y-12102218D01*
X2509438Y-12107347D01*
X2500401Y-12114430D01*
X2488433Y-12120780D01*
X2471580Y-12129817D01*
X2472557Y-12132748D01*
X2469138Y-12133481D01*
X2452529Y-12153997D01*
X2446179Y-12170118D01*
X2435432Y-12189901D01*
X2427128Y-12211150D01*
X2419556Y-12212860D01*
X2409542Y-12216524D01*
X2400261Y-12216524D01*
X2392201Y-12216524D01*
X2378279Y-12213348D01*
X2351413Y-12208464D01*
X2322348Y-12203823D01*
X2300610Y-12200892D01*
X2281315Y-12197473D01*
X2263485Y-12192832D01*
X2249319Y-12190878D01*
X2232222Y-12186238D01*
X2214881Y-12181353D01*
X2201448Y-12176712D01*
X2190212Y-12175002D01*
X2173115Y-12171094D01*
X2156507Y-12166942D01*
X2146737Y-12164744D01*
X2131838Y-12164744D01*
X2115474Y-12164744D01*
X2096667Y-12164744D01*
X2081280Y-12164744D01*
X2069068Y-12171339D01*
X2062962Y-12175735D01*
X2057344Y-12176956D01*
X2039270Y-12196251D01*
X2026325Y-12210906D01*
X2015579Y-12227270D01*
X2007763Y-12245344D01*
X2007763Y-12256091D01*
X2007763Y-12271723D01*
X2017044Y-12279538D01*
X2041224Y-12288820D01*
X2068091Y-12296635D01*
X2079570Y-12299566D01*
X2088119Y-12302741D01*
X2096912Y-12306649D01*
X2115963Y-12309336D01*
X2146249Y-12316175D01*
X2179221Y-12323991D01*
X2200226Y-12327410D01*
X2209996Y-12331074D01*
X2220010Y-12327898D01*
X2201203Y-12339866D01*
X2185572Y-12359650D01*
X2169940Y-12378945D01*
X2159926Y-12394332D01*
X2150645Y-12414360D01*
X2139898Y-12435854D01*
X2129396Y-12459790D01*
X2126953Y-12482504D01*
X2108391Y-12476887D01*
X2081769Y-12479573D01*
X2064672Y-12482993D01*
X2014602Y-12486412D01*
X2046109Y-12504974D01*
X2052215Y-12501067D01*
X2061252Y-12511813D01*
X2082013Y-12515965D01*
X2102773Y-12519629D01*
X2121092Y-12523048D01*
X2121336Y-12523537D01*
X2121824Y-12525002D01*
X2121824Y-12527689D01*
X2125244Y-12527689D01*
X2104239Y-12524270D01*
X2065648Y-12524270D01*
X2026814Y-12524270D01*
X1997993Y-12524270D01*
X1984071Y-12535261D01*
X1965753Y-12539901D01*
X1945237Y-12541611D01*
X1930826Y-12543076D01*
X1911531Y-12546984D01*
X1884909Y-12550648D01*
X1882955Y-12560418D01*
X1879291Y-12577026D01*
X1904692Y-12580690D01*
X1925209Y-12584353D01*
X2001413Y-12584353D01*
X2016067Y-12584842D01*
X2031943Y-12585330D01*
X2050505Y-12586063D01*
X2080303Y-12586552D01*
X2110101Y-12586796D01*
X2128175Y-12586796D01*
X2140143Y-12591681D01*
G37*
G36*
X2138189Y-12055812D02*
G01*
X2130129Y-12053858D01*
X2127930Y-12054591D01*
X2105704Y-12060697D01*
X2054759Y-12063869D01*
X2052459Y-12063872D01*
X2095202Y-12086098D01*
X2119626Y-12088785D01*
X2141608Y-12094158D01*
X2158217Y-12100020D01*
X2173360Y-12100997D01*
X2181420Y-12111011D01*
X2197051Y-12115407D01*
X2208531Y-12118582D01*
X2227826Y-12122490D01*
X2244923Y-12126398D01*
X2255914Y-12130062D01*
X2272522Y-12131283D01*
X2296702Y-12134458D01*
X2321615Y-12138366D01*
X2338956Y-12141541D01*
X2374616Y-12147891D01*
X2423719Y-12155916D01*
X2435921Y-12157905D01*
X2485055Y-12165174D01*
X2497958Y-12166942D01*
X2532885Y-12170850D01*
X2546074Y-12174025D01*
X2570010Y-12178666D01*
X2593702Y-12183307D01*
X2609822Y-12186970D01*
X2619347Y-12189657D01*
X2630582Y-12187215D01*
X2636688Y-12199182D01*
X2654518Y-12206754D01*
X2674057Y-12206754D01*
X2692376Y-12206754D01*
X2704832Y-12204067D01*
X2716311Y-12201381D01*
X2729501Y-12192832D01*
X2741713Y-12185261D01*
X2755390Y-12174514D01*
X2768091Y-12162302D01*
X2775907Y-12149113D01*
X2775662Y-12135191D01*
X2784211Y-12131771D01*
X2790561Y-12116873D01*
X2790561Y-12110034D01*
X2790561Y-12104416D01*
X2780547Y-12093425D01*
X2771999Y-12084144D01*
X2762473Y-12079748D01*
X2751727Y-12082190D01*
X2743667Y-12071443D01*
X2730233Y-12067780D01*
X2718510Y-12064605D01*
X2700924Y-12059476D01*
X2683339Y-12054346D01*
X2669661Y-12050439D01*
X2649633Y-12046775D01*
X2634734Y-12049706D01*
X2648412Y-12045309D01*
X2666242Y-12026258D01*
X2683583Y-12007696D01*
X2698726Y-11994018D01*
X2708007Y-11978387D01*
X2719487Y-11961534D01*
X2728524Y-11948589D01*
X2735607Y-11938087D01*
X2743911Y-11918303D01*
X2751727Y-11897787D01*
X2756612Y-11870920D01*
X2758077Y-11846984D01*
X2758077Y-11837459D01*
X2757344Y-11820118D01*
X2755146Y-11803265D01*
X2752459Y-11792762D01*
X2745865Y-11775910D01*
X2735607Y-11757836D01*
X2726081Y-11746356D01*
X2712892Y-11737808D01*
X2695062Y-11737808D01*
X2670150Y-11737808D01*
X2654518Y-11744402D01*
X2642550Y-11755882D01*
X2626430Y-11772002D01*
X2614706Y-11784947D01*
X2580268Y-11784947D01*
X2530493Y-11784947D01*
X2525069Y-11784947D01*
X2475038Y-11784947D01*
X2470115Y-11784947D01*
X2434211Y-11784947D01*
X2419556Y-11785679D01*
X2398307Y-11788122D01*
X2378035Y-11792274D01*
X2365334Y-11795449D01*
X2347749Y-11799357D01*
X2334071Y-11810836D01*
X2600540Y-11818652D01*
X2603227Y-11821094D01*
X2609089Y-11819385D01*
X2604204Y-11824758D01*
X2604204Y-11828666D01*
X2601029Y-11831108D01*
X2596632Y-11835016D01*
X2592236Y-11836238D01*
X2581489Y-11837947D01*
X2569033Y-11840145D01*
X2559508Y-11841611D01*
X2550471Y-11846007D01*
X2538747Y-11847473D01*
X2528000Y-11868233D01*
X2545097Y-11878247D01*
X2562683Y-11881911D01*
X2586863Y-11883376D01*
X2608600Y-11884598D01*
X2623499Y-11887529D01*
X2624965Y-11887040D01*
X2625209Y-11892413D01*
X2625209Y-11920501D01*
X2625209Y-11942727D01*
X2620812Y-11951032D01*
X2616172Y-11955428D01*
X2593702Y-11963244D01*
X2573918Y-11968861D01*
X2485013Y-11968861D01*
X2396109Y-11968861D01*
X2381699Y-11968861D01*
X2355321Y-11967152D01*
X2328454Y-11963488D01*
X2313066Y-11961778D01*
X2274965Y-11961778D01*
X2241259Y-11961778D01*
X2231734Y-11966419D01*
X2223918Y-11969594D01*
X2220010Y-11970815D01*
X2210973Y-11975700D01*
X2202424Y-11977898D01*
X2188747Y-11988645D01*
X2177512Y-11996705D01*
X2162124Y-12007208D01*
X2147714Y-12018198D01*
X2115963Y-12019175D01*
X2065890Y-12019175D01*
X2064183Y-12019175D01*
X2014795Y-12019175D01*
X2011671Y-12019175D01*
X1976744Y-12021129D01*
X1963066Y-12023083D01*
X1943771Y-12025770D01*
X1925697Y-12028457D01*
X1915439Y-12030166D01*
X1904204Y-12035051D01*
X1889794Y-12056545D01*
X1922522Y-12060208D01*
X1944993Y-12063628D01*
X2138189Y-12055812D01*
G37*
G36*
X2169696Y-11195100D02*
G01*
X2196318Y-11203404D01*
X2203157Y-11206579D01*
X2215125Y-11211220D01*
X2229780Y-11217082D01*
X2231734Y-11225386D01*
X2257868Y-11226363D01*
X2276919Y-11234667D01*
X2286688Y-11235156D01*
X2305739Y-11240285D01*
X2325523Y-11245903D01*
X2340177Y-11249810D01*
X2354832Y-11252009D01*
X2376570Y-11256405D01*
X2396109Y-11260313D01*
X2408077Y-11262267D01*
X2430547Y-11268129D01*
X2457414Y-11273014D01*
X2480861Y-11276433D01*
X2491852Y-11277654D01*
X2505774Y-11274235D01*
X2521406Y-11270815D01*
X2523604Y-11270083D01*
X2530931Y-11269350D01*
X2539480Y-11271548D01*
X2543876Y-11275700D01*
X2548272Y-11280097D01*
X2559263Y-11293041D01*
X2567323Y-11308185D01*
X2567323Y-11324549D01*
X2567323Y-11349950D01*
X2567323Y-11375351D01*
X2567323Y-11391471D01*
X2567323Y-11411255D01*
X2567323Y-11436656D01*
X2567323Y-11459371D01*
X2567323Y-11469141D01*
X2565125Y-11479887D01*
X2560729Y-11497473D01*
X2555111Y-11517256D01*
X2550471Y-11532399D01*
X2548028Y-11543635D01*
X2542655Y-11556335D01*
X2535816Y-11576119D01*
X2528733Y-11593460D01*
X2523604Y-11605184D01*
X2516521Y-11619350D01*
X2509193Y-11634249D01*
X2502843Y-11644018D01*
X2496737Y-11653055D01*
X2487456Y-11666977D01*
X2478175Y-11680655D01*
X2471824Y-11689448D01*
X2458391Y-11703369D01*
X2434455Y-11728771D01*
X2407588Y-11755637D01*
X2387561Y-11775177D01*
X2377058Y-11781039D01*
X2367044Y-11787145D01*
X2347993Y-11798380D01*
X2331385Y-11805951D01*
X2306960Y-11813523D01*
X2285467Y-11819873D01*
X2267149Y-11819873D01*
X2247121Y-11819873D01*
X2234665Y-11817187D01*
X2222697Y-11814256D01*
X2215614Y-11810348D01*
X2211217Y-11807905D01*
X2205355Y-11804730D01*
X2195830Y-11796426D01*
X2184839Y-11784214D01*
X2173604Y-11772979D01*
X2165300Y-11764919D01*
X2154064Y-11751241D01*
X2146004Y-11736586D01*
X2144050Y-11731457D01*
X2139410Y-11719245D01*
X2134281Y-11704102D01*
X2132083Y-11690913D01*
X2128419Y-11675526D01*
X2128175Y-11660871D01*
X2121336Y-11656719D01*
X2120603Y-11651590D01*
X2095690Y-11647926D01*
X2067602Y-11644263D01*
X2052948Y-11641576D01*
X2030966Y-11640111D01*
X2006786Y-11638401D01*
X1986758Y-11633272D01*
X1973569Y-11609092D01*
X2101465Y-11611908D01*
X2093492Y-11601276D01*
X2097400Y-11590285D01*
X2099110Y-11582958D01*
X2112299Y-11578561D01*
X2116207Y-11576363D01*
X2120115Y-11566349D01*
X2126221Y-11545589D01*
X2132815Y-11524339D01*
X2138433Y-11508464D01*
X2148755Y-11491611D01*
X2262020Y-11491611D01*
X2262020Y-11543879D01*
X2262020Y-11599078D01*
X2268126Y-11617152D01*
X2276186Y-11643530D01*
X2280338Y-11650857D01*
X2293283Y-11662092D01*
X2296702Y-11670885D01*
X2304762Y-11674793D01*
X2307693Y-11678212D01*
X2313066Y-11679922D01*
X2316974Y-11685540D01*
X2332117Y-11683097D01*
X2351901Y-11683097D01*
X2357274Y-11680411D01*
X2366800Y-11674549D01*
X2371929Y-11671862D01*
X2376325Y-11660627D01*
X2385851Y-11648415D01*
X2394155Y-11638645D01*
X2404413Y-11615930D01*
X2413450Y-11598589D01*
X2413450Y-11588575D01*
X2417114Y-11585889D01*
X2397575Y-11586621D01*
X2375104Y-11580760D01*
X2366800Y-11576852D01*
X2361427Y-11559755D01*
X2374371Y-11557556D01*
X2381943Y-11555358D01*
X2403681Y-11548031D01*
X2421510Y-11550473D01*
X2400261Y-11535330D01*
X2418579Y-11528247D01*
X2431036Y-11525805D01*
X2433478Y-11514814D01*
X2436165Y-11504067D01*
X2437630Y-11497228D01*
X2437630Y-11467919D01*
X2437630Y-11436656D01*
X2435921Y-11432260D01*
X2434944Y-11429085D01*
X2407100Y-11429085D01*
X2377302Y-11429085D01*
X2358984Y-11432504D01*
X2341399Y-11437389D01*
X2315265Y-11444961D01*
X2297435Y-11454486D01*
X2282048Y-11464011D01*
X2269347Y-11479399D01*
X2263974Y-11486726D01*
X2262020Y-11491611D01*
X2148755Y-11491611D01*
X2150401Y-11488924D01*
X2164811Y-11466454D01*
X2169207Y-11455219D01*
X2175558Y-11444228D01*
X2189480Y-11426887D01*
X2208775Y-11405393D01*
X2228314Y-11384633D01*
X2241259Y-11377549D01*
X2233688Y-11377794D01*
X2218789Y-11373397D01*
X2193387Y-11366559D01*
X2167254Y-11359231D01*
X2151378Y-11353369D01*
X2139410Y-11350439D01*
X2118161Y-11344088D01*
X2096179Y-11337005D01*
X2080303Y-11330166D01*
X2060275Y-11322839D01*
X2040491Y-11313802D01*
X2031210Y-11305986D01*
X2031210Y-11291088D01*
X2031210Y-11278631D01*
X2034385Y-11263488D01*
X2038782Y-11254207D01*
X2049284Y-11240773D01*
X2066381Y-11223921D01*
X2083478Y-11207801D01*
X2096423Y-11196810D01*
X2107414Y-11192413D01*
X2119382Y-11186796D01*
X2135258Y-11186796D01*
X2148447Y-11186796D01*
X2169696Y-11195100D01*
G37*
G36*
X2093736Y-10886866D02*
G01*
X2098866Y-10895903D01*
X2090561Y-10891506D01*
X2072487Y-10893460D01*
X2053925Y-10895658D01*
X2039026Y-10896147D01*
X2029501Y-10899566D01*
X2016556Y-10902253D01*
X1995062Y-10906161D01*
X1995062Y-10926189D01*
X2013381Y-10930341D01*
X2022906Y-10934004D01*
X2031699Y-10938645D01*
X2048307Y-10940111D01*
X2070778Y-10941576D01*
X2094225Y-10943041D01*
X2107658Y-10944263D01*
X2111078Y-10946949D01*
X2119870Y-10965268D01*
X2126465Y-10980899D01*
X2136967Y-11008010D01*
X2149180Y-11031457D01*
X2154797Y-11039029D01*
X2163590Y-11051974D01*
X2172871Y-11066384D01*
X2180198Y-11076642D01*
X2192655Y-11093984D01*
X2205844Y-11109127D01*
X2215369Y-11118652D01*
X2230757Y-11134772D01*
X2246144Y-11150648D01*
X2256402Y-11162616D01*
X2275942Y-11176293D01*
X2294993Y-11190948D01*
X2308914Y-11202427D01*
X2322592Y-11210487D01*
X2336758Y-11217326D01*
X2359961Y-11228561D01*
X2382920Y-11240773D01*
X2396842Y-11247368D01*
X2406856Y-11251276D01*
X2419068Y-11256894D01*
X2430547Y-11257626D01*
X2443492Y-11259336D01*
X2460345Y-11261046D01*
X2491364Y-11261046D01*
X2523848Y-11261046D01*
X2539480Y-11258359D01*
X2555355Y-11255428D01*
X2578314Y-11242483D01*
X2601029Y-11230271D01*
X2612508Y-11223921D01*
X2623988Y-11217570D01*
X2648900Y-11192902D01*
X2671859Y-11167745D01*
X2678942Y-11155288D01*
X2685537Y-11144298D01*
X2692376Y-11134284D01*
X2700680Y-11119629D01*
X2707519Y-11105951D01*
X2710694Y-11097159D01*
X2715334Y-11080550D01*
X2718998Y-11064186D01*
X2718998Y-11026328D01*
X2718998Y-10988471D01*
X2715334Y-10973328D01*
X2710205Y-10955254D01*
X2706786Y-10946217D01*
X2702634Y-10933027D01*
X2699214Y-10920815D01*
X2697993Y-10912511D01*
X2688712Y-10895658D01*
X2679675Y-10879783D01*
X2663799Y-10857801D01*
X2647191Y-10834842D01*
X2632292Y-10817012D01*
X2609822Y-10790145D01*
X2604204Y-10784528D01*
X2585153Y-10768896D01*
X2566591Y-10759127D01*
X2562683Y-10757661D01*
X2555355Y-10753021D01*
X2543143Y-10745205D01*
X2528000Y-10745205D01*
X2515055Y-10745205D01*
X2497226Y-10751555D01*
X2481106Y-10759371D01*
X2471092Y-10766698D01*
X2458391Y-10778422D01*
X2446667Y-10790145D01*
X2440561Y-10796496D01*
X2431036Y-10810662D01*
X2421999Y-10827026D01*
X2421999Y-10837529D01*
X2421999Y-10844612D01*
X2425174Y-10860732D01*
X2430059Y-10871234D01*
X2439340Y-10883690D01*
X2450087Y-10889064D01*
X2468161Y-10892972D01*
X2483304Y-10887110D01*
X2486967Y-10896880D01*
X2501622Y-10910557D01*
X2515055Y-10923746D01*
X2523360Y-10934981D01*
X2538503Y-10954277D01*
X2556332Y-10979189D01*
X2564881Y-10994088D01*
X2572208Y-11007522D01*
X2572208Y-11008254D01*
X2575872Y-11008254D01*
X2552669Y-11007522D01*
X2524337Y-11010208D01*
X2521406Y-11016559D01*
X2517254Y-11024863D01*
X2519452Y-11018512D01*
X2513101Y-11028282D01*
X2522138Y-11041227D01*
X2522138Y-11034877D01*
X2524825Y-11044646D01*
X2538014Y-11050997D01*
X2549494Y-11052462D01*
X2565858Y-11054416D01*
X2581978Y-11056614D01*
X2590282Y-11054172D01*
X2590282Y-11073467D01*
X2593946Y-11096426D01*
X2593946Y-11100578D01*
X2593946Y-11102044D01*
X2590282Y-11114988D01*
X2587107Y-11126712D01*
X2559752Y-11126468D01*
X2523848Y-11126468D01*
X2509438Y-11123048D01*
X2494050Y-11118408D01*
X2421022Y-11082016D01*
X2410764Y-11073956D01*
X2399284Y-11065407D01*
X2379256Y-11046845D01*
X2351413Y-11019001D01*
X2323813Y-10991646D01*
X2304762Y-10978945D01*
X2304030Y-10969664D01*
X2293283Y-10955986D01*
X2283269Y-10942553D01*
X2277407Y-10933516D01*
X2266172Y-10911778D01*
X2256891Y-10891506D01*
X2253471Y-10877829D01*
X2250052Y-10867326D01*
X2248831Y-10861220D01*
X2248831Y-10862441D01*
X2253715Y-10864639D01*
X2262508Y-10870257D01*
X2278872Y-10870257D01*
X2293771Y-10870257D01*
X2306472Y-10866838D01*
X2318684Y-10863418D01*
X2328698Y-10852672D01*
X2341643Y-10839238D01*
X2355565Y-10825561D01*
X2365823Y-10813104D01*
X2369242Y-10805777D01*
X2375104Y-10797717D01*
X2375104Y-10782085D01*
X2375104Y-10766210D01*
X2370708Y-10757661D01*
X2364846Y-10752044D01*
X2351413Y-10745693D01*
X2333583Y-10736900D01*
X2315020Y-10728108D01*
X2303053Y-10722979D01*
X2292306Y-10717850D01*
X2278628Y-10713942D01*
X2249808Y-10713942D01*
X2225139Y-10713942D01*
X2212927Y-10717605D01*
X2202180Y-10722002D01*
X2195830Y-10723956D01*
X2191434Y-10726642D01*
X2181175Y-10730794D01*
X2167742Y-10741541D01*
X2147958Y-10753997D01*
X2146004Y-10759615D01*
X2146493Y-10765233D01*
X2129396Y-10776712D01*
X2121824Y-10792588D01*
X2116207Y-10798205D01*
X2110101Y-10806510D01*
X2103995Y-10825072D01*
X2097400Y-10838994D01*
X2071022Y-10838994D01*
X2022906Y-10838994D01*
X1974057Y-10841436D01*
X1942794Y-10845344D01*
X1927163Y-10848031D01*
X1906158Y-10855114D01*
X1894434Y-10868547D01*
X1916905Y-10886866D01*
X2093736Y-10886866D01*
G37*
G36*
X2672348Y-10138750D02*
G01*
X2687491Y-10148764D01*
X2703855Y-10163907D01*
X2716800Y-10180027D01*
X2727302Y-10189552D01*
X2736584Y-10204940D01*
X2742690Y-10218617D01*
X2751727Y-10237668D01*
X2760031Y-10256231D01*
X2765893Y-10267954D01*
X2773953Y-10291157D01*
X2780547Y-10314849D01*
X2784211Y-10331457D01*
X2791538Y-10350997D01*
X2794225Y-10380550D01*
X2797156Y-10400334D01*
X2797156Y-10442344D01*
X2797156Y-10482888D01*
X2794225Y-10497298D01*
X2791538Y-10516838D01*
X2783722Y-10528806D01*
X2780303Y-10538820D01*
X2769801Y-10562267D01*
X2758077Y-10587424D01*
X2741713Y-10609406D01*
X2730233Y-10628457D01*
X2716311Y-10639203D01*
X2708007Y-10652392D01*
X2694085Y-10666803D01*
X2679675Y-10675351D01*
X2664532Y-10686586D01*
X2653785Y-10695379D01*
X2641573Y-10703683D01*
X2629361Y-10709057D01*
X2615439Y-10715407D01*
X2602494Y-10718827D01*
X2601762Y-10724444D01*
X2572941Y-10734458D01*
X2545830Y-10742518D01*
X2525558Y-10745205D01*
X2506751Y-10748136D01*
X2468161Y-10748136D01*
X2429570Y-10748136D01*
X2406856Y-10745205D01*
X2383897Y-10742518D01*
X2357274Y-10734458D01*
X2332850Y-10725421D01*
X2326256Y-10721025D01*
X2312822Y-10715407D01*
X2298168Y-10708813D01*
X2287909Y-10702951D01*
X2276186Y-10695379D01*
X2264706Y-10687563D01*
X2247365Y-10675107D01*
X2230268Y-10666559D01*
X2216591Y-10646775D01*
X2197295Y-10631143D01*
X2190701Y-10615756D01*
X2178244Y-10601346D01*
X2169696Y-10590111D01*
X2161147Y-10580829D01*
X2151378Y-10561046D01*
X2146249Y-10546880D01*
X2143073Y-10538087D01*
X2137944Y-10523921D01*
X2132571Y-10509755D01*
X2130373Y-10499985D01*
X2126953Y-10487529D01*
X2122069Y-10468478D01*
X2117184Y-10449915D01*
X2117916Y-10440634D01*
X2026325Y-10443321D01*
X2012648Y-10420118D01*
X2027849Y-10412242D01*
X2022662Y-10412058D01*
X1981629Y-10410104D01*
X1954762Y-10408150D01*
X1933025Y-10404974D01*
X1890282Y-10383970D01*
X1922034Y-10382504D01*
X1929361Y-10380794D01*
X1949145Y-10373223D01*
X1967951Y-10371025D01*
X1998237Y-10367361D01*
X2045376Y-10365163D01*
X2091538Y-10364430D01*
X2118649Y-10368582D01*
X2117428Y-10361255D01*
X2120847Y-10353439D01*
X2131106Y-10336098D01*
X2137700Y-10317047D01*
X2145760Y-10300927D01*
X2153332Y-10285784D01*
X2162857Y-10271618D01*
X2173848Y-10263802D01*
X2181664Y-10252323D01*
X2198272Y-10236203D01*
X2214392Y-10220327D01*
X2227581Y-10214221D01*
X2233932Y-10202986D01*
X2248831Y-10194681D01*
X2258845Y-10188087D01*
X2273988Y-10180027D01*
X2288398Y-10173432D01*
X2297435Y-10170257D01*
X2314776Y-10167326D01*
X2334804Y-10161953D01*
X2363869Y-10161953D01*
X2391468Y-10161953D01*
X2413695Y-10166838D01*
X2430303Y-10172211D01*
X2441294Y-10177584D01*
X2453262Y-10189797D01*
X2453262Y-10199810D01*
X2453262Y-10206894D01*
X2443492Y-10225456D01*
X2433722Y-10240599D01*
X2393667Y-10276747D01*
X2386828Y-10279189D01*
X2378279Y-10281876D01*
X2379256Y-10281876D01*
X2371685Y-10285051D01*
X2362892Y-10287982D01*
X2352145Y-10290913D01*
X2262508Y-10290913D01*
X2258356Y-10295065D01*
X2254448Y-10309476D01*
X2250052Y-10325107D01*
X2250052Y-10347822D01*
X2250052Y-10366384D01*
X2254937Y-10388854D01*
X2260310Y-10414988D01*
X2263974Y-10425979D01*
X2267637Y-10436726D01*
X2277163Y-10456998D01*
X2288154Y-10478247D01*
X2294993Y-10491192D01*
X2302808Y-10497054D01*
X2316486Y-10512930D01*
X2335048Y-10531492D01*
X2354099Y-10550055D01*
X2363136Y-10562267D01*
X2375104Y-10566907D01*
X2390491Y-10576433D01*
X2412718Y-10587668D01*
X2434211Y-10597926D01*
X2445446Y-10601346D01*
X2453506Y-10609650D01*
X2448621Y-10601346D01*
X2448621Y-10588889D01*
X2444469Y-10571548D01*
X2440561Y-10537354D01*
X2439096Y-10502672D01*
X2437630Y-10481911D01*
X2437630Y-10443809D01*
X2437630Y-10405707D01*
X2439096Y-10391785D01*
X2440561Y-10368338D01*
X2442027Y-10344402D01*
X2443492Y-10329259D01*
X2446667Y-10314605D01*
X2452285Y-10299217D01*
X2453976Y-10291890D01*
X2574651Y-10291890D01*
X2574651Y-10363942D01*
X2574651Y-10465791D01*
X2578314Y-10494856D01*
X2585642Y-10526363D01*
X2589794Y-10536377D01*
X2593946Y-10549322D01*
X2593946Y-10565198D01*
X2593946Y-10586935D01*
X2594678Y-10607696D01*
X2590526Y-10617710D01*
X2591259Y-10616000D01*
X2599808Y-10608673D01*
X2610554Y-10605742D01*
X2625453Y-10597194D01*
X2641085Y-10594018D01*
X2645725Y-10586203D01*
X2643039Y-10586935D01*
X2644993Y-10585226D01*
X2652564Y-10569838D01*
X2661601Y-10555428D01*
X2661601Y-10499985D01*
X2661601Y-10443565D01*
X2657693Y-10428666D01*
X2650366Y-10407417D01*
X2648656Y-10398380D01*
X2644016Y-10385191D01*
X2638886Y-10370292D01*
X2636444Y-10361255D01*
X2631559Y-10348799D01*
X2622766Y-10330480D01*
X2614218Y-10314360D01*
X2609333Y-10307033D01*
X2590282Y-10286028D01*
X2579535Y-10269908D01*
X2574651Y-10291890D01*
X2453976Y-10291890D01*
X2455216Y-10286517D01*
X2458147Y-10274305D01*
X2463764Y-10261115D01*
X2471336Y-10246461D01*
X2479884Y-10231806D01*
X2489166Y-10229852D01*
X2493806Y-10213244D01*
X2505774Y-10194681D01*
X2519940Y-10182469D01*
X2532641Y-10171234D01*
X2549005Y-10159022D01*
X2563171Y-10149741D01*
X2572452Y-10143635D01*
X2581978Y-10141681D01*
X2586618Y-10138017D01*
X2595655Y-10133865D01*
X2606646Y-10130690D01*
X2633025Y-10130690D01*
X2654030Y-10130690D01*
X2672348Y-10138750D01*
G37*
%LPC*%
D11*
%TO.C,H1*%
X2540000Y-5425000D03*
%TD*%
%TO.C,H2*%
X2540000Y-39075000D03*
%TD*%
%LPD*%
M02*
