%TF.GenerationSoftware,KiCad,Pcbnew,8.0.6*%
%TF.CreationDate,2024-11-05T14:35:55+11:00*%
%TF.ProjectId,Blank_3U8HP,426c616e-6b5f-4335-9538-48502e6b6963,rev?*%
%TF.SameCoordinates,Original*%
%TF.FileFunction,Drillmap*%
%TF.FilePolarity,Positive*%
%FSLAX45Y45*%
G04 Gerber Fmt 4.5, Leading zero omitted, Abs format (unit mm)*
G04 Created by KiCad (PCBNEW 8.0.6) date 2024-11-05 14:35:55*
%MOMM*%
%LPD*%
G01*
G04 APERTURE LIST*
%ADD10C,0.150000*%
%ADD11C,0.200000*%
G04 APERTURE END LIST*
D10*
X0Y-242500D02*
X4030000Y-242500D01*
X4030000Y-13092500D01*
X0Y-13092500D01*
X0Y-242500D01*
D11*
X253277Y-13411484D02*
X253277Y-13211484D01*
X253277Y-13211484D02*
X300896Y-13211484D01*
X300896Y-13211484D02*
X329467Y-13221008D01*
X329467Y-13221008D02*
X348515Y-13240055D01*
X348515Y-13240055D02*
X358039Y-13259103D01*
X358039Y-13259103D02*
X367562Y-13297198D01*
X367562Y-13297198D02*
X367562Y-13325769D01*
X367562Y-13325769D02*
X358039Y-13363865D01*
X358039Y-13363865D02*
X348515Y-13382912D01*
X348515Y-13382912D02*
X329467Y-13401960D01*
X329467Y-13401960D02*
X300896Y-13411484D01*
X300896Y-13411484D02*
X253277Y-13411484D01*
X453277Y-13411484D02*
X453277Y-13278150D01*
X453277Y-13316246D02*
X462801Y-13297198D01*
X462801Y-13297198D02*
X472324Y-13287674D01*
X472324Y-13287674D02*
X491372Y-13278150D01*
X491372Y-13278150D02*
X510420Y-13278150D01*
X577086Y-13411484D02*
X577086Y-13278150D01*
X577086Y-13211484D02*
X567563Y-13221008D01*
X567563Y-13221008D02*
X577086Y-13230531D01*
X577086Y-13230531D02*
X586610Y-13221008D01*
X586610Y-13221008D02*
X577086Y-13211484D01*
X577086Y-13211484D02*
X577086Y-13230531D01*
X700896Y-13411484D02*
X681848Y-13401960D01*
X681848Y-13401960D02*
X672324Y-13382912D01*
X672324Y-13382912D02*
X672324Y-13211484D01*
X805658Y-13411484D02*
X786610Y-13401960D01*
X786610Y-13401960D02*
X777086Y-13382912D01*
X777086Y-13382912D02*
X777086Y-13211484D01*
X1034229Y-13411484D02*
X1034229Y-13211484D01*
X1034229Y-13211484D02*
X1100896Y-13354341D01*
X1100896Y-13354341D02*
X1167563Y-13211484D01*
X1167563Y-13211484D02*
X1167563Y-13411484D01*
X1348515Y-13411484D02*
X1348515Y-13306722D01*
X1348515Y-13306722D02*
X1338991Y-13287674D01*
X1338991Y-13287674D02*
X1319944Y-13278150D01*
X1319944Y-13278150D02*
X1281848Y-13278150D01*
X1281848Y-13278150D02*
X1262801Y-13287674D01*
X1348515Y-13401960D02*
X1329467Y-13411484D01*
X1329467Y-13411484D02*
X1281848Y-13411484D01*
X1281848Y-13411484D02*
X1262801Y-13401960D01*
X1262801Y-13401960D02*
X1253277Y-13382912D01*
X1253277Y-13382912D02*
X1253277Y-13363865D01*
X1253277Y-13363865D02*
X1262801Y-13344817D01*
X1262801Y-13344817D02*
X1281848Y-13335293D01*
X1281848Y-13335293D02*
X1329467Y-13335293D01*
X1329467Y-13335293D02*
X1348515Y-13325769D01*
X1443753Y-13278150D02*
X1443753Y-13478150D01*
X1443753Y-13287674D02*
X1462801Y-13278150D01*
X1462801Y-13278150D02*
X1500896Y-13278150D01*
X1500896Y-13278150D02*
X1519943Y-13287674D01*
X1519943Y-13287674D02*
X1529467Y-13297198D01*
X1529467Y-13297198D02*
X1538991Y-13316246D01*
X1538991Y-13316246D02*
X1538991Y-13373388D01*
X1538991Y-13373388D02*
X1529467Y-13392436D01*
X1529467Y-13392436D02*
X1519943Y-13401960D01*
X1519943Y-13401960D02*
X1500896Y-13411484D01*
X1500896Y-13411484D02*
X1462801Y-13411484D01*
X1462801Y-13411484D02*
X1443753Y-13401960D01*
X1624705Y-13392436D02*
X1634229Y-13401960D01*
X1634229Y-13401960D02*
X1624705Y-13411484D01*
X1624705Y-13411484D02*
X1615182Y-13401960D01*
X1615182Y-13401960D02*
X1624705Y-13392436D01*
X1624705Y-13392436D02*
X1624705Y-13411484D01*
X1624705Y-13287674D02*
X1634229Y-13297198D01*
X1634229Y-13297198D02*
X1624705Y-13306722D01*
X1624705Y-13306722D02*
X1615182Y-13297198D01*
X1615182Y-13297198D02*
X1624705Y-13287674D01*
X1624705Y-13287674D02*
X1624705Y-13306722D01*
M02*
